<svg width="99" height="46" viewBox="0 0 99 46" fill="none" xmlns="http://www.w3.org/2000/svg">
<g id="Group">
<path id="Vector" d="M51.1252 22.9959V23H59.2478V22.9959C59.2478 10.2937 48.9417 0 36.2171 0C27.9003 0 20.6425 4.4069 16.5925 10.9877V0H8.46172L0.333008 8.11368H8.46172V45.9959H16.5925V35.0001C14.4417 31.5036 13.1762 27.4008 13.1762 22.9959C13.1762 18.2114 14.9651 13.8555 17.8968 10.5182C17.9684 10.4386 18.044 10.359 18.1176 10.2794C18.5265 9.82623 18.9559 9.39963 19.4036 8.99343C19.4976 8.91179 19.5855 8.82606 19.6796 8.74441C20.1743 8.31372 20.6875 7.90549 21.2231 7.52787C21.2681 7.49521 21.307 7.46459 21.3499 7.43193C21.9489 7.01553 22.5745 6.63383 23.2247 6.28275C23.2492 6.27254 23.2778 6.25825 23.3023 6.24397C23.8871 5.94187 24.4922 5.66631 25.1096 5.41933C25.2957 5.34381 25.4838 5.27645 25.6698 5.20909C26.1441 5.03763 26.6246 4.88454 27.1173 4.74982C27.3463 4.68859 27.5732 4.62939 27.8063 4.57428C28.2969 4.45998 28.7978 4.36812 29.3007 4.2926C29.5175 4.25586 29.7321 4.21708 29.9509 4.1885C30.6726 4.11093 31.4004 4.05786 32.1446 4.05786C33.2486 4.05786 34.3239 4.164 35.3748 4.34567C35.5118 4.37016 35.6528 4.37833 35.7878 4.40282C35.9677 4.4416 36.1435 4.49468 36.3234 4.53142C37.8935 4.88454 39.3962 5.41933 40.7905 6.1317C40.7967 6.13578 40.8007 6.13578 40.8069 6.13987C41.32 6.40318 41.8189 6.68894 42.3034 6.9992C42.3463 7.0237 42.3831 7.05635 42.4261 7.08493C42.8677 7.3707 43.3031 7.67279 43.7202 7.99326C43.7591 8.02183 43.7918 8.05449 43.8286 8.08307C44.2477 8.4117 44.6525 8.75053 45.045 9.11386C45.0798 9.14244 45.1084 9.17918 45.1411 9.20572C45.5275 9.57313 45.9037 9.94666 46.2574 10.3386C46.2983 10.3896 46.333 10.4345 46.3719 10.4815C46.7153 10.8713 47.0424 11.2612 47.3532 11.6796C47.4861 11.8572 47.6006 12.0511 47.7273 12.2287C47.9297 12.5206 48.1403 12.8064 48.3263 13.1125C48.5165 13.4228 48.6821 13.7535 48.8579 14.078C48.956 14.2638 49.0685 14.4454 49.1625 14.6373C49.3404 14.9965 49.4937 15.3721 49.6471 15.7457C49.7186 15.9089 49.8004 16.0702 49.8658 16.2417C50.0662 16.7724 50.244 17.3112 50.3994 17.8664C50.4055 17.8807 50.4117 17.8991 50.4158 17.9154C50.7327 19.0605 50.9473 20.2485 51.0475 21.4671C51.0986 21.9753 51.1252 22.4815 51.1252 22.9959Z" fill="#666464"/>
<path id="Vector_2" d="M88.9824 29.7583V0H87.631L51.0396 36.5248H80.8619V46H88.9824V36.5248H98.4666V29.7583H88.9824ZM80.8619 29.7583H67.3031L80.8619 16.2417V29.7583Z" fill="#666464"/>
<path id="Vector_3" d="M51.0393 36.5245L58.3748 29.1987C58.9308 27.2229 59.2477 25.1511 59.2477 22.9976H51.1252C51.1252 31.2093 44.4541 37.8799 36.2171 37.8799C27.9759 37.8799 21.3131 31.2093 21.3131 22.9976C21.3131 14.7798 27.9759 8.11335 36.2171 8.11335C43.9328 8.11335 50.2767 13.9675 51.0475 21.4647C50.2665 11.7283 42.1153 4.05957 32.1486 4.05957C21.6627 4.05957 13.1782 12.5407 13.1782 22.9976C13.1782 35.6938 23.4884 45.9997 36.2171 45.9997C43.8715 45.9997 50.6284 42.2561 54.8174 36.5245H51.0393Z" fill="#EE7800"/>
</g>
</svg>
