<svg width="166" height="42" viewBox="0 0 166 42" fill="none" xmlns="http://www.w3.org/2000/svg">
<g id="Group 539">
<g id="Group">
<g id="Group_2">
<path id="Vector" d="M29.2981 37.3988C38.0564 37.3988 45.1563 30.2842 45.1563 21.508C45.1563 12.7317 38.0564 5.61719 29.2981 5.61719C20.5399 5.61719 13.4399 12.7317 13.4399 21.508C13.4399 30.2842 20.5399 37.3988 29.2981 37.3988Z" fill="white"/>
<g id="Group_3">
<g id="Group_4">
<g id="Group_5">
<g id="Group_6">
<path id="Vector_2" d="M73.0289 0.240234L79.8432 15.1146H78.6468L76.3161 10.0078H69.1073L66.7838 15.1146H65.5889L72.4032 0.240234H73.0289ZM75.8812 9.05654L72.7052 2.1008L69.5408 9.05654H75.8812Z" fill="#727171"/>
<path id="Vector_3" d="M86.55 15.1144H85.5168V0.345703H86.55V15.1144ZM93.4178 5.38877L88.1105 10.0047L94.2414 15.1144H92.8239L86.6974 10.0076L92.0581 5.38877H93.4178Z" fill="#727171"/>
<path id="Vector_4" d="M106.875 13.4233V14.2906C105.982 14.9668 105.328 15.3056 104.913 15.3056C104.673 15.3056 104.508 15.2259 104.417 15.0667C104.325 14.9089 104.258 14.586 104.217 14.0995C103.196 14.9031 102.184 15.3056 101.178 15.3056C100.445 15.3056 99.8268 15.0652 99.3211 14.586C98.8154 14.1067 98.5625 13.5247 98.5625 12.8412C98.5625 11.7843 99.0509 10.9503 100.029 10.3407C101.006 9.73114 102.403 9.38074 104.218 9.28808V8.05156C104.218 6.72673 103.501 6.06359 102.065 6.06359C101.15 6.06359 100.162 6.47624 99.1 7.3001V6.23154C100.197 5.54089 101.241 5.19629 102.234 5.19629C103.113 5.19629 103.838 5.41348 104.407 5.8464C104.977 6.27932 105.261 6.90916 105.261 7.73302V13.7925C105.261 14.1241 105.338 14.2891 105.492 14.2891C105.689 14.2891 106.15 14.001 106.875 13.4233ZM104.217 13.1902V10.1568C102.887 10.1076 101.785 10.3422 100.909 10.8605C100.033 11.3774 99.5956 12.0391 99.5956 12.8427C99.5956 13.293 99.7791 13.6738 100.145 13.9836C100.51 14.2935 100.968 14.4484 101.516 14.4484C102.402 14.4484 103.3 14.0285 104.217 13.1902Z" fill="#727171"/>
<path id="Vector_5" d="M114.563 2.16504V5.38953H117.284V6.23511H114.563V12.018C114.563 12.9491 114.638 13.5601 114.79 13.8525C114.94 14.145 115.347 14.2913 116.008 14.2913C116.513 14.2913 117.106 14.1334 117.781 13.8149V14.8082C117.099 15.1397 116.43 15.3048 115.776 15.3048C115.136 15.3048 114.602 15.1209 114.173 14.7546C113.743 14.3868 113.528 13.8801 113.528 13.2328V6.23511H110.911V5.38953H113.528V3.07432L114.236 2.16504H114.563Z" fill="#727171"/>
<path id="Vector_6" d="M128.841 6.02355V7.14423C127.857 6.48254 126.97 6.15097 126.182 6.15097C125.599 6.15097 125.106 6.30879 124.704 6.62588C124.304 6.94152 124.103 7.33246 124.103 7.79579C124.103 8.12591 124.224 8.42997 124.469 8.70797C124.713 8.98597 125.385 9.33781 126.484 9.76349C127.584 10.1892 128.302 10.6308 128.64 11.0883C128.978 11.5459 129.146 12.057 129.146 12.6217C129.146 13.376 128.84 14.0117 128.228 14.53C127.616 15.0469 126.86 15.3075 125.96 15.3075C124.982 15.3075 124.012 15.0107 123.048 14.42V13.4021C124.194 13.9943 125.211 14.2897 126.097 14.2897C126.695 14.2897 127.185 14.1318 127.568 13.8147C127.951 13.4976 128.143 13.0922 128.143 12.5999C128.143 12.2626 128.017 11.9498 127.769 11.6646C127.519 11.3794 126.843 11.0188 125.743 10.5801C124.642 10.1428 123.928 9.71137 123.602 9.28424C123.275 8.85711 123.112 8.38364 123.112 7.86239C123.112 7.12251 123.417 6.49267 124.025 5.97577C124.633 5.45742 125.373 5.19824 126.246 5.19824C127.041 5.19824 127.906 5.47334 128.841 6.02355Z" fill="#727171"/>
<path id="Vector_7" d="M142.321 15.1143V13.5071H142.279C141.828 14.1558 141.366 14.6176 140.891 14.8927C140.417 15.1678 139.813 15.3054 139.082 15.3054C138.04 15.3054 137.179 14.9666 136.497 14.2904C135.815 13.6142 135.474 12.6557 135.474 11.4149V5.38867H136.507V11.3931C136.507 12.2952 136.752 13.0047 137.245 13.5187C137.736 14.0327 138.377 14.2904 139.165 14.2904C139.84 14.2904 140.417 14.1355 140.891 13.8256C141.366 13.5158 141.841 12.9801 142.321 12.2185V5.38867H143.356V15.1143H142.321Z" fill="#727171"/>
<path id="Vector_8" d="M151.357 15.1144H150.324V0.345703H151.357V15.1144ZM158.225 5.38877L152.918 10.0032L159.049 15.1129H157.63L151.505 10.0061L156.867 5.38732H158.225V5.38877Z" fill="#727171"/>
<path id="Vector_9" d="M165.142 2.12084H164.097V0.345703H165.142V2.12084ZM165.142 15.1144H164.097V5.38877H165.142V15.1144Z" fill="#727171"/>
</g>
</g>
</g>
</g>
<g id="Group_7">
<path id="Vector_10" d="M21.3562 32.4609L17.4303 37.8747C20.7652 40.3072 24.8573 41.7594 29.2976 41.7594V35.0672C26.3282 35.0657 23.5886 34.0913 21.3562 32.4609Z" fill="#92308D"/>
<path id="Vector_11" d="M16.4346 25.6963L10.0812 27.7653C11.412 31.8716 14.0201 35.3886 17.4301 37.8761L21.356 32.4624C19.073 30.7958 17.3261 28.4415 16.4346 25.6963Z" fill="#0086CD"/>
<path id="Vector_12" d="M15.766 21.5088C15.766 20.0464 16.0044 18.6405 16.4336 17.32L10.0816 15.251C9.44298 17.223 9.08752 19.3225 9.08752 21.5088C9.08752 23.6937 9.44298 25.7932 10.0816 27.7652L16.435 25.6976C16.0059 24.3757 15.766 22.9698 15.766 21.5088Z" fill="#00A9E4"/>
<path id="Vector_13" d="M29.2976 7.94809V1.25586C24.8573 1.25586 20.7652 2.70811 17.4303 5.13915L21.3547 10.5529C23.5886 8.92253 26.3282 7.94809 29.2976 7.94809Z" fill="#45B035"/>
<path id="Vector_14" d="M21.3546 10.5529L17.4301 5.14062C14.0201 7.62813 11.412 11.1451 10.0812 15.2514L16.4346 17.3204C17.3261 14.5737 19.073 12.2194 21.3546 10.5529Z" fill="#009D85"/>
</g>
<path id="Vector_15" d="M36.6117 21.2579C36.5236 17.2805 33.2869 14.082 29.2974 14.082C25.253 14.082 21.9745 17.3673 21.9745 21.42C21.9745 25.4727 25.253 28.7595 29.2974 28.7609C31.29 28.7609 33.0933 27.9602 34.414 26.6672V28.9318H36.6204V21.2593H36.6117V21.2579ZM29.2989 26.5514C26.4711 26.5514 24.1809 24.2536 24.1809 21.4215C24.1809 18.5879 26.4711 16.293 29.2989 16.293C32.1021 16.293 34.3764 18.5503 34.4154 21.3505V21.4924C34.3764 24.2927 32.1021 26.5514 29.2989 26.5514Z" fill="#E61478"/>
<path id="Vector_16" d="M29.298 35.0667V41.7589C33.7383 41.7589 37.8303 40.3067 41.1652 37.8756L37.2394 32.4619C35.0069 34.0923 32.2673 35.0667 29.298 35.0667Z" fill="#D95097"/>
<path id="Vector_17" d="M48.5145 15.251L42.1611 17.3186C42.5903 18.6391 42.8287 20.045 42.8287 21.5074C42.8287 22.9698 42.5903 24.3757 42.1611 25.6947L48.5145 27.7638C49.1532 25.7917 49.5086 23.6923 49.5086 21.5074C49.5086 19.3225 49.1546 17.223 48.5145 15.251Z" fill="#F39800"/>
<path id="Vector_18" d="M37.2408 32.4609L41.1653 37.8761C44.5753 35.3886 47.1835 31.8716 48.5142 27.7654L42.1609 25.6963C41.2693 28.4415 39.5224 30.7958 37.2408 32.4609Z" fill="#E8382F"/>
<path id="Vector_19" d="M37.2408 10.5533L41.1652 5.13962C37.8303 2.70713 33.7383 1.25488 29.298 1.25488V7.94711C32.2673 7.94856 35.0069 8.923 37.2408 10.5533Z" fill="#8FC31F"/>
<path id="Vector_20" d="M42.1623 17.32L48.5157 15.2523C47.1849 11.1461 44.5768 7.62911 41.1667 5.1416L37.2408 10.5553C39.5224 12.2204 41.2693 14.5747 42.1623 17.32Z" fill="#FDD000"/>
</g>
<g id="Group_8">
<path id="Vector_21" d="M78.9685 24.9531V25.9087H73.4185V39.7783H72.264V25.9087H66.7155V24.9531H78.9685Z" fill="#727171"/>
<path id="Vector_22" d="M90.663 38.0802V38.9504C89.7672 39.6295 89.1097 39.9697 88.6936 39.9697C88.4537 39.9697 88.2875 39.8901 88.1951 39.7308C88.1026 39.5716 88.0361 39.2472 87.9942 38.7593C86.9698 39.5658 85.954 39.9683 84.9454 39.9683C84.2099 39.9683 83.59 39.7279 83.0814 39.2472C82.5728 38.7665 82.3199 38.183 82.3199 37.4967C82.3199 36.4354 82.8098 35.5985 83.7909 34.9875C84.772 34.3765 86.1736 34.0232 87.9957 33.932V32.6911C87.9957 31.3605 87.2761 30.6959 85.8355 30.6959C84.9179 30.6959 83.9253 31.11 82.8604 31.9382V30.8667C83.9614 30.1732 85.0104 29.8271 86.0045 29.8271C86.8874 29.8271 87.6142 30.0443 88.1864 30.4802C88.7571 30.9145 89.0432 31.5458 89.0432 32.374V38.4552C89.0432 38.7882 89.1213 38.9533 89.2759 38.9533C89.4738 38.9504 89.9362 38.6594 90.663 38.0802ZM87.9942 37.8471V34.8022C86.6605 34.7529 85.5537 34.9875 84.6737 35.5073C83.7952 36.0271 83.3545 36.6902 83.3545 37.4967C83.3545 37.9499 83.538 38.3322 83.905 38.6435C84.2721 38.9548 84.7315 39.1111 85.2806 39.1111C86.1736 39.1097 87.0767 38.6883 87.9942 37.8471Z" fill="#727171"/>
<path id="Vector_23" d="M97.1478 24.9531V26.7355H96.1002V24.9531H97.1478ZM97.1478 30.015V39.7783H96.1002V30.015H97.1478Z" fill="#727171"/>
<path id="Vector_24" d="M117.824 30.0166L113.612 39.971H113.115L110.118 32.0437L107.094 39.971H106.626L102.456 30.0166H103.479L106.803 37.9757L109.862 30.0166H110.429L113.391 37.9757L116.792 30.0166H117.824Z" fill="#727171"/>
<path id="Vector_25" d="M130.737 38.0802V38.9504C129.841 39.6295 129.183 39.9697 128.767 39.9697C128.527 39.9697 128.361 39.8901 128.269 39.7308C128.176 39.5716 128.11 39.2472 128.068 38.7593C127.043 39.5658 126.028 39.9683 125.019 39.9683C124.284 39.9683 123.664 39.7279 123.155 39.2472C122.647 38.7665 122.394 38.183 122.394 37.4967C122.394 36.4354 122.884 35.5985 123.865 34.9875C124.846 34.3765 126.247 34.0232 128.069 33.932V32.6911C128.069 31.3605 127.35 30.6959 125.909 30.6959C124.992 30.6959 123.999 31.11 122.934 31.9382V30.8667C124.035 30.1732 125.084 29.8271 126.078 29.8271C126.961 29.8271 127.688 30.0443 128.26 30.4802C128.831 30.9145 129.117 31.5458 129.117 32.374V38.4552C129.117 38.7882 129.195 38.9533 129.35 38.9533C129.548 38.9504 130.01 38.6594 130.737 38.0802ZM128.068 37.8471V34.8022C126.734 34.7529 125.627 34.9875 124.747 35.5073C123.869 36.0271 123.428 36.6902 123.428 37.4967C123.428 37.9499 123.612 38.3322 123.979 38.6435C124.346 38.9548 124.805 39.1111 125.354 39.1111C126.247 39.1097 127.15 38.6883 128.068 37.8471Z" fill="#727171"/>
<path id="Vector_26" d="M137.04 30.0149V31.7133H137.084C137.894 30.455 138.965 29.8252 140.293 29.8252C141.394 29.8252 142.272 30.1785 142.93 30.8865C143.586 31.5931 143.914 32.5733 143.914 33.8258V39.7781H142.876V34.2181C142.876 31.9681 141.994 30.8431 140.229 30.8431C138.938 30.8431 137.874 31.5395 137.042 32.9339V39.7781H136.004V30.0149H137.04Z" fill="#727171"/>
</g>
</g>
</g>
</svg>
