<svg width="130" height="129" viewBox="0 0 130 129" fill="none" xmlns="http://www.w3.org/2000/svg">
<path d="M64.6167 129C100.239 129 129.117 100.122 129.117 64.5C129.117 28.8776 100.239 0 64.6167 0C28.9943 0 0.116699 28.8776 0.116699 64.5C0.116699 100.122 28.9943 129 64.6167 129Z" fill="url(#paint0_radial_471_2622)"/>
<path d="M73.5473 48.5515C62.2889 46.3607 51.3264 46.0227 47.2965 45.7012C47.125 48.6379 45.8603 51.4674 43.8239 53.5466C41.8194 55.6152 39.0722 56.9412 36.2158 57.187C36.74 59.483 38.6932 68.8999 42.5867 78.4566C46.1014 87.0836 50.451 96.7515 58.067 108.01C66.159 119.972 72.8436 125.601 76.9207 127.8C87.9721 125.601 101.341 120.676 115.063 104.843C120.34 97.807 124.562 90.0668 126.673 81.9749C123.179 70.7165 109.222 60.6934 101.341 57.1907C91.4904 52.8124 84.8057 50.7423 73.5473 48.5515Z" fill="url(#paint1_radial_471_2622)"/>
<path d="M21.4771 43.6264C18.6626 43.2744 15.1444 43.2743 12.6816 43.626C10.2188 43.9776 6.70051 44.682 2.83051 46.4408C2.12686 48.1999 1.67228 50.2044 1.06554 53.1255C0.477382 55.9572 0.0757053 59.8691 0.0103614 62.9765C-0.124492 69.3895 1.1561 75.9885 1.77504 78.8086C4.09156 89.3633 9.55638 99.6239 17.0298 107.922C17.8833 108.779 18.5703 109.83 19.5903 110.473C18.716 107.343 17.7168 102.381 17.7168 95.9789C17.7168 85.4936 20.1732 78.4399 20.9227 75.4167C22.8845 67.9024 26.051 60.514 27.1064 58.7549C24.1087 57.0182 22.1224 47.0999 21.4771 43.6264Z" fill="url(#paint2_radial_471_2622)"/>
<path d="M60.1392 0.277604C53.7287 0.738591 49.9978 1.43469 44.0172 3.44965L43.9529 3.53539C43.6234 3.86965 43.4431 4.02855 43.2716 4.22147C41.8783 5.74341 40.6304 7.17948 39.5372 8.95864C38.3154 10.9736 37.2435 13.0743 36.6004 15.3465C34.7999 21.0484 34.4569 27.0932 34.5641 33.0309C37.1578 32.988 39.7515 33.824 41.8522 35.346C44.0601 32.8809 46.3323 30.5015 48.6474 28.1436C50.3622 26.4716 51.9913 24.7353 53.7919 23.1919C56.7072 20.684 59.6224 18.1974 62.6663 15.8395L62.7512 15.7732C64.8671 14.1228 67.0054 12.4548 69.2899 11.0165C72.1408 9.2373 74.9275 7.35096 78.0357 6.02194C80.0935 5.0359 82.7702 3.97107 84.9995 3.49949C77.4995 0.999488 73.33 0.278664 67.4995 0C65.8918 0.0428714 63.9995 0 60.1392 0.277604Z" fill="url(#paint3_radial_471_2622)"/>
<path d="M25.2736 29.5615C29.5525 26.3853 35.2115 25.4114 40.018 27.17C43.3445 28.2545 46.2316 30.5218 48.2233 33.5212C51.3605 38.2512 51.9176 44.6937 49.6876 50.1729C48.0923 54.0812 45.1809 57.3718 41.5729 59.315C38.0396 61.2189 33.8915 61.8036 30.1093 60.8872C26.8291 60.1116 23.8387 58.2318 21.6617 55.5915C18.5408 51.8763 17.1935 46.6581 17.9743 41.6546C18.7596 36.8154 21.3568 32.3094 25.2736 29.5615Z" fill="white"/>
<defs>
<radialGradient id="paint0_radial_471_2622" cx="0" cy="0" r="1" gradientUnits="userSpaceOnUse" gradientTransform="translate(38.9751 47) rotate(42.3367) scale(137.345 137.345)">
<stop stop-color="white"/>
<stop offset="0.557292" stop-color="#EAEAEC"/>
<stop offset="1" stop-color="#6A747B"/>
</radialGradient>
<radialGradient id="paint1_radial_471_2622" cx="0" cy="0" r="1" gradientUnits="userSpaceOnUse" gradientTransform="translate(44.5005 54.5) rotate(39.0355) scale(71.451 78.764)">
<stop stop-color="#F4FFFD"/>
<stop offset="0.97996" stop-color="#A8D5CC"/>
</radialGradient>
<radialGradient id="paint2_radial_471_2622" cx="0" cy="0" r="1" gradientUnits="userSpaceOnUse" gradientTransform="translate(24.0005 51.5) rotate(106.26) scale(50 28.3866)">
<stop stop-color="white"/>
<stop offset="0.724994" stop-color="#D9D9D9"/>
</radialGradient>
<radialGradient id="paint3_radial_471_2622" cx="0" cy="0" r="1" gradientUnits="userSpaceOnUse" gradientTransform="translate(71.0005 -0.499997) rotate(128.468) scale(46.6181 66.5431)">
<stop offset="0.181389" stop-color="#F3CD71"/>
<stop offset="1" stop-color="#F3CD71" stop-opacity="0"/>
</radialGradient>
</defs>
</svg>
