<?xml version="1.0" encoding="UTF-8" standalone="no"?>
<!-- Created with Inkscape (http://www.inkscape.org/) -->

<svg
   version="1.1"
   id="svg2"
   width="793.70135"
   height="780"
   viewBox="0 0 793.70135 780"
   sodipodi:docname="LOGO2款.ai"
   xmlns:inkscape="http://www.inkscape.org/namespaces/inkscape"
   xmlns:sodipodi="http://sodipodi.sourceforge.net/DTD/sodipodi-0.dtd"
   xmlns="http://www.w3.org/2000/svg"
   xmlns:svg="http://www.w3.org/2000/svg">
  <defs
     id="defs6">
    <clipPath
       clipPathUnits="userSpaceOnUse"
       id="clipPath18">
      <path
         d="M 0,585 H 595.276 V 0 H 0 Z"
         id="path16" />
    </clipPath>
  </defs>
  <sodipodi:namedview
     id="namedview4"
     pagecolor="#ffffff"
     bordercolor="#000000"
     borderopacity="0.25"
     inkscape:showpageshadow="2"
     inkscape:pageopacity="0.0"
     inkscape:pagecheckerboard="0"
     inkscape:deskcolor="#d1d1d1" />
  <g
     id="g8"
     inkscape:groupmode="layer"
     inkscape:label="LOGO2款"
     transform="matrix(1.3333333,0,0,-1.3333333,0,780)">
    <path
       d="M 0,0 H 595.275 V 585 H 0 Z"
       style="fill:#8d8d8e;fill-opacity:1;fill-rule:nonzero;stroke:none"
       id="path10" />
    <g
       id="g12">
      <g
         id="g14"
         clip-path="url(#clipPath18)">
        <g
           id="g20"
           transform="translate(184.8431,321.1612)">
          <path
             d="m 0,0 h -6.39 v 20.954 h 6.454 c 6.659,0 10.643,-3.907 10.643,-10.445 C 10.707,5.286 7.026,0 0,0 m 0,32.651 h -18.711 c -0.614,0 -1.117,-0.495 -1.117,-1.118 V -10.58 c 0,-0.615 0.503,-1.117 1.117,-1.117 H 0.064 c 14.74,0 24.272,8.711 24.272,22.206 0,13.46 -9.554,22.142 -24.336,22.142"
             style="fill:#ffffff;fill-opacity:1;fill-rule:nonzero;stroke:none"
             id="path22" />
        </g>
        <g
           id="g24"
           transform="translate(295.1575,342.3771)">
          <path
             d="M 0,0 C -5.159,0 -9.355,-2.838 -11.237,-5.655 -12.603,-1.903 -15.724,0 -20.479,0 c -5.265,0 -9.249,-2.66 -10.637,-4.452 v 2.534 c 0,0.623 -0.501,1.126 -1.124,1.126 h -9.73 c -0.616,0 -1.119,-0.503 -1.119,-1.126 v -29.876 c 0,-0.616 0.503,-1.119 1.119,-1.119 h 9.73 c 0.623,0 1.124,0.503 1.124,1.119 v 18.696 0.007 c 0.708,0.821 2.165,2.526 4.849,2.526 2.362,0 3.664,-1.288 3.664,-3.595 v -17.634 c 0,-0.616 0.503,-1.119 1.119,-1.119 h 9.73 c 0.616,0 1.126,0.503 1.126,1.119 v 18.696 c 0.7,0.821 2.165,2.533 4.911,2.533 2.327,0 3.658,-1.317 3.658,-3.595 v -17.634 c 0,-0.616 0.503,-1.119 1.118,-1.119 h 9.737 c 0.616,0 1.119,0.503 1.119,1.119 V -9.638 C 9.915,-3.417 6.397,0 0,0"
             style="fill:#ffffff;fill-opacity:1;fill-rule:nonzero;stroke:none"
             id="path26" />
        </g>
        <g
           id="g28"
           transform="translate(322.3227,341.5816)">
          <path
             d="m 0,0 h -9.737 c -0.616,0 -1.118,-0.503 -1.118,-1.119 v -29.883 c 0,-0.615 0.502,-1.118 1.118,-1.118 H 0 c 0.616,0 1.125,0.503 1.125,1.118 V -1.119 C 1.125,-0.503 0.616,0 0,0"
             style="fill:#ffffff;fill-opacity:1;fill-rule:nonzero;stroke:none"
             id="path30" />
        </g>
        <g
           id="g32"
           transform="translate(317.7512,357.3382)">
          <path
             d="m 0,0 c -3.701,0 -6.723,-3.015 -6.723,-6.708 0,-3.715 3.022,-6.717 6.723,-6.717 3.693,0 6.708,3.002 6.708,6.717 C 6.708,-3.015 3.693,0 0,0"
             style="fill:#ffffff;fill-opacity:1;fill-rule:nonzero;stroke:none"
             id="path34" />
        </g>
        <g
           id="g36"
           transform="translate(353.0373,342.3771)">
          <path
             d="m 0,0 c -6.198,0 -9.582,-2.788 -11.032,-4.452 v 2.534 c 0,0.623 -0.495,1.126 -1.119,1.126 h -9.73 c -0.622,0 -1.117,-0.503 -1.117,-1.126 v -29.876 c 0,-0.616 0.495,-1.119 1.117,-1.119 h 9.73 c 0.624,0 1.119,0.503 1.119,1.119 v 18.696 c 0.779,0.876 2.229,2.533 5.116,2.533 3.1,0 4.656,-1.551 4.656,-4.593 v -16.636 c 0,-0.616 0.51,-1.119 1.119,-1.119 h 9.73 c 0.622,0 1.125,0.503 1.125,1.119 v 21.682 C 10.714,-3.779 6.715,0 0,0"
             style="fill:#ffffff;fill-opacity:1;fill-rule:nonzero;stroke:none"
             id="path38" />
        </g>
        <g
           id="g40"
           transform="translate(230.0002,320.0211)">
          <path
             d="m 0,0 c -3.192,0 -5.781,2.589 -5.781,5.796 0,3.192 2.589,5.781 5.781,5.781 3.192,0 5.781,-2.589 5.781,-5.781 C 5.781,2.589 3.192,0 0,0 m 0,22.503 c -9.362,0 -16.955,-7.593 -16.955,-16.948 0,-9.369 7.593,-16.956 16.955,-16.956 9.362,0 16.955,7.587 16.955,16.956 0,9.355 -7.593,16.948 -16.955,16.948"
             style="fill:#ffffff;fill-opacity:1;fill-rule:nonzero;stroke:none"
             id="path42" />
        </g>
        <g
           id="g44"
           transform="translate(385.7794,319.9723)">
          <path
             d="m 0,0 c -3.192,0 -5.781,2.598 -5.781,5.796 0,3.192 2.589,5.781 5.781,5.781 3.198,0 5.781,-2.589 5.781,-5.781 C 5.781,2.598 3.198,0 0,0 m 0,22.503 c -9.355,0 -16.955,-7.593 -16.955,-16.956 0,-9.368 7.6,-16.954 16.955,-16.954 9.362,0 16.955,7.586 16.955,16.954 0,9.363 -7.593,16.956 -16.955,16.956"
             style="fill:#ffffff;fill-opacity:1;fill-rule:nonzero;stroke:none"
             id="path46" />
        </g>
        <g
           id="g48"
           transform="translate(413.6154,351.9)">
          <path
             d="M 0,0 C -0.007,0.022 0.007,0.042 0,0.071 0,0.084 -0.014,0.099 -0.022,0.12 -0.029,0.128 -0.029,0.141 -0.029,0.156 L -0.035,0.148 c -0.751,3.34 -4.381,5.768 -7.969,5.026 -3.622,-0.751 -6.001,-4.119 -5.293,-7.509 0.581,-2.795 3.086,-4.642 5.966,-4.826 -0.141,-1.182 -1.176,-2.251 -2.039,-2.746 -0.565,-0.311 -0.219,-0.92 -0.219,-0.92 l 0.736,-1.104 c 0.213,-0.368 0.545,-0.56 0.935,-0.397 C -0.545,-9.299 0.744,-3.043 0,0"
             style="fill:#ffffff;fill-opacity:1;fill-rule:nonzero;stroke:none"
             id="path50" />
        </g>
        <g
           id="g52"
           transform="translate(423.7673,332.0251)">
          <path
             d="m 0,0 c -0.035,1.196 1.528,1.726 3.468,1.726 3.878,0 6.085,-1.103 8.548,-2.731 0.261,-0.176 0.573,-0.233 0.877,-0.156 0.298,0.071 0.559,0.269 0.715,0.538 l 3.284,5.718 c 0.303,0.523 0.12,1.189 -0.397,1.507 -2.703,1.607 -6.659,3.687 -13.524,3.687 -9.899,0 -15.206,-4.656 -14.321,-11.357 1.556,-11.783 19.87,-7.75 19.587,-11.769 -0.064,-0.927 -1.684,-1.621 -4.494,-1.621 -3.622,0 -7.741,1.819 -10.345,3.419 -0.248,0.162 -0.567,0.212 -0.857,0.135 -0.297,-0.079 -0.545,-0.263 -0.693,-0.532 l -3.794,-6.326 c -0.289,-0.517 -0.148,-1.154 0.34,-1.486 3.653,-2.456 9.533,-4.118 14.641,-4.118 9.915,0 15.632,4.266 15.632,11.265 C 18.674,0.814 0.077,-3.192 0,0"
             style="fill:#ffffff;fill-opacity:1;fill-rule:nonzero;stroke:none"
             id="path54" />
        </g>
        <g
           id="g56"
           transform="translate(449.7515,338.3754)">
          <path
             d="m 0,0 h 1.26 c 1.287,0 1.711,0.375 1.711,1.132 0,0.665 -0.324,1.04 -1.534,1.04 L 0,2.172 Z m 0,-3.871 h -1.062 v 6.914 h 2.647 c 1.642,0 2.448,-0.615 2.448,-1.975 0,-1.238 -0.771,-1.776 -1.804,-1.903 L 4.203,-3.871 H 3.035 L 1.196,-0.863 H 0 Z M 1.28,4.6 c -2.781,0 -4.931,-2.137 -4.931,-5.004 0,-2.922 2.15,-5.037 4.931,-5.037 2.739,0 4.891,2.115 4.891,5.037 C 6.171,2.463 4.019,4.6 1.28,4.6 m 0,0.976 c 3.256,0 6.051,-2.533 6.051,-5.98 0,-3.467 -2.795,-6 -6.051,-6 -3.297,0 -6.092,2.533 -6.092,6 0,3.447 2.795,5.98 6.092,5.98"
             style="fill:#ffffff;fill-opacity:1;fill-rule:nonzero;stroke:none"
             id="path58" />
        </g>
        <g
           id="g60"
           transform="translate(398.2327,516.3444)">
          <path
             d="m 0,0 -54.107,54.107 c -2.285,2.285 -5.322,3.538 -8.548,3.538 -3.235,0 -6.27,-1.253 -8.555,-3.538 l -45.375,-45.382 -75.513,-75.513 c -4.713,-4.72 -4.713,-12.383 0,-17.103 l 54.1,-54.1 c 2.285,-2.279 5.322,-3.539 8.555,-3.539 3.221,0 6.263,1.26 8.541,3.539 L -53.215,-70.305 0,-17.097 C 4.713,-12.383 4.713,-4.713 0,0"
             style="fill:#ffffff;fill-opacity:1;fill-rule:nonzero;stroke:none"
             id="path62" />
        </g>
        <g
           id="g64"
           transform="translate(346.8171,496.8565)">
          <path
             d="m 0,0 c -3.064,-3.064 -7.083,-4.578 -11.081,-4.578 -3.999,0 -8.019,1.514 -11.083,4.578 -3.057,3.064 -4.599,7.077 -4.599,11.081 0,4.013 1.542,8.032 4.599,11.082 3.064,3.058 7.07,4.594 11.09,4.594 3.991,0 8.01,-1.523 11.074,-4.594 C 3.057,19.113 4.6,15.087 4.6,11.081 4.6,7.083 3.057,3.064 0,0 M 47.589,15.646 -6.525,69.739 c -2.604,2.618 -6.836,2.618 -9.44,0 l -58.501,-58.488 63.547,-63.553 58.508,58.5 c 2.605,2.605 2.605,6.836 0,9.448"
             style="fill:#e1002b;fill-opacity:1;fill-rule:nonzero;stroke:none"
             id="path66" />
        </g>
        <g
           id="g68"
           transform="translate(280.6381,451.6818)">
          <path
             d="m 0,0 c 3.064,3.064 7.077,4.585 11.081,4.585 4.013,0 8.025,-1.521 11.082,-4.585 3.071,-3.064 4.6,-7.063 4.6,-11.082 0,-4.005 -1.529,-8.018 -4.6,-11.075 -3.057,-3.042 -7.069,-4.578 -11.082,-4.591 -4.004,0 -8.017,1.549 -11.081,4.591 -3.057,3.057 -4.585,7.07 -4.585,11.075 0,4.005 1.528,8.018 4.585,11.082 m -23.826,-21.534 c -3.065,-3.042 -7.085,-4.571 -11.089,-4.571 -4.013,0 -8.017,1.522 -11.083,4.571 -3.063,3.057 -4.585,7.07 -4.585,11.082 0,4.005 1.528,8.017 4.585,11.09 3.066,3.048 7.07,4.578 11.083,4.578 4.004,0 8.032,-1.53 11.089,-4.578 3.057,-3.073 4.585,-7.085 4.578,-11.09 0,-4.006 -1.521,-8.032 -4.578,-11.082 M -70.68,-5.951 c -2.611,-2.604 -2.611,-6.836 0,-9.447 l 54.107,-54.101 c 1.303,-1.309 3.007,-1.96 4.72,-1.96 1.706,0 3.417,0.651 4.719,1.96 l 58.474,58.467 -63.547,63.553 z"
             style="fill:#0077b4;fill-opacity:1;fill-rule:nonzero;stroke:none"
             id="path70" />
        </g>
        <g
           id="g72"
           transform="translate(289.4405,379.6206)">
          <path
             d="m 0,0 c -2.102,0 -3.816,1.71 -3.816,3.811 0,2.121 1.714,3.811 3.816,3.811 2.135,0 3.816,-1.69 3.816,-3.811 C 3.816,1.71 2.135,0 0,0 m 0,7.047 c -1.798,0 -3.231,-1.413 -3.231,-3.236 0,-1.779 1.433,-3.236 3.231,-3.236 1.794,0 3.231,1.457 3.231,3.236 C 3.231,5.634 1.794,7.047 0,7.047 M 1.045,1.616 -0.099,3.34 H -0.843 V 1.616 h -0.609 v 4.37 h 1.784 c 0.728,0 1.412,-0.52 1.412,-1.322 0,-0.976 -0.867,-1.3 -1.115,-1.3 L 1.794,1.616 Z M 0.332,5.447 H -0.843 V 3.9 h 1.175 c 0.371,0 0.783,0.312 0.783,0.764 0,0.485 -0.412,0.783 -0.783,0.783"
             style="fill:#ffffff;fill-opacity:1;fill-rule:nonzero;stroke:none"
             id="path74" />
        </g>
        <g
           id="g76"
           transform="translate(144.1212,173.4819)">
          <path
             d="m 0,0 c -1.388,-1.396 -3.211,-2.078 -5.019,-2.078 -1.815,0 -3.631,0.682 -5.026,2.078 -1.381,1.381 -2.085,3.211 -2.085,5.027 0,1.815 0.704,3.63 2.085,5.018 1.395,1.381 3.211,2.078 5.026,2.078 1.808,0 3.631,-0.69 5.019,-2.078 C 1.388,8.657 2.078,6.834 2.078,5.027 2.078,3.211 1.388,1.381 0,0 M 21.561,7.09 -2.955,31.606 c -1.186,1.184 -3.099,1.184 -4.284,0 L -33.743,5.101 -4.944,-23.698 21.561,2.805 c 1.184,1.178 1.184,3.099 0,4.285"
             style="fill:#ffffff;fill-opacity:1;fill-rule:nonzero;stroke:none"
             id="path78" />
        </g>
        <g
           id="g80"
           transform="translate(114.1278,153.0054)">
          <path
             d="m 0,0 c 1.396,1.396 3.211,2.078 5.027,2.078 1.815,0 3.63,-0.682 5.018,-2.078 1.388,-1.388 2.085,-3.196 2.085,-5.019 0,-1.815 -0.697,-3.631 -2.085,-5.018 -1.388,-1.381 -3.203,-2.071 -5.018,-2.078 -1.816,0 -3.631,0.697 -5.019,2.078 -1.389,1.387 -2.086,3.203 -2.086,5.018 0,1.816 0.697,3.631 2.078,5.019 m -10.788,-9.76 c -1.395,-1.372 -3.218,-2.071 -5.034,-2.071 -1.815,0 -3.631,0.699 -5.018,2.071 -1.388,1.388 -2.078,3.21 -2.078,5.026 0,1.815 0.69,3.639 2.078,5.026 1.387,1.388 3.203,2.072 5.018,2.072 1.816,0 3.639,-0.684 5.034,-2.072 1.38,-1.387 2.071,-3.211 2.071,-5.026 0,-1.816 -0.691,-3.638 -2.071,-5.026 m -21.245,7.067 c -1.178,-1.186 -1.178,-3.091 0,-4.284 L -7.51,-31.493 c 0.585,-0.585 1.366,-0.886 2.138,-0.886 0.781,0 1.553,0.301 2.139,0.886 l 26.504,26.496 -28.8,28.801 z"
             style="fill:#ffffff;fill-opacity:1;fill-rule:nonzero;stroke:none"
             id="path82" />
        </g>
        <g
           id="g84"
           transform="translate(201.1111,133.7233)">
          <path
             d="m 0,0 h -7.179 v 23.526 h 7.247 c 7.479,0 11.95,-4.381 11.95,-11.725 C 12.018,5.934 7.885,0 0,0 m 0,36.669 h -21.012 c -0.691,0 -1.254,-0.57 -1.254,-1.267 v -47.286 c 0,-0.689 0.563,-1.252 1.254,-1.252 h 21.08 c 16.557,0 27.261,9.79 27.261,24.937 0,15.108 -10.734,24.868 -27.329,24.868"
             style="fill:#ffffff;fill-opacity:1;fill-rule:nonzero;stroke:none"
             id="path86" />
        </g>
        <g
           id="g88"
           transform="translate(324.8043,157.5471)">
          <path
             d="M 0,0 C -5.799,0 -10.51,-3.188 -12.619,-6.355 -14.164,-2.138 -17.659,0 -22.993,0 c -5.92,0 -10.39,-2.993 -11.951,-5.004 v 2.851 c 0,0.698 -0.562,1.253 -1.261,1.253 h -10.922 c -0.697,0 -1.252,-0.555 -1.252,-1.253 v -33.556 c 0,-0.691 0.555,-1.253 1.252,-1.253 h 10.922 c 0.699,0 1.261,0.562 1.261,1.253 v 20.997 0.015 c 0.788,0.909 2.431,2.821 5.446,2.821 2.656,0 4.112,-1.425 4.112,-4.028 v -19.805 c 0,-0.691 0.563,-1.253 1.252,-1.253 h 10.93 c 0.691,0 1.261,0.562 1.261,1.253 v 20.997 c 0.788,0.924 2.438,2.836 5.522,2.836 2.61,0 4.103,-1.463 4.103,-4.028 v -19.805 c 0,-0.691 0.562,-1.253 1.253,-1.253 H 9.872 c 0.683,0 1.253,0.562 1.253,1.253 v 24.884 C 11.125,-3.856 7.172,0 0,0"
             style="fill:#ffffff;fill-opacity:1;fill-rule:nonzero;stroke:none"
             id="path90" />
        </g>
        <g
           id="g92"
           transform="translate(355.2155,156.6462)">
          <path
             d="m 0,0 h -10.931 c -0.697,0 -1.26,-0.563 -1.26,-1.252 v -33.557 c 0,-0.682 0.563,-1.253 1.26,-1.253 H 0 c 0.69,0 1.26,0.571 1.26,1.253 V -1.252 C 1.26,-0.563 0.69,0 0,0"
             style="fill:#ffffff;fill-opacity:1;fill-rule:nonzero;stroke:none"
             id="path94" />
        </g>
        <g
           id="g96"
           transform="translate(350.0798,174.3462)">
          <path
             d="m 0,0 c -4.156,0 -7.547,-3.383 -7.547,-7.539 0,-4.164 3.391,-7.548 7.547,-7.548 4.156,0 7.539,3.384 7.539,7.548 C 7.539,-3.383 4.156,0 0,0"
             style="fill:#ffffff;fill-opacity:1;fill-rule:nonzero;stroke:none"
             id="path98" />
        </g>
        <g
           id="g100"
           transform="translate(389.6186,157.5471)">
          <path
             d="m 0,0 c -6.969,0 -10.75,-3.136 -12.386,-5.004 v 2.851 c 0,0.698 -0.57,1.253 -1.252,1.253 h -10.931 c -0.69,0 -1.253,-0.555 -1.253,-1.253 v -33.556 c 0,-0.691 0.563,-1.253 1.253,-1.253 h 10.931 c 0.682,0 1.252,0.562 1.252,1.253 v 20.997 c 0.871,0.991 2.506,2.836 5.739,2.836 3.482,0 5.244,-1.725 5.244,-5.145 v -18.688 c 0,-0.691 0.555,-1.253 1.246,-1.253 h 10.929 c 0.691,0 1.261,0.562 1.261,1.253 v 24.351 C 12.033,-4.246 7.539,0 0,0"
             style="fill:#ffffff;fill-opacity:1;fill-rule:nonzero;stroke:none"
             id="path102" />
        </g>
        <g
           id="g104"
           transform="translate(251.7265,132.4479)">
          <path
             d="m 0,0 c -3.593,0 -6.489,2.903 -6.489,6.504 0,3.586 2.896,6.482 6.489,6.482 3.586,0 6.497,-2.896 6.497,-6.482 C 6.497,2.903 3.586,0 0,0 m 0,25.259 c -10.51,0 -19.04,-8.53 -19.04,-19.025 0,-10.525 8.53,-19.04 19.04,-19.04 10.51,0 19.032,8.515 19.032,19.04 0,10.495 -8.522,19.025 -19.032,19.025"
             style="fill:#ffffff;fill-opacity:1;fill-rule:nonzero;stroke:none"
             id="path106" />
        </g>
        <g
           id="g108"
           transform="translate(426.2933,132.3894)">
          <path
             d="m 0,0 c -3.586,0 -6.489,2.919 -6.489,6.504 0,3.586 2.903,6.482 6.489,6.482 3.593,0 6.497,-2.896 6.497,-6.482 C 6.497,2.919 3.593,0 0,0 m 0,25.259 c -10.51,0 -19.033,-8.522 -19.033,-19.025 0,-10.525 8.523,-19.04 19.033,-19.04 10.51,0 19.048,8.515 19.048,19.04 0,10.503 -8.538,19.025 -19.048,19.025"
             style="fill:#ffffff;fill-opacity:1;fill-rule:nonzero;stroke:none"
             id="path110" />
        </g>
        <g
           id="g112"
           transform="translate(457.4586,168.2876)">
          <path
             d="M 0,0 V 0.023 C 0,0.03 -0.008,0.03 -0.008,0.038 -0.015,0.068 -0.015,0.105 -0.023,0.135 L -0.045,0.12 c -0.832,3.751 -4.906,6.466 -8.928,5.642 -4.065,-0.848 -6.736,-4.629 -5.948,-8.44 0.652,-3.128 3.465,-5.207 6.691,-5.416 -0.15,-1.328 -1.32,-2.529 -2.28,-3.069 -0.638,-0.367 -0.262,-1.043 -0.262,-1.043 l 0.839,-1.237 c 0.24,-0.421 0.608,-0.631 1.036,-0.458 C -0.563,-10.495 0.855,-3.398 0,0"
             style="fill:#ffffff;fill-opacity:1;fill-rule:nonzero;stroke:none"
             id="path114" />
        </g>
        <g
           id="g116"
           transform="translate(468.7767,145.9206)">
          <path
             d="m 0,0 c -0.038,1.343 1.718,1.943 3.901,1.943 4.351,0 6.827,-1.246 9.595,-3.068 0.292,-0.203 0.645,-0.256 0.983,-0.18 0.337,0.082 0.63,0.292 0.795,0.6 l 3.691,6.422 c 0.338,0.592 0.143,1.342 -0.442,1.687 -3.039,1.815 -7.473,4.149 -15.193,4.149 -11.117,0 -17.074,-5.236 -16.076,-12.761 1.748,-13.226 22.311,-8.687 21.988,-13.203 -0.067,-1.051 -1.89,-1.824 -5.033,-1.824 -4.067,0 -8.695,2.034 -11.613,3.849 -0.286,0.173 -0.646,0.225 -0.968,0.142 -0.33,-0.082 -0.616,-0.299 -0.788,-0.599 l -4.261,-7.105 c -0.323,-0.57 -0.15,-1.297 0.398,-1.665 4.088,-2.761 10.69,-4.614 16.429,-4.614 11.141,0 17.555,4.787 17.555,12.641 C 20.961,0.915 0.09,-3.578 0,0"
             style="fill:#ffffff;fill-opacity:1;fill-rule:nonzero;stroke:none"
             id="path118" />
        </g>
        <g
           id="g120"
           transform="translate(496.3598,152.4308)">
          <path
             d="M 0,0 H 1.335 C 2.701,0 3.15,0.398 3.15,1.201 3.15,1.905 2.806,2.303 1.523,2.303 H 0 Z M 0,-4.103 H -1.125 V 3.226 H 1.68 c 1.741,0 2.596,-0.653 2.596,-2.093 0,-1.313 -0.817,-1.883 -1.912,-2.018 L 4.457,-4.103 H 3.218 L 1.267,-0.915 H 0 Z m 1.358,8.979 c -2.949,0 -5.229,-2.266 -5.229,-5.304 0,-3.098 2.28,-5.334 5.229,-5.334 2.903,0 5.184,2.236 5.184,5.334 0,3.038 -2.281,5.304 -5.184,5.304 m 0,1.036 c 3.451,0 6.414,-2.686 6.414,-6.34 0,-3.675 -2.963,-6.361 -6.414,-6.361 -3.496,0 -6.459,2.686 -6.459,6.361 0,3.654 2.963,6.34 6.459,6.34"
             style="fill:#ffffff;fill-opacity:1;fill-rule:nonzero;stroke:none"
             id="path122" />
        </g>
        <g
           id="g124"
           transform="translate(121.669,121.0185)">
          <path
             d="m 0,0 c -1.457,0 -2.645,1.186 -2.645,2.642 0,1.471 1.188,2.642 2.645,2.642 1.48,0 2.645,-1.171 2.645,-2.642 C 2.645,1.186 1.48,0 0,0 m 0,4.885 c -1.247,0 -2.24,-0.979 -2.24,-2.243 0,-1.233 0.993,-2.243 2.24,-2.243 1.244,0 2.24,1.01 2.24,2.243 C 2.24,3.906 1.244,4.885 0,4.885 M 0.725,1.12 -0.069,2.315 H -0.584 V 1.12 H -1.006 V 4.15 H 0.23 C 0.735,4.15 1.209,3.789 1.209,3.233 1.209,2.557 0.608,2.332 0.436,2.332 L 1.244,1.12 Z M 0.23,3.776 H -0.584 V 2.704 H 0.23 c 0.257,0 0.543,0.216 0.543,0.529 0,0.337 -0.286,0.543 -0.543,0.543"
             style="fill:#ffffff;fill-opacity:1;fill-rule:nonzero;stroke:none"
             id="path126" />
        </g>
      </g>
    </g>
  </g>
</svg>
