<svg width="340" height="99" viewBox="0 0 340 99" fill="none" xmlns="http://www.w3.org/2000/svg">
<g clip-path="url(#clip0_788_4048)">
<path d="M340 0.000976562H0.0012207V98.6194H340V0.000976562Z" fill="white"/>
<path d="M88.8396 49.0866C88.8396 39.0084 95.6118 32.3276 105.281 32.3276C108.825 32.3276 112.315 33.1332 114.576 34.3765L110.867 41.7053C109.628 41.0048 107.856 40.4619 105.927 40.4619C100.874 40.4619 97.2787 44.2358 97.2787 49.1916C97.2787 54.2 100.874 58.1402 105.98 58.1402C107.856 58.1402 109.636 57.5974 110.867 56.8969L114.576 64.2256C112.158 65.574 108.615 66.2745 105.281 66.2745C96.4671 66.2833 88.8396 59.8126 88.8396 49.0866Z" fill="#040000"/>
<path d="M114.458 49.2004C114.458 39.2799 121.439 32.3276 131.536 32.3276C141.634 32.3276 148.615 39.2799 148.615 49.2004C148.615 59.4974 140.665 66.2833 131.536 66.2833C122.408 66.2833 114.458 59.4886 114.458 49.2004ZM140.185 49.2004C140.185 44.297 136.589 40.4707 131.536 40.4707C126.483 40.4707 122.888 44.297 122.888 49.2004C122.888 54.2088 126.483 58.149 131.536 58.149C136.589 58.1402 140.185 54.2088 140.185 49.2004Z" fill="#040000"/>
<path d="M152.573 32.8721H163.159L170.629 53.7813L177.506 32.8721H188.092L188.843 65.7507H180.945L180.622 45.6996L173.692 65.7507H166.981L160.052 45.6996L159.729 65.7507H151.831L152.573 32.8721Z" fill="#040000"/>
<path d="M194.177 32.8721H206.351C215.864 32.8721 218.22 39.1063 218.22 45.7346C218.22 52.3628 215.558 59.1137 205.889 59.1137H202.337V65.742H194.168V32.8721H194.177ZM202.337 51.137H205.566C209.275 51.137 209.781 48.7641 209.781 45.9622C209.781 43.1603 209.214 40.84 205.566 40.84H202.337V51.137Z" fill="#040000"/>
<path d="M238.684 60.8211H226.501L224.747 65.7507H216.369L228.883 32.8721H236.511L249.025 65.7507H240.482L238.684 60.8211ZM232.435 43.3792L228.866 53.9739H236.214L232.435 43.3792Z" fill="#040000"/>
<path d="M250.877 32.8721H257.536L270.801 51.4697V32.8721H278.429V65.7507H271.822L258.496 47.153V65.7507H250.869V32.8721H250.877Z" fill="#040000"/>
<path d="M291.267 55.7777L280.097 32.8721H289.225L295.561 46.724L301.687 32.8721H310.554L299.436 55.6726V65.7507H291.267V55.7777Z" fill="#040000"/>
<path d="M90.6559 32.8721H80.8903L69.4229 46.1286V46.1198V32.8721H61.2107V65.742H69.4229V52.5029V52.4854L80.8903 65.742H90.6559L77.8183 49.2895L90.6559 32.8721Z" fill="#040000"/>
<path d="M58.8543 32.8721H49.08L37.6126 46.1286V46.1198V32.8721H29.4004V65.742H37.6126V52.5029V52.4854L49.08 65.742H58.8543L46.008 49.2895L58.8543 32.8721Z" fill="#040000"/>
</g>
<defs>
<clipPath id="clip0_788_4048">
<rect width="340" height="98.6196" fill="white"/>
</clipPath>
</defs>
</svg>
