<svg width="135" height="135" viewBox="0 0 135 135" fill="none" xmlns="http://www.w3.org/2000/svg">
<g id="Group 474">
<rect id="Rectangle 683" width="135" height="135" fill="white"/>
<g id="Group">
<path id="Vector" d="M134.753 48H1.00043V86.7956H134.753V48Z" fill="white"/>
<g id="Group_2">
<path id="Vector_2" d="M35.9488 67.3106C35.9488 63.3459 38.6129 60.7178 42.4169 60.7178C43.8107 60.7178 45.184 61.0347 46.0732 61.5238L44.6141 64.4069C44.1266 64.1313 43.4296 63.9177 42.6709 63.9177C40.6831 63.9177 39.2687 65.4023 39.2687 67.3519C39.2687 69.3222 40.6831 70.8722 42.6915 70.8722C43.4296 70.8722 44.13 70.6586 44.6141 70.3831L46.0732 73.2661C45.1222 73.7966 43.7283 74.0722 42.4169 74.0722C38.9494 74.0756 35.9488 71.5301 35.9488 67.3106Z" fill="#040000"/>
<path id="Vector_3" d="M46.0266 67.3554C46.0266 63.4527 48.7731 60.7178 52.7452 60.7178C56.7174 60.7178 59.4639 63.4527 59.4639 67.3554C59.4639 71.4061 56.3363 74.0756 52.7452 74.0756C49.1542 74.0756 46.0266 71.4027 46.0266 67.3554ZM56.1475 67.3554C56.1475 65.4264 54.733 63.9212 52.7452 63.9212C50.7574 63.9212 49.343 65.4264 49.343 67.3554C49.343 69.3256 50.7574 70.8757 52.7452 70.8757C54.733 70.8722 56.1475 69.3256 56.1475 67.3554Z" fill="#040000"/>
<path id="Vector_4" d="M61.0209 60.9316H65.1853L68.1241 69.1571L70.8294 60.9316H74.9939L75.2891 73.8658H72.1821L72.0551 65.9779L69.3291 73.8658H66.689L63.9631 65.9779L63.8361 73.8658H60.7291L61.0209 60.9316Z" fill="#040000"/>
<path id="Vector_5" d="M77.3875 60.9316H82.1768C85.9189 60.9316 86.8459 63.3841 86.8459 65.9916C86.8459 68.5991 85.7988 71.2549 81.9948 71.2549H80.5975V73.8624H77.3841V60.9316H77.3875ZM80.5975 68.1169H81.8678C83.3269 68.1169 83.526 67.1834 83.526 66.0812C83.526 64.9789 83.3028 64.0661 81.8678 64.0661H80.5975V68.1169Z" fill="#040000"/>
<path id="Vector_6" d="M94.8959 71.9265H90.1032L89.4131 73.8658H86.1173L91.0405 60.9316H94.041L98.9642 73.8658H95.6031L94.8959 71.9265ZM92.4378 65.0651L91.0336 69.2329H93.9243L92.4378 65.0651Z" fill="#040000"/>
<path id="Vector_7" d="M99.6929 60.9316H102.312L107.531 68.2478V60.9316H110.531V73.8658H107.932L102.69 66.5496V73.8658H99.6894V60.9316H99.6929Z" fill="#040000"/>
<path id="Vector_8" d="M115.582 69.9425L111.187 60.9316H114.779L117.271 66.3809L119.681 60.9316H123.169L118.795 69.9012V73.8658H115.582V69.9425Z" fill="#040000"/>
<path id="Vector_9" d="M36.6633 60.9316H32.8216L28.3104 66.1466V66.1432V60.9316H25.0798V73.8624H28.3104V68.6542V68.6474L32.8216 73.8624H36.6633L31.6131 67.3901L36.6633 60.9316Z" fill="#040000"/>
<path id="Vector_10" d="M24.1528 60.9316H20.3077L15.7965 66.1466V66.1432V60.9316H12.5659V73.8624H15.7965V68.6542V68.6474L20.3077 73.8624H24.1528L19.0992 67.3901L24.1528 60.9316Z" fill="#040000"/>
</g>
</g>
</g>
</svg>
