<?xml version="1.0" encoding="UTF-8"?>
<svg id="_圖層_2" data-name="圖層 2" xmlns="http://www.w3.org/2000/svg" viewBox="0 0 389.59 112.63">
  <defs>
    <style>
      .cls-1 {
        fill: none;
      }

      .cls-1, .cls-2 {
        stroke-width: 0px;
      }

      .cls-2 {
        fill: #040000;
      }
    </style>
  </defs>
  <g id="KKCOMPANY_logo" data-name="KKCOMPANY logo">
    <g>
      <g>
        <path class="cls-2" d="m101.8,56.06c0-11.51,7.76-19.14,18.84-19.14,4.06,0,8.06.92,10.65,2.34l-4.25,8.37c-1.42-.8-3.45-1.42-5.66-1.42-5.79,0-9.91,4.31-9.91,9.97s4.12,10.22,9.97,10.22c2.15,0,4.19-.62,5.6-1.42l4.25,8.37c-2.77,1.54-6.83,2.34-10.65,2.34-10.1,0-18.84-7.39-18.84-19.64Z"/>
        <path class="cls-2" d="m131.15,56.19c0-11.33,8-19.27,19.57-19.27s19.57,7.94,19.57,19.27-9.11,19.51-19.57,19.51-19.57-7.76-19.57-19.51Zm29.48,0c0-5.6-4.12-9.97-9.91-9.97s-9.91,4.37-9.91,9.97,4.12,10.22,9.91,10.22,9.91-4.49,9.91-10.22Z"/>
        <path class="cls-2" d="m174.83,37.54h12.13l8.56,23.88,7.88-23.88h12.13l.86,37.55h-9.05l-.37-22.9-7.94,22.9h-7.69l-7.94-22.9-.37,22.9h-9.05l.86-37.55Z"/>
        <path class="cls-2" d="m222.5,37.54h13.95c10.9,0,13.6,7.12,13.6,14.69s-3.05,15.28-14.13,15.28h-4.07v7.57h-9.36v-37.55Zm9.36,20.87h3.7c4.25,0,4.83-2.71,4.83-5.91s-.65-5.85-4.83-5.85h-3.7v11.76Z"/>
        <path class="cls-2" d="m273.5,69.46h-13.96l-2.01,5.63h-9.6l14.34-37.55h8.74l14.34,37.55h-9.79l-2.07-5.63Zm-7.17-19.92l-4.09,12.1h8.42l-4.33-12.1Z"/>
        <path class="cls-2" d="m287.47,37.54h7.63l15.2,21.24v-21.24h8.74v37.55h-7.57l-15.27-21.24v21.24h-8.74v-37.55Z"/>
        <path class="cls-2" d="m333.75,63.7l-12.8-26.16h10.46l7.26,15.82,7.02-15.82h10.16l-12.74,26.04v11.51h-9.36v-11.39Z"/>
        <polygon class="cls-2" points="52.86 56.31 52.86 56.31 52.85 56.31 52.86 56.31"/>
        <polygon class="cls-2" points="41.4 56.31 41.4 56.31 41.4 56.31 41.4 56.31"/>
        <polygon class="cls-2" points="103.88 37.54 92.69 37.54 79.55 52.68 79.55 52.67 79.55 37.54 70.14 37.54 70.14 75.08 79.55 75.08 79.55 59.96 79.55 59.94 92.69 75.08 103.88 75.08 89.17 56.29 103.88 37.54"/>
        <polygon class="cls-2" points="67.44 37.54 56.24 37.54 43.1 52.68 43.1 52.67 43.1 37.54 33.69 37.54 33.69 75.08 43.1 75.08 43.1 59.96 43.1 59.94 56.24 75.08 67.44 75.08 52.72 56.29 67.44 37.54"/>
      </g>
      <rect class="cls-1" width="389.59" height="112.63"/>
    </g>
  </g>
</svg>