<svg width="135" height="135" viewBox="0 0 135 135" fill="none" xmlns="http://www.w3.org/2000/svg">
<g id="Group 476">
<rect id="Rectangle 682" width="135" height="135" fill="white"/>
<g id="Group 416">
<path id="Vector" d="M112.666 59.0431C112.841 59.0447 113.014 59.0114 113.176 58.9451C113.338 58.8788 113.485 58.7807 113.609 58.6566C113.733 58.5325 113.831 58.3849 113.898 58.2221C113.965 58.0594 114 57.8848 114 57.7085V52.7348C113.994 52.3826 113.85 52.0472 113.6 51.8013C113.351 51.5553 113.015 51.4187 112.666 51.4209H93.2359C92.8854 51.4209 92.5493 51.5615 92.3015 51.8118C92.0537 52.0621 91.9145 52.4016 91.9145 52.7555V52.7845V83.2194V83.2401C91.914 83.4157 91.9477 83.5897 92.0139 83.7521C92.0801 83.9145 92.1773 84.0621 92.3001 84.1865C92.4228 84.3109 92.5687 84.4095 92.7293 84.4769C92.8898 84.5442 93.062 84.5789 93.2359 84.5789H112.666C113.017 84.5789 113.353 84.4382 113.601 84.188C113.848 83.9377 113.988 83.5982 113.988 83.2442V78.2706C113.987 77.9169 113.847 77.5781 113.599 77.3281C113.352 77.078 113.016 76.937 112.666 76.936H99.461V71.8089H112.666C112.84 71.8105 113.012 71.7776 113.173 71.7121C113.334 71.6465 113.48 71.5496 113.604 71.4268C113.728 71.304 113.827 71.1578 113.895 70.9965C113.963 70.8352 113.998 70.662 114 70.4867V65.513C113.999 65.1594 113.859 64.8206 113.612 64.5705C113.364 64.3205 113.029 64.1795 112.679 64.1784H99.461V59.0431H112.666Z" fill="#06C755"/>
<path id="Vector_2" d="M40.7915 76.9526H27.5862V52.7556C27.5851 52.4019 27.4455 52.0631 27.1979 51.8131C26.9504 51.563 26.6149 51.422 26.2648 51.421H21.361C21.1865 51.4193 21.0133 51.4526 20.8516 51.519C20.6898 51.5853 20.5427 51.6833 20.4187 51.8074C20.2947 51.9315 20.1963 52.0792 20.1291 52.2419C20.0619 52.4047 20.0273 52.5792 20.0274 52.7556V83.2194V83.2401C20.0268 83.4168 20.061 83.5918 20.1279 83.755C20.1948 83.9182 20.2932 84.0664 20.4172 84.191C20.5413 84.3155 20.6886 84.4139 20.8506 84.4805C21.0126 84.5471 21.1861 84.5805 21.361 84.5789H40.7915C41.1419 84.5789 41.478 84.4383 41.7258 84.188C41.9736 83.9377 42.1128 83.5982 42.1128 83.2443V78.2706C42.1075 77.9198 41.966 77.5853 41.7189 77.3388C41.4718 77.0923 41.1388 76.9536 40.7915 76.9526Z" fill="#06C755"/>
<path id="Vector_3" d="M52.4872 51.4253H47.5834C46.8537 51.4253 46.2621 52.0228 46.2621 52.7599V83.2445C46.2621 83.9816 46.8537 84.5791 47.5834 84.5791H52.4872C53.217 84.5791 53.8086 83.9816 53.8086 83.2445V52.7599C53.8086 52.0228 53.217 51.4253 52.4872 51.4253Z" fill="#06C755"/>
<path id="Vector_4" d="M85.8782 51.4209H80.9744C80.624 51.4209 80.2879 51.5615 80.0401 51.8118C79.7923 52.0621 79.6531 52.4015 79.6531 52.7555V70.8597L65.8445 52.0302C65.8117 51.9804 65.7748 51.9348 65.7378 51.8893L65.6599 51.8064H65.6352C65.6127 51.7832 65.588 51.7624 65.5614 51.7442L65.5285 51.7152L65.4588 51.6696L65.4177 51.6447L65.3439 51.6033L65.3028 51.5825L65.2249 51.5494H65.1797L65.1018 51.5245H65.0525H64.9746H64.9212H64.8473H59.8328C59.483 51.5256 59.148 51.6667 58.9011 51.9169C58.6542 52.167 58.5155 52.5059 58.5155 52.8591V83.3437C58.5404 83.6794 58.6899 83.9933 58.9342 84.2223C59.1785 84.4514 59.4994 84.5787 59.8328 84.5788H64.7571C65.1068 84.5777 65.4418 84.4366 65.6888 84.1865C65.9357 83.9363 66.0743 83.5975 66.0743 83.2442V65.1441L79.9034 84.0027C79.9957 84.1347 80.1111 84.2485 80.244 84.3384L80.3261 84.3882L80.363 84.4089L80.4287 84.4421L80.4943 84.4711H80.5353L80.6256 84.5042H80.6461C80.7587 84.5341 80.8745 84.5495 80.9908 84.5498H85.8659C86.2164 84.5498 86.5524 84.4092 86.8002 84.1589C87.048 83.9086 87.1873 83.5692 87.1873 83.2152V52.7597C87.1884 52.4071 87.0513 52.0685 86.8061 51.8176C86.5608 51.5668 86.2272 51.4242 85.8782 51.4209Z" fill="#06C755"/>
</g>
</g>
</svg>
