<svg width="140" height="49" viewBox="0 0 140 49" fill="none" xmlns="http://www.w3.org/2000/svg">
<path d="M137.232 11.3856C137.489 11.388 137.744 11.339 137.983 11.2413C138.221 11.1436 138.438 10.9991 138.62 10.8163C138.803 10.6336 138.948 10.416 139.047 10.1763C139.146 9.9366 139.197 9.67946 139.197 9.41975V2.09357C139.187 1.57483 138.976 1.08078 138.608 0.718514C138.24 0.356243 137.746 0.154941 137.232 0.158243H108.611C108.095 0.158243 107.6 0.365359 107.235 0.734029C106.87 1.1027 106.665 1.60272 106.665 2.1241V2.16684V46.997V47.0275C106.664 47.2862 106.714 47.5424 106.811 47.7817C106.909 48.0209 107.052 48.2383 107.233 48.4215C107.414 48.6047 107.629 48.75 107.865 48.8492C108.102 48.9484 108.355 48.9994 108.611 48.9994H137.232C137.748 48.9994 138.243 48.7923 138.608 48.4237C138.973 48.055 139.179 47.555 139.179 47.0336V39.7074C139.177 39.1865 138.971 38.6874 138.607 38.3191C138.242 37.9508 137.748 37.7432 137.232 37.7415H117.781V30.1895H137.232C137.488 30.1919 137.741 30.1434 137.978 30.0469C138.215 29.9503 138.431 29.8075 138.614 29.6267C138.796 29.4458 138.942 29.2304 139.042 28.9929C139.142 28.7553 139.194 28.5001 139.197 28.2419V20.9158C139.195 20.3949 138.99 19.8958 138.625 19.5275C138.26 19.1591 137.766 18.9515 137.25 18.9499H117.781V11.3856H137.232Z" fill="#06C755"/>
<path d="M31.3614 37.766H11.9102V2.12415C11.9086 1.60326 11.703 1.10418 11.3383 0.735854C10.9737 0.367532 10.4795 0.159899 9.96381 0.158288H2.7406C2.48349 0.155869 2.22844 0.20493 1.9902 0.30264C1.75197 0.40035 1.53526 0.54477 1.3526 0.727558C1.16994 0.910346 1.02495 1.12788 0.926004 1.36759C0.82706 1.6073 0.776122 1.86444 0.776133 2.12415V46.997V47.0275C0.775321 47.2877 0.825669 47.5455 0.924256 47.7859C1.02284 48.0264 1.16771 48.2446 1.35045 48.4281C1.53319 48.6115 1.75017 48.7565 1.9888 48.8546C2.22743 48.9526 2.48298 49.0019 2.7406 48.9995H31.3614C31.8776 48.9995 32.3727 48.7924 32.7377 48.4237C33.1027 48.055 33.3078 47.555 33.3078 47.0336V39.7074C33.2999 39.1908 33.0915 38.698 32.7275 38.3349C32.3635 37.9718 31.873 37.7676 31.3614 37.766Z" fill="#06C755"/>
<path d="M48.589 0.164551H41.3658C40.2908 0.164551 39.4194 1.0447 39.4194 2.13041V47.0338C39.4194 48.1195 40.2908 48.9996 41.3658 48.9996H48.589C49.6639 48.9996 50.5353 48.1195 50.5353 47.0338V2.13041C50.5353 1.0447 49.6639 0.164551 48.589 0.164551Z" fill="#06C755"/>
<path d="M97.7738 0.158203H90.5506C90.0344 0.158203 89.5393 0.365319 89.1743 0.733989C88.8093 1.10266 88.6042 1.60268 88.6042 2.12406V28.7914L68.2644 1.05566C68.216 0.982399 68.1616 0.91524 68.1072 0.848083L67.9924 0.725982H67.9561C67.9229 0.691916 67.8865 0.66124 67.8473 0.634404L67.799 0.591668L67.6962 0.524511L67.6358 0.487882L67.527 0.426831L67.4665 0.396304L67.3517 0.347461H67.2852L67.1703 0.310832H67.0978H66.983H66.9044H66.7956H59.4092C58.894 0.312448 58.4005 0.52028 58.0368 0.888774C57.6731 1.25727 57.4689 1.75637 57.4689 2.27669V47.1801C57.5055 47.6746 57.7258 48.1369 58.0856 48.4743C58.4454 48.8117 58.9182 48.9992 59.4092 48.9994H66.6626C67.1777 48.9978 67.6713 48.79 68.035 48.4215C68.3987 48.053 68.6029 47.5539 68.6029 47.0335V20.3724L88.9729 48.1508C89.1089 48.3452 89.2789 48.5128 89.4746 48.6453L89.5955 48.7186L89.6499 48.7491L89.7466 48.7979L89.8434 48.8407H89.9038L90.0368 48.8895H90.067C90.2327 48.9336 90.4034 48.9561 90.5747 48.9567H97.7556C98.2718 48.9567 98.7669 48.7495 99.1319 48.3809C99.4969 48.0122 99.702 47.5122 99.702 46.9908V2.13017C99.7036 1.61089 99.5017 1.11206 99.1405 0.742592C98.7792 0.373126 98.2879 0.163039 97.7738 0.158203Z" fill="#06C755"/>
</svg>
