<?xml version="1.0" encoding="UTF-8"?>
<svg id="_圖層_2" data-name="圖層 2" xmlns="http://www.w3.org/2000/svg" viewBox="0 0 665.52 713.43">
  <defs>
    <style>
      .cls-1 {
        fill: #a2cac1;
      }

      .cls-1, .cls-2, .cls-3 {
        stroke-width: 3.2px;
      }

      .cls-1, .cls-2, .cls-3, .cls-4, .cls-5 {
        stroke: #6a737a;
      }

      .cls-1, .cls-2, .cls-3, .cls-5 {
        stroke-miterlimit: 10;
      }

      .cls-2 {
        fill: #e4c36f;
      }

      .cls-3, .cls-6 {
        fill: #ebebeb;
      }

      .cls-7 {
        font-size: 106.63px;
        letter-spacing: .2em;
      }

      .cls-7, .cls-8 {
        fill: #6a737a;
        font-family: GenYoMinTW-SB, 'GenYoMin TW';
      }

      .cls-9 {
        letter-spacing: 0em;
      }

      .cls-4 {
        stroke-linecap: round;
        stroke-linejoin: round;
        stroke-width: 2.96px;
      }

      .cls-4, .cls-5 {
        fill: none;
      }

      .cls-5 {
        stroke-width: 1.48px;
      }

      .cls-10 {
        letter-spacing: -.03em;
      }

      .cls-11 {
        letter-spacing: -.02em;
      }

      .cls-12 {
        letter-spacing: 0em;
      }

      .cls-13 {
        letter-spacing: -.02em;
      }

      .cls-14 {
        fill: #a5cfc6;
      }

      .cls-14, .cls-15, .cls-6 {
        stroke-width: 0px;
      }

      .cls-15 {
        fill: #ebc870;
      }

      .cls-8 {
        font-size: 65.16px;
      }
    </style>
  </defs>
  <g id="_圖層_1-2" data-name="圖層 1">
    <circle class="cls-6" cx="97.5" cy="112.39" r="96.92"/>
    <path class="cls-6" d="m501.39,1.48s30.82,100.61-10.97,161.74c-41.79,61.13-247.64,99.8-289.43,160.93-41.79,61.13-10.97,161.74-10.97,161.74,0,0-153.08-184.2-111.29-245.33,41.79-61.13,492.16,67.37,533.95,6.24C654.47,185.68,501.39,1.48,501.39,1.48Z"/>
    <path class="cls-14" d="m154.88,113.97s13.33,39.42,5.67,60.81c17.55-11.47,19.52-14.08,19.52-14.08,0,0,13.81-25.91.72-66.21-14.08,11.74-25.91,19.48-25.91,19.48Z"/>
    <path class="cls-15" d="m30.62,80.52s-10.56,38.52,4.48,73.86c18.14-1.19,36.16-5.37,36.16-5.37,0,0-12.68-41.33-15.25-71.8-12.91,2.68-25.39,3.32-25.39,3.32Z"/>
    <path class="cls-15" d="m189.55,484.2s-26.09-83.67,2.15-146.09c8.5-18.51,27.59-51.87,153.53-94.42,0,0-169.47,17.88-182.61,71.58-7.03,33.68-19.47,63.59,26.92,168.94Z"/>
    <path class="cls-14" d="m346.3,242.33s163.59-22.38,178.72-65.16,24.83-47.07-23.04-177.05c0,0,87.76,138.1,52.46,199.85-21.43,21.75-30.26,35.9-208.14,42.36Z"/>
    <g>
      <g>
        <path class="cls-4" d="m190.02,485.89S36.94,301.69,78.73,240.56c41.79-61.13,492.16,67.37,533.95,6.24C654.47,185.68,501.39,1.48,501.39,1.48"/>
        <path class="cls-4" d="m190.02,485.89s-122.52-163.3-80.72-224.43c41.79-61.13,431.03,25.58,472.82-35.55C623.91,164.78,501.39,1.48,501.39,1.48"/>
        <path class="cls-4" d="m190.02,485.89s-91.95-142.4-50.16-203.53c41.79-61.13,369.9-16.21,411.69-77.34C593.34,143.89,501.39,1.48,501.39,1.48"/>
        <path class="cls-4" d="m190.02,485.89s-61.39-121.51-19.59-182.64c41.79-61.13,308.77-58.01,350.56-119.14C562.78,122.99,501.39,1.48,501.39,1.48"/>
        <path class="cls-4" d="m190.02,485.89s-30.82-100.61,10.97-161.74c41.79-61.13,247.64-99.8,289.43-160.93,41.79-61.13,10.97-161.74,10.97-161.74"/>
      </g>
      <g>
        <path class="cls-5" d="m113.8,17.04c6.15,1.27,11.96,2.47,20.19,5.76,8.31,3.74,8.99,4.04,14.23,7.2,7.86,5.24,8.33,5.56,12.73,9.32,7.13,6.68,7.41,6.94,11.05,11.29,6.03,7.89,6.27,8.2,9.15,13.12,4.75,9,4.93,9.35,6.99,14.81,3.19,9.73,3.38,10.32,4.6,16.74,1.41,10.06,1.43,10.25,1.52,15.92-.26,9.77-.27,10.15-1.11,15.77-1.78,9.27-1.89,9.82-3.66,15.37-3.13,8.53-3.39,9.22-6.19,14.73-4.04,7.14-4.66,8.24-8.82,13.92-3.47,4.3-6.47,8.02-11.99,13.09-5.07,4.41-10.01,8.47-19.19,13.54-1.48.77-2.96,1.54-4.47,2.25-1.35.62-2.71,1.24-4.08,1.81-1.3.53-2.61,1.05-3.93,1.54-1.32.47-2.64.93-3.97,1.36-1.4.43-2.8.86-4.22,1.24-1.56.4-3.12.8-4.69,1.14-3.34.67-3.61.73-5.52,1.03-4.2.58-4.46.62-6.92.83-5.25.32-5.8.35-9.36.31-6.43-.28-7.77-.34-13.72-1.19-7.61-1.47-9.19-1.78-16.24-4.04-8.27-3.17-9.13-3.5-14.71-6.44-8.1-4.78-8.59-5.06-13.25-8.62-7.31-6.12-7.75-6.48-11.64-10.64-6.43-7.5-6.68-7.79-9.82-12.52-4.65-7.72-5.9-9.79-9.85-19.44-3.26-9.94-3.32-10.13-4.42-15.77-1.51-10.06-1.54-10.25-1.69-15.92.16-9.78.17-10.17.95-15.79,1.73-9.48,1.8-9.85,3.51-15.4,3.05-8.57,3.3-9.27,6.04-14.78,3.98-7.21,4.59-8.31,8.65-13.97,3.16-4,6.43-8.14,11.76-13.13,6.26-5.58,11.08-9.32,20.04-14.33,1.48-.77,2.96-1.54,4.47-2.25,1.35-.62,2.71-1.24,4.08-1.81,1.3-.53,2.61-1.05,3.93-1.54,1.32-.47,2.64-.93,3.97-1.36,1.4-.43,2.8-.86,4.22-1.24,1.56-.4,3.12-.8,4.69-1.14,3.34-.67,3.61-.73,5.52-1.03,4.2-.58,4.46-.62,6.92-.83,5.25-.32,5.8-.35,9.36-.31,6.61.29,7.63.33,12.93,1.07-8.85-.93-25.31-2.66-46.45,8.43-.04,0-.09,0-.14,0-.07.06-.14.12-.21.19h0c.07-.06.14-.12.21-.18-.06,0-.12.03-.18.05,0,.05-.02.09-.02.14h0s.01-.09.02-.14c-.06.02-.13.05-.19.08.06.02.12.04.17.06h0c-.06-.02-.12-.04-.18-.06-.01,0-.03.01-.04.02-.04.02-.08.05-.11.07.11-.01.22-.02.34-.04h0c-.11.01-.23.03-.34.04-.04.03-.06.06-.08.08.14-.04.28-.08.42-.12h0c-.14.04-.28.08-.42.12-.01.02,0,.04.01.06.13-.06.27-.12.4-.18h0c-.13.06-.27.12-.4.18.01,0,.02.01.04.01s.04,0,.06,0c.1-.07.2-.13.29-.2h0c-.1.07-.19.13-.29.2.05,0,.11-.01.17-.03.04-.06.08-.11.12-.17h0c-.04.06-.08.11-.11.17.06-.02.13-.04.19-.06-.03-.04-.05-.07-.08-.11h0s.06.07.08.1c.05-.02.1-.04.14-.07.01,0,.03-.02.04-.02-.09,0-.18,0-.26-.01h0c.09,0,.18,0,.27.01.05-.03.09-.06.12-.09-.13.03-.26.05-.39.08h0c.13-.03.26-.05.39-.08.02-.03.04-.05.03-.07-.14.05-.28.1-.42.15h0c.14-.05.28-.1.42-.15,0-.02-.03-.03-.06-.04,15.91-8.38,32.7-10.82,48.42-8.11m-1.19-.2c-15.5-2.46-31.98.11-47.6,8.5,15.62-8.38,32.1-10.96,47.6-8.5-6.97-.9-7.87-1.02-13.72-1.19-5.68.04-5.91.04-9.36.31q-4.54.46-6.92.83-3.67.63-5.52,1.03c-1.57.36-3.14.72-4.69,1.14-1.41.4-2.82.79-4.22,1.24-1.33.44-2.66.88-3.97,1.36-1.32.5-2.63,1-3.93,1.54-1.37.59-2.73,1.18-4.08,1.81-1.5.73-3,1.46-4.47,2.25-8.06,4.52-13.11,8.13-20.04,14.33-3.76,3.7-7.31,7.2-11.76,13.13-4.54,6.56-5.36,7.74-8.65,13.97-3.81,8.22-4.12,8.89-6.04,14.78-2.5,9.09-2.65,9.63-3.51,15.4-1.01,9.71-1.05,10.08-.95,15.79.61,9.91.64,10.3,1.69,15.92,2.31,9.91,2.4,10.3,4.42,15.77,3.63,8.64,4.49,10.69,9.85,19.44,5.89,8.21,6,8.37,9.82,12.52,6.9,6.88,7.17,7.15,11.64,10.64,7.67,5.48,8.13,5.81,13.25,8.62,8.14,4.02,8.81,4.35,14.71,6.44,7.83,2.39,9.04,2.75,16.24,4.04,6.97.9,7.87,1.02,13.72,1.19,5.8-.04,5.91-.05,9.36-.31q4.54-.46,6.92-.83,3.67-.63,5.52-1.03c1.57-.36,3.14-.72,4.69-1.14,1.41-.4,2.82-.79,4.22-1.24,1.33-.44,2.66-.88,3.97-1.36,1.32-.5,2.63-1,3.93-1.54,1.37-.59,2.73-1.18,4.08-1.81,1.5-.73,3-1.46,4.47-2.25,6.49-3.63,11.96-7.17,19.19-13.54,4.1-3.94,7.34-7.05,11.99-13.09,4.59-6.49,5.42-7.66,8.82-13.92,3.81-8,4.2-8.84,6.19-14.73,2.59-9.05,2.74-9.6,3.66-15.37,1.09-9.49,1.15-10.06,1.11-15.77-.51-9.91-.53-10.29-1.52-15.92-2.16-9.71-2.34-10.5-4.6-16.74-4.05-9.64-4.13-9.83-6.99-14.81-5.45-8.59-5.56-8.76-9.15-13.12-6.54-7.29-6.8-7.57-11.05-11.29-7.54-6.04-7.83-6.28-12.73-9.32-8.13-4.58-8.62-4.86-14.23-7.2-6.74-2.47-12.06-4.42-21.37-5.96"/>
        <path class="cls-5" d="m75.87,203.85c-.19-.09-.39-.18-.58-.27-3.63.13-6.91-.01-9.72-.46-1.91-.3-3.53-.73-4.87-1.28l.83.34c1.31.52,2.88.93,4.71,1.22,2.79.44,6.03.59,9.63.46m26.18-4.1c-.12-.1-.24-.2-.36-.31-9.41,2.32-18.2,3.76-25.57,4.1.19.09.38.18.58.27,7.31-.34,16.03-1.77,25.36-4.07m30.1-9.73c-.03-.13-.06-.26-.1-.39-9.83,3.91-19.86,7.17-29.32,9.55.12.1.23.21.35.31,9.37-2.36,19.32-5.59,29.06-9.47m28.6-13.84c.05-.17.1-.34.15-.51-1.94,1.15-4,2.31-6.16,3.47-6.82,3.66-14.12,7.04-21.57,10.05.03.13.06.27.09.4,7.38-2.98,14.63-6.33,21.39-9.96,2.14-1.15,4.18-2.3,6.11-3.44m18.62-13.97c.1-.21.21-.42.31-.63-3.93,4.17-9.96,8.79-17.89,13.56-.05.17-.1.35-.16.52,7.87-4.73,13.84-9.31,17.74-13.44m4.16-5.61l.4-.79c-.83,1.65-2.11,3.42-3.82,5.29-.1.21-.21.43-.31.64,1.66-1.81,2.9-3.54,3.73-5.14"/>
        <path class="cls-5" d="m10.67,150.94c-.05-.13-.1-.27-.15-.41s-.1-.27-.15-.4c-1.83-1.21-3.04-2.66-3.65-4.32l.16.44.17.44c1.32,2.41,1.46,2.66,3.62,4.26m23.48,3.96c-.05-.13-.1-.27-.15-.41s-.1-.27-.15-.4c-5.12.18-9.72-.02-13.68-.65s-7.05-1.65-9.31-3.01c.05.13.1.27.15.4s.1.27.15.41c2.25,1.36,5.34,2.38,9.31,3.01,3.96.63,8.57.83,13.68.65m37.18-5.82c-.05-.13-.1-.27-.15-.41s-.1-.27-.15-.4c-13.25,3.26-25.62,5.29-36.01,5.78.05.13.1.27.15.4s.1.27.15.41c10.39-.49,22.77-2.51,36.01-5.78m42.76-13.82c-.05-.14-.1-.27-.15-.41s-.1-.27-.15-.4c-13.84,5.51-27.97,10.09-41.28,13.45.05.13.1.27.15.4s.1.27.15.41c13.31-3.36,27.44-7.94,41.28-13.45m40.62-19.66c-.05-.14-.1-.27-.15-.41s-.1-.27-.15-.4c-2.74,1.62-5.63,3.25-8.68,4.89-9.6,5.15-19.89,9.92-30.37,14.15.05.13.1.27.15.4s.1.27.15.41c10.49-4.23,20.77-8.99,30.37-14.15,3.05-1.64,5.94-3.27,8.68-4.89m26.45-19.84c-.05-.14-.1-.27-.15-.41s-.1-.27-.15-.4c-5.54,5.87-14.02,12.38-25.2,19.09.05.13.1.27.15.4s.1.27.15.41c11.17-6.71,19.66-13.22,25.2-19.09m7.44-15.71c-.05-.14-.1-.27-.15-.41s-.1-.27-.15-.4c.85,4.07-1.51,9.23-6.83,15.05.05.13.1.27.15.4s.1.27.15.41c5.32-5.82,7.68-10.99,6.83-15.05m-.47-1.5l-.16-.43c.08.22.16.45.22.67.05.13.1.27.15.4s.1.27.15.41c-.06-.21-.12-.41-.19-.61l-.16-.44"/>
        <path class="cls-5" d="m10.93,69.29c.11-.23.23-.46.35-.69.07-.14.14-.28.21-.42l-.21.41-.2.4c-.05.1-.1.2-.14.29m1.93,8.91c.11-.25.22-.51.33-.76-2.99-1.98-3.63-4.89-2.09-8.43-.12.23-.23.46-.35.69-1.55,3.57-.91,6.5,2.11,8.5m16.67,2.81c.06-.26.12-.52.19-.79-3.6.13-6.85-.01-9.63-.46-2.79-.44-4.97-1.16-6.55-2.12-.11.25-.22.51-.33.76,1.6.96,3.79,1.69,6.61,2.14,2.81.45,6.08.59,9.72.46m26.41-4.14c-.01-.25-.03-.5-.04-.75-9.33,2.3-18.04,3.72-25.36,4.07-.06.26-.12.52-.18.79,7.38-.34,16.17-1.78,25.58-4.1m30.37-9.81c-.1-.22-.2-.44-.3-.67-9.74,3.88-19.69,7.11-29.07,9.47.01.25.03.5.05.75,9.45-2.38,19.49-5.64,29.32-9.55m28.85-13.96c-.18-.18-.36-.37-.54-.55-1.93,1.14-3.97,2.29-6.11,3.44-6.76,3.63-14,6.98-21.39,9.96.1.22.2.44.31.66,7.45-3.01,14.75-6.39,21.57-10.05,2.16-1.16,4.22-2.32,6.16-3.47m18.78-14.09c-.23-.14-.47-.28-.71-.43-3.9,4.13-9.87,8.72-17.74,13.44.18.18.37.36.55.54,7.93-4.77,13.96-9.39,17.89-13.56m5.29-11.16c-.25-.11-.5-.22-.75-.33.6,2.86-1.06,6.5-4.81,10.6.24.14.47.28.71.42,3.78-4.13,5.45-7.8,4.85-10.69m-5.23-5.04l-.44-.18c2.72,1.09,4.31,2.64,4.84,4.57.25.11.5.22.75.33-.52-1.91-2.08-3.46-4.74-4.55l-.41-.17"/>
        <path class="cls-5" d="m65.44,25.19c24.82-8.95,50.84-7.54,72.95,2,.25.11.5.22.75.33,22.02,9.73,40.07,27.56,49.05,51.26.05.13.1.27.15.4s.1.27.15.41c.89,2.43,1.67,4.87,2.35,7.32l1.38,5.73c-.89-4.23-2.09-8.44-3.62-12.61-.05-.14-.1-.27-.15-.41s-.1-.27-.15-.4c-8.98-23.71-27.04-41.59-49.08-51.39-.25-.11-.5-.22-.75-.33-22.13-9.62-48.17-11.14-73.02-2.32-.14.05-.28.1-.42.15h0c.14-.05.28-.1.42-.15"/>
        <path class="cls-5" d="m65.41,25.27c22.98-4.72,47.34.52,68.25,12.84.24.14.47.28.71.42,20.82,12.49,38.13,32.03,47.1,55.75.05.13.1.27.15.4s.1.27.15.41c8.76,23.77,7.5,47.22-1.65,66.01-.1.21-.21.43-.31.64-2.76,5.53-6.2,10.64-10.28,15.23l-1.07,1.17c4.36-4.76,8.02-10.11,10.91-15.94.1-.21.21-.42.31-.63,9.04-18.68,10.23-42.06,1.47-65.82-.05-.14-.1-.27-.15-.41s-.1-.27-.15-.4c-8.97-23.72-26.21-43.34-46.92-55.94-.23-.14-.47-.28-.71-.43-20.79-12.45-45-17.85-67.82-13.31-.13.03-.26.05-.39.08h0c.13-.03.26-.05.39-.08"/>
        <path class="cls-5" d="m65.29,25.36c15.94.67,33.93,10.79,50.19,26.66.18.18.37.36.55.54,16.22,16.01,30.69,37.73,39.62,61.48.05.13.1.27.15.4s.1.27.15.41c8.79,23.74,10.38,45.01,5.83,60.29-.05.17-.1.35-.16.52-2.63,8.49-7.19,15.09-13.48,19.16l-.66.41c6.25-3.96,10.73-10.52,13.26-19.04.05-.17.1-.34.15-.51,4.32-15.14,2.6-36.33-6.19-60.07-.05-.14-.1-.27-.15-.41s-.1-.27-.15-.4c-8.93-23.75-23.26-45.55-39.26-61.69-.18-.18-.36-.37-.54-.55-16.04-16.01-33.71-26.31-49.32-27.18-.09,0-.18,0-.26-.01h0c.09,0,.18,0,.27.01"/>
        <path class="cls-5" d="m65.1,25.45c4.95,6.06,12.98,21.07,22,40.5.1.22.2.44.31.66,9.04,19.53,19.05,43.44,27.94,67.21.05.13.1.27.15.4s.1.27.15.41c8.84,23.72,14.88,42.8,17.51,54.55.03.13.06.27.09.4,2.1,10.31,1.46,11.19.5,12.51l-.44.18c1.13-.46.68-4.79-1.16-12.24-.03-.13-.06-.26-.1-.39-2.91-11.64-9.12-30.65-17.96-54.37-.05-.14-.1-.27-.15-.41s-.1-.27-.15-.4c-8.88-23.77-18.72-47.75-27.49-67.39-.1-.22-.2-.44-.3-.67-8.74-19.54-16.38-34.7-20.91-40.94-.03-.04-.05-.07-.08-.11h0s.06.07.08.1"/>
        <path class="cls-5" d="m64.9,25.52c-6.74,9.9-9.29,28.38-7.97,50.34.01.25.03.5.05.75,1.41,22.04,6.69,47.5,15.52,71.29.05.13.1.27.15.4s.1.27.15.41c8.89,23.7,19.66,41.23,29.93,50.48.12.1.23.21.35.31,6.41,5.66,12.61,8.07,18.02,6.72l-.51.13c-5.63,1.37-12-1-18.55-6.59-.12-.1-.24-.2-.36-.31-10.53-9.18-21.46-26.67-30.36-50.37-.05-.13-.1-.27-.15-.41s-.1-.27-.15-.4c-8.83-23.79-13.95-49.29-15.1-71.4-.01-.25-.03-.5-.04-.75-1.06-22.03,1.86-40.6,9-50.6.04-.06.08-.11.12-.17h0c-.04.06-.08.11-.11.17"/>
        <path class="cls-5" d="m64.73,25.55c-16.97,11.58-28.78,31.58-34.19,54.64-.06.26-.12.52-.18.79-5.27,23.13-4.13,49.27,4.66,73.07.05.13.1.27.15.4s.1.27.15.41c8.94,23.69,23.85,40.55,40.79,48.69.19.09.38.18.58.27,8.05,3.77,16.56,5.58,25.09,5.23l-1.05.04c-8.47.26-16.89-1.55-24.86-5.23-.19-.09-.39-.18-.58-.27-17.15-8.14-32.19-24.99-41.13-48.68-.05-.13-.1-.27-.15-.41s-.1-.27-.15-.4c-8.79-23.8-9.8-49.94-4.32-73.08.06-.26.12-.52.19-.79,5.62-23.07,17.72-43.08,35.01-54.67.1-.07.2-.13.29-.2h0c-.1.07-.19.13-.29.2"/>
        <path class="cls-5" d="m64.61,25.53c-23.56,10.6-41.33,29.7-51.08,52.12-.11.25-.22.51-.33.76-9.57,22.49-11.1,48.23-2.34,72.03.05.13.1.27.15.4s.1.27.15.41c4.09,9.59,12.6,29.54,36.06,43.8l-3.46-2.2c-14.56-9.71-26.3-23.97-33.09-41.9-.05-.13-.1-.27-.15-.41s-.1-.27-.15-.4c-8.76-23.79-7.18-49.5,2.48-71.94.11-.25.22-.51.33-.76,9.84-22.36,27.74-41.39,51.43-51.9.13-.06.27-.12.4-.18h0c-.13.06-.27.12-.4.18"/>
        <path class="cls-5" d="m64.6,25.47c-24.5,7.25-43.13,23.32-53.51,43.53-.12.23-.23.46-.35.69l-2.13,4.59,1.4-3.12c.3-.63.6-1.26.92-1.88.11-.23.23-.46.35-.69,10.33-20.11,28.89-36.04,53.32-43.13.14-.04.28-.08.42-.12h0c-.14.04-.28.08-.42.12"/>
        <path class="cls-5" d="m64.68,25.39c-10.82,1.27-20.05,5.25-27.42,11.33l.69-.54c7.2-5.85,16.19-9.64,26.73-10.79.11-.01.22-.02.34-.04h0c-.11.01-.23.03-.34.04"/>
        <path class="cls-5" d="m64.84,25.29c-4.19-.95-5.92-1.35-9.89.22l.49-.24c2.52-1.22,5.66-1.27,9.41.01.06.02.12.04.17.06h0c-.06-.02-.12-.04-.18-.06"/>
        <path class="cls-5" d="m65.03,25.21c.36-2.82,1.15-4.36,2.3-4.74l.45-.15c-1.29.42-2.23,2.01-2.75,4.88,0,.05-.02.09-.02.14h0s.01-.09.02-.14"/>
        <path class="cls-5" d="m65.23,25.16c5.19-4.59,10.82-7.29,16.63-8.24l.63-.1c-6.01.95-11.85,3.68-17.25,8.34-.07.06-.14.12-.21.19h0c.07-.06.14-.12.21-.18"/>
      </g>
      <g>
        <path class="cls-1" d="m336.62,437.68v-3.75l18.03-2.34c.16-9.37.23-16.39.23-21.08v-50.7l-16.39,1.52v-4.45l27.63-6.79,1.64,1.29-.35,18.62v40.51c0,4.53.08,11.44.23,20.73v.35l17.45,2.34v3.75h-48.48Z"/>
        <path class="cls-3" d="m402.66,437.68v-3.75l18.03-2.34c.16-9.37.23-16.39.23-21.08v-50.7l-16.39,1.52v-4.45l27.63-6.79,1.64,1.29-.35,18.62v40.51c0,4.53.08,11.44.23,20.73v.35l17.45,2.34v3.75h-48.48Z"/>
        <path class="cls-2" d="m486.26,439.44c-10.23,0-15.34-5.27-15.34-15.81v-4.8c.08-2.65.12-4.84.12-6.56v-30.91h-10.66v-4.22l11.36-1.29,3.98-17.92h8.43l-.58,18.15h16.51v5.27h-16.63v42.27c0,6.32,2.54,9.48,7.61,9.48,2.5,0,5.35-1.21,8.55-3.63l2.34,2.58c-3.44,4.92-8.66,7.38-15.69,7.38Z"/>
        <path class="cls-3" d="m506.52,437.68v-3.75l9.37-1.29c.16-8.9.23-16.28.23-22.13v-58.55l-10.07-.94v-3.63l20.96-5.04,1.64.94-.35,18.38v24.71c7.1-8.04,14.79-12.06,23.07-12.06,5.7,0,9.91,1.8,12.65,5.39,2.97,3.75,4.45,9.64,4.45,17.68v13.11c0,6.01.08,13.39.23,22.13l8.55,1.29v3.75h-30.56v-3.75l9.02-1.29c.16-8.74.23-16.12.23-22.13v-13.35c0-5.39-.86-9.25-2.58-11.59-1.56-2.11-4.1-3.16-7.61-3.16-5.62,0-11.36,2.73-17.21,8.2v19.91c0,6.01.08,13.39.23,22.13l8.31,1.29v3.75h-30.56Z"/>
      </g>
      <text class="cls-7" transform="translate(25.73 594.84)"><tspan x="0" y="0">梅竹黑客松</tspan></text>
      <text class="cls-8" transform="translate(27.68 677.53)"><tspan class="cls-10" x="0" y="0">M</tspan><tspan x="63.01" y="0">ei</tspan><tspan class="cls-11" x="121.66" y="0">c</tspan><tspan class="cls-12" x="156.27" y="0">h</tspan><tspan class="cls-9" x="199.73" y="0">u </tspan><tspan class="cls-13" x="259.03" y="0">H</tspan><tspan x="313.96" y="0">a</tspan><tspan class="cls-11" x="351.04" y="0">c</tspan><tspan x="385.64" y="0">kathon</tspan></text>
    </g>
  </g>
</svg>