<svg width="408" height="45" viewBox="0 0 408 45" fill="none" xmlns="http://www.w3.org/2000/svg">
<path d="M18.4486 4.35223C18.0973 3.99349 18.0387 2.89531 18.5291 2.53657C27.1006 2.53657 37.0921 0.823415 41.6011 4.65972C44.0898 6.77554 43.2481 10.5972 42.0037 13.1157C41.7109 13.7819 41.3815 14.4335 41.0228 15.0558C39.5223 17.6548 37.4069 19.8805 34.8376 21.4252C34.3252 21.7327 33.7909 22.0183 33.2346 22.2745C29.9041 23.7387 25.3951 24.8442 22.3135 24.8442C21.6986 24.8442 22.5184 23.7387 22.7234 23.7387C25.805 22.7138 28.8866 21.8938 31.3607 20.0196C31.7267 19.7121 32.1073 19.368 32.488 19.0019C33.6372 17.8964 34.8303 16.5274 35.7965 15.0412C36.2284 14.3823 36.6236 13.6941 36.9457 12.9912C38.1169 10.6045 38.3145 7.74194 36.4699 5.47969C34.8303 3.83974 32.5831 4.0667 30.4604 4.11795C29.4869 4.11795 28.9672 4.1692 28.5646 4.46204C28.162 4.75489 27.8765 4.85007 27.4007 5.77254C27.4007 5.77254 25.9807 8.57655 24.0556 12.3689C23.836 12.7936 23.6164 13.2255 23.3895 13.6721C20.4689 19.6315 17.1896 25.3787 14.4227 31.3674C13.947 32.3118 13.6615 32.8683 13.6615 32.8683C10.8361 38.4324 10.4042 39.7502 13.4199 39.9844L15.5427 40.1602C15.8208 40.5775 15.4841 41.4194 15.0157 41.6537C12.1536 41.5365 10.0675 41.4706 7.18348 41.4706C4.72404 41.4706 2.66718 41.5292 0.244331 41.6537C-0.180216 41.3535 -0.0191812 40.5189 0.478564 40.1602L2.36707 39.9844C5.30962 39.6843 6.05624 38.9668 9.15982 32.8683C9.15982 32.8683 10.2285 30.7598 11.7364 27.78C11.956 27.3554 12.1829 26.9088 12.4098 26.4476C14.313 22.3038 16.5748 18.6066 18.4633 14.5214C18.6975 14.0674 18.9171 13.6209 19.1367 13.1889C20.6519 10.2019 21.7206 8.10067 21.7206 8.10067C23.1772 5.23077 22.1744 4.60115 21.1203 4.41812L18.4486 4.35223Z" fill="#0E357F"/>
<path d="M74.5109 36.0157C62.0014 45.4381 47.1569 46.8291 41.3449 39.1126C35.533 31.4034 40.9643 17.5078 53.4665 8.08539C65.976 -1.33698 80.8278 -2.728 86.6398 4.98853C92.4443 12.6977 87.0131 26.586 74.5109 36.0157Z" fill="url(#paint0_linear_769_1130)"/>
<path d="M105.422 10.8968C108.314 5.28145 108.365 4.38827 105.752 3.8465L104.053 3.6049C103.783 3.12902 103.892 2.47011 104.602 2.22852C106.981 2.34565 109.419 2.28709 111.937 2.28709C114.404 2.28709 116.643 2.34565 119.549 2.22852C119.923 2.47011 119.483 3.30473 118.883 3.6049L117.214 3.8465C113.628 4.38094 113.269 4.98128 110.253 10.8968L99.1857 33.102C96.3603 38.6587 95.9211 39.6398 98.6587 40.2108L100.481 40.3865C100.759 40.8039 100.415 41.5213 99.947 41.7629C97.0337 41.6385 94.9988 41.7044 92.4149 41.7044C89.9482 41.7044 87.3789 41.6458 84.9561 41.7629C84.5315 41.4628 85.2196 40.7453 85.71 40.3865L87.6058 40.2108C90.5484 39.9107 91.2877 39.1932 94.3986 33.102L105.422 10.8968Z" fill="#0E357F"/>
<path d="M42.3404 36.1036C45.0634 35.7815 46.6591 34.8663 51.1022 31.1984C52.3905 30.1002 56.1163 27.2157 61.0498 23.1378C61.6573 22.6326 61.6573 22.2226 61.4963 21.5784C60.8888 18.5987 60.1129 14.0668 59.4468 10.8602C59.0661 9.11772 59.0954 8.48078 57.4045 8.20257L56.2773 8.01954C55.9845 7.74134 56.3505 7.06779 56.775 6.93601C59.0076 7.03118 60.5594 7.01654 62.1624 7.01654C64.3657 7.01654 65.9174 7.03118 67.235 6.93601C67.5351 7.16296 67.396 7.79259 67.0447 8.01954L65.6539 8.20257C63.4434 8.48078 63.4287 8.89076 63.6556 10.3989C64.1461 13.2396 64.6365 16.5341 65.3099 19.6968C68.86 16.9514 73.2445 13.1883 76.436 9.98894C77.8121 8.61256 78.017 8.20257 76.7214 8.02686L75.3087 7.84384C75.0818 7.5217 75.2575 7.16296 75.7552 6.92869C77.2411 7.02386 78.7271 6.95065 80.7327 6.95065C82.6797 6.95065 83.3385 6.96529 84.9123 6.87012C85.2709 7.05315 85.066 7.57295 84.6195 7.79991L83.7777 7.9683C82.6431 8.15133 81.4281 8.41489 80.1983 9.24218C75.6967 12.2658 71.8538 16.1607 66.5909 20.3777C65.5734 21.1538 65.6173 21.2929 65.8076 22.2593C66.6275 26.3811 67.6376 30.5029 68.333 33.7974C68.655 35.3129 69.0869 35.9938 70.1702 36.089L71.9929 36.2281C72.2491 36.4111 72.0807 37.1286 71.6415 37.3189C69.7091 37.2311 68.4647 37.2384 66.2615 37.2384C64.3071 37.2384 62.016 37.2238 60.2885 37.3189C59.9299 37.1359 60.3837 36.4184 60.7716 36.2281L61.9062 36.089C63.7581 35.862 64.168 35.6277 63.8386 33.8926C63.253 30.5908 62.6675 27.2523 61.9574 24.0456C58.4879 26.8862 53.1225 31.5864 49.7627 34.6101C49.1478 35.1592 48.8184 35.8035 49.7334 35.9426L51.3511 36.089C51.5999 36.3159 51.373 37.1139 50.9485 37.2018C49.2137 37.1139 47.8888 37.1798 45.8905 37.1798C44.39 37.1798 42.7357 37.0554 41.4621 37.1432C41.1034 36.9602 41.2132 36.4038 41.5572 36.1768L42.3404 36.1036Z" fill="white"/>
<path d="M99.2883 9.04481H94.3328L96.5946 4.06641H101.557L99.2883 9.04481Z" fill="#0E357F"/>
<path d="M94.3621 26.8563H89.3993L91.6684 21.8779H96.6312L94.3621 26.8563Z" fill="#E60012"/>
<path d="M85.2929 17.6835H80.3301L82.5992 12.7051H87.5547L85.2929 17.6835Z" fill="#009944"/>
<path d="M53.2176 17.6249H48.2621L50.5239 12.6465H55.4867L53.2176 17.6249Z" fill="#E60012"/>
<path d="M75.2795 23.4462H70.3167L72.5858 18.4678H77.5486L75.2795 23.4462Z" fill="#0E357F"/>
<path d="M135.807 11.6864V23.005C135.807 26.0872 135.946 28.9717 134.518 33.2546H131.832C132.981 29.8942 133.318 26.3068 133.318 22.4705V11.3204C133.318 10.764 133.538 10.2295 133.933 9.8122C134.35 9.3656 134.965 9.08008 135.638 9.08008H156.134V10.9836H136.531C136.202 10.9836 135.807 11.2911 135.807 11.6864ZM139.423 32.6323H135.975C138.156 30.3921 139.166 28.3202 140.228 26.0799H143.031C142.08 28.3494 140.96 30.5897 139.423 32.6323ZM154.121 24.2862C153.704 24.623 153.081 24.8206 152.357 24.8206H147.796V30.9851C147.796 31.6293 147.54 32.215 147.094 32.6397C146.677 33.035 146.084 33.2546 145.359 33.2546H142.219L141.436 31.2413H144.598C144.876 31.2413 145.213 30.9924 145.213 30.5678V24.828H140.396C139.584 24.828 138.94 24.5717 138.522 24.0739C138.156 23.6566 137.959 23.0635 137.959 22.2802V16.0279C137.959 15.3543 138.295 14.7394 138.83 14.344C139.225 14.0658 139.723 13.8974 140.286 13.8974H143.756C144.012 13.341 144.4 12.2428 144.568 11.6279H147.226C146.999 12.3307 146.611 13.363 146.413 13.8974H152.935C153.55 13.8974 154.055 14.1756 154.45 14.6222C154.787 15.0176 154.985 15.5154 154.985 16.0206V22.573C154.992 23.2539 154.684 23.8689 154.121 24.2862ZM151.713 15.779H141.326C140.909 15.779 140.543 16.0865 140.543 16.4818V18.3341H152.496V16.5111C152.496 16.167 152.188 15.779 151.713 15.779ZM140.543 20.2302V22.1045C140.543 22.6096 140.879 22.8293 141.326 22.8293H151.603C152.166 22.8293 152.496 22.4632 152.496 22.0166V20.2229H140.543V20.2302ZM150.007 26.0799H152.811C153.843 28.3202 155.16 30.5897 156.734 32.6323H153.572C152.218 30.5312 150.988 28.3202 150.007 26.0799Z" fill="#0E357F"/>
<path d="M162.099 30.759H159.83C160.892 26.2784 161.426 21.4318 161.675 16.5339H163.805C163.497 21.3805 163.051 26.1686 162.099 30.759ZM166.974 33.1969H164.508V15.1868H160.306V13.254H164.508V8.77344H166.974V13.254H170.729V15.1868H166.974V33.1969ZM167.728 16.5339H169.829C169.888 21.322 170.444 26.1686 171.227 30.759H168.958C168.402 26.3882 167.779 21.6294 167.728 16.5339ZM183.378 32.2964C182.902 32.8601 182.148 33.1896 181.277 33.1896H174.192C173.489 33.1896 172.764 32.9114 172.259 32.2964C171.893 31.8498 171.674 31.2348 171.674 30.4515V11.5189C171.674 10.6769 172.091 9.98143 172.735 9.55681C173.24 9.22003 173.855 9.08093 174.528 9.08093H181.277C182.09 9.08093 182.763 9.30788 183.21 9.75448C183.715 10.2011 183.993 10.9039 183.993 11.7385V30.6125C183.993 31.2934 183.773 31.8498 183.378 32.2964ZM180.889 11.0723H174.843C174.536 11.0723 174.17 11.3798 174.17 11.7458V16.3948H181.533V11.6873C181.533 11.3505 181.255 11.0723 180.889 11.0723ZM174.17 18.4081V23.7013H181.533V18.4081H174.17ZM174.17 25.7732V30.5027C174.17 30.92 174.477 31.2056 174.785 31.2056H180.86C181.226 31.2056 181.533 30.8102 181.533 30.4515V25.7732H174.17Z" fill="#0E357F"/>
<path d="M190.207 30.4222H187.799C188.919 26.6445 189.285 22.5519 189.395 18.3788H191.525C191.496 22.5007 191.108 26.6152 190.207 30.4222ZM194.687 33.336H192.308V17.1489H188.165V15.1868H192.308V11.5994C191.247 11.658 189.79 11.7385 188.582 11.7971V9.89359C191.913 9.81306 195.163 9.447 198.274 8.80273V10.7868C197.293 10.9552 195.529 11.2334 194.687 11.3505V15.1868H198.859V17.1489H194.687V33.336ZM195.47 18.3788H197.652C197.71 22.6105 198.266 26.5859 199.247 30.4222H196.78C195.924 26.3589 195.558 21.9369 195.47 18.3788ZM210.425 33.336H207.848V26.5054L199.255 27.6255V25.6122L207.848 24.492V8.80273H210.425V24.1479L212.408 23.921V25.8831L210.425 26.11V33.336ZM199.364 17.1489H202.219C203.339 19.111 204.657 21.0438 206.362 22.7203H203.032C201.633 21.0438 200.404 19.111 199.364 17.1489ZM199.73 10.2597H202.673C203.712 12.1119 205.001 14.2351 206.648 15.8604H203.346C201.912 14.096 200.682 12.1924 199.73 10.2597Z" fill="#0E357F"/>
<path d="M222.297 22.6691V31.0372C222.297 31.6814 222.07 32.2379 221.653 32.6332C221.287 32.97 220.782 33.1676 220.109 33.1676H217.473L216.551 31.2056H219.267C219.604 31.2056 219.852 30.9566 219.852 30.6491V23.533C218.762 23.899 217.166 24.3749 216.017 24.6531V22.4421C217.195 22.1639 219.04 21.6294 219.852 21.322V15.5236H216.266V13.6493H219.852V8.77344H222.29V13.6786H225.232V15.5236H222.29V20.4288C223.212 20.1213 224.303 19.6454 225.254 19.1988V21.4098C224.427 21.7978 223.3 22.2737 222.297 22.6691ZM232.603 29.7779C231.257 30.9859 229.946 32.128 228.541 33.1676H224.003C226.352 31.6302 228.68 29.8658 230.891 27.8451C229.266 25.7732 227.838 23.6135 226.609 21.3439H229.324C230.276 22.9985 231.396 24.6238 232.655 26.1613C234.36 24.3969 235.736 22.713 236.739 20.7582C236.849 20.5898 236.768 20.4214 236.629 20.4214H226.184V18.4081H231.396V14.9379H225.877V13.0051H231.396V8.77344H233.943V13.0051H240.048V14.9379H233.943V18.4081H237.215C238.108 18.4081 238.759 18.7742 239.067 19.3306C239.374 19.865 239.404 20.5606 239.067 21.2634C237.837 23.899 236.38 25.7732 234.338 27.9842C236.241 29.9756 238.54 31.7107 240.692 33.1676H236.322C235.063 32.1353 233.745 31.0079 232.603 29.7779Z" fill="#0E357F"/>
<path d="M252.952 32.6612C252.506 33.1078 251.803 33.3348 251.02 33.3348H248.919L248.107 31.4606H250.347C250.764 31.4606 251.071 31.2922 251.071 30.8749V24.3224H247.126C247.038 27.3753 246.899 30.4868 246.343 33.3421H243.825C244.469 30.8749 244.696 28.188 244.696 25.5304V11.5469C244.696 10.9319 244.945 10.3462 245.398 9.95091C245.764 9.61413 246.291 9.41646 246.943 9.41646H251.254C251.898 9.41646 252.433 9.61413 252.821 9.92162C253.297 10.317 253.545 10.9027 253.545 11.5982V31.1165C253.538 31.768 253.318 32.2952 252.952 32.6612ZM247.133 17.704C247.133 18.934 247.133 21.2621 247.163 22.4116H251.086V17.704H247.133ZM250.574 11.3493H247.66C247.353 11.3493 247.155 11.5762 247.155 11.8544V15.7786H251.079V11.8544C251.079 11.5762 250.881 11.3493 250.574 11.3493ZM261.238 30.194C260.038 31.2848 258.75 32.3537 257.483 33.3348H253.282C255.463 31.9364 257.681 30.4209 259.635 28.5174C258.179 26.753 256.92 24.9301 255.91 22.9973H258.545C259.269 24.3151 260.199 25.6036 261.231 26.8043C262.432 25.4059 263.639 23.8904 264.342 22.4335C264.401 22.2944 264.254 22.0675 264.093 22.0675H254.541V20.164H264.986C265.711 20.164 266.274 20.4422 266.582 20.918C266.977 21.4818 266.999 22.2651 266.611 23.0998C265.799 24.8056 264.144 27.0239 262.805 28.5028C264.598 30.3551 266.867 32.0316 268.88 33.3201H264.649C263.537 32.4123 262.197 31.2043 261.238 30.194ZM264.767 19.0804C264.122 19.0804 263.588 18.8828 263.229 18.5167C262.863 18.1799 262.666 17.6748 262.666 17.0012V11.7885C262.666 11.5689 262.468 11.2321 262.051 11.2321H259.108C258.742 11.2321 258.523 11.5689 258.523 11.8471C258.581 13.8092 258.662 16.7523 256.869 19.1317H253.985C256.224 17.0891 256.144 14.0874 256.115 11.1223C256.115 10.6464 256.312 10.2291 256.649 9.89234C257.015 9.52628 257.491 9.30664 258.047 9.30664H262.585C263.31 9.30664 263.903 9.50431 264.32 9.84109C264.796 10.2364 265.045 10.8514 265.045 11.5762V16.5327C265.045 16.8401 265.294 17.1183 265.579 17.1183H268.405L267.365 19.0804H264.767Z" fill="#0E357F"/>
<path d="M306.628 17.4554H319.65C320.463 17.4554 321.107 17.7336 321.583 18.2095C322.088 18.7147 322.395 19.4395 322.395 20.2814V30.9264C322.395 31.7098 322.059 32.3247 321.553 32.7201C321.048 33.1154 320.404 33.3351 319.709 33.3351H315.734L314.673 31.4316H319.013C319.46 31.4316 319.767 31.1534 319.767 30.7287V28.3493H305.179V33.3351H302.544V21.7383H299.748C302.097 19.3882 304.703 16.4744 306.409 13.6996H300.165V11.7156H307.529C307.895 11.1006 308.649 9.67299 309.015 8.83105H311.76C311.342 9.75352 310.779 10.9908 310.332 11.7156H323.969V13.6996H309.242C308.612 14.6807 307.324 16.5622 306.628 17.4554ZM319.057 19.3589H305.955C305.618 19.3589 305.172 19.6957 305.172 20.113V21.8481H319.76V20.0544C319.76 19.6957 319.423 19.3589 319.057 19.3589ZM305.172 23.759V26.4751H319.76V23.759H305.172Z" fill="#0E357F"/>
<path d="M336.193 27.567C335.688 27.9038 335.014 28.1015 334.29 28.1015H332.218L331.435 26.0881H333.426C333.873 26.0881 334.209 26.0296 334.465 25.8392C334.685 25.6708 334.861 25.4219 334.912 24.9973C335.249 22.8375 333.624 19.5357 332.423 17.742C333.265 15.7506 334.048 13.6787 334.583 11.5556C334.641 11.3067 334.473 11.0504 334.217 11.0504H331.42C331.142 11.0504 330.915 11.3286 330.915 11.6141V33.2336H328.449V11.1529C328.449 10.5379 328.697 9.95224 329.173 9.52761C329.569 9.19084 330.096 8.99316 330.74 8.99316H335.022C335.666 8.99316 336.281 9.24208 336.676 9.66671C337.071 10.084 337.262 10.699 337.093 11.4018C336.617 13.4444 335.915 15.6042 335.073 17.5882C336.5 20.1067 337.957 22.9913 337.284 26.0735C337.144 26.6665 336.749 27.201 336.193 27.567Z" fill="#0E357F"/>
<path d="M350.335 9.67453C349.888 9.25722 349.266 9.00098 348.461 9.00098H340.76C340.175 9.00098 339.641 9.16936 339.223 9.47685C338.638 9.89416 338.242 10.5091 338.242 11.1022V30.6204C338.242 31.3745 338.323 32.1213 338.799 32.5972C339.216 33.0145 339.75 33.2854 340.446 33.2121C341.639 33.0877 344.245 32.5532 344.245 32.5532L344.86 30.5619L341.522 31.1329C340.687 31.2794 340.731 31.1329 340.731 30.2617V21.1541H348.322C349.164 21.1541 349.808 20.9052 350.254 20.5392C350.789 20.0926 351.067 19.419 351.067 18.6869V11.4902C351.059 10.7873 350.811 10.1504 350.335 9.67453ZM348.541 18.5771C348.541 18.9724 348.293 19.2506 347.839 19.2506H340.724V15.9195H348.534V18.5771H348.541ZM348.541 14.016H340.731V11.6073C340.731 11.2705 341.009 10.8825 341.456 10.8825H347.78C348.256 10.8825 348.534 11.2193 348.534 11.5854V14.016H348.541Z" fill="#0E357F"/>
<path d="M342.517 22.2158H345.035C345.482 23.336 346.016 24.5439 346.631 25.6055C347.553 24.5659 348.314 23.3652 348.981 22.1865H351.945C351.162 23.6142 350.152 25.1516 348.981 26.528H347.129C348.527 28.9074 350.518 31.2868 352.787 33.2196H349.149C345.994 29.947 343.945 26.2205 342.517 22.2158Z" fill="#0E357F"/>
<path d="M401.01 14.1533H385.55V16.1154H401.01V14.1533Z" fill="#0E357F"/>
<path d="M406.888 32.4411C406.353 32.9755 405.57 33.2537 404.706 33.2537H399.861L398.88 31.2697H404.23C404.677 31.2697 405.043 30.9329 405.043 30.4278V12.0516C405.043 11.6343 404.677 11.2975 404.23 11.2975H384.482V9.25488H404.845C405.658 9.25488 406.331 9.56237 406.807 10.0383C407.341 10.5434 407.649 11.2682 407.649 11.9418V30.5669C407.641 31.3429 407.363 31.9872 406.888 32.4411Z" fill="#0E357F"/>
<path d="M400.139 19.1907C399.721 18.8246 399.187 18.627 398.514 18.627H388.098C387.373 18.627 386.751 18.8832 386.304 19.2712C385.828 19.6885 385.55 20.2815 385.55 20.8672V26.9438C385.55 27.5588 385.748 28.0932 386.085 28.5106C386.531 29.0743 387.175 29.433 387.79 29.433H398.206C399.048 29.433 399.802 29.2134 400.307 28.7082C400.754 28.2909 401.01 27.6979 401.01 26.8853V21.0869C401.01 20.3401 400.702 19.6373 400.139 19.1907ZM398.543 26.8633C398.543 27.2001 398.235 27.5076 397.899 27.5076H388.691C388.412 27.5076 388.046 27.1122 388.046 26.6949V21.3431C388.046 20.9258 388.442 20.589 388.859 20.589H397.906C398.214 20.589 398.55 20.9844 398.55 21.2919V26.8633H398.543Z" fill="#0E357F"/>
<path d="M365.201 8.77344H362.376C361.175 12.6097 359.097 16.4753 355.993 19.8065H359.521C361.893 16.8121 363.942 12.5805 365.201 8.77344Z" fill="#0E357F"/>
<path d="M380.485 19.8065C377.345 16.7828 374.944 12.4706 373.678 8.77344H370.881C372.199 12.5805 374.212 16.5046 376.957 19.8065H380.485Z" fill="#0E357F"/>
<path d="M371.46 24.8065C372.082 26.4025 372.938 28.0352 373.787 29.5287L361.6 31.0442C361.358 31.0808 361.417 30.949 361.702 30.4585L369.03 17.4268H366.146L358.511 30.744C358.233 31.2492 358.086 31.8495 358.233 32.2741C358.401 32.8086 358.877 33.1966 359.69 33.1966L374.915 31.3956C375.2 31.8202 375.896 32.8818 376.078 33.1966H379.468C377.242 30.5463 375.588 27.8887 374.336 24.8065H371.46Z" fill="#0E357F"/>
<path d="M275.153 17.0098H276.383V33.2262H273.807V17.9323H271.457C273.726 15.1868 275.153 12.0533 276.273 8.80273H279.099C278.008 11.5994 276.778 14.462 275.153 17.0098ZM294.361 21.4611V30.4808C294.361 31.4325 293.995 32.1061 293.438 32.5527C292.875 32.9993 292.121 33.2262 291.308 33.2262H287.531L286.609 31.1836H291.176C291.542 31.1836 291.821 30.9054 291.821 30.5101V21.7393C291.821 21.322 291.484 20.9852 291.147 20.9852H285.935C285.291 25.3852 284.508 29.7267 281.763 33.2262H278.484C281.705 29.8951 282.825 25.495 283.359 20.9852H279.582V20.0334H276.947C279.692 16.6437 281.397 12.7781 282.715 8.80273H285.511C284.223 12.3608 282.825 15.8604 280.694 19.0231H292.121C292.348 19.0231 292.596 19.0817 292.823 19.1622C290.84 15.8311 289.493 12.7489 288.175 8.80273H290.832C292.23 12.866 294.639 17.6248 296.542 20.0334H293.885C294.17 20.3702 294.361 21.095 294.361 21.4611Z" fill="#0E357F"/>
<defs>
<linearGradient id="paint0_linear_769_1130" x1="53.7818" y1="8.12698" x2="74.4497" y2="36.2932" gradientUnits="userSpaceOnUse">
<stop offset="0.1758" stop-color="#0E357F"/>
<stop offset="0.2503" stop-color="#433473"/>
<stop offset="0.4165" stop-color="#932E4F"/>
<stop offset="0.6364" stop-color="#E60012"/>
<stop offset="0.6678" stop-color="#E61911"/>
<stop offset="0.7155" stop-color="#E83C0C"/>
<stop offset="0.7735" stop-color="#EB6000"/>
<stop offset="0.8397" stop-color="#F18A00"/>
<stop offset="0.9127" stop-color="#F9BA00"/>
<stop offset="0.9904" stop-color="#FFEC00"/>
<stop offset="1" stop-color="#FFF100"/>
</linearGradient>
</defs>
</svg>
