<?xml version="1.0" encoding="UTF-8"?>
<svg id="_圖層_2" data-name="圖層 2" xmlns="http://www.w3.org/2000/svg" viewBox="0 0 116.96 28.12">
  <defs>
    <style>
      .cls-1 {
        fill: #231815;
      }

      .cls-1, .cls-2 {
        stroke-width: 0px;
      }

      .cls-2 {
        fill: #df3232;
      }
    </style>
  </defs>
  <g id="_圖層_1-2" data-name="圖層 1">
    <g>
      <g>
        <path class="cls-2" d="m100.32,4.98c-8.47,0-14.95,4.4-14.95,12.09,0,6.49,5.9,11.05,13.81,11.05,6,0,10.99-4.35,12.42-7.11,0-.84-.86-1.21-1.66-1.21-1.38,2.14-5.27,3.75-6.87,3.67-9.56-.34-11.11-4.18-11.22-8.2-.18-4.36,4.52-8.13,8.54-7.83,2.32.16,3.14,3.98,5.18,5.37.65.35,2.13.29,3.11.11.74-.11,2.74-.57,2.74-2.29,0-1.44-1.78-3.02-3.49-4.05-1.72-.8-5.56-1.61-7.61-1.61Z"/>
        <path class="cls-2" d="m43.79,21.58c0,3.55-.91,5.46-3.78,5.62l.06.58c4.79-.07,9.67,0,14.36-.12l.06-.29c-2.17,0-3.85-2.3-3.85-5.15v-9.57c0-2.35,2.87-3.84,4.81-3.66,3.03.27,4.7,2.21,4.7,3.94v9.41c0,2.87-.86,4.64-3.09,4.81v.52h13.17v-.4c-1.96-.22-3.33-2.01-3.33-4.7v-9.86c0-2.11,1.83-3.55,5.1-3.61,2.87-.06,4.59,2.07,4.59,4.07v8.93c0,3.03-.92,4.94-3.21,5.16v.4c4.81.05,8.75.05,13.5,0v-.29c-2.51,0-3.38-1.67-3.38-5.15v-9.86c0-3.27-1.77-7.14-6.74-7.14-3.39,0-5.86,1.65-7.28,2.12-.98.38-1.67.85-1.9.85-.45,0-.96-.29-1.59-.97-1.21-1.28-3.36-2.01-5.66-2.01-2.93,0-5.83,1.65-7.22,2.12-.16.04-1.2.56-1.32.56-.23,0-1.15,0-1.15-.12,0-2.74.18-1.38.07-3.32h-1.9c-.56,0-1.55,1.03-2.69,1.48-1.37.58-4.11.52-5.24.82v1.94l2.97.56v3.78l-.05,8.53Z"/>
        <path class="cls-2" d="m30.9,27.72c5.04-.23,9.91-1.31,9.91-6.19,0-3.54-3.89-5.78-8.02-7.57-2.64-1.08-6.47-2.68-6.47-3.95,0-1.48,2.92-4.35,5.73-2.06l4.87,4.06,2.24-.46-1.25-6.06c-1.15.05-1.96.12-6.13-.58-5.17-.74-11.28,1.84-11.28,6.64,0,3.22,4.64,5.45,8.3,6.93,2,.87,5.55,2.14,5.55,4.08s-3.32,2.41-5.21,2.41c-3.21,0-6.76-4.3-6.76-4.3h-2.1l1.14,6.42c.39-.35,1.84-.3,2.12-.18,1.03.39,4.74.98,7.37.8Z"/>
        <path class="cls-2" d="m18.78,8.25v-2.97l-6.25.05c-.8,0-.74-.16-.74-1.21l.06-4.07-3.14-.05c-.98,2.18-2.18,3.62-2.85,3.9L0,6.47v1.84l2.19.05c.97,0,1.37-.05,1.37,1.09v12.09c0,3.68,2.01,6.37,7.15,6.48,3.88.11,6.24-1.6,7.9-3.21l-.46-1.56c-.69.47-1.25.87-2.18.87-4.41,0-4.29-3.44-4.29-6.48v-8.19c0-1.19.1-1.19.91-1.19h6.18Z"/>
      </g>
      <path class="cls-1" d="m116.75,26.05c0,.51-.19.96-.54,1.3-.36.36-.84.55-1.33.55s-.95-.2-1.3-.55c-.35-.35-.55-.82-.55-1.31s.2-.96.55-1.32c.34-.34.8-.54,1.3-.54s.97.19,1.33.55c.35.35.54.81.54,1.31Zm-1.86-2.06c-.56,0-1.06.21-1.44.59-.4.4-.61.92-.61,1.47s.21,1.06.61,1.45c.39.39.9.61,1.45.61s1.06-.22,1.47-.62c.39-.38.6-.88.6-1.45s-.21-1.07-.6-1.45c-.39-.39-.91-.61-1.47-.61Zm.07.84h-.86v2.39h.32v-1.06h.6l.52,1.06h.37l-.54-1.11c.35-.04.57-.29.57-.62,0-.46-.32-.66-.98-.66Zm-.07.22c.48,0,.72.13.72.43,0,.36-.21.46-.72.46h-.47v-.88h.47Z"/>
    </g>
  </g>
</svg>