<svg width="135" height="135" viewBox="0 0 135 135" fill="none" xmlns="http://www.w3.org/2000/svg">
<g id="Group 481">
<rect id="Rectangle 679" width="135" height="135" fill="white"/>
<g id="Group">
<path id="Vector" d="M119.761 104.271C119.761 104.89 119.531 105.438 119.106 105.845C118.664 106.278 118.089 106.516 117.496 106.516C116.903 106.516 116.337 106.278 115.912 105.853C115.487 105.429 115.248 104.863 115.248 104.271C115.248 103.679 115.487 103.113 115.921 102.671C116.337 102.256 116.885 102.017 117.496 102.017C118.106 102.017 118.664 102.247 119.106 102.68C119.522 103.095 119.761 103.661 119.761 104.271ZM117.496 101.77C116.815 101.77 116.204 102.026 115.744 102.494C115.257 102.981 115.001 103.617 115.001 104.271C115.001 104.934 115.257 105.553 115.735 106.03C116.213 106.508 116.832 106.773 117.496 106.773C118.16 106.773 118.788 106.508 119.274 106.021C119.743 105.562 120 104.952 120 104.271C120 103.599 119.743 102.981 119.274 102.503C118.805 102.026 118.177 101.77 117.496 101.77ZM117.576 102.786H116.531V105.677H116.921V104.386H117.646L118.275 105.677H118.726L118.071 104.333C118.496 104.28 118.77 103.979 118.77 103.582C118.77 103.016 118.381 102.786 117.576 102.786ZM117.496 103.051C118.08 103.051 118.363 103.21 118.363 103.573C118.363 104.015 118.106 104.13 117.496 104.13H116.921V103.06H117.496V103.051Z" fill="black"/>
<g id="Group_2">
<g id="Group_3">
<path id="Vector_2" d="M52.3541 98.2524L67.2198 98.3673H82.5457C95.2435 92.6392 104.154 79.8131 104.154 65.0068C104.154 44.8703 87.7044 28.4287 67.5915 28.4287C47.4342 28.4287 30.9758 44.8703 30.9758 65.0068C30.9758 79.7335 39.7359 92.489 52.3541 98.2524Z" stroke="black" stroke-width="0.6667"/>
<path id="Vector_3" d="M38.4165 47.9646V42.9614C37.2308 44.5349 36.1601 46.2055 35.2221 47.9646H38.4165Z" fill="white" stroke="black" stroke-width="0.6737"/>
<path id="Vector_4" d="M93.0234 38.7979V42.3956H96.2797C95.2709 41.1227 94.1914 39.9205 93.0234 38.7979Z" fill="white" stroke="black" stroke-width="0.6737"/>
<path id="Vector_5" d="M74.8379 29.1616V31.2124H78.395V30.0633C77.227 29.7008 76.0413 29.4003 74.8379 29.1616Z" fill="white" stroke="black" stroke-width="0.6737"/>
<path id="Vector_6" d="M45.6662 42.3408H42.1179V47.9628H45.6662V42.3408Z" fill="white" stroke="black" stroke-width="0.6737"/>
<path id="Vector_7" d="M45.6662 47.9648H42.1179V53.578H45.6662V47.9648Z" fill="white" stroke="black" stroke-width="0.6737"/>
<path id="Vector_8" d="M45.6662 53.5239H42.1179V59.1459H45.6662V53.5239Z" fill="white" stroke="black" stroke-width="0.6737"/>
<path id="Vector_9" d="M45.6662 59.147H42.1179V64.7601H45.6662V59.147Z" fill="white" stroke="black" stroke-width="0.6737"/>
<path id="Vector_10" d="M45.6662 64.7144H42.1179V70.3275H45.6662V64.7144Z" fill="white" stroke="black" stroke-width="0.6737"/>
<path id="Vector_11" d="M45.6662 70.3281H42.1179V75.9412H45.6662V70.3281Z" fill="white" stroke="black" stroke-width="0.6737"/>
<path id="Vector_12" d="M45.6662 75.8882H42.1179V81.5013H45.6662V75.8882Z" fill="white" stroke="black" stroke-width="0.6737"/>
<path id="Vector_13" d="M45.6662 81.458H42.1179V87.08H45.6662V81.458Z" fill="white" stroke="black" stroke-width="0.6737"/>
<path id="Vector_14" d="M42.0095 47.9648H38.4789V53.578H42.0095V47.9648Z" fill="white" stroke="black" stroke-width="0.6737"/>
<path id="Vector_15" d="M42.0095 53.5239H38.4789V59.1459H42.0095V53.5239Z" fill="white" stroke="black" stroke-width="0.6737"/>
<path id="Vector_16" d="M42.0095 59.147H38.4789V64.7601H42.0095V59.147Z" fill="white" stroke="black" stroke-width="0.6737"/>
<path id="Vector_17" d="M42.0095 64.7144H38.4789V70.3275H42.0095V64.7144Z" fill="white" stroke="black" stroke-width="0.6737"/>
<path id="Vector_18" d="M42.0095 70.3281H38.4789V75.9412H42.0095V70.3281Z" fill="white" stroke="black" stroke-width="0.6737"/>
<path id="Vector_19" d="M42.0095 75.8882H38.4789V81.5013H42.0095V75.8882Z" fill="white" stroke="black" stroke-width="0.6737"/>
<path id="Vector_20" d="M42.0095 81.458H38.4789V87.08H42.0095V81.458Z" fill="white" stroke="black" stroke-width="0.6737"/>
<path id="Vector_21" d="M38.4075 53.5239H34.8592V59.1459H38.4075V53.5239Z" fill="white" stroke="black" stroke-width="0.6737"/>
<path id="Vector_22" d="M38.4075 59.147H34.8592V64.7601H38.4075V59.147Z" fill="white" stroke="black" stroke-width="0.6737"/>
<path id="Vector_23" d="M38.4075 64.7144H34.8592V70.3275H38.4075V64.7144Z" fill="white" stroke="black" stroke-width="0.6737"/>
<path id="Vector_24" d="M38.4075 70.3281H34.8592V75.9412H38.4075V70.3281Z" fill="white" stroke="black" stroke-width="0.6737"/>
<path id="Vector_25" d="M49.3174 36.7739H45.7691V42.387H49.3174V36.7739Z" fill="white" stroke="black" stroke-width="0.6737"/>
<path id="Vector_26" d="M49.3174 42.3408H45.7691V47.9628H49.3174V42.3408Z" fill="white" stroke="black" stroke-width="0.6737"/>
<path id="Vector_27" d="M49.3174 47.9648H45.7691V53.578H49.3174V47.9648Z" fill="white" stroke="black" stroke-width="0.6737"/>
<path id="Vector_28" d="M49.3174 53.5239H45.7691V59.1459H49.3174V53.5239Z" fill="white" stroke="black" stroke-width="0.6737"/>
<path id="Vector_29" d="M49.3174 59.147H45.7691V64.7601H49.3174V59.147Z" fill="white" stroke="black" stroke-width="0.6737"/>
<path id="Vector_30" d="M49.3174 64.7144H45.7691V70.3275H49.3174V64.7144Z" fill="white" stroke="black" stroke-width="0.6737"/>
<path id="Vector_31" d="M49.3174 70.3281H45.7691V75.9412H49.3174V70.3281Z" fill="white" stroke="black" stroke-width="0.6737"/>
<path id="Vector_32" d="M49.3174 75.8882H45.7691V81.5013H49.3174V75.8882Z" fill="white" stroke="black" stroke-width="0.6737"/>
<path id="Vector_33" d="M49.3174 81.458H45.7691V87.08H49.3174V81.458Z" fill="white" stroke="black" stroke-width="0.6737"/>
<path id="Vector_34" d="M49.3174 87.0786H45.7691V92.6917H49.3174V87.0786Z" fill="white" stroke="black" stroke-width="0.6737"/>
<path id="Vector_35" d="M52.9661 36.7739H49.4178V42.387H52.9661V36.7739Z" fill="black" stroke="black" stroke-width="0.6737"/>
<path id="Vector_36" d="M52.9661 42.3408H49.4178V47.9628H52.9661V42.3408Z" fill="white" stroke="black" stroke-width="0.6737"/>
<path id="Vector_37" d="M52.9661 47.9648H49.4178V53.578H52.9661V47.9648Z" fill="white" stroke="black" stroke-width="0.6737"/>
<path id="Vector_38" d="M52.9661 53.5239H49.4178V59.1459H52.9661V53.5239Z" fill="white" stroke="black" stroke-width="0.6737"/>
<path id="Vector_39" d="M52.9661 59.147H49.4178V64.7601H52.9661V59.147Z" fill="white" stroke="black" stroke-width="0.6737"/>
<path id="Vector_40" d="M52.9661 64.7144H49.4178V70.3275H52.9661V64.7144Z" fill="white" stroke="black" stroke-width="0.6737"/>
<path id="Vector_41" d="M52.9661 70.3281H49.4178V75.9412H52.9661V70.3281Z" fill="white" stroke="black" stroke-width="0.6737"/>
<path id="Vector_42" d="M52.9661 75.8882H49.4178V81.5013H52.9661V75.8882Z" fill="white" stroke="black" stroke-width="0.6737"/>
<path id="Vector_43" d="M52.9661 81.458H49.4178V87.08H52.9661V81.458Z" fill="white" stroke="black" stroke-width="0.6737"/>
<path id="Vector_44" d="M52.9661 87.0786H49.4178V92.6917H52.9661V87.0786Z" fill="black" stroke="black" stroke-width="0.6737"/>
<path id="Vector_45" d="M56.5471 36.7739H52.9988V42.387H56.5471V36.7739Z" fill="white" stroke="black" stroke-width="0.6737"/>
<path id="Vector_46" d="M56.5471 42.3408H52.9988V47.9628H56.5471V42.3408Z" fill="black" stroke="black" stroke-width="0.6737"/>
<path id="Vector_47" d="M56.5471 47.9648H52.9988V53.578H56.5471V47.9648Z" fill="white" stroke="black" stroke-width="0.6737"/>
<path id="Vector_48" d="M56.5471 53.5239H52.9988V59.1459H56.5471V53.5239Z" fill="white" stroke="black" stroke-width="0.6737"/>
<path id="Vector_49" d="M56.5471 59.147H52.9988V64.7601H56.5471V59.147Z" fill="white" stroke="black" stroke-width="0.6737"/>
<path id="Vector_50" d="M56.5471 64.7144H52.9988V70.3275H56.5471V64.7144Z" fill="white" stroke="black" stroke-width="0.6737"/>
<path id="Vector_51" d="M56.5471 70.3281H52.9988V75.9412H56.5471V70.3281Z" fill="white" stroke="black" stroke-width="0.6737"/>
<path id="Vector_52" d="M56.5471 75.8882H52.9988V81.5013H56.5471V75.8882Z" fill="white" stroke="black" stroke-width="0.6737"/>
<path id="Vector_53" d="M56.5471 81.458H52.9988V87.08H56.5471V81.458Z" fill="black" stroke="black" stroke-width="0.6737"/>
<path id="Vector_54" d="M56.5471 87.0786H52.9988V92.6917H56.5471V87.0786Z" fill="white" stroke="black" stroke-width="0.6737"/>
<path id="Vector_55" d="M56.5471 92.6323H52.9988V98.2543H56.5471V92.6323Z" fill="black" stroke="black" stroke-width="0.6737"/>
<path id="Vector_56" d="M60.203 36.7739H56.6547V42.387H60.203V36.7739Z" fill="white" stroke="black" stroke-width="0.6737"/>
<path id="Vector_57" d="M60.203 31.1597H56.6547V36.7728H60.203V31.1597Z" fill="white" stroke="black" stroke-width="0.6737"/>
<path id="Vector_58" d="M60.203 42.3408H56.6547V47.9628H60.203V42.3408Z" fill="white" stroke="black" stroke-width="0.6737"/>
<path id="Vector_59" d="M60.203 47.9648H56.6547V53.578H60.203V47.9648Z" fill="white" stroke="black" stroke-width="0.6737"/>
<path id="Vector_60" d="M60.203 53.5239H56.6547V59.1459H60.203V53.5239Z" fill="white" stroke="black" stroke-width="0.6737"/>
<path id="Vector_61" d="M60.203 59.147H56.6547V64.7601H60.203V59.147Z" fill="white" stroke="black" stroke-width="0.6737"/>
<path id="Vector_62" d="M60.203 64.7144H56.6547V70.3275H60.203V64.7144Z" fill="white" stroke="black" stroke-width="0.6737"/>
<path id="Vector_63" d="M60.203 70.3281H56.6547V75.9412H60.203V70.3281Z" fill="white" stroke="black" stroke-width="0.6737"/>
<path id="Vector_64" d="M60.203 75.8882H56.6547V81.5013H60.203V75.8882Z" fill="white" stroke="black" stroke-width="0.6737"/>
<path id="Vector_65" d="M60.203 81.458H56.6547V87.08H60.203V81.458Z" fill="white" stroke="black" stroke-width="0.6737"/>
<path id="Vector_66" d="M60.203 87.0786H56.6547V92.6917H60.203V87.0786Z" fill="black" stroke="black" stroke-width="0.6737"/>
<path id="Vector_67" d="M60.203 92.6323H56.6547V98.2543H60.203V92.6323Z" fill="white" stroke="black" stroke-width="0.6737"/>
<path id="Vector_68" d="M63.8381 36.7739H60.2986V42.387H63.8381V36.7739Z" fill="white" stroke="black" stroke-width="0.6737"/>
<path id="Vector_69" d="M63.8381 31.1597H60.2986V36.7728H63.8381V31.1597Z" fill="white" stroke="black" stroke-width="0.6737"/>
<path id="Vector_70" d="M63.8381 42.3408H60.2986V47.9628H63.8381V42.3408Z" fill="white" stroke="black" stroke-width="0.6737"/>
<path id="Vector_71" d="M63.8381 47.9648H60.2986V53.578H63.8381V47.9648Z" fill="white" stroke="black" stroke-width="0.6737"/>
<path id="Vector_72" d="M63.8381 53.5239H60.2986V59.1459H63.8381V53.5239Z" fill="white" stroke="black" stroke-width="0.6737"/>
<path id="Vector_73" d="M63.8381 59.147H60.2986V64.7601H63.8381V59.147Z" fill="white" stroke="black" stroke-width="0.6737"/>
<path id="Vector_74" d="M63.8381 64.7144H60.2986V70.3275H63.8381V64.7144Z" fill="white" stroke="black" stroke-width="0.6737"/>
<path id="Vector_75" d="M63.8381 70.3281H60.2986V75.9412H63.8381V70.3281Z" fill="white" stroke="black" stroke-width="0.6737"/>
<path id="Vector_76" d="M63.8381 75.8882H60.2986V81.5013H63.8381V75.8882Z" fill="white" stroke="black" stroke-width="0.6737"/>
<path id="Vector_77" d="M63.8381 81.458H60.2986V87.08H63.8381V81.458Z" fill="white" stroke="black" stroke-width="0.6737"/>
<path id="Vector_78" d="M63.8381 87.0786H60.2986V92.6917H63.8381V87.0786Z" fill="white" stroke="black" stroke-width="0.6737"/>
<path id="Vector_79" d="M63.8381 92.6323H60.2986V98.2543H63.8381V92.6323Z" fill="white" stroke="black" stroke-width="0.6737"/>
<path id="Vector_80" d="M67.5029 36.7739H63.9546V42.387H67.5029V36.7739Z" fill="white" stroke="black" stroke-width="0.6737"/>
<path id="Vector_81" d="M67.5029 31.1597H63.9546V36.7728H67.5029V31.1597Z" fill="black" stroke="black" stroke-width="0.6737"/>
<path id="Vector_82" d="M67.5029 42.3408H63.9546V47.9628H67.5029V42.3408Z" fill="white" stroke="black" stroke-width="0.6737"/>
<path id="Vector_83" d="M67.5029 47.9648H63.9546V53.578H67.5029V47.9648Z" fill="white" stroke="black" stroke-width="0.6737"/>
<path id="Vector_84" d="M67.5029 53.5239H63.9546V59.1459H67.5029V53.5239Z" fill="white" stroke="black" stroke-width="0.6737"/>
<path id="Vector_85" d="M67.5029 59.147H63.9546V64.7601H67.5029V59.147Z" fill="white" stroke="black" stroke-width="0.6737"/>
<path id="Vector_86" d="M67.5029 64.7144H63.9546V70.3275H67.5029V64.7144Z" fill="white" stroke="black" stroke-width="0.6737"/>
<path id="Vector_87" d="M67.5029 70.3281H63.9546V75.9412H67.5029V70.3281Z" fill="white" stroke="black" stroke-width="0.6737"/>
<path id="Vector_88" d="M67.5029 75.8882H63.9546V81.5013H67.5029V75.8882Z" fill="white" stroke="black" stroke-width="0.6737"/>
<path id="Vector_89" d="M67.5029 81.458H63.9546V87.08H67.5029V81.458Z" fill="white" stroke="black" stroke-width="0.6737"/>
<path id="Vector_90" d="M67.5029 87.0786H63.9546V92.6917H67.5029V87.0786Z" fill="white" stroke="black" stroke-width="0.6737"/>
<path id="Vector_91" d="M67.5029 92.6323H63.9546V98.2543H67.5029V92.6323Z" fill="white" stroke="black" stroke-width="0.6737"/>
<path id="Vector_92" d="M71.1395 36.7739H67.5912V42.387H71.1395V36.7739Z" fill="white" stroke="black" stroke-width="0.6737"/>
<path id="Vector_93" d="M71.1395 31.1597H67.5912V36.7728H71.1395V31.1597Z" fill="white" stroke="black" stroke-width="0.6737"/>
<path id="Vector_94" d="M71.1395 42.3408H67.5912V47.9628H71.1395V42.3408Z" fill="white" stroke="black" stroke-width="0.6737"/>
<path id="Vector_95" d="M71.1395 47.9648H67.5912V53.578H71.1395V47.9648Z" fill="white" stroke="black" stroke-width="0.6737"/>
<path id="Vector_96" d="M71.1395 53.5239H67.5912V59.1459H71.1395V53.5239Z" fill="white" stroke="black" stroke-width="0.6737"/>
<path id="Vector_97" d="M71.1395 59.147H67.5912V64.7601H71.1395V59.147Z" fill="white" stroke="black" stroke-width="0.6737"/>
<path id="Vector_98" d="M71.1395 64.7144H67.5912V70.3275H71.1395V64.7144Z" fill="white" stroke="black" stroke-width="0.6737"/>
<path id="Vector_99" d="M71.1395 70.3281H67.5912V75.9412H71.1395V70.3281Z" fill="white" stroke="black" stroke-width="0.6737"/>
<path id="Vector_100" d="M71.1395 75.8882H67.5912V81.5013H71.1395V75.8882Z" fill="white" stroke="black" stroke-width="0.6737"/>
<path id="Vector_101" d="M71.1395 81.458H67.5912V87.08H71.1395V81.458Z" fill="black" stroke="black" stroke-width="0.6737"/>
<path id="Vector_102" d="M71.1395 87.0786H67.5912V92.6917H71.1395V87.0786Z" fill="white" stroke="black" stroke-width="0.6737"/>
<path id="Vector_103" d="M71.1395 92.6323H67.5912V98.2543H71.1395V92.6323Z" fill="white" stroke="black" stroke-width="0.6737"/>
<path id="Vector_104" d="M74.7423 36.7739H71.194V42.387H74.7423V36.7739Z" fill="white" stroke="black" stroke-width="0.6737"/>
<path id="Vector_105" d="M74.7423 31.1597H71.194V36.7728H74.7423V31.1597Z" fill="white" stroke="black" stroke-width="0.6737"/>
<path id="Vector_106" d="M74.7423 42.3408H71.194V47.9628H74.7423V42.3408Z" fill="white" stroke="black" stroke-width="0.6737"/>
<path id="Vector_107" d="M74.7423 47.9648H71.194V53.578H74.7423V47.9648Z" fill="white" stroke="black" stroke-width="0.6737"/>
<path id="Vector_108" d="M74.7423 53.5239H71.194V59.1459H74.7423V53.5239Z" fill="white" stroke="black" stroke-width="0.6737"/>
<path id="Vector_109" d="M74.7423 59.147H71.194V64.7601H74.7423V59.147Z" fill="white" stroke="black" stroke-width="0.6737"/>
<path id="Vector_110" d="M74.7423 64.7144H71.194V70.3275H74.7423V64.7144Z" fill="white" stroke="black" stroke-width="0.6737"/>
<path id="Vector_111" d="M74.7423 70.3281H71.194V75.9412H74.7423V70.3281Z" fill="white" stroke="black" stroke-width="0.6737"/>
<path id="Vector_112" d="M74.7423 75.8882H71.194V81.5013H74.7423V75.8882Z" fill="white" stroke="black" stroke-width="0.6737"/>
<path id="Vector_113" d="M74.7423 81.458H71.194V87.08H74.7423V81.458Z" fill="white" stroke="black" stroke-width="0.6737"/>
<path id="Vector_114" d="M74.7423 87.0786H71.194V92.6917H74.7423V87.0786Z" fill="white" stroke="black" stroke-width="0.6737"/>
<path id="Vector_115" d="M74.7423 92.6323H71.194V98.2543H74.7423V92.6323Z" fill="white" stroke="black" stroke-width="0.6737"/>
<path id="Vector_116" d="M78.395 36.7739H74.8379V42.387H78.395V36.7739Z" fill="white" stroke="black" stroke-width="0.6737"/>
<path id="Vector_117" d="M78.395 31.1597H74.8379V36.7728H78.395V31.1597Z" fill="white" stroke="black" stroke-width="0.6737"/>
<path id="Vector_118" d="M78.395 42.3408H74.8379V47.9628H78.395V42.3408Z" fill="white" stroke="black" stroke-width="0.6737"/>
<path id="Vector_119" d="M78.395 47.9648H74.8379V53.578H78.395V47.9648Z" fill="white" stroke="black" stroke-width="0.6737"/>
<path id="Vector_120" d="M78.395 53.5239H74.8379V59.1459H78.395V53.5239Z" fill="white" stroke="black" stroke-width="0.6737"/>
<path id="Vector_121" d="M78.395 59.147H74.8379V64.7601H78.395V59.147Z" fill="white" stroke="black" stroke-width="0.6737"/>
<path id="Vector_122" d="M78.395 64.7144H74.8379V70.3275H78.395V64.7144Z" fill="white" stroke="black" stroke-width="0.6737"/>
<path id="Vector_123" d="M78.395 70.3281H74.8379V75.9412H78.395V70.3281Z" fill="white" stroke="black" stroke-width="0.6737"/>
<path id="Vector_124" d="M78.395 75.8882H74.8379V81.5013H78.395V75.8882Z" fill="white" stroke="black" stroke-width="0.6737"/>
<path id="Vector_125" d="M78.395 81.458H74.8379V87.08H78.395V81.458Z" fill="white" stroke="black" stroke-width="0.6737"/>
<path id="Vector_126" d="M78.395 87.0786H74.8379V92.6917H78.395V87.0786Z" fill="white" stroke="black" stroke-width="0.6737"/>
<path id="Vector_127" d="M78.395 92.6323H74.8379V98.2543H78.395V92.6323Z" fill="white" stroke="black" stroke-width="0.6737"/>
<path id="Vector_128" d="M82.0148 36.7739H78.4842V42.387H82.0148V36.7739Z" fill="white" stroke="black" stroke-width="0.6737"/>
<path id="Vector_129" d="M82.0148 42.3408H78.4842V47.9628H82.0148V42.3408Z" fill="white" stroke="black" stroke-width="0.6737"/>
<path id="Vector_130" d="M82.0148 47.9648H78.4842V53.578H82.0148V47.9648Z" fill="white" stroke="black" stroke-width="0.6737"/>
<path id="Vector_131" d="M82.0148 53.5239H78.4842V59.1459H82.0148V53.5239Z" fill="white" stroke="black" stroke-width="0.6737"/>
<path id="Vector_132" d="M82.0148 59.147H78.4842V64.7601H82.0148V59.147Z" fill="white" stroke="black" stroke-width="0.6737"/>
<path id="Vector_133" d="M82.0148 64.7144H78.4842V70.3275H82.0148V64.7144Z" fill="white" stroke="black" stroke-width="0.6737"/>
<path id="Vector_134" d="M82.0148 70.3281H78.4842V75.9412H82.0148V70.3281Z" fill="white" stroke="black" stroke-width="0.6737"/>
<path id="Vector_135" d="M82.0148 75.8882H78.4842V81.5013H82.0148V75.8882Z" fill="white" stroke="black" stroke-width="0.6737"/>
<path id="Vector_136" d="M82.0148 81.458H78.4842V87.08H82.0148V81.458Z" fill="white" stroke="black" stroke-width="0.6737"/>
<path id="Vector_137" d="M82.0148 87.0786H78.4842V92.6917H82.0148V87.0786Z" fill="white" stroke="black" stroke-width="0.6737"/>
<path id="Vector_138" d="M82.0148 92.6323H78.4842V98.2543H82.0148V92.6323Z" fill="white" stroke="black" stroke-width="0.6737"/>
<path id="Vector_139" d="M85.686 36.7739H82.1377V42.387H85.686V36.7739Z" fill="white" stroke="black" stroke-width="0.6737"/>
<path id="Vector_140" d="M85.686 42.3408H82.1377V47.9628H85.686V42.3408Z" fill="black" stroke="black" stroke-width="0.6737"/>
<path id="Vector_141" d="M85.686 47.9648H82.1377V53.578H85.686V47.9648Z" fill="white" stroke="black" stroke-width="0.6737"/>
<path id="Vector_142" d="M85.686 53.5239H82.1377V59.1459H85.686V53.5239Z" fill="white" stroke="black" stroke-width="0.6737"/>
<path id="Vector_143" d="M85.686 59.147H82.1377V64.7601H85.686V59.147Z" fill="white" stroke="black" stroke-width="0.6737"/>
<path id="Vector_144" d="M85.686 64.7144H82.1377V70.3275H85.686V64.7144Z" fill="white" stroke="black" stroke-width="0.6737"/>
<path id="Vector_145" d="M85.686 70.3281H82.1377V75.9412H85.686V70.3281Z" fill="white" stroke="black" stroke-width="0.6737"/>
<path id="Vector_146" d="M85.686 75.8882H82.1377V81.5013H85.686V75.8882Z" fill="white" stroke="black" stroke-width="0.6737"/>
<path id="Vector_147" d="M85.686 81.458H82.1377V87.08H85.686V81.458Z" fill="white" stroke="black" stroke-width="0.6737"/>
<path id="Vector_148" d="M85.686 87.0786H82.1377V92.6917H85.686V87.0786Z" fill="black" stroke="black" stroke-width="0.6737"/>
<path id="Vector_149" d="M89.2791 36.7739H85.7308V42.387H89.2791V36.7739Z" fill="white" stroke="black" stroke-width="0.6737"/>
<path id="Vector_150" d="M89.2791 42.3408H85.7308V47.9628H89.2791V42.3408Z" fill="white" stroke="black" stroke-width="0.6737"/>
<path id="Vector_151" d="M89.2791 47.9648H85.7308V53.578H89.2791V47.9648Z" fill="white" stroke="black" stroke-width="0.6737"/>
<path id="Vector_152" d="M89.2791 53.5239H85.7308V59.1459H89.2791V53.5239Z" fill="white" stroke="black" stroke-width="0.6737"/>
<path id="Vector_153" d="M89.2791 59.147H85.7308V64.7601H89.2791V59.147Z" fill="white" stroke="black" stroke-width="0.6737"/>
<path id="Vector_154" d="M89.2791 64.7144H85.7308V70.3275H89.2791V64.7144Z" fill="white" stroke="black" stroke-width="0.6737"/>
<path id="Vector_155" d="M89.2791 70.3281H85.7308V75.9412H89.2791V70.3281Z" fill="white" stroke="black" stroke-width="0.6737"/>
<path id="Vector_156" d="M89.2791 75.8882H85.7308V81.5013H89.2791V75.8882Z" fill="white" stroke="black" stroke-width="0.6737"/>
<path id="Vector_157" d="M89.2791 81.458H85.7308V87.08H89.2791V81.458Z" fill="black" stroke="black" stroke-width="0.6737"/>
<path id="Vector_158" d="M89.2791 87.0786H85.7308V92.6917H89.2791V87.0786Z" fill="white" stroke="black" stroke-width="0.6737"/>
<path id="Vector_159" d="M92.9165 42.3408H89.3771V47.9628H92.9165V42.3408Z" fill="white" stroke="black" stroke-width="0.6737"/>
<path id="Vector_160" d="M92.9165 47.9648H89.3771V53.578H92.9165V47.9648Z" fill="white" stroke="black" stroke-width="0.6737"/>
<path id="Vector_161" d="M92.9165 53.5239H89.3771V59.1459H92.9165V53.5239Z" fill="white" stroke="black" stroke-width="0.6737"/>
<path id="Vector_162" d="M92.9165 59.147H89.3771V64.7601H92.9165V59.147Z" fill="white" stroke="black" stroke-width="0.6737"/>
<path id="Vector_163" d="M92.9165 64.7144H89.3771V70.3275H92.9165V64.7144Z" fill="white" stroke="black" stroke-width="0.6737"/>
<path id="Vector_164" d="M92.9165 70.3281H89.3771V75.9412H92.9165V70.3281Z" fill="white" stroke="black" stroke-width="0.6737"/>
<path id="Vector_165" d="M92.9165 75.8882H89.3771V81.5013H92.9165V75.8882Z" fill="white" stroke="black" stroke-width="0.6737"/>
<path id="Vector_166" d="M92.9165 81.458H89.3771V87.08H92.9165V81.458Z" fill="white" stroke="black" stroke-width="0.6737"/>
<path id="Vector_167" d="M96.5629 47.9648H93.0234V53.578H96.5629V47.9648Z" fill="white" stroke="black" stroke-width="0.6737"/>
<path id="Vector_168" d="M96.5629 53.5239H93.0234V59.1459H96.5629V53.5239Z" fill="white" stroke="black" stroke-width="0.6737"/>
<path id="Vector_169" d="M96.5629 59.147H93.0234V64.7601H96.5629V59.147Z" fill="white" stroke="black" stroke-width="0.6737"/>
<path id="Vector_170" d="M96.5629 64.7144H93.0234V70.3275H96.5629V64.7144Z" fill="white" stroke="black" stroke-width="0.6737"/>
<path id="Vector_171" d="M96.5629 70.3281H93.0234V75.9412H96.5629V70.3281Z" fill="white" stroke="black" stroke-width="0.6737"/>
<path id="Vector_172" d="M96.5629 75.8882H93.0234V81.5013H96.5629V75.8882Z" fill="white" stroke="black" stroke-width="0.6737"/>
<path id="Vector_173" d="M96.5629 81.458H93.0234V87.08H96.5629V81.458Z" fill="white" stroke="black" stroke-width="0.6737"/>
<path id="Vector_174" d="M100.207 53.5239H96.6673V59.1459H100.207V53.5239Z" fill="white" stroke="black" stroke-width="0.6737"/>
<path id="Vector_175" d="M100.207 59.147H96.6673V64.7601H100.207V59.147Z" fill="white" stroke="black" stroke-width="0.6737"/>
<path id="Vector_176" d="M100.207 64.7144H96.6673V70.3275H100.207V64.7144Z" fill="white" stroke="black" stroke-width="0.6737"/>
<path id="Vector_177" d="M100.207 70.3281H96.6673V75.9412H100.207V70.3281Z" fill="white" stroke="black" stroke-width="0.6737"/>
<path id="Vector_178" d="M103.747 70.3202L100.26 70.329V64.7159L104.154 64.6982L103.747 70.3202Z" fill="white" stroke="black" stroke-width="0.6737"/>
<path id="Vector_179" d="M38.4789 42.8889V47.9628H42.0095V42.3408H38.9036C38.762 42.5176 38.6205 42.7032 38.4789 42.8889Z" fill="white" stroke="black" stroke-width="0.6737"/>
<path id="Vector_180" d="M38.4163 47.9648H35.222C35.0981 48.1858 34.9831 48.4157 34.8592 48.6455V53.578H38.4075V47.9648H38.4163Z" fill="white" stroke="black" stroke-width="0.6737"/>
<path id="Vector_181" d="M100.216 48.5394C100.119 48.3449 100.022 48.1505 99.9244 47.9648H96.677V53.578H100.216V48.5394Z" fill="white" stroke="black" stroke-width="0.6737"/>
<path id="Vector_182" d="M96.5629 42.7651C96.4567 42.6237 96.3416 42.4823 96.2355 42.3408H93.0234V47.9628H96.5629V42.7651Z" fill="white" stroke="black" stroke-width="0.6737"/>
<path id="Vector_183" d="M81.4131 31.1597H78.4842V36.7728H82.0148V31.416C81.8201 31.3276 81.6166 31.2481 81.4131 31.1597Z" fill="white" stroke="black" stroke-width="0.6737"/>
<path id="Vector_184" d="M56.5479 30.1353C55.5569 30.4535 54.5835 30.8071 53.6278 31.2048H56.5479V30.1353Z" fill="white" stroke="black" stroke-width="0.6737"/>
<path id="Vector_185" d="M56.6547 30.1074V31.2035H60.203V29.1792C58.9996 29.4355 57.8139 29.7449 56.6547 30.1074Z" fill="white" stroke="black" stroke-width="0.6737"/>
<path id="Vector_186" d="M60.2986 29.1638V31.2057H63.8381V28.6157C62.6524 28.7395 61.4755 28.9251 60.2986 29.1638Z" fill="white" stroke="black" stroke-width="0.6737"/>
<path id="Vector_187" d="M67.5029 28.4287C66.2995 28.4287 65.1226 28.4906 63.9546 28.6143V31.2043H67.5029V28.4287Z" fill="white" stroke="black" stroke-width="0.6737"/>
<path id="Vector_188" d="M71.1395 31.2043V28.6055C69.9715 28.4906 68.7946 28.4287 67.5912 28.4287V31.2132H71.1395V31.2043Z" fill="white" stroke="black" stroke-width="0.6737"/>
<path id="Vector_189" d="M71.194 28.6157V31.2146H74.7423V29.1373C73.5743 28.9074 72.3974 28.7306 71.194 28.6157Z" fill="white" stroke="black" stroke-width="0.6737"/>
<path id="Vector_190" d="M78.4842 30.0908V31.2046H81.5458C80.5371 30.798 79.5283 30.4179 78.4842 30.0908Z" fill="white" stroke="black" stroke-width="0.6737"/>
<path id="Vector_191" d="M85.686 33.2543C84.5357 32.6002 83.3588 31.9991 82.1377 31.4688V36.7725H85.686V33.2543Z" fill="white" stroke="black" stroke-width="0.6737"/>
<path id="Vector_192" d="M85.7308 33.2817V36.7734H89.2791V35.5977C88.1465 34.7668 86.9608 33.9889 85.7308 33.2817Z" fill="white" stroke="black" stroke-width="0.6737"/>
<path id="Vector_193" d="M89.3771 35.6685V36.7734H90.784C90.3327 36.3933 89.8549 36.0309 89.3771 35.6685Z" fill="white" stroke="black" stroke-width="0.6737"/>
<path id="Vector_194" d="M90.7937 36.7739H89.3868V42.387H92.9262V38.6921C92.236 38.0291 91.5281 37.3839 90.7937 36.7739Z" fill="white" stroke="black" stroke-width="0.6737"/>
<path id="Vector_195" d="M96.6673 42.8906V47.9645H99.9147C98.9679 46.1789 97.8795 44.4906 96.6673 42.8906Z" fill="white" stroke="black" stroke-width="0.6737"/>
<path id="Vector_196" d="M100.26 48.646V53.5785H102.313C101.756 51.8724 101.066 50.2194 100.26 48.646Z" fill="white" stroke="black" stroke-width="0.6737"/>
<path id="Vector_197" d="M102.304 53.5239H100.26V59.1459H103.685C103.375 57.2189 102.906 55.3449 102.304 53.5239Z" fill="white" stroke="black" stroke-width="0.6737"/>
<path id="Vector_198" d="M102.49 75.8882H100.26V81.3422C101.145 79.6008 101.897 77.7798 102.49 75.8882Z" fill="white" stroke="black" stroke-width="0.6737"/>
<path id="Vector_199" d="M96.6673 81.458V87.08H96.7027C98.0388 85.3209 99.198 83.4292 100.207 81.458H96.6673Z" fill="white" stroke="black" stroke-width="0.6737"/>
<path id="Vector_200" d="M93.0234 91.2155C94.2976 89.9868 95.4833 88.6609 96.5629 87.2554V87.0786H93.0234V91.2155Z" fill="white" stroke="black" stroke-width="0.6737"/>
<path id="Vector_201" d="M89.3771 92.6917H91.4211C91.9432 92.2409 92.4299 91.7813 92.9254 91.3128V87.0786H89.3859V92.6917H89.3771Z" fill="white" stroke="black" stroke-width="0.6737"/>
<path id="Vector_202" d="M89.3771 92.6323V94.3207C90.0938 93.7903 90.7929 93.2246 91.4742 92.6323H89.3771Z" fill="white" stroke="black" stroke-width="0.6737"/>
<path id="Vector_203" d="M85.7308 96.7074C86.9519 96.0002 88.1465 95.2488 89.2791 94.4091V92.6323H85.7308V96.7074Z" fill="white" stroke="black" stroke-width="0.6737"/>
<path id="Vector_204" d="M82.1393 98.2543H82.741C83.7498 97.8035 84.732 97.2819 85.6788 96.7339V92.6323H82.1305V98.2543H82.1393Z" fill="white" stroke="black" stroke-width="0.6737"/>
<path id="Vector_205" d="M52.9661 92.6323H49.4178V96.725C50.3734 97.2731 51.3468 97.7946 52.3555 98.2454H52.9661V92.6323Z" fill="white" stroke="black" stroke-width="0.6737"/>
<path id="Vector_206" d="M45.7691 94.356C46.9017 95.1958 48.0874 95.9648 49.3174 96.672V92.6323H45.7691V94.356Z" fill="white" stroke="black" stroke-width="0.6737"/>
<path id="Vector_207" d="M45.6645 94.2765V92.6323H43.6205C44.2841 93.2069 44.9655 93.7638 45.6645 94.2765Z" fill="white" stroke="black" stroke-width="0.6737"/>
<path id="Vector_208" d="M42.1179 91.2509C42.6311 91.7371 43.1444 92.2232 43.6841 92.6917H45.6662V87.0786H42.1179V91.2509Z" fill="white" stroke="black" stroke-width="0.6737"/>
<path id="Vector_209" d="M38.4789 87.167C39.5496 88.5725 40.7441 89.9073 42.0095 91.1536V87.0786H38.4789V87.167Z" fill="white" stroke="black" stroke-width="0.6737"/>
<path id="Vector_210" d="M38.4189 81.458H34.9148C35.9147 83.4381 37.0828 85.3209 38.4101 87.08H38.4189V81.458Z" fill="white" stroke="black" stroke-width="0.6737"/>
<path id="Vector_211" d="M34.7721 70.3281H31.3653C31.6485 72.2551 32.0909 74.1291 32.6572 75.9412H34.7721V70.3281Z" fill="white" stroke="black" stroke-width="0.6737"/>
<path id="Vector_212" d="M34.7714 81.1831V75.8882H32.6477C33.214 77.7268 33.9396 79.4859 34.7714 81.1831Z" fill="white" stroke="black" stroke-width="0.6737"/>
<path id="Vector_213" d="M34.772 59.147H31.4626C31.3652 59.6862 31.2945 60.2431 31.2237 60.8L31.029 64.7866L34.772 64.7689V59.147Z" fill="white" stroke="black" stroke-width="0.6737"/>
<path id="Vector_214" d="M34.7715 59.1459V53.5239H32.8425C32.2408 55.3449 31.7718 57.2189 31.4621 59.1459H34.7715Z" fill="white" stroke="black" stroke-width="0.6737"/>
<path id="Vector_215" d="M34.771 53.5764V48.8296C34.0189 50.3588 33.3641 51.9411 32.8243 53.5764H34.771Z" fill="white" stroke="black" stroke-width="0.6737"/>
<path id="Vector_216" d="M42.0073 42.3862V38.8857C40.8835 39.9818 39.8394 41.1575 38.866 42.3862H42.0073Z" fill="white" stroke="black" stroke-width="0.6737"/>
<path id="Vector_217" d="M42.1179 42.387H45.6662V36.7739H44.3655C43.5868 37.4104 42.8435 38.091 42.1179 38.7982V42.387Z" fill="white" stroke="black" stroke-width="0.6737"/>
<path id="Vector_218" d="M45.664 35.7559C45.2216 36.0829 44.788 36.4277 44.3633 36.7724H45.664V35.7559Z" fill="white" stroke="black" stroke-width="0.6737"/>
<path id="Vector_219" d="M45.7691 35.6773V36.7734H49.3174V33.3525C48.0786 34.0597 46.9017 34.8287 45.7691 35.6773Z" fill="white" stroke="black" stroke-width="0.6737"/>
<path id="Vector_220" d="M52.9661 31.4966C51.745 32.0358 50.5593 32.6369 49.4178 33.291V36.7738H52.9661V31.4966Z" fill="white" stroke="black" stroke-width="0.6737"/>
<path id="Vector_221" d="M52.9988 36.7728H56.5471V31.1597H53.7509C53.512 31.2657 53.2554 31.363 53.0076 31.4691V36.7728H52.9988Z" fill="white" stroke="black" stroke-width="0.6737"/>
<path id="Vector_222" d="M103.818 60.022C103.773 59.7303 103.729 59.4386 103.685 59.1558H100.26V64.7689L104.154 64.8042L103.818 60.022Z" fill="white" stroke="black" stroke-width="0.6546"/>
<path id="Vector_223" d="M100.26 70.3281V75.9412H102.473C103.048 74.1291 103.481 72.2463 103.764 70.3281H100.26Z" fill="white" stroke="black" stroke-width="0.6737"/>
<path id="Vector_224" d="M100.216 75.8882H96.677V81.5013H100.19C100.199 81.4836 100.216 81.4571 100.225 81.4306V75.8882H100.216Z" fill="white" stroke="black" stroke-width="0.6737"/>
<path id="Vector_225" d="M34.9372 81.5013H38.4148V75.8882H34.8664V81.3776C34.893 81.4217 34.9107 81.4571 34.9372 81.5013Z" fill="white" stroke="black" stroke-width="0.6737"/>
<path id="Vector_226" d="M31.3652 70.3275H34.772V64.7144L31.029 64.7232L31.2237 69.0899C31.2768 69.4966 31.3033 69.9209 31.3652 70.3275Z" fill="white" stroke="black" stroke-width="0.6737"/>
</g>
<g id="Group_4">
<path id="Vector_227" d="M107.613 104.273V102.814H26.7717V105.846H107.613V104.273Z" fill="#DF3232"/>
<path id="Vector_228" d="M105.01 55.6973C97.5156 55.6973 91.7905 59.5955 91.7905 66.3754C91.7905 72.1035 97.0024 76.1432 103.993 76.1432C109.311 76.1432 113.717 72.298 114.983 69.8671C114.983 69.1157 114.222 68.7975 113.523 68.7975C112.302 70.6715 108.86 72.0946 107.444 72.0416C98.9756 71.7322 97.6129 68.3467 97.5067 64.802C97.3475 60.948 101.506 57.6066 105.055 57.863C107.125 58.0132 107.842 61.3988 109.656 62.6186C110.222 62.928 111.541 62.875 112.399 62.7247C113.063 62.6186 114.824 62.2209 114.824 60.7005C114.824 59.4364 113.257 58.0221 111.735 57.1028C110.231 56.4133 106.833 55.6973 105.01 55.6973Z" fill="#DF3232"/>
<path id="Vector_229" d="M54.9824 70.3711C54.9824 73.5091 54.1772 75.1798 51.6376 75.3301L51.6996 75.8427C55.9469 75.7897 60.2651 75.8427 64.4062 75.7367L64.4593 75.4803C62.548 75.4803 61.0615 73.4561 61.0615 70.9368V62.4773C61.0615 60.4089 63.5922 59.0829 65.3177 59.2421C67.9988 59.4896 69.4765 61.2133 69.4765 62.7337V71.034C69.4765 73.571 68.7155 75.1356 66.7423 75.2859V75.7455H78.396V75.3919C76.6705 75.1886 75.4582 73.6152 75.4582 71.2373V62.5304C75.4582 60.6652 77.0775 59.4012 79.971 59.3481C82.5017 59.2951 84.0237 61.1691 84.0237 62.9458V70.8307C84.0237 73.5179 83.2185 75.1886 81.1921 75.3919V75.7455C85.4395 75.7985 88.9347 75.7985 93.1378 75.7455V75.4892C90.9168 75.4892 90.1558 74.0218 90.1558 70.9456V62.2298C90.1558 59.3481 88.5807 55.9095 84.183 55.9095C81.201 55.9095 79.0065 57.3681 77.7588 57.7835C76.8917 58.1283 76.2811 58.5349 76.0776 58.5349C75.6794 58.5349 75.2281 58.2785 74.6618 57.6775C73.5911 56.5548 71.6798 55.9007 69.6446 55.9007C67.0608 55.9007 64.477 57.3592 63.2559 57.7747C63.1143 57.8189 62.2029 58.2785 62.0967 58.2785C61.8932 58.2785 61.0791 58.2785 61.0791 58.1813C61.0791 55.7504 61.2384 56.9615 61.1322 55.2466H59.4598C58.9643 55.2466 58.0883 56.1571 57.0796 56.5548C55.8584 57.0675 53.4251 57.0145 52.4252 57.2708V58.9857L55.0532 59.4896V62.8309L54.9824 70.3711Z" fill="#DF3232"/>
<path id="Vector_230" d="M43.5841 75.7903C48.0438 75.5781 52.3442 74.6234 52.3442 70.3186C52.3442 67.1894 48.9021 65.2093 45.2565 63.6359C42.9204 62.6724 39.5314 61.258 39.5314 60.1442C39.5314 58.8272 42.1152 56.299 44.5928 58.3233L48.8933 61.921L50.8754 61.5144L49.7693 56.1576C48.7517 56.2018 48.0438 56.2548 44.3451 55.6449C39.7792 54.9908 34.3638 57.2714 34.3638 61.5144C34.3638 64.3519 38.4696 66.3231 41.717 67.6402C43.4868 68.4004 46.6369 69.5142 46.6369 71.2291C46.6369 72.8997 43.6903 73.3594 42.0267 73.3594C39.1863 73.3594 36.045 69.5584 36.045 69.5584H34.178L35.1867 75.2334C35.5407 74.924 36.806 74.977 37.0626 75.0831C37.974 75.4278 41.2657 75.9405 43.5841 75.7903Z" fill="#DF3232"/>
<path id="Vector_231" d="M32.8506 58.5885V55.9543L27.3379 56.0073C26.63 56.0073 26.6742 55.8571 26.6742 54.9466L26.7273 51.3489L23.94 51.3047C23.0817 53.2229 22.0198 54.4869 21.4181 54.7433L16.2417 57.015V58.6415L18.1707 58.6946C19.029 58.6946 19.3829 58.6415 19.3829 59.6581V70.3363C19.3829 73.5804 21.1527 75.9494 25.7186 76.0554C29.1518 76.1527 31.2401 74.6323 32.7001 73.2179L32.3019 71.8567C31.6914 72.2633 31.187 72.6169 30.3729 72.6169C26.4795 72.6169 26.5769 69.576 26.5769 66.8977V59.6669C26.5769 58.6062 26.6654 58.6062 27.3821 58.6062H32.8506V58.5885Z" fill="#DF3232"/>
</g>
</g>
</g>
</g>
</svg>
