<svg width="61" height="61" viewBox="0 0 61 61" fill="none" xmlns="http://www.w3.org/2000/svg">
<g id="Group 533">
<g id="Group 532">
<path id="Vector" d="M61 0H0V61H61V0Z" fill="#9DA2A7"/>
<g id="Group">
<path id="Vector_2" d="M9.35695 31.8849C9.42286 31.1195 9.46857 30.352 9.55893 29.5898C9.92568 26.4602 10.5986 23.405 11.8827 20.5114C12.157 19.8927 12.5227 19.3155 12.8671 18.6787C13.0181 18.8073 13.1052 18.8818 13.1839 18.9487C11.7233 21.1864 11.0472 23.691 10.4891 26.2327C10.0065 28.4321 9.7322 30.6592 9.76516 32.9161C9.78217 34.0525 9.88422 35.1804 10.201 36.2796C10.2435 36.4273 10.2892 36.5751 10.3403 36.7197C11.2024 39.1498 13.691 39.9577 15.8405 38.5045C16.6048 37.9879 17.182 37.3394 17.6476 36.5559C18.3652 35.2665 18.8893 33.7644 19.3315 32.3218C19.6664 31.228 19.9895 30.1309 20.3212 29.036C20.3658 28.8893 20.4243 28.7468 20.4828 28.5852C20.74 28.7287 20.9367 28.7372 20.8474 29.0604C20.8474 29.0604 20.1788 33.1149 20.1309 34.0737C20.0831 35.0326 19.998 36.0436 20.2595 37.0269C20.7081 38.7129 22.2092 39.424 23.8122 38.7161C24.4628 38.429 24.9741 37.9666 25.4164 37.4223C26.0903 36.5942 26.5698 35.6566 26.944 34.6616C26.9822 34.5606 27.0226 34.4596 27.0652 34.3491C27.3309 34.4702 27.4266 34.6722 27.3543 34.9752C27.2831 35.275 27.1789 36.6197 27.3203 37.3575C27.3203 37.3904 27.3288 37.4234 27.3352 37.4553C27.569 38.6268 28.3068 38.9744 29.2529 38.2515C29.9715 37.703 30.5785 37.0056 31.2185 36.3582C31.4481 36.1254 31.6288 35.8437 31.8393 35.5758C32.0934 35.7013 32.1869 35.8767 32.2156 36.1647C32.272 36.7175 32.3474 37.282 32.5228 37.805C32.7206 38.395 33.1383 38.5598 33.757 38.479C33.8974 38.4609 34.0536 38.5587 34.2609 38.6204C33.5923 39.0817 32.7673 38.9074 32.3379 38.2813C31.9892 37.7731 31.901 37.1842 31.835 36.591C31.8255 36.5039 31.8223 36.4167 31.8117 36.2679C31.7107 36.3805 31.6448 36.4592 31.5735 36.5336C31.0441 37.0917 30.4871 37.6222 29.9237 38.1441C29.5782 38.4269 29.3092 38.6873 28.8936 38.8798C28.1962 39.1859 27.5138 38.9382 27.2172 38.2377C27.0248 37.7816 26.9227 37.3415 26.8738 36.7728C26.8249 36.2041 26.8664 36.2498 26.8122 35.9638C26.7611 36.0499 26.7069 36.136 26.6591 36.2243C26.1977 37.0715 25.6587 37.8582 24.9061 38.4779C24.2587 39.0116 23.5273 39.3401 22.6748 39.3475C21.3534 39.3592 20.4222 38.7097 19.9917 37.4627C19.6281 36.4103 19.6153 35.3207 19.7014 34.2289C19.7705 33.3647 19.8822 32.5026 19.9417 31.6255C19.9119 31.7191 19.8864 31.8148 19.8524 31.9062C19.4484 33.4412 18.834 34.87 18.2993 36.0521C17.9166 36.8345 17.4265 37.5935 16.7547 38.2462C15.5109 39.4549 14.0322 39.8067 12.3686 39.4038C11.4682 39.1859 10.8537 38.5832 10.4072 37.7965C9.84276 36.8004 9.61527 35.7044 9.48664 34.5819C9.43136 34.1024 9.39734 33.6198 9.35376 33.1393C9.35695 32.7215 9.35695 32.3038 9.35695 31.8849Z" fill="black"/>
</g>
<g id="Group_2">
<path id="Vector_3" d="M35.813 27.7247L35.2825 29.4596H35.2039L34.9253 28.4252C34.852 28.1584 34.8084 27.9958 34.7829 27.8321H34.7786C34.7489 27.9905 34.7032 28.1489 34.6202 28.4178L34.3035 29.4585H34.228L33.7634 27.7236H33.8527L34.1238 28.7442C34.1833 28.9716 34.2344 29.1619 34.2705 29.3256H34.2748C34.3066 29.1694 34.3672 28.9738 34.4353 28.742L34.7414 27.7247H34.8286L35.0976 28.7314C35.1528 28.9429 35.2124 29.1566 35.2421 29.331H35.2485C35.29 29.1449 35.3431 28.9685 35.409 28.7452L35.7173 27.7247H35.813Z" fill="white"/>
<path id="Vector_4" d="M36.0713 27.966C36.0234 27.966 35.9905 27.9225 35.9905 27.8746C35.9905 27.8268 36.0245 27.7832 36.0734 27.7832C36.1223 27.7832 36.1542 27.8247 36.1542 27.8746C36.1542 27.9288 36.1191 27.966 36.0713 27.966ZM36.1117 29.4596H36.0309V28.2276H36.1117V29.4596Z" fill="white"/>
<path id="Vector_5" d="M36.5901 28.0021L36.6709 27.9648V28.2264H37.0334V28.2976H36.6709V29.1459C36.6709 29.3022 36.7305 29.417 36.8644 29.417C36.9292 29.417 36.9696 29.4053 36.9994 29.3936L37.0175 29.4531C36.9781 29.4691 36.9303 29.4829 36.8591 29.4829C36.6082 29.4829 36.5901 29.2618 36.5901 29.1172V28.2965H36.3765V28.2253H36.5901V28.0021Z" fill="white"/>
<path id="Vector_6" d="M38.2558 29.4592H38.175V28.7215C38.175 28.494 38.0857 28.2686 37.8168 28.2686C37.6052 28.2686 37.3979 28.4663 37.3979 28.7055V29.4592H37.3171V27.6318H37.3979V28.4589H37.4022C37.5244 28.241 37.7264 28.1995 37.8295 28.1995C37.939 28.1995 38.2547 28.2388 38.2547 28.7119V29.4592H38.2558Z" fill="white"/>
<path id="Vector_7" d="M40.8051 29.4596H40.7243L40.6712 28.6134C40.6499 28.3104 40.6297 28.0096 40.6318 27.8363H40.6255C40.5606 28.0181 40.4926 28.2105 40.3863 28.4773L39.9983 29.4628H39.9451L39.5794 28.5018C39.4731 28.219 39.3998 28.0213 39.3477 27.8353H39.3402C39.336 28.0351 39.3222 28.3381 39.2988 28.6379L39.2414 29.4585H39.1584L39.2849 27.7236H39.37L39.775 28.7877C39.8579 29.0131 39.9196 29.1789 39.9727 29.3395H39.977C40.0227 29.1853 40.0854 29.0365 40.1768 28.7973L40.5957 27.7247H40.6882L40.8051 29.4596Z" fill="white"/>
<path id="Vector_8" d="M42.018 29.4025C41.984 29.4238 41.8596 29.4854 41.6364 29.4854C41.292 29.4854 41.0762 29.226 41.0762 28.8667C41.0762 28.4394 41.3175 28.2002 41.6183 28.2002C41.984 28.2002 42.0871 28.5191 42.0871 28.7721C42.0871 28.7881 42.0871 28.7998 42.085 28.8114H41.1591C41.157 29.1973 41.3387 29.4184 41.6481 29.4184C41.832 29.4184 41.9234 29.3727 41.9904 29.3398L42.018 29.4025ZM41.9978 28.7402C42 28.602 41.9404 28.265 41.6098 28.265C41.3228 28.265 41.192 28.5361 41.1687 28.7402H41.9978Z" fill="white"/>
<path id="Vector_9" d="M34.936 31.1142H34.3566V32.7779H34.2758V31.1142H33.6943V31.043H34.9349V31.1142H34.936Z" fill="black" stroke="black" stroke-width="0.25" stroke-miterlimit="10"/>
<path id="Vector_10" d="M35.5875 31.5972C35.5673 31.5951 35.5556 31.5919 35.5344 31.5919C35.3345 31.5919 35.1921 31.813 35.1921 32.0883V32.7772H35.1113V31.9087C35.1113 31.796 35.1092 31.6653 35.1028 31.5462H35.1783L35.1836 31.8035H35.19C35.241 31.6514 35.3675 31.5186 35.5418 31.5186C35.5578 31.5186 35.5716 31.5207 35.5875 31.5249V31.5972Z" fill="black" stroke="black" stroke-width="0.25" stroke-miterlimit="10"/>
<path id="Vector_11" d="M36.5624 32.4859C36.5624 32.5827 36.5646 32.6783 36.5805 32.7772H36.505L36.487 32.5912H36.4827C36.4253 32.6847 36.2871 32.8048 36.0851 32.8048C35.8374 32.8048 35.729 32.6326 35.729 32.4742C35.729 32.1957 35.9724 32.0214 36.4827 32.0288C36.4827 31.8885 36.4827 31.5877 36.151 31.5877C36.0479 31.5877 35.9374 31.6217 35.8481 31.6865L35.8162 31.627C35.931 31.5462 36.0639 31.5186 36.1585 31.5186C36.505 31.5186 36.5635 31.7896 36.5635 31.9991V32.4859H36.5624ZM36.4795 32.1011C36.2403 32.0958 35.8109 32.133 35.8109 32.4615C35.8109 32.6518 35.9437 32.7389 36.0798 32.7389C36.3721 32.7389 36.4795 32.4976 36.4795 32.3966V32.1011Z" fill="black" stroke="black" stroke-width="0.25" stroke-miterlimit="10"/>
<path id="Vector_12" d="M37.8637 31.5469L37.3577 32.7779H37.2886L36.7964 31.5469H36.8931L37.1993 32.3442C37.2503 32.4685 37.2907 32.5653 37.3258 32.6705H37.3311C37.3672 32.5674 37.4119 32.4643 37.4619 32.3442L37.7744 31.5469H37.8637Z" fill="black" stroke="black" stroke-width="0.25" stroke-miterlimit="10"/>
<path id="Vector_13" d="M38.9404 32.7208C38.9064 32.742 38.782 32.8037 38.5588 32.8037C38.2143 32.8037 37.9985 32.5443 37.9985 32.1861C37.9985 31.7587 38.2398 31.5195 38.5407 31.5195C38.9064 31.5195 39.0095 31.8384 39.0095 32.0915C39.0095 32.1074 39.0095 32.1191 39.0074 32.1308H38.0815C38.0793 32.5167 38.2611 32.7367 38.5705 32.7367C38.7544 32.7367 38.8458 32.691 38.9128 32.6591L38.9404 32.7208ZM38.9202 32.0585C38.9223 31.9203 38.8628 31.5833 38.5322 31.5833C38.2452 31.5833 38.1144 31.8544 38.091 32.0585H38.9202Z" fill="black" stroke="black" stroke-width="0.25" stroke-miterlimit="10"/>
<path id="Vector_14" d="M39.4189 32.7785H39.3381V30.9521H39.4189V32.7785Z" fill="black" stroke="black" stroke-width="0.25" stroke-miterlimit="10"/>
<path id="Vector_15" d="M41.1037 32.4859C41.1037 32.5827 41.1058 32.6783 41.1218 32.7772H41.0463L41.0282 32.5912H41.024C40.9666 32.6847 40.8284 32.8048 40.6264 32.8048C40.3787 32.8048 40.2703 32.6326 40.2703 32.4742C40.2703 32.1957 40.5137 32.0214 41.024 32.0288C41.024 31.8885 41.024 31.5877 40.6923 31.5877C40.5892 31.5877 40.4786 31.6217 40.3893 31.6865L40.3574 31.627C40.4722 31.5462 40.6051 31.5186 40.6997 31.5186C41.0463 31.5186 41.1048 31.7896 41.1048 31.9991V32.4859H41.1037ZM41.0197 32.1011C40.7805 32.0958 40.3511 32.133 40.3511 32.4615C40.3511 32.6518 40.4839 32.7389 40.62 32.7389C40.9123 32.7389 41.0197 32.4976 41.0197 32.3966V32.1011Z" fill="black" stroke="black" stroke-width="0.25" stroke-miterlimit="10"/>
<path id="Vector_16" d="M41.6013 32.7785H41.5205V30.9521H41.6013V32.7785Z" fill="black" stroke="black" stroke-width="0.25" stroke-miterlimit="10"/>
<path id="Vector_17" d="M42.1125 32.7785H42.0317V30.9521H42.1125V32.7785Z" fill="black" stroke="black" stroke-width="0.25" stroke-miterlimit="10"/>
<path id="Vector_18" d="M43.1182 31.3214L43.199 31.2842V31.5457H43.5615V31.6169H43.199V32.4652C43.199 32.6215 43.2585 32.7363 43.3925 32.7363C43.4573 32.7363 43.4977 32.7246 43.5275 32.714L43.5456 32.7735C43.5062 32.7894 43.4584 32.8033 43.3872 32.8033C43.1373 32.8033 43.1182 32.5822 43.1182 32.4376V31.6169H42.9045V31.5457H43.1182V31.3214Z" fill="black" stroke="black" stroke-width="0.25" stroke-miterlimit="10"/>
<path id="Vector_19" d="M44.7851 32.7785H44.7043V32.0407C44.7043 31.8132 44.615 31.5879 44.3461 31.5879C44.1345 31.5879 43.9272 31.7856 43.9272 32.0248V32.7785H43.8464V30.9521H43.9272V31.7792H43.9315C44.0537 31.5602 44.2557 31.5198 44.3588 31.5198C44.4683 31.5198 44.784 31.5591 44.784 32.0322V32.7785H44.7851Z" fill="black" stroke="black" stroke-width="0.25" stroke-miterlimit="10"/>
<path id="Vector_20" d="M46.0417 32.7208C46.0077 32.742 45.8833 32.8037 45.6601 32.8037C45.3157 32.8037 45.0999 32.5443 45.0999 32.1861C45.0999 31.7587 45.3412 31.5195 45.642 31.5195C46.0077 31.5195 46.1108 31.8384 46.1108 32.0915C46.1108 32.1074 46.1108 32.1191 46.1087 32.1308H45.1828C45.1806 32.5167 45.3624 32.7367 45.6718 32.7367C45.8557 32.7367 45.9471 32.691 46.0141 32.6591L46.0417 32.7208ZM46.0205 32.0585C46.0226 31.9203 45.963 31.5833 45.6324 31.5833C45.3454 31.5833 45.2147 31.8544 45.1913 32.0585H46.0205Z" fill="black" stroke="black" stroke-width="0.25" stroke-miterlimit="10"/>
<path id="Vector_21" d="M48.5366 31.5469L48.1135 32.7779H48.0465L47.7967 32.0518C47.7414 31.8956 47.7021 31.7829 47.6638 31.633H47.6564C47.6171 31.7776 47.5671 31.9041 47.5118 32.0518L47.2503 32.7779H47.1812L46.7932 31.5469H46.8878L47.1111 32.2793C47.1547 32.426 47.1897 32.544 47.2216 32.6588H47.2259C47.2578 32.5483 47.3013 32.4271 47.3545 32.2825L47.6139 31.5469H47.7053L47.9604 32.2751C48.0136 32.4271 48.0497 32.544 48.0816 32.6588H48.0912C48.1188 32.5483 48.1582 32.4292 48.206 32.2793L48.442 31.5469H48.5366Z" fill="black" stroke="black" stroke-width="0.25" stroke-miterlimit="10"/>
<path id="Vector_22" d="M49.8101 32.151C49.8101 32.6123 49.4955 32.8058 49.234 32.8058C48.9193 32.8058 48.678 32.5571 48.678 32.1744C48.678 31.7492 48.9565 31.5195 49.2478 31.5195C49.5901 31.5185 49.8101 31.7789 49.8101 32.151ZM49.2499 31.5854C48.9257 31.5854 48.7609 31.8746 48.7609 32.1669C48.7609 32.472 48.9693 32.7388 49.2361 32.7388C49.505 32.7388 49.7283 32.4997 49.7283 32.1595C49.7272 31.898 49.5848 31.5854 49.2499 31.5854Z" fill="black" stroke="black" stroke-width="0.25" stroke-miterlimit="10"/>
<path id="Vector_23" d="M50.6127 31.5972C50.5925 31.5951 50.5808 31.5919 50.5595 31.5919C50.3597 31.5919 50.2172 31.813 50.2172 32.0883V32.7772H50.1364V31.9087C50.1364 31.796 50.1343 31.6653 50.1279 31.5462H50.2034L50.2087 31.8035H50.2151C50.2661 31.6514 50.3926 31.5186 50.567 31.5186C50.5829 31.5186 50.5967 31.5207 50.6127 31.5249V31.5972Z" fill="black" stroke="black" stroke-width="0.25" stroke-miterlimit="10"/>
<path id="Vector_24" d="M50.9433 32.7785H50.8625V30.9521H50.9433V32.7785Z" fill="black" stroke="black" stroke-width="0.25" stroke-miterlimit="10"/>
<path id="Vector_25" d="M52.322 32.5053C52.322 32.586 52.3274 32.6913 52.3337 32.7785H52.2583L52.2519 32.5329H52.2455C52.1722 32.6977 51.9882 32.8061 51.799 32.8061C51.4939 32.8061 51.2707 32.551 51.2686 32.1863C51.2664 31.7749 51.5184 31.5198 51.8245 31.5198C51.9808 31.5198 52.1626 31.607 52.2359 31.7494H52.2423V30.9521H52.3231V32.5053H52.322ZM52.2413 32.0311C52.2413 31.776 52.0595 31.5857 51.8214 31.5857C51.5386 31.5857 51.3504 31.8334 51.3504 32.1736C51.3504 32.4564 51.5109 32.7391 51.8118 32.7391C52.0786 32.7391 52.2413 32.4861 52.2413 32.2841V32.0311Z" fill="black" stroke="black" stroke-width="0.25" stroke-miterlimit="10"/>
</g>
</g>
</g>
</svg>
