<svg width="90" height="68" viewBox="0 0 90 68" fill="none" xmlns="http://www.w3.org/2000/svg">
<g id="Group 521">
<g id="Group">
<g id="XMLID_96_">
<path id="XMLID_126_" d="M47.235 56.8513C47.079 57.2511 46.8471 57.6952 46.7705 57.8257C48.349 59.4286 50.2402 60.2318 51.9513 60.8125L51.0471 62.0087C49.3837 61.3118 47.6353 60.4638 45.9961 58.7794C44.6584 60.1503 42.7776 61.307 41.0299 62.0743L40.054 60.9009C42.2116 60.0881 44.3858 58.8595 45.3804 56.8506H47.235V56.8513ZM46.9865 66.3643H51.4392V67.6184H40.4543V66.3643H42.5857V62.3104H44.0082V66.3643H45.468V60.2421H46.9865V62.7987H50.2043V64.0418H46.9865V66.3643Z" fill="#4C4948"/>
<path id="XMLID_123_" d="M62.7671 64.8339H66.0173V63.7055H61.4874V63.1986H65.4872V62.2082H61.4874V61.6903H65.4872V60.6537H63.3275L64.0599 59.7987H66.0173V58.7276H64.5465C64.8453 58.3243 65.1677 57.8064 65.5024 57.2767L64.0088 56.9424C63.8417 57.4376 63.5187 58.1399 63.244 58.6006L63.674 58.7269H62.6104V56.8506H61.272V58.7276H60.3761V56.8506H59.062V58.7276H57.9624L58.536 58.5205C58.3807 58.0826 57.9866 57.392 57.6277 56.9086L56.4088 57.3002C56.6835 57.738 56.9941 58.2905 57.1735 58.7283H55.5501V59.7994H57.7043L58.2371 60.6544H56.0774V61.691H60.0773V62.2089H56.0774V63.1992H60.0773V63.7061H55.5508V64.8346H58.8694C58.0108 65.4596 56.542 66.2144 55.3396 66.548L56.368 67.6184C57.5317 67.2841 59.1469 66.173 60.078 65.269V67.6184H61.4881V65.2821C62.6925 66.2745 64.641 67.4202 65.3637 67.6184L66.368 66.5341C65.6301 66.3076 63.8818 65.7082 62.7671 64.8339ZM59.7708 60.6537L59.2297 59.7987H62.5034L61.7932 60.6537H59.7708Z" fill="#4C4948"/>
<path id="XMLID_119_" d="M16.9536 57.7753C18.1408 58.7815 19.6759 60.2214 20.3475 61.2041L19.0443 62.0584C18.8766 61.8008 18.644 61.4969 18.3734 61.1689C11.5223 61.4734 10.0949 61.6385 9.28666 61.789L8.8042 60.5273C9.18451 60.3671 9.7008 60.0688 10.1267 59.6945C10.5781 59.3319 12.3098 57.9155 12.98 56.8506H15.0155C14.4564 57.642 12.675 59.3941 11.5975 60.0923L17.2511 59.9403C16.748 59.4251 16.2317 58.9341 15.7547 58.5011L16.9536 57.7753ZM9.98379 62.4803H19.0436V67.606H17.3919V67.021H11.5582V67.6177H9.98379V62.4803ZM11.5582 63.8139V65.6861H17.3919V63.8139H11.5582Z" fill="#4C4948"/>
<g id="XMLID_111_">
<path id="XMLID_118_" d="M26.7726 61.7044C26.2432 61.3784 25.1458 60.8308 24.3838 60.4689L25.2231 59.4434C25.9333 59.7465 27.057 60.2355 27.612 60.5504L26.7726 61.7044Z" fill="#4C4948"/>
<path id="XMLID_117_" d="M27.6699 63.6672C27.0756 64.891 26.3785 66.219 25.5557 67.4993L24.187 66.6603C24.9449 65.6251 25.7973 64.1796 26.4427 62.8164L27.6699 63.6672Z" fill="#4C4948"/>
<path id="XMLID_116_" d="M26.9981 59.1344C26.4687 58.7967 25.3837 58.2256 24.6348 57.8644L25.4996 56.8506C26.2354 57.1765 27.3335 57.6897 27.8885 57.9928L26.9981 59.1344Z" fill="#4C4948"/>
<path id="XMLID_115_" d="M34.2337 66.1397C34.7244 66.1397 34.8149 66.0106 34.8791 64.5886L36.1836 65.1011C36.0283 66.9657 35.6411 67.4898 34.3628 67.4898H32.1009C30.6287 67.4898 30.2415 67.0934 30.2415 65.7654V61.126H31.6875V62.9353C32.4412 62.8518 34.3441 62.3076 35.3677 61.8477V63.2544C34.3483 63.7019 32.7518 64.1204 31.6875 64.273V65.6266C31.6875 66.0693 31.7779 66.139 32.2817 66.139H34.2337V66.1397Z" fill="#4C4948"/>
<path id="XMLID_112_" d="M28.1971 56.9824V60.1398C28.1971 62.039 28.3131 65.6826 26.8733 67.2267L28.3821 67.6176C29.474 66.7219 29.6307 62.7033 29.6694 60.664H35.3678V56.9824H28.1971ZM33.8956 59.3829H29.6694V58.2524H33.8956V59.3829Z" fill="#4C4948"/>
</g>
<path id="XMLID_97_" d="M70.6299 56.8506V67.6177H81.1951V56.8506H70.6299ZM77.5031 62.5922H76.4954V62.1972H77.7923L77.4244 62.51L77.5031 62.5922ZM76.4954 61.5805V61.2228H77.8303V61.5805H76.4954ZM76.4954 60.6433V60.2856H77.8303V60.6433H76.4954ZM76.6721 63.7897H72.3327V64.6481H74.2163L73.4232 65.0183C73.7635 65.3511 74.1804 65.9444 74.3447 66.2406L75.3255 65.6916C75.1619 65.4078 74.7705 64.9568 74.4434 64.6481H76.6721V65.3194C76.6721 65.4306 76.6217 65.4672 76.4961 65.4672C76.3829 65.4796 75.9674 65.4796 75.6147 65.4672L75.9121 66.3428H72.0227V58.046H75.2744V58.6026H72.3333V59.392H75.2744V59.6813H72.7813V62.1979H75.2744V62.6046C74.2025 62.6046 73.1802 62.5922 72.7813 62.5922V63.4368C73.6386 63.4182 75.1115 63.3926 76.6728 63.3498V63.7897H76.6721ZM73.914 60.6433V60.2856H75.2737V60.6433H73.914ZM75.2744 61.2228V61.5805H73.9146V61.2228H75.2744ZM79.8078 66.3435H76.8308C77.0793 66.3311 77.2864 66.3062 77.4534 66.2579C77.8061 66.1591 77.9069 65.838 77.9069 65.3691V64.6488H79.5123V63.7904H78.7759L79.4433 63.24C79.2038 62.9562 78.8014 62.5059 78.3983 62.1972H79.0278V59.6807H76.4968V59.3913H79.5123V58.6019H76.4968V58.0453H79.8084V66.3435H79.8078ZM77.9062 63.7897V63.3118C78.007 63.3084 78.0387 63.3049 78.1395 63.3015C78.2782 63.4492 78.4853 63.6668 78.5736 63.7897H77.9062Z" fill="#4C4948"/>
</g>
<g id="XMLID_1_">
<path id="XMLID_95_" d="M81.196 42.5684H8.8042V42.8619H81.196V42.5684Z" fill="#595757"/>
<g id="XMLID_22_">
<path id="XMLID_94_" d="M11.5409 46.0928H8.8042V46.4926H9.97274V51.7612H10.3724V46.4926H11.5409V46.0928Z" fill="#595757"/>
<path id="XMLID_93_" d="M32.2763 46.0928H29.5396V46.4926H30.7081V51.7612H31.107V46.4926H32.2763V46.0928Z" fill="#595757"/>
<path id="XMLID_92_" d="M18.5878 46.4939V46.0947H17.0721C16.651 46.0947 16.3101 46.4359 16.3101 46.8571V51C16.3101 51.4213 16.651 51.7625 17.0721 51.7625H18.5878V51.3633H17.0721C16.8719 51.3633 16.709 51.201 16.709 51V49.2135H18.5878V48.8143H16.7097V46.8571C16.7097 46.6569 16.8719 46.4939 17.0728 46.4939H18.5878Z" fill="#595757"/>
<path id="XMLID_91_" d="M43.4132 46.4939V46.0947H41.8975C41.4765 46.0947 41.1355 46.4359 41.1355 46.8571V51C41.1355 51.4192 41.4785 51.7625 41.8975 51.7625H43.4132V51.3633H41.8975C41.6973 51.3633 41.5344 51.201 41.5344 51V49.2135H43.4132V48.8143H41.5344V46.8571C41.5344 46.6569 41.6967 46.4939 41.8975 46.4939H43.4132Z" fill="#595757"/>
<path id="XMLID_90_" d="M47.8799 46.0928H47.481V51.7612H47.8799V46.0928Z" fill="#595757"/>
<path id="XMLID_89_" d="M77.3914 46.0928H76.9924V51.7612H77.3914V46.0928Z" fill="#595757"/>
<path id="XMLID_88_" d="M24.8051 46.4939V46.0947H23.2893C22.8683 46.0947 22.5273 46.4359 22.5273 46.8571V51.7632H22.9263V49.2142H24.8051V48.815H22.9263V46.8578C22.9263 46.6576 23.0885 46.4946 23.2893 46.4946H24.8051V46.4939Z" fill="#595757"/>
<path id="XMLID_87_" d="M28.1374 46.0928V50.3966C28.1374 50.9297 27.7053 51.362 27.1725 51.362C26.6396 51.362 26.2075 50.9297 26.2075 50.3966V46.0928H25.8086V50.3966C25.8086 51.15 26.4194 51.7612 27.1725 51.7612C27.9255 51.7612 28.5363 51.15 28.5363 50.3966V46.0928H28.1374Z" fill="#595757"/>
<path id="XMLID_84_" d="M39.941 47.9049V47.4001C39.941 46.6784 39.3557 46.0928 38.6344 46.0928H37.2671V51.7612H37.666V49.2122H38.6337C39.1348 49.2122 39.5414 49.619 39.5414 50.1203V51.7619H39.9403L39.9396 50.1196C39.9396 49.6528 39.6939 49.244 39.3253 49.0133C39.6946 48.782 39.941 48.3724 39.941 47.9049ZM39.5414 47.9049C39.5414 48.4063 39.1348 48.813 38.6337 48.813H38.633H37.666V46.4926H38.6337C39.1348 46.4926 39.5414 46.8994 39.5414 47.4008V47.9049Z" fill="#595757"/>
<path id="XMLID_78_" d="M66.3792 47.9049V47.4001C66.3792 46.6784 65.7939 46.0928 65.0727 46.0928H63.7053V51.7612H64.1043V49.2122H65.072C65.5731 49.2122 65.9796 49.619 65.9796 50.1203V51.7619H66.3786L66.3779 50.1196C66.3779 49.6528 66.1321 49.244 65.7636 49.0133C66.1328 48.782 66.3792 48.3724 66.3792 47.9049ZM65.9796 47.9049C65.9796 48.4063 65.5731 48.813 65.072 48.813H65.0713H64.1043V46.4926H65.072C65.5731 46.4926 65.9796 46.8994 65.9796 47.4008V47.9049Z" fill="#595757"/>
<path id="XMLID_77_" d="M35.6079 46.0928V50.3966C35.6079 50.9297 35.1758 51.362 34.6429 51.362C34.1101 51.362 33.678 50.9297 33.678 50.3966V46.0928H33.2791V50.3966C33.2791 51.15 33.8899 51.7612 34.6429 51.7612C35.396 51.7612 36.0068 51.15 36.0068 50.3966V46.0928H35.6079Z" fill="#595757"/>
<path id="XMLID_74_" d="M59.7795 47.4593V50.3985C59.7795 51.152 60.3904 51.7632 61.1434 51.7632C61.8964 51.7632 62.5073 51.152 62.5073 50.3985V47.4593C62.5073 46.7059 61.8964 46.0947 61.1434 46.0947C60.3904 46.094 59.7795 46.7052 59.7795 47.4593ZM60.1785 50.3978V47.4587C60.1785 46.9255 60.6106 46.4932 61.1434 46.4932C61.6763 46.4932 62.1083 46.9255 62.1083 47.4587V50.3978C62.1083 50.931 61.6763 51.3633 61.1434 51.3633C60.6106 51.3633 60.1785 50.931 60.1785 50.3978Z" fill="#595757"/>
<path id="XMLID_73_" d="M14.7158 46.0928V48.813H13.0075V46.0928H12.6079V51.7612H13.0075V49.2122H14.7158V51.7612H15.1155V46.0928H14.7158Z" fill="#595757"/>
<path id="XMLID_72_" d="M69.9899 46.0928H67.2532V46.4926H68.4217V51.7612H68.8207V46.4926H69.9899V46.0928Z" fill="#595757"/>
<path id="XMLID_71_" d="M81.1962 46.0928H78.4595V46.4926H79.628V51.7612H80.027V46.4926H81.1962V46.0928Z" fill="#595757"/>
<path id="XMLID_70_" d="M73.0366 46.0928V48.813H71.3284V46.0928H70.9287V51.7612H71.3284V49.2122H73.0366V51.7612H73.4363V46.0928H73.0366Z" fill="#595757"/>
<path id="XMLID_69_" d="M50.3076 51.7619C49.5574 51.7619 48.9465 51.1507 48.9465 50.4H49.3455C49.3455 50.9304 49.7769 51.362 50.3076 51.362C50.8384 51.362 51.2691 50.9304 51.2691 50.4C51.2691 49.9311 50.9219 49.5064 50.2089 49.101C49.3593 48.6183 48.9465 48.0803 48.9465 47.4546C48.9465 46.704 49.5574 46.0928 50.3076 46.0928C51.0579 46.0928 51.6688 46.704 51.6688 47.4546H51.2698C51.2698 46.9243 50.8384 46.4926 50.3083 46.4926C49.7782 46.4926 49.3462 46.9243 49.3462 47.4546C49.3462 47.9235 49.6933 48.3483 50.4063 48.7536C51.256 49.2364 51.6688 49.7744 51.6688 50.4C51.6688 51.1514 51.0586 51.7619 50.3076 51.7619Z" fill="#595757"/>
<path id="XMLID_65_" d="M58.3104 46.0935L57.5974 50.5216L56.9168 46.2903C56.8989 46.1763 56.8002 46.0928 56.6856 46.0928C56.5703 46.0928 56.4723 46.1763 56.4544 46.2903L55.7738 50.5216L55.0608 46.0935H54.6619L55.5426 51.5644C55.5612 51.6783 55.6592 51.7619 55.7738 51.7619C55.8891 51.7619 55.9871 51.6783 56.005 51.5644L56.6856 47.3338L57.3662 51.5644C57.3848 51.6783 57.4828 51.7619 57.5974 51.7619C57.7126 51.7619 57.8107 51.6783 57.8286 51.5644L58.7093 46.0935H58.3104Z" fill="#595757"/>
</g>
<path id="XMLID_10_" d="M89.9454 34.7102C88.9833 33.434 87.3336 32.914 85.7979 33.3573C85.1719 33.5383 84.4437 33.6336 83.6002 33.6336C78.8349 33.6336 77.772 30.5894 77.772 26.3713V22.747C77.772 18.5295 78.837 15.4847 83.6002 15.4847C84.4444 15.4847 85.1719 15.58 85.7986 15.7609C87.3336 16.2036 88.9833 15.6836 89.9454 14.4073L90 14.3355C88.4877 13.0938 86.3722 12.4219 83.5975 12.4219C77.1094 12.4219 74.2505 16.0599 74.2505 22.0647V27.0494C74.2505 33.0618 77.1094 36.6964 83.5975 36.6964C86.3722 36.6964 88.4884 36.0251 90 34.7827L89.9454 34.7102Z" fill="#B52D0B"/>
<path id="XMLID_9_" d="M74.7428 34.7102C73.7806 33.434 72.131 32.914 70.5953 33.3573C69.9692 33.5383 69.241 33.6336 68.3976 33.6336C63.6323 33.6336 62.5694 30.5894 62.5694 26.3713V22.747C62.5694 18.5295 63.6344 15.4847 68.3976 15.4847C69.2417 15.4847 69.9692 15.58 70.5959 15.7609C72.131 16.2036 73.7806 15.6836 74.7428 14.4073L74.7973 14.3355C73.285 13.0938 71.1695 12.4219 68.3948 12.4219C61.9067 12.4219 59.0479 16.0599 59.0479 22.0647V27.0494C59.0479 33.0618 61.9067 36.6964 68.3948 36.6964C71.1695 36.6964 73.2857 36.0251 74.7973 34.7827L74.7428 34.7102Z" fill="#B52D0B"/>
<path id="XMLID_8_" d="M39.1311 16.7734H47.5442V36.6965C49.4893 36.6965 51.0657 35.1192 51.0657 33.173V16.7734H53.3973C55.3423 16.7734 58.498 16.2134 60.4458 13.25H42.6526C40.7076 13.2493 39.1311 14.8273 39.1311 16.7734Z" fill="#B52D0B"/>
<g id="XMLID_2_">
<path id="XMLID_7_" d="M17.4534 0.18457C13.6171 0.90141 11.895 3.69488 11.895 7.91443V28.546C11.895 31.7366 11.1234 33.5466 7.67225 33.5466C6.65901 33.5466 5.87837 33.3892 5.27856 33.0881C6.09993 34.8905 7.57562 36.0791 9.78502 36.5114C13.6213 35.7945 15.3434 33.0011 15.3434 28.7815V8.14992C15.3434 4.95936 16.115 3.14931 19.5661 3.14931C20.5794 3.14931 21.3607 3.30676 21.9598 3.60786C21.1378 1.8054 19.6628 0.616884 17.4534 0.18457Z" fill="url(#paint0_linear_769_588)"/>
<path id="XMLID_6_" d="M19.565 0C18.9507 0 18.3771 0.0414359 17.8408 0.119473C21.9504 0.71684 23.7878 3.55451 23.7878 7.91425V11.7733C23.7878 14.9639 23.0161 16.7739 19.565 16.7739H7.67112C2.34675 16.7732 0 19.7587 0 24.6868V28.7813C0 33.7094 2.34675 36.6956 7.67112 36.6956C8.28611 36.6956 8.85899 36.6542 9.39529 36.5761C5.28571 35.9787 3.44834 33.1411 3.44834 28.7813V24.9223C3.44834 21.7317 4.22001 19.9217 7.67112 19.9217H19.565C24.8894 19.9217 27.2361 16.9355 27.2361 12.0074V7.91425C27.2361 2.98614 24.8901 0 19.565 0Z" fill="#B52D0B"/>
<path id="XMLID_5_" d="M27.2362 28.7815V19.9219H23.7886V28.7809C23.7886 33.709 26.1353 36.6951 31.4597 36.6951C32.074 36.6951 32.6476 36.6537 33.1839 36.5756C29.0743 35.9783 27.2362 33.1406 27.2362 28.7815Z" fill="#B52D0B"/>
<path id="XMLID_3_" d="M31.4597 16.7725H27.2362C26.5039 18.0977 25.3678 19.0411 23.7886 19.5321V19.9223H31.4597C34.9115 19.9223 35.6825 21.7323 35.6825 24.9229V28.5458C35.6825 31.7363 34.9108 33.5464 31.4597 33.5464C30.4464 33.5464 29.6651 33.3889 29.066 33.0878C29.8874 34.8903 31.3631 36.0788 33.5725 36.5118C37.4087 35.795 39.1308 33.0015 39.1308 28.782V24.6874C39.1308 19.7579 36.7841 16.7725 31.4597 16.7725Z" fill="url(#paint1_linear_769_588)"/>
</g>
</g>
</g>
</g>
<defs>
<linearGradient id="paint0_linear_769_588" x1="13.6188" y1="0.184411" x2="13.6188" y2="36.5117" gradientUnits="userSpaceOnUse">
<stop stop-color="#595959"/>
<stop offset="0.1838" stop-color="#626262"/>
<stop offset="0.4834" stop-color="#7B7B7B"/>
<stop offset="0.8594" stop-color="#A2A2A2"/>
<stop offset="1" stop-color="#B3B3B3"/>
</linearGradient>
<linearGradient id="paint1_linear_769_588" x1="31.4596" y1="16.7723" x2="31.4596" y2="36.5107" gradientUnits="userSpaceOnUse">
<stop stop-color="#666666"/>
<stop offset="0.2058" stop-color="#6F6F6F"/>
<stop offset="0.5413" stop-color="#878787"/>
<stop offset="0.9627" stop-color="#AFAFAF"/>
<stop offset="1" stop-color="#B3B3B3"/>
</linearGradient>
</defs>
</svg>
