<svg width="213" height="48" viewBox="0 0 213 48" fill="none" xmlns="http://www.w3.org/2000/svg">
<g id="Group 537">
<g id="Group">
<g id="Group_2">
<g id="Group_3">
<path id="Vector" d="M137.073 27.5086L136.1 23.7822V23.7791C136.1 23.6952 136.177 23.6298 136.271 23.6298H137.922C138.087 23.6298 138.221 23.748 138.221 23.8973L138.784 27.6206C138.784 27.6424 138.762 27.661 138.737 27.661H137.241C137.151 27.661 137.073 27.5895 137.073 27.5086ZM146.784 23.6298C146.691 23.6298 146.613 23.6983 146.613 23.7854L145.64 27.5117C145.64 27.5957 145.717 27.661 145.811 27.661H147.462C147.627 27.661 147.761 27.5428 147.761 27.3935L148.324 23.6734C148.324 23.6485 148.302 23.6298 148.277 23.6298H146.784ZM152.663 18.5224L152.38 19.3809C152.38 19.3809 152.237 19.8257 151.805 19.6204C150.252 19.0356 148.909 18.3762 147.742 17.6888V18.5722C147.742 18.6904 147.646 18.7868 147.528 18.7868H143.562V20.9766H149.36C149.478 20.9766 149.574 21.073 149.574 21.1881V22.3296C149.574 22.4478 149.478 22.5412 149.36 22.5412H143.562V28.4324H151.571C151.69 28.4324 151.783 28.5289 151.783 28.644V29.7886C151.783 29.9037 151.686 30.0001 151.571 30.0001H132.849C132.731 30.0001 132.638 29.9037 132.638 29.7886V28.644C132.638 28.5289 132.734 28.4324 132.849 28.4324H140.859V22.5443H135.061C134.943 22.5443 134.846 22.451 134.846 22.3328V21.1912C134.846 21.0761 134.943 20.9797 135.061 20.9797H140.859V18.7899H136.893C136.775 18.7899 136.681 18.6935 136.681 18.5753V17.6919C135.515 18.3793 134.171 19.0387 132.619 19.6235C132.19 19.8288 132.041 19.384 132.041 19.384L131.761 18.5255C131.761 18.5255 131.711 18.1585 132.106 18.0434C136.719 16.1117 139.111 13.0479 140.529 11.2158C140.731 10.9514 141.095 10.8923 141.269 10.883C141.266 10.8799 141.266 10.8799 141.266 10.8799H141.335C141.353 10.8799 141.363 10.8799 141.363 10.8799H143.067C143.067 10.8799 143.08 10.8799 143.095 10.8799H143.164C143.161 10.8799 143.161 10.883 143.161 10.883C143.332 10.8954 143.699 10.9514 143.901 11.2158C145.316 13.0479 147.708 16.1117 152.324 18.0434C152.716 18.1553 152.663 18.5224 152.663 18.5224ZM146.974 17.216C144.722 15.7727 143.213 14.2517 142.215 13.0386C141.216 14.2517 139.708 15.7727 137.456 17.216H146.974Z" fill="black"/>
<path id="Vector_2" d="M169.772 15.733C170.033 15.733 170.005 15.9476 170.005 15.9476C170.005 18.9835 168.49 20.5294 165.442 21.5341C165.19 21.6336 165.215 21.3879 165.215 21.3879V20.3303C165.215 20.3303 165.212 20.2121 165.377 20.1406C167.15 19.3816 167.744 18.1716 167.905 15.9414C167.905 15.7081 168.188 15.733 168.188 15.733C168.188 15.733 169.653 15.733 169.772 15.733ZM164.789 17.0301H166.036C166.179 17.0301 166.297 16.9057 166.297 16.7563V14.5883V14.4857H175.47V16.184V16.7563C175.47 16.9057 175.585 17.0301 175.731 17.0301H176.979C177.122 17.0301 177.243 16.9057 177.243 16.7563V14.1093C177.243 13.453 176.736 12.918 176.108 12.918H172.039L172.042 11.3067C172.042 11.1574 171.924 11.0361 171.781 11.0361H169.996C169.849 11.0361 169.731 11.1543 169.731 11.3067V12.918H164.792C164.649 12.918 164.53 13.0362 164.53 13.1793V13.5059V13.8325V16.7501C164.527 16.9056 164.646 17.0301 164.789 17.0301ZM177.501 28.3927H172.03V24.0754H176.31C176.428 24.0754 176.521 23.9789 176.521 23.8638V22.7192C176.521 22.6041 176.428 22.5077 176.31 22.5077H165.442C165.324 22.5077 165.227 22.6041 165.227 22.7192V23.8638C165.227 23.9789 165.324 24.0754 165.442 24.0754H169.722V28.3927H164.247C164.132 28.3927 164.036 28.4892 164.036 28.6074V29.7489C164.036 29.8671 164.132 29.9635 164.247 29.9635H177.501C177.619 29.9635 177.716 29.8671 177.716 29.7489V28.6074C177.716 28.486 177.619 28.3927 177.501 28.3927ZM163.744 20.8435C163.734 20.772 163.666 20.7689 163.635 20.7813C163.025 21.0986 162.406 21.3692 161.778 21.615V17.027L163.516 17.0301C163.663 17.0301 163.778 16.9119 163.778 16.7657V15.7299C163.778 15.5868 163.663 15.4655 163.516 15.4655H161.778V11.6085C161.778 11.4623 161.659 11.3441 161.516 11.3441H159.743C159.6 11.3441 159.485 11.4623 159.485 11.6054L159.482 15.4655L157.159 15.4624C157.012 15.4624 156.897 15.5775 156.897 15.7237V16.7626C156.897 16.9057 157.012 17.0238 157.159 17.0238L159.482 17.027L159.479 22.4112C158.658 22.6601 157.821 22.8903 156.978 23.1235C156.888 23.1422 156.872 23.2231 156.9 23.2915C157.084 23.6928 157.448 24.5015 157.582 24.797C157.631 24.8996 157.681 24.965 157.843 24.9028C158.35 24.7286 158.907 24.5108 159.479 24.2651V27.9262C159.467 28.5016 159.355 28.8095 158.412 28.8095H157.454C157.389 28.8095 157.376 28.8531 157.376 28.8749V30.004C157.376 30.1222 157.473 30.2155 157.588 30.2155H159.109C161.476 30.2155 161.778 29.9107 161.778 27.9604V23.1826C162.534 22.7969 163.255 22.405 163.877 22.0442C163.946 21.9975 163.967 21.9851 163.949 21.8607L163.744 20.8435ZM172.335 20.4889C172.767 20.9462 173.663 20.94 174.254 20.94H176.298C176.416 20.94 176.509 20.8435 176.509 20.7285V19.4563C176.509 19.4563 176.518 19.3785 176.431 19.3785H174.5C173.974 19.3287 173.98 19.3598 173.943 18.6226V15.9321C173.943 15.9321 173.965 15.7205 173.756 15.7205H172.176C171.896 15.7205 171.909 15.9321 171.909 15.9321V18.6693C171.896 19.2603 171.896 20.0193 172.335 20.4889Z" fill="black"/>
<path id="Vector_3" d="M100.193 11.2246H81.5762C80.9448 11.2246 80.4285 11.7347 80.4285 12.3662V29.0664C80.4285 29.6979 80.9417 30.2142 81.57 30.2142H100.186C100.818 30.2142 101.331 29.7041 101.331 29.0727L101.337 12.3724C101.334 11.741 100.824 11.2246 100.193 11.2246ZM94.0183 12.6212H95.6233C95.7041 13.0474 95.8223 13.7068 95.9437 14.5217H94.0556C94.0089 13.6446 94.012 12.9789 94.0183 12.6212ZM83.032 12.6212H91.984C91.9933 12.982 92.0244 13.6446 92.1084 14.5217H83.032V12.6212ZM98.7338 28.8238H83.0288L83.032 15.9308H92.2702C92.5532 18.0242 93.1162 20.7365 94.2204 23.2591C93.2686 24.6371 92.1364 25.8813 90.8207 26.7833C90.7056 26.8549 90.7895 26.9793 90.7895 26.9793L91.2126 27.788C91.2126 27.788 91.2748 27.9467 91.4054 27.8502C92.7834 27.0695 93.9623 25.9995 94.9732 24.7864C95.6513 26.0088 96.488 27.1379 97.5113 28.0711C97.614 28.1924 97.7197 28.096 97.7197 28.096L98.3543 27.3463C98.3543 27.3463 98.4414 27.281 98.345 27.1908C97.3683 26.0337 96.6155 24.7366 96.0276 23.3991C96.7493 22.3509 97.3652 21.2466 97.897 20.1611C97.9904 19.9838 97.8317 19.9309 97.8317 19.9309L96.4942 19.3897C96.4942 19.3897 96.3449 19.3275 96.2889 19.483C96.0059 20.158 95.6793 20.8423 95.3122 21.5141C94.659 19.5079 94.3293 17.5358 94.1707 15.9339H97.5518C97.5518 15.9339 98.0339 15.937 98.0121 15.3398C97.8162 14.2791 97.6233 13.2216 97.5113 12.6243H98.74V28.8238H98.7338ZM91.4583 25.0197C89.3276 25.9684 85.8594 26.6994 84.2482 26.7647C84.2482 26.7647 84.2482 26.7647 84.245 26.7647H84.2326H84.2295C84.1113 26.7647 84.0118 26.6682 84.0118 26.5501V24.9792C84.0118 24.861 84.1113 24.7646 84.2295 24.7646H84.2388C85.6697 24.7304 88.8082 24.4691 91.4334 23.7133C91.4334 23.7133 91.589 23.6697 91.589 23.8377V24.8206C91.5921 24.9668 91.4583 25.0197 91.4583 25.0197ZM85.1564 22.7148L90.4474 22.7179C91.0788 22.7179 91.5889 22.2047 91.5921 21.5701V18.301C91.5921 17.6696 91.0819 17.1563 90.4505 17.1563H85.1595C84.5281 17.1563 84.0149 17.6665 84.0149 18.301V21.5732C84.0149 22.2047 84.525 22.7148 85.1564 22.7148ZM86.5437 18.357H89.0663V21.5173L86.5406 21.5141L86.5437 18.357Z" fill="black"/>
<path id="Vector_4" d="M118.237 22.6035L118.234 27.9629C118.234 29.9132 117.519 30.2211 115.276 30.218H114.287C114.109 30.218 113.96 30.0749 113.96 29.8914V28.8898C113.96 28.8898 113.951 28.812 114.038 28.812H114.579C115.518 28.812 115.615 28.4979 115.63 27.9256V21.717C115.63 21.5739 115.749 21.4588 115.895 21.4588H117.092C117.724 21.4588 118.237 21.9721 118.237 22.6035ZM127.248 23.0203C125.948 22.4075 124.471 21.4775 123.373 20.4013H127.248C127.366 20.4013 127.463 20.3048 127.463 20.1897V19.042C127.463 18.9269 127.366 18.8304 127.248 18.8304H114.004C114.47 18.2301 114.903 17.6205 115.295 17.0201H124.747C124.866 17.0201 124.959 16.9237 124.959 16.8055V15.6671C124.959 15.5489 124.866 15.4524 124.747 15.4524H116.246C116.613 14.8055 116.928 14.1958 117.192 13.6452H126.489C126.607 13.6452 126.701 13.5488 126.701 13.4306V12.286C126.701 12.1678 126.607 12.0713 126.489 12.0713H117.889C117.982 11.8443 118.054 11.6483 118.103 11.5021C118.175 11.2906 118.166 11.1351 117.929 11.076C117.422 10.9702 116.396 10.7556 116.091 10.6778C115.69 10.5752 115.618 10.9795 115.618 10.9795L115.453 11.5208C115.4 11.6887 115.335 11.8754 115.263 12.0713H107.59C107.472 12.0713 107.375 12.1678 107.375 12.286V13.4306C107.375 13.5488 107.472 13.6452 107.59 13.6452H114.623C114.371 14.2114 114.075 14.8241 113.736 15.4524H109.297C109.179 15.4524 109.086 15.5489 109.086 15.6671V16.8055C109.086 16.9237 109.182 17.0201 109.297 17.0201H112.828C112.445 17.6298 112.032 18.2395 111.577 18.8304H106.759C106.641 18.8304 106.548 18.9269 106.548 19.042V20.1897C106.548 20.3048 106.644 20.4013 106.759 20.4013H110.234C109.204 21.4744 108.041 22.4044 106.744 23.0172C106.408 23.1323 106.566 23.4309 106.566 23.4309L106.815 24.0436C106.815 24.0436 106.902 24.2925 107.204 24.1805C108.022 23.885 108.794 23.4962 109.521 23.0358C111.217 23.4589 113.238 24.3703 113.746 24.5818C113.904 24.6626 113.973 24.5351 113.973 24.5351L114.585 23.2443C114.585 23.2443 114.691 23.0856 114.517 23.0047C113.811 22.6968 112.221 22.2427 110.986 21.9689C111.581 21.4806 112.137 20.9518 112.663 20.3981H120.962C121.46 20.9176 122.026 21.4122 122.632 21.8787C121.646 22.3422 120.047 22.6968 119.158 22.7994C119.043 22.8088 118.996 22.8897 119.027 23.0203C119.198 23.5335 119.251 23.9348 119.422 24.4449C119.478 24.6129 119.559 24.6098 119.671 24.5849C120.262 24.4978 122.822 23.5397 123.939 22.787C124.856 23.3531 125.824 23.8384 126.785 24.1836C127.083 24.2956 127.174 24.0468 127.174 24.0468L127.422 23.434C127.422 23.434 127.584 23.1323 127.248 23.0203ZM114.806 26.5414C114.744 26.0841 114.728 26.1432 114.635 25.6767C114.629 25.6051 114.545 25.518 114.427 25.5647C112.312 26.6627 110.209 27.207 107.916 27.8416C107.78 27.8913 107.739 27.9878 107.795 28.1091C107.982 28.5103 108.299 29.2071 108.433 29.5026C108.483 29.6052 108.626 29.6861 108.787 29.6239C110.654 28.9956 112.999 27.8042 114.707 26.8213C114.822 26.7405 114.828 26.6658 114.806 26.5414ZM125.761 27.9349C123.852 27.0391 121.631 26.2583 119.643 25.8042C119.453 25.742 119.422 25.8851 119.422 25.8851L119.033 26.7249C119.033 26.7249 118.946 26.8991 119.12 26.9644C121.03 27.7949 122.71 28.4668 124.505 29.5368C124.688 29.6146 124.906 29.6052 125.037 29.4373C125.369 28.9458 125.509 28.7218 125.842 28.2304C125.911 28.1246 125.873 27.9971 125.761 27.9349Z" fill="black"/>
</g>
<g id="Group_4">
<path id="Vector_5" d="M80.4285 41.5792C80.4285 39.3988 81.2279 37.3303 84.2948 37.3303C84.9822 37.3303 85.707 37.4672 86.186 37.6133L85.9807 38.7642C85.5017 38.5776 84.8983 38.4656 84.3384 38.4656C82.5094 38.4656 81.7909 39.7409 81.7909 41.601C81.7909 43.3678 82.612 44.472 84.3695 44.472C84.92 44.472 85.679 44.3351 86.1051 44.1796L86.242 45.3429C85.8065 45.4922 85.0258 45.626 84.3197 45.626C81.2932 45.626 80.4316 43.7348 80.4316 41.5948V41.5792H80.4285ZM92.3603 45.3958L91.3121 45.5856C91.1037 45.315 90.9793 44.9635 90.9264 44.5964C90.5749 45.2621 89.844 45.6136 89.0974 45.6136C88.1736 45.6136 87.144 45.147 87.144 43.7348C87.144 42.2822 87.9217 41.8436 90.7709 41.7192V41.3117C90.7709 40.699 90.6558 40.2946 89.6915 40.2946C89.0788 40.2946 88.4753 40.4719 87.8937 40.7736L87.6231 39.7316C88.1736 39.4734 89.0259 39.2557 89.8377 39.2557C91.4272 39.2557 91.9467 39.9182 91.9467 41.3024V43.6508C91.9467 44.4191 92.0804 45.0661 92.3603 45.3958ZM88.3074 43.7006C88.3074 44.4409 88.9201 44.5964 89.3369 44.5964C90.0741 44.5964 90.6465 44.077 90.7709 43.486V42.643C88.8797 42.7457 88.3074 42.9012 88.3074 43.7006ZM96.1614 44.5529V45.4985L95.589 45.5296C94.5595 45.5825 93.8969 45.2061 93.8969 44.0925V40.4875H92.9389V39.5076H93.8969V38.139L95.1225 37.8249V39.5076H96.3791V40.4875H95.1225V43.6259C95.1225 44.3351 95.278 44.5529 95.8068 44.5529H96.1614ZM100.585 39.3272C102.134 39.3272 102.55 40.3039 102.55 41.3833V45.4798H101.315V41.6974C101.315 40.9291 101.054 40.3568 100.211 40.3568C99.6296 40.3568 99.0355 40.6336 98.7244 41.0193V45.4798H97.4678V37.2245L98.7244 37.041V40.0769C99.1195 39.6694 99.8256 39.3272 100.585 39.3272ZM108.977 45.3958L107.925 45.5856C107.717 45.315 107.592 44.9635 107.54 44.5964C107.185 45.2621 106.457 45.6136 105.711 45.6136C104.784 45.6136 103.757 45.147 103.757 43.7348C103.757 42.2822 104.538 41.8436 107.384 41.7192V41.3117C107.384 40.699 107.269 40.2946 106.305 40.2946C105.692 40.2946 105.089 40.4719 104.507 40.7736L104.236 39.7316C104.787 39.4734 105.639 39.2557 106.451 39.2557C108.04 39.2557 108.56 39.9182 108.56 41.3024V43.6508C108.56 44.4191 108.694 45.0661 108.977 45.3958ZM104.921 43.7006C104.921 44.4409 105.533 44.5964 105.95 44.5964C106.687 44.5964 107.26 44.077 107.384 43.486V42.643C105.493 42.7457 104.921 42.9012 104.921 43.7006ZM113.602 39.4392H114.974C114.476 40.9478 113.527 43.7255 112.915 45.2621C112.404 46.5498 111.907 47.4456 111.449 47.9558L110.233 47.4114C110.7 46.976 111.25 46.1548 111.711 45.063L109.362 39.4361H110.756L112.336 43.7224C112.771 42.4657 113.291 40.6585 113.602 39.4392Z" fill="black"/>
<path id="Vector_6" d="M119.06 45.4798V37.4951H123.375V38.6087H120.33V40.9789H123.054V42.0894H120.33V45.4798H119.06ZM125.807 38.5372H124.507V37.3925H125.807V38.5372ZM125.785 45.4798H124.529V39.4392H125.785V45.4798ZM128.445 39.3459C128.529 39.5543 128.622 39.9307 128.641 40.136C129.036 39.7005 129.804 39.3272 130.563 39.3272C132.121 39.3272 132.538 40.3039 132.538 41.3833V45.4798H131.291V41.6974C131.291 40.9291 131.03 40.3568 130.19 40.3568C129.608 40.3568 129.014 40.6336 128.694 41.0007V45.4798H127.446V40.7487C127.446 40.3226 127.406 39.8654 127.3 39.5014L128.445 39.3459ZM138.961 45.3958L137.913 45.5856C137.705 45.315 137.58 44.9635 137.527 44.5964C137.173 45.2621 136.445 45.6136 135.699 45.6136C134.775 45.6136 133.742 45.147 133.742 43.7348C133.742 42.2822 134.523 41.8436 137.369 41.7192V41.3117C137.369 40.699 137.254 40.2946 136.286 40.2946C135.674 40.2946 135.07 40.4719 134.489 40.7736L134.218 39.7316C134.768 39.4734 135.621 39.2557 136.433 39.2557C138.022 39.2557 138.545 39.9182 138.545 41.3024V43.6508C138.545 44.4191 138.681 45.0661 138.961 45.3958ZM134.908 43.7006C134.908 44.4409 135.521 44.5964 135.938 44.5964C136.675 44.5964 137.248 44.077 137.372 43.486V42.643C135.478 42.7457 134.908 42.9012 134.908 43.7006ZM141.223 39.3459C141.307 39.5543 141.4 39.9307 141.419 40.136C141.814 39.7005 142.585 39.3272 143.341 39.3272C144.899 39.3272 145.316 40.3039 145.316 41.3833V45.4798H144.069V41.6974C144.069 40.9291 143.808 40.3568 142.968 40.3568C142.386 40.3568 141.792 40.6336 141.472 41.0007V45.4798H140.224V40.7487C140.224 40.3226 140.184 39.8654 140.078 39.5014L141.223 39.3459ZM146.669 42.5062C146.669 40.8109 147.335 39.2526 149.665 39.2526C150.237 39.2526 150.769 39.3646 151.08 39.4703L150.853 40.5217C150.498 40.3848 150.041 40.3133 149.69 40.3133C148.42 40.3133 147.932 41.2278 147.932 42.5186C147.932 43.7535 148.473 44.5871 149.73 44.5871C150.094 44.5871 150.613 44.5156 150.937 44.3694L151.111 45.4394C150.831 45.5451 150.249 45.6571 149.655 45.6571C147.338 45.6571 146.672 44.1298 146.672 42.5186V42.5062H146.669ZM153.5 38.5372H152.2V37.3925H153.5V38.5372ZM153.478 45.4798H152.221V39.4392H153.478V45.4798ZM159.929 45.3958L158.878 45.5856C158.67 45.315 158.545 44.9635 158.495 44.5964C158.141 45.2621 157.413 45.6136 156.666 45.6136C155.739 45.6136 154.713 45.147 154.713 43.7348C154.713 42.2822 155.491 41.8436 158.34 41.7192V41.3117C158.34 40.699 158.225 40.2946 157.257 40.2946C156.645 40.2946 156.041 40.4719 155.46 40.7736L155.189 39.7316C155.739 39.4734 156.592 39.2557 157.404 39.2557C158.996 39.2557 159.516 39.9182 159.516 41.3024V43.6508C159.513 44.4191 159.646 45.0661 159.929 45.3958ZM155.873 43.7006C155.873 44.4409 156.486 44.5964 156.903 44.5964C157.64 44.5964 158.212 44.077 158.337 43.486V42.643C156.446 42.7457 155.873 42.9012 155.873 43.7006ZM162.424 45.4798H161.167V37.2245L162.424 37.041V45.4798Z" fill="black"/>
<path id="Vector_7" d="M168.579 45.4798H167.292V37.4951H168.579V40.842H172.402V37.4951H173.681V45.4798H172.402V41.9525H168.579V45.4798ZM181.003 42.4346C181.003 43.9837 180.337 45.7007 178.082 45.7007C175.839 45.7007 175.171 43.9868 175.171 42.4284C175.171 40.9198 175.836 39.2246 178.082 39.2246C180.337 39.2246 181.003 40.9198 181.003 42.4284V42.4346ZM178.095 44.64C179.133 44.64 179.728 43.9246 179.728 42.4035C179.728 40.9291 179.133 40.2542 178.085 40.2542C177.037 40.2542 176.452 40.9291 176.452 42.4035C176.452 43.9246 177.037 44.64 178.085 44.64H178.095ZM183.641 45.4798H182.381V37.2245L183.641 37.041V45.4798ZM187.398 45.626C185.827 45.626 185.028 44.4844 185.028 42.5777C185.028 40.8016 185.681 39.2744 187.575 39.2744C188.241 39.2744 188.885 39.5636 189.246 39.94V37.2276L190.465 37.0441V43.4175C190.465 44.1734 190.496 44.8173 190.714 45.3492L189.631 45.5576C189.476 45.3087 189.392 44.9541 189.361 44.6711C189.068 45.0692 188.468 45.6291 187.404 45.6291H187.398V45.626ZM189.289 41.9743C189.289 41.6446 189.277 41.3086 189.227 41.0411C188.991 40.7083 188.49 40.3257 187.802 40.3257C186.68 40.3257 186.306 41.2713 186.306 42.559C186.306 43.6944 186.68 44.5747 187.669 44.5747C188.521 44.5747 189.04 44.0023 189.227 43.5886C189.267 43.3927 189.289 43.0567 189.289 42.7675V41.9743ZM193.42 38.5372H192.12V37.3925H193.42V38.5372ZM193.398 45.4798H192.142V39.4392H193.398V45.4798ZM196.058 39.3459C196.142 39.5543 196.235 39.9307 196.254 40.136C196.649 39.7005 197.417 39.3272 198.179 39.3272C199.737 39.3272 200.154 40.3039 200.154 41.3833V45.4798H198.907V41.6974C198.907 40.9291 198.646 40.3568 197.806 40.3568C197.221 40.3568 196.63 40.6336 196.31 41.0007V45.4798H195.062V40.7487C195.062 40.3226 195.022 39.8654 194.916 39.5014L196.058 39.3459ZM204.136 46.9386C205.458 46.9386 205.756 46.0521 205.756 45.3367V44.6804C205.467 45.1283 204.854 45.626 203.896 45.626C202.316 45.626 201.526 44.4844 201.526 42.5777C201.526 40.8016 202.17 39.2744 204.073 39.2744C204.789 39.2744 205.498 39.5761 205.853 40.0115C205.853 39.856 205.906 39.5854 205.934 39.4392H207.056C207.016 39.6787 206.976 40.2386 206.976 40.5808V45.4798C206.976 47.3803 205.498 47.9558 204.136 47.9558C203.367 47.9558 202.543 47.7878 201.84 47.5172L202.098 46.4658C202.649 46.7271 203.461 46.9386 204.136 46.9386ZM205.778 41.9743C205.778 41.6446 205.769 41.3086 205.716 41.0411C205.479 40.7083 204.979 40.3257 204.291 40.3257C203.168 40.3257 202.804 41.2713 202.804 42.559C202.804 43.6944 203.168 44.5747 204.157 44.5747C205.007 44.5747 205.529 44.0023 205.716 43.5886C205.756 43.3927 205.778 43.0567 205.778 42.7675V41.9743ZM211.847 40.5528C211.495 40.3848 210.963 40.2511 210.515 40.2511C210.13 40.2511 209.619 40.3848 209.619 40.9478C209.619 41.3553 209.909 41.5388 210.671 41.9058C211.532 42.3071 212.26 42.7457 212.26 43.7846C212.26 45.2372 211.19 45.6447 210.254 45.6447C209.632 45.6447 208.705 45.4923 208.176 45.2807L208.456 44.2201C208.954 44.4409 209.66 44.5964 210.13 44.5964C210.609 44.5964 211.025 44.4409 211.025 43.8375C211.025 43.3678 210.599 43.1096 209.787 42.7332C208.944 42.3475 208.394 41.9743 208.394 41.0069C208.394 39.5854 209.61 39.2712 210.515 39.2712C211.056 39.2712 211.784 39.3957 212.148 39.5419L211.847 40.5528Z" fill="black"/>
</g>
</g>
<g id="Group_5">
<path id="Vector_8" d="M19.0923 13.9444C30.6042 8.77784 42.2904 7.2848 51.2642 9.13243C50.2626 8.6783 49.2486 7.89445 48.6296 6.78089C46.9748 3.79481 43.7337 2.01872 40.0228 2.43241C38.4925 2.60038 36.9839 2.21779 35.9885 1.5397C34.5981 0.590995 33.0211 0 31.1175 0C29.2107 0 27.6368 0.590995 26.2402 1.5397C25.2479 2.21779 23.7362 2.60038 22.209 2.43241C18.4982 2.02183 15.2539 3.79792 13.6022 6.784C12.8681 8.11219 11.5711 8.96447 10.3829 9.36572C7.42788 10.3704 4.99236 13.0641 4.66575 16.5759C4.51334 18.2275 3.53975 19.534 2.80878 20.2618C0.827393 22.2463 0 24.5636 0 26.9369C0 26.9774 0 27.0147 0 27.0551C4.85238 22.0068 11.3813 17.4033 19.0923 13.9444Z" fill="url(#paint0_linear_769_570)"/>
<path id="Vector_9" d="M29.2543 20.713C39.0959 16.296 49.062 14.5635 57.3514 15.3069C56.6391 12.4297 54.4836 10.2834 51.8521 9.36585C51.6592 9.30053 51.4633 9.22276 51.2642 9.13256C42.2904 7.28492 30.6042 8.77796 19.0923 13.9445C11.3813 17.4034 4.85238 22.0069 0 27.0584C0.055989 31.7241 3.53975 35.5625 8.04687 36.1815C13.0361 30.2186 20.3613 24.7006 29.2543 20.713Z" fill="url(#paint1_linear_769_570)"/>
<g id="Group_6">
<path id="Vector_10" d="M59.4199 20.2624C58.6921 19.5345 57.7185 18.2281 57.5661 16.5764C57.5256 16.1378 57.4541 15.7179 57.3514 15.3073C49.062 14.5639 39.0959 16.2965 29.2543 20.7134C20.3614 24.701 13.0361 30.2191 8.04688 36.1788C8.46368 36.2379 8.89293 36.2659 9.32529 36.2659H22.716C23.9882 36.2659 25.0209 37.3204 25.0209 38.5926V39.1307C25.0209 41.2738 22.9057 41.56 22.9057 41.56L12.019 43.4325C11.6333 43.4947 11.3005 43.7591 11.3005 44.1448V45.4792H50.9345V44.1448C50.9345 43.7622 50.6017 43.4947 50.216 43.4325L39.3261 41.56C39.3261 41.56 37.2141 41.2738 37.2141 39.1307V38.5926C37.2141 37.3172 38.2436 36.2659 39.5158 36.2659H52.9096C58.0606 36.2659 62.2349 32.0916 62.2349 26.9375C62.2318 24.5642 61.4044 22.2469 59.4199 20.2624Z" fill="#009043"/>
</g>
</g>
</g>
</g>
<defs>
<linearGradient id="paint0_linear_769_570" x1="38.9695" y1="-1.85146" x2="9.39745" y2="34.667" gradientUnits="userSpaceOnUse">
<stop stop-color="#6FBA2C"/>
<stop offset="0.3125" stop-color="#30A938"/>
<stop offset="0.7712" stop-color="#009641"/>
<stop offset="1" stop-color="#009043"/>
</linearGradient>
<linearGradient id="paint1_linear_769_570" x1="48.2388" y1="-2.97576" x2="12.9755" y2="40.5709" gradientUnits="userSpaceOnUse">
<stop stop-color="#45B035"/>
<stop offset="0.27" stop-color="#00A13D"/>
<stop offset="0.5437" stop-color="#009741"/>
<stop offset="0.7948" stop-color="#009243"/>
<stop offset="1" stop-color="#009043"/>
</linearGradient>
</defs>
</svg>
