<svg width="84" height="105" viewBox="0 0 84 105" fill="none" xmlns="http://www.w3.org/2000/svg">
<path d="M7.21306 104.682L6.20093 100.094H7.11184L7.75286 103.245L8.55582 100.094H9.60843L10.3709 103.299L11.0389 100.094H11.9228L10.8702 104.682H9.91882L9.06188 101.254L8.19145 104.682H7.21306Z" fill="#999999"/>
<path d="M13.1645 104.682V100.876H11.8757V100.094H15.3372V100.876H14.0484V104.682H13.1645Z" fill="#999999"/>
<path d="M17.2332 104.682V100.094H18.5489L19.3384 103.225L20.1009 100.094H21.4301V104.682H20.6204L20.6137 101.072L19.7635 104.682H18.9065L18.0496 101.072L18.0429 104.682H17.2332Z" fill="#999999"/>
<path d="M22.0981 104.682V100.094H22.9821V104.682H22.0981Z" fill="#999999"/>
<path d="M26.423 102.987L27.28 103.264C27.1518 103.77 26.9291 104.148 26.6255 104.391C26.3218 104.641 25.9305 104.762 25.4649 104.762C24.8846 104.762 24.4055 104.553 24.0344 104.134C23.6633 103.716 23.4744 103.149 23.4744 102.427C23.4744 101.665 23.6633 101.071 24.0344 100.646C24.4123 100.221 24.9048 100.012 25.5189 100.012C26.0519 100.012 26.4905 100.18 26.8211 100.511C27.0168 100.707 27.172 100.99 27.2665 101.354L26.3893 101.577C26.3353 101.341 26.2274 101.152 26.0654 101.017C25.9035 100.875 25.7011 100.808 25.4649 100.808C25.141 100.808 24.8779 100.929 24.6754 101.172C24.473 101.415 24.3718 101.813 24.3718 102.36C24.3718 102.94 24.473 103.352 24.6687 103.601C24.8644 103.851 25.1275 103.973 25.4446 103.973C25.6808 103.973 25.8832 103.892 26.0519 103.736C26.2274 103.574 26.3488 103.325 26.423 102.987Z" fill="#999999"/>
<path d="M27.8538 104.682V100.094H29.6958C30.1614 100.094 30.492 100.134 30.708 100.215C30.9171 100.296 31.0858 100.445 31.214 100.654C31.3422 100.863 31.403 101.106 31.403 101.376C31.403 101.72 31.3085 102.003 31.1196 102.226C30.9306 102.449 30.6472 102.59 30.2761 102.651C30.4651 102.766 30.6202 102.894 30.7417 103.036C30.8632 103.177 31.0318 103.427 31.2343 103.785L31.7606 104.682H30.7215L30.0939 103.683C29.8713 103.326 29.7161 103.103 29.6284 103.009C29.5474 102.914 29.4597 102.853 29.3652 102.82C29.2707 102.786 29.1223 102.766 28.9266 102.766H28.7444V104.682H27.8538ZM28.7444 102.037H29.3854C29.8038 102.037 30.0602 102.017 30.1614 101.983C30.2626 101.943 30.3436 101.882 30.4043 101.787C30.4651 101.693 30.492 101.578 30.492 101.443C30.492 101.288 30.4516 101.167 30.3773 101.072C30.3031 100.978 30.1884 100.917 30.0535 100.89C29.986 100.876 29.7701 100.876 29.4192 100.876H28.7444V102.037Z" fill="#999999"/>
<path d="M31.8821 102.422C31.8821 101.956 31.9496 101.558 32.0845 101.241C32.1857 101.005 32.3207 100.796 32.4894 100.613C32.658 100.424 32.847 100.289 33.0562 100.202C33.3261 100.08 33.6432 100.02 34.0008 100.02C34.6418 100.02 35.1614 100.229 35.546 100.647C35.9306 101.065 36.1263 101.652 36.1263 102.401C36.1263 103.144 35.9373 103.724 35.5527 104.142C35.1681 104.561 34.6553 104.77 34.0143 104.77C33.3665 104.77 32.847 104.561 32.4624 104.142C32.071 103.724 31.8821 103.15 31.8821 102.422ZM32.7862 102.388C32.7862 102.907 32.901 103.306 33.1304 103.575C33.3598 103.845 33.6499 103.98 34.0008 103.98C34.3517 103.98 34.6418 103.845 34.8712 103.582C35.1007 103.312 35.2086 102.914 35.2086 102.381C35.2086 101.855 35.1007 101.457 34.878 101.2C34.6553 100.944 34.3652 100.809 34.0008 100.809C33.6364 100.809 33.3395 100.944 33.1169 101.2C32.901 101.464 32.7862 101.855 32.7862 102.388Z" fill="#999999"/>
<path d="M36.6255 104.682V100.094H39.8508V100.876H37.5094V101.889H39.6821V102.671H37.5094V103.906H39.9318V104.689H36.6255V104.682Z" fill="#999999"/>
<path d="M40.5122 104.683V100.128H41.3961V103.9H43.5756V104.683H40.5122Z" fill="#999999"/>
<path d="M44.0413 104.682V100.094H47.2666V100.876H44.9252V101.889H47.0979V102.671H44.9252V103.906H47.3475V104.689H44.0413V104.682Z" fill="#999999"/>
<path d="M50.7006 102.987L51.5576 103.264C51.4294 103.77 51.2067 104.148 50.9031 104.391C50.5994 104.641 50.2081 104.762 49.7425 104.762C49.1622 104.762 48.6831 104.553 48.312 104.134C47.9409 103.716 47.752 103.149 47.752 102.427C47.752 101.665 47.9409 101.071 48.312 100.646C48.6899 100.221 49.1824 100.012 49.7965 100.012C50.3295 100.012 50.7681 100.18 51.0987 100.511C51.2944 100.707 51.4496 100.99 51.5441 101.354L50.6669 101.577C50.6129 101.341 50.5049 101.152 50.343 101.017C50.1811 100.875 49.9786 100.808 49.7425 100.808C49.4186 100.808 49.1554 100.929 48.953 101.172C48.7506 101.415 48.6494 101.813 48.6494 102.36C48.6494 102.94 48.7506 103.352 48.9463 103.601C49.1419 103.851 49.4051 103.973 49.7222 103.973C49.9584 103.973 50.1608 103.892 50.3295 103.736C50.5049 103.574 50.6264 103.325 50.7006 102.987Z" fill="#999999"/>
<path d="M53.1028 104.682V100.876H51.8208V100.094H55.2823V100.876H53.9935V104.682H53.1028Z" fill="#999999"/>
<path d="M55.6736 104.682V100.094H57.5157C57.9812 100.094 58.3119 100.134 58.5278 100.215C58.737 100.296 58.9056 100.445 59.0339 100.654C59.1621 100.863 59.2228 101.106 59.2228 101.376C59.2228 101.72 59.1283 102.003 58.9394 102.226C58.7505 102.449 58.4671 102.59 58.0959 102.651C58.2849 102.766 58.4401 102.894 58.5615 103.036C58.683 103.177 58.8517 103.427 59.0541 103.785L59.5804 104.682H58.5413L57.9138 103.683C57.6911 103.326 57.5359 103.103 57.4482 103.009C57.3672 102.914 57.2795 102.853 57.185 102.82C57.0906 102.786 56.9421 102.766 56.7464 102.766H56.571V104.682H55.6736ZM56.5575 102.037H57.1985C57.6169 102.037 57.8733 102.017 57.9745 101.983C58.0757 101.943 58.1567 101.882 58.2174 101.787C58.2781 101.693 58.3051 101.578 58.3051 101.443C58.3051 101.288 58.2646 101.167 58.1904 101.072C58.1162 100.978 58.0015 100.917 57.8665 100.89C57.7991 100.876 57.5831 100.876 57.2323 100.876H56.5575V102.037Z" fill="#999999"/>
<path d="M59.6953 102.422C59.6953 101.956 59.7628 101.558 59.8977 101.241C59.9989 101.005 60.1339 100.796 60.3026 100.613C60.4713 100.424 60.6602 100.289 60.8694 100.202C61.1393 100.08 61.4564 100.02 61.814 100.02C62.4551 100.02 62.9746 100.229 63.3592 100.647C63.7438 101.065 63.9395 101.652 63.9395 102.401C63.9395 103.144 63.7506 103.724 63.366 104.142C62.9814 104.561 62.4685 104.77 61.8275 104.77C61.1798 104.77 60.6602 104.561 60.2756 104.142C59.891 103.724 59.6953 103.15 59.6953 102.422ZM60.6062 102.388C60.6062 102.907 60.7209 103.306 60.9504 103.575C61.1798 103.845 61.4699 103.98 61.8208 103.98C62.1717 103.98 62.4618 103.845 62.6912 103.582C62.9139 103.312 63.0286 102.914 63.0286 102.381C63.0286 101.855 62.9206 101.457 62.698 101.2C62.4753 100.944 62.1852 100.809 61.8208 100.809C61.4564 100.809 61.1595 100.944 60.9369 101.2C60.7142 101.464 60.6062 101.855 60.6062 102.388Z" fill="#999999"/>
<path d="M64.4387 104.682V100.094H65.2889L67.0838 103.177V100.094H67.8935V104.682H67.0163L65.2484 101.666V104.682H64.4387Z" fill="#999999"/>
<path d="M68.6223 104.682V100.094H69.5062V104.682H68.6223Z" fill="#999999"/>
<path d="M72.9475 102.987L73.8044 103.264C73.6762 103.77 73.4535 104.148 73.1499 104.391C72.8462 104.641 72.4549 104.762 71.9893 104.762C71.409 104.762 70.9299 104.553 70.5588 104.134C70.1877 103.716 69.9988 103.149 69.9988 102.427C69.9988 101.665 70.1877 101.071 70.5588 100.646C70.9367 100.221 71.4293 100.012 72.0433 100.012C72.5763 100.012 73.0149 100.18 73.3456 100.511C73.5412 100.707 73.6964 100.99 73.7909 101.354L72.9137 101.577C72.8597 101.341 72.7518 101.152 72.5898 101.017C72.4279 100.875 72.2255 100.808 71.9893 100.808C71.6654 100.808 71.4023 100.929 71.1998 101.172C70.9974 101.415 70.8962 101.813 70.8962 102.36C70.8962 102.94 70.9974 103.352 71.1931 103.601C71.3888 103.851 71.6519 103.973 71.9691 103.973C72.2052 103.973 72.4076 103.892 72.5763 103.736C72.7518 103.574 72.8732 103.325 72.9475 102.987Z" fill="#999999"/>
<path d="M74.1416 103.184L74.9985 103.097C75.0525 103.4 75.1537 103.616 75.3157 103.758C75.4709 103.9 75.6868 103.967 75.9567 103.967C76.2401 103.967 76.456 103.906 76.5977 103.778C76.7394 103.65 76.8136 103.508 76.8136 103.34C76.8136 103.232 76.7866 103.137 76.7259 103.063C76.6652 102.989 76.5572 102.921 76.4088 102.867C76.3076 102.827 76.0714 102.766 75.707 102.665C75.2347 102.543 74.9041 102.388 74.7151 102.213C74.4452 101.963 74.317 101.653 74.317 101.288C74.317 101.052 74.3778 100.836 74.506 100.634C74.6342 100.431 74.8096 100.276 75.0525 100.168C75.2887 100.06 75.5721 100.006 75.9095 100.006C76.456 100.006 76.8676 100.135 77.1443 100.391C77.4209 100.647 77.5626 100.985 77.5761 101.41L76.6922 101.444C76.6517 101.207 76.5775 101.039 76.4493 100.937C76.3278 100.836 76.1389 100.782 75.896 100.782C75.6396 100.782 75.4439 100.836 75.3022 100.951C75.2077 101.025 75.1605 101.12 75.1605 101.234C75.1605 101.342 75.201 101.437 75.2887 101.511C75.3966 101.606 75.6665 101.713 76.0984 101.815C76.5235 101.923 76.8406 102.031 77.0498 102.145C77.2522 102.26 77.4142 102.415 77.5289 102.611C77.6436 102.807 77.7043 103.049 77.7043 103.34C77.7043 103.603 77.6368 103.846 77.4951 104.082C77.3534 104.311 77.1578 104.48 76.9081 104.595C76.6517 104.709 76.3345 104.763 75.9567 104.763C75.4034 104.763 74.9783 104.628 74.6814 104.359C74.371 104.095 74.1956 103.704 74.1416 103.184Z" fill="#999999"/>
<path opacity="0.01" d="M81.9758 62.0175C81.9758 58.2254 68.1973 55.1553 51.2003 55.1553C34.2033 55.1553 20.4248 58.2254 20.4248 62.0175C20.4248 65.8096 34.2033 68.8797 51.2003 68.8797C68.1973 68.8797 81.9758 65.8096 81.9758 62.0175Z" fill="white"/>
<path opacity="0.01" d="M81.8747 62.0105C81.8747 58.2318 68.13 55.1685 51.1734 55.1685C34.2169 55.1685 20.4722 58.2318 20.4722 62.0105C20.4722 65.7891 34.2169 68.8524 51.1734 68.8524C68.13 68.8592 81.8747 65.7958 81.8747 62.0105Z" fill="#FEFEFE"/>
<path opacity="0.01" d="M81.7665 62.0117C81.7665 58.2466 68.0555 55.1899 51.1395 55.1899C34.2234 55.1899 20.5125 58.2466 20.5125 62.0117C20.5125 65.7768 34.2234 68.8334 51.1395 68.8334C68.0555 68.8334 81.7665 65.7768 81.7665 62.0117Z" fill="#FEFEFE"/>
<path opacity="0.0118" d="M81.6653 62.0046C81.6653 58.2463 67.988 55.2031 51.1192 55.2031C34.2436 55.2031 20.5664 58.2463 20.5664 62.0046C20.5664 65.763 34.2436 68.8061 51.1192 68.8061C67.988 68.8061 81.6653 65.763 81.6653 62.0046Z" fill="#FDFDFD"/>
<path opacity="0.0147" d="M81.564 62.0039C81.564 58.259 67.9205 55.2227 51.0922 55.2227C34.2639 55.2227 20.6204 58.259 20.6204 62.0039C20.6204 65.7488 34.2639 68.7852 51.0922 68.7852C67.9205 68.7852 81.564 65.7488 81.564 62.0039Z" fill="#FDFDFD"/>
<path opacity="0.0176" d="M81.4561 61.9973C81.4561 58.266 67.8463 55.2363 51.0585 55.2363C34.2706 55.2363 20.6609 58.2592 20.6609 61.9973C20.6609 65.7355 34.2706 68.7584 51.0585 68.7584C67.8463 68.7584 81.4561 65.7287 81.4561 61.9973Z" fill="#FCFCFC"/>
<path opacity="0.0206" d="M81.3482 61.9908C81.3482 58.2661 67.7722 55.25 51.0248 55.25C34.2774 55.25 20.7014 58.2661 20.7014 61.9908C20.7014 65.7154 34.2774 68.7316 51.0248 68.7316C67.7789 68.7316 81.3482 65.7154 81.3482 61.9908Z" fill="#FBFBFB"/>
<path opacity="0.0235" d="M81.2471 61.991C81.2471 58.2799 67.7048 55.2705 51.0046 55.2705C34.2977 55.2705 20.7622 58.2799 20.7622 61.991C20.7622 65.7022 34.3045 68.7116 51.0046 68.7116C67.7048 68.7116 81.2471 65.7022 81.2471 61.991Z" fill="#FBFBFB"/>
<path opacity="0.0265" d="M81.146 61.984C81.146 58.2863 67.6374 55.2837 50.9778 55.2837C34.3181 55.2837 20.8096 58.2796 20.8096 61.984C20.8096 65.6884 34.3181 68.6843 50.9778 68.6843C67.6374 68.6843 81.146 65.6884 81.146 61.984Z" fill="#FAFAFA"/>
<path opacity="0.0294" d="M81.0378 61.9779C81.0378 58.287 67.563 55.2979 50.9438 55.2979C34.3247 55.2979 20.8499 58.287 20.8499 61.9779C20.8499 65.6688 34.3247 68.658 50.9438 68.658C67.563 68.6647 81.0378 65.6688 81.0378 61.9779Z" fill="#F9F9F9"/>
<path opacity="0.0324" d="M80.9296 61.9772C80.9296 58.2998 67.4886 55.3174 50.9099 55.3174C34.3312 55.3174 20.8901 58.2998 20.8901 61.9772C20.8901 65.6546 34.3312 68.637 50.9099 68.637C67.4953 68.637 80.9296 65.6546 80.9296 61.9772Z" fill="#F9F9F9"/>
<path opacity="0.0353" d="M80.8285 61.9716C80.8285 58.3077 67.4212 55.332 50.8897 55.332C34.3515 55.332 20.9509 58.3077 20.9509 61.9716C20.9509 65.6423 34.3583 68.6112 50.8897 68.6112C67.4212 68.6112 80.8285 65.6423 80.8285 61.9716Z" fill="#F8F8F8"/>
<path opacity="0.0382" d="M80.7274 61.9645C80.7274 58.3074 67.3538 55.3452 50.8628 55.3452C34.3651 55.3452 20.9983 58.3074 20.9983 61.9645C20.9983 65.6217 34.3651 68.5839 50.8628 68.5839C67.3538 68.5906 80.7274 65.6217 80.7274 61.9645Z" fill="#F7F7F7"/>
<path opacity="0.0412" d="M80.6192 61.9629C80.6192 58.3192 67.2794 55.3638 50.8289 55.3638C34.3784 55.3638 21.0386 58.3192 21.0386 61.9629C21.0386 65.6065 34.3717 68.5619 50.8289 68.5619C67.2794 68.5619 80.6192 65.6065 80.6192 61.9629Z" fill="#F7F7F7"/>
<path opacity="0.0441" d="M80.5182 61.9558C80.5182 58.3189 67.212 55.377 50.8021 55.377C34.3921 55.377 21.0859 58.3256 21.0859 61.9558C21.0859 65.5927 34.3853 68.5346 50.8021 68.5346C67.212 68.5346 80.5182 65.5927 80.5182 61.9558Z" fill="#F6F6F6"/>
<path opacity="0.0471" d="M80.4102 61.9517C80.4102 58.3282 67.1378 55.3931 50.775 55.3931C34.4055 55.3931 21.1399 58.3282 21.1399 61.9517C21.1399 65.5751 34.4055 68.5103 50.775 68.5103C67.1445 68.517 80.4102 65.5751 80.4102 61.9517Z" fill="#F5F5F6"/>
<path opacity="0.05" d="M80.3091 61.9509C80.3091 58.341 67.0772 55.4126 50.7482 55.4126C34.4192 55.4126 21.1873 58.341 21.1873 61.9509C21.1873 65.5676 34.4192 68.4893 50.7482 68.4893C67.0704 68.4893 80.3091 65.5609 80.3091 61.9509Z" fill="#F5F5F5"/>
<path opacity="0.0529" d="M80.2009 61.9429C80.2009 58.3397 67.0028 55.4248 50.7142 55.4248C34.4325 55.4248 21.2275 58.3397 21.2275 61.9429C21.2275 65.5461 34.4257 68.4678 50.7142 68.4678C67.0028 68.4678 80.2009 65.5461 80.2009 61.9429Z" fill="#F4F4F4"/>
<path opacity="0.0559" d="M80.0998 61.9373C80.0998 58.3476 66.9354 55.4395 50.6941 55.4395C34.4528 55.4395 21.2883 58.3476 21.2883 61.9373C21.2883 65.527 34.4528 68.4419 50.6941 68.4419C66.9286 68.4419 80.0998 65.5338 80.0998 61.9373Z" fill="#F3F3F4"/>
<path opacity="0.0588" d="M79.9919 61.9366C79.9919 58.3604 66.8612 55.459 50.6604 55.459C34.4595 55.459 21.3289 58.3604 21.3289 61.9366C21.3289 65.5195 34.4595 68.421 50.6604 68.421C66.8612 68.4142 79.9919 65.5128 79.9919 61.9366Z" fill="#F3F3F3"/>
<path opacity="0.0618" d="M79.8905 61.9296C79.8905 58.3601 66.7936 55.4722 50.6333 55.4722C34.4729 55.4722 21.376 58.3601 21.376 61.9296C21.376 65.499 34.4729 68.3937 50.6333 68.3937C66.7868 68.3937 79.8905 65.499 79.8905 61.9296Z" fill="#F2F2F2"/>
<path opacity="0.0647" d="M79.7826 61.9235C79.7826 58.3675 66.7194 55.4863 50.5996 55.4863C34.4797 55.4863 21.4165 58.3675 21.4165 61.9235C21.4165 65.4794 34.4797 68.3606 50.5996 68.3606C66.7194 68.3674 79.7826 65.4862 79.7826 61.9235Z" fill="#F1F1F2"/>
<path opacity="0.0676" d="M79.6815 61.9237C79.6815 58.3813 66.652 55.5068 50.5794 55.5068C34.5068 55.5068 21.4773 58.3813 21.4773 61.9237C21.4773 65.4729 34.5068 68.3474 50.5794 68.3474C66.6452 68.3406 79.6815 65.4662 79.6815 61.9237Z" fill="#F0F1F1"/>
<path opacity="0.0706" d="M79.5738 61.9167C79.5738 58.381 66.5781 55.52 50.5459 55.52C34.5138 55.52 21.5181 58.381 21.5181 61.9167C21.5181 65.4524 34.5138 68.3201 50.5459 68.3201C66.5781 68.3201 79.5738 65.4524 79.5738 61.9167Z" fill="#F0F0F0"/>
<path opacity="0.0735" d="M79.4722 61.9169C79.4722 58.3947 66.5102 55.5405 50.5186 55.5405C34.5269 55.5405 21.5649 58.3947 21.5649 61.9169C21.5649 65.4392 34.5269 68.3001 50.5186 68.3001C66.5035 68.2934 79.4722 65.4392 79.4722 61.9169Z" fill="#EFEFF0"/>
<path opacity="0.0765" d="M79.3646 61.9099C79.3646 58.3944 66.4363 55.5537 50.4851 55.5537C34.534 55.5537 21.6057 58.4012 21.6057 61.9099C21.6057 65.4253 34.534 68.2728 50.4851 68.2728C66.4363 68.2728 79.3646 65.4253 79.3646 61.9099Z" fill="#EEEFEF"/>
<path opacity="0.0794" d="M79.2632 61.9028C79.2632 58.4009 66.3686 55.5669 50.4647 55.5669C34.554 55.5669 21.6663 58.4076 21.6663 61.9028C21.6663 65.4048 34.5608 68.2455 50.4647 68.2455C66.3686 68.2455 79.2632 65.4048 79.2632 61.9028Z" fill="#EEEEEE"/>
<path opacity="0.0824" d="M79.1552 61.9036C79.1552 58.4151 66.2945 55.5879 50.431 55.5879C34.5676 55.5879 21.7068 58.4151 21.7068 61.9036C21.7068 65.392 34.5676 68.226 50.431 68.226C66.2945 68.2193 79.1552 65.392 79.1552 61.9036Z" fill="#EDEDEE"/>
<path opacity="0.0853" d="M79.0539 61.8965C79.0539 58.4148 66.2269 55.6011 50.4039 55.6011C34.581 55.6011 21.7539 58.4215 21.7539 61.8965C21.7539 65.3782 34.581 68.1987 50.4039 68.1987C66.2269 68.1987 79.0539 65.3782 79.0539 61.8965Z" fill="#ECEDED"/>
<path opacity="0.0882" d="M78.946 61.8899C78.946 58.4217 66.1527 55.6147 50.3702 55.6147C34.5877 55.6147 21.7944 58.4217 21.7944 61.8899C21.7944 65.3582 34.5877 68.1719 50.3702 68.1719C66.1527 68.1719 78.946 65.3582 78.946 61.8899Z" fill="#ECECEC"/>
<path opacity="0.0912" d="M78.8446 61.8907C78.8446 58.436 66.085 55.6357 50.3498 55.6357C34.6078 55.6357 21.855 58.436 21.855 61.8907C21.855 65.3454 34.6146 68.1524 50.3498 68.1524C66.085 68.1457 78.8446 65.3454 78.8446 61.8907Z" fill="#EBEBEB"/>
<path opacity="0.0941" d="M78.7369 61.8836C78.7369 58.4357 66.0111 55.6489 50.3163 55.6489C34.6216 55.6489 21.8958 58.4424 21.8958 61.8836C21.8958 65.3316 34.6216 68.1251 50.3163 68.1251C66.0111 68.1251 78.7369 65.3316 78.7369 61.8836Z" fill="#EAEBEB"/>
<path opacity="0.0971" d="M78.6359 61.8766C78.6359 58.4421 65.9437 55.6621 50.2895 55.6621C34.6352 55.6621 21.9431 58.4488 21.9431 61.8766C21.9431 65.3111 34.6352 68.0978 50.2895 68.0978C65.9437 68.0978 78.6359 65.3111 78.6359 61.8766Z" fill="#E9EAEA"/>
<path opacity="0.1" d="M78.5275 61.8764C78.5275 58.4554 65.8692 55.6821 50.2621 55.6821C34.6484 55.6821 21.99 58.4554 21.99 61.8764C21.99 65.3041 34.6484 68.0773 50.2621 68.0773C65.8692 68.0773 78.5275 65.2974 78.5275 61.8764Z" fill="#E9E9E9"/>
<path opacity="0.1029" d="M78.4265 61.8693C78.4265 58.4551 65.8019 55.6953 50.2354 55.6953C34.6621 55.6953 22.0442 58.4618 22.0442 61.8693C22.0442 65.2836 34.6688 68.05 50.2354 68.05C65.8019 68.05 78.4265 65.2836 78.4265 61.8693Z" fill="#E8E8E9"/>
<path opacity="0.1059" d="M78.3184 61.8622C78.3184 58.4614 65.7275 55.7017 50.2014 55.7017C34.6686 55.7017 22.0845 58.4546 22.0845 61.8622C22.0845 65.2629 34.6754 68.0226 50.2014 68.0226C65.7342 68.0226 78.3184 65.2697 78.3184 61.8622Z" fill="#E7E8E8"/>
<path opacity="0.1088" d="M78.2173 61.863C78.2173 58.4757 65.6601 55.7295 50.1746 55.7295C34.689 55.7295 22.1318 58.4757 22.1318 61.863C22.1318 65.257 34.6822 68.0032 50.1746 68.0032C65.6601 68.0032 78.2173 65.2503 78.2173 61.863Z" fill="#E7E7E7"/>
<path opacity="0.1118" d="M78.1093 61.8563C78.1093 58.4758 65.5859 55.7363 50.1475 55.7363C34.7025 55.7363 22.1858 58.4758 22.1858 61.8563C22.1858 65.2368 34.7025 67.9763 50.1475 67.9763C65.5926 67.9763 78.1093 65.2368 78.1093 61.8563Z" fill="#E6E6E7"/>
<path opacity="0.1147" d="M78.0082 61.8493C78.0082 58.4823 65.5185 55.7495 50.1207 55.7495C34.7161 55.7495 22.2332 58.4755 22.2332 61.8493C22.2332 65.2163 34.7161 67.949 50.1207 67.949C65.5185 67.949 78.0082 65.223 78.0082 61.8493Z" fill="#E5E6E6"/>
<path opacity="0.1176" d="M77.9001 61.8491C77.9001 58.4955 65.4509 55.7695 50.0868 55.7695C34.7226 55.7695 22.2734 58.4888 22.2734 61.8491C22.2734 65.2093 34.7226 67.9286 50.0868 67.9286C65.4509 67.9286 77.9001 65.2026 77.9001 61.8491Z" fill="#E4E5E5"/>
<path opacity="0.1206" d="M77.799 61.8425C77.799 58.4957 65.3835 55.7832 50.0599 55.7832C34.743 55.7832 22.3208 58.4957 22.3208 61.8425C22.3208 65.1893 34.7363 67.9018 50.0599 67.9018C65.3768 67.9018 77.799 65.1893 77.799 61.8425Z" fill="#E4E4E4"/>
<path opacity="0.1235" d="M77.691 61.8354C77.691 58.5021 65.3093 55.7964 50.0329 55.7964C34.7565 55.7964 22.3748 58.4954 22.3748 61.8354C22.3748 65.1687 34.7565 67.8745 50.0329 67.8745C65.3093 67.8812 77.691 65.1754 77.691 61.8354Z" fill="#E3E3E4"/>
<path opacity="0.1265" d="M77.5897 61.8357C77.5897 58.5159 65.2417 55.8169 50.0058 55.8169C34.7699 55.8169 22.4219 58.5092 22.4219 61.8357C22.4219 65.1622 34.7699 67.8545 50.0058 67.8545C65.2349 67.8545 77.5897 65.1555 77.5897 61.8357Z" fill="#E2E3E3"/>
<path opacity="0.1294" d="M77.4818 61.8296C77.4818 58.5166 65.1675 55.8311 49.9721 55.8311C34.7766 55.8311 22.4624 58.5166 22.4624 61.8296C22.4624 65.1426 34.7766 67.8282 49.9721 67.8282C65.1675 67.8282 77.4818 65.1426 77.4818 61.8296Z" fill="#E2E2E2"/>
<path opacity="0.1324" d="M77.3804 61.8289C77.3804 58.5294 65.0999 55.8506 49.945 55.8506C34.79 55.8506 22.5095 58.5226 22.5095 61.8289C22.5095 65.1284 34.79 67.8072 49.945 67.8072C65.0999 67.8072 77.3804 65.1284 77.3804 61.8289Z" fill="#E1E1E2"/>
<path opacity="0.1353" d="M77.2724 61.8233C77.2724 58.5305 65.0257 55.8652 49.918 55.8652C34.8102 55.8652 22.5635 58.5305 22.5635 61.8233C22.5635 65.1161 34.8102 67.7814 49.918 67.7814C65.0257 67.7814 77.2724 65.1161 77.2724 61.8233Z" fill="#E0E1E1"/>
<path opacity="0.1382" d="M77.1713 61.8162C77.1713 58.5369 64.9583 55.8784 49.8911 55.8784C34.8239 55.8784 22.6108 58.5369 22.6108 61.8162C22.6108 65.0955 34.8239 67.7541 49.8911 67.7541C64.9583 67.7541 77.1713 65.0955 77.1713 61.8162Z" fill="#DFE0E0"/>
<path opacity="0.1412" d="M77.0637 61.816C77.0637 58.5502 64.8844 55.8984 49.8576 55.8984C34.8309 55.8984 22.6516 58.5435 22.6516 61.816C22.6516 65.0818 34.8309 67.7336 49.8576 67.7336C64.8844 67.7336 77.0637 65.0818 77.0637 61.816Z" fill="#DFDFDF"/>
<path opacity="0.1441" d="M76.9621 61.8075C76.9621 58.5484 64.8166 55.9102 49.8303 55.9102C34.844 55.9102 22.6985 58.5484 22.6985 61.8075C22.6985 65.0666 34.844 67.7048 49.8303 67.7048C64.8166 67.7048 76.9621 65.0666 76.9621 61.8075Z" fill="#DEDEDF"/>
<path opacity="0.1471" d="M76.8544 61.8019C76.8544 58.5563 64.7425 55.9248 49.8035 55.9248C34.8645 55.9248 22.7527 58.5563 22.7527 61.8019C22.7527 65.0475 34.8645 67.679 49.8035 67.679C64.7425 67.679 76.8544 65.0475 76.8544 61.8019Z" fill="#DDDEDE"/>
<path opacity="0.15" d="M76.753 61.8027C76.753 58.5706 64.675 55.9458 49.7764 55.9458C34.8779 55.9458 22.7998 58.5638 22.7998 61.8027C22.7998 65.0347 34.8779 67.6595 49.7764 67.6595C64.675 67.6595 76.753 65.0347 76.753 61.8027Z" fill="#DCDDDD"/>
<path opacity="0.1529" d="M76.6451 61.7946C76.6451 58.5693 64.6008 55.958 49.7427 55.958C34.8847 55.958 22.8403 58.5693 22.8403 61.7946C22.8403 65.0199 34.8847 67.6312 49.7427 67.6312C64.6008 67.6312 76.6451 65.0199 76.6451 61.7946Z" fill="#DCDCDD"/>
<path opacity="0.1559" d="M76.5439 61.789C76.5439 58.5772 64.5333 55.9727 49.7157 55.9727C34.8981 55.9727 22.8943 58.5772 22.8943 61.789C22.8943 65.0009 34.9049 67.6054 49.7157 67.6054C64.5333 67.6121 76.5439 65.0076 76.5439 61.789Z" fill="#DBDBDC"/>
<path opacity="0.1588" d="M76.4361 61.7883C76.4361 58.5832 64.4592 55.9922 49.6889 55.9922C34.9185 55.9922 22.9417 58.5832 22.9417 61.7883C22.9417 64.9934 34.9185 67.5844 49.6889 67.5844C64.4592 67.5844 76.4361 64.9866 76.4361 61.7883Z" fill="#DADBDB"/>
<path opacity="0.1618" d="M76.335 61.7827C76.335 58.5911 64.3918 56.0068 49.662 56.0068C34.9321 56.0068 22.989 58.5911 22.989 61.7827C22.989 64.9743 34.9321 67.5586 49.662 67.5586C64.3918 67.5586 76.335 64.9743 76.335 61.7827Z" fill="#D9DADA"/>
<path opacity="0.1647" d="M76.2268 61.7752C76.2268 58.5971 64.3174 56.0195 49.6281 56.0195C34.9387 56.0195 23.0293 58.5971 23.0293 61.7752C23.0293 64.9533 34.9387 67.5308 49.6281 67.5308C64.3242 67.5376 76.2268 64.96 76.2268 61.7752Z" fill="#D9D9DA"/>
<path opacity="0.1676" d="M76.1256 61.7745C76.1256 58.6031 64.2499 56.0391 49.6078 56.0391C34.9589 56.0391 23.0833 58.6031 23.0833 61.7745C23.0833 64.9458 34.9589 67.5099 49.6078 67.5099C64.2499 67.5099 76.1256 64.9391 76.1256 61.7745Z" fill="#D8D8D9"/>
<path opacity="0.1706" d="M76.0175 61.7674C76.0175 58.6096 64.1756 56.0522 49.5739 56.0522C34.9655 56.0522 23.1304 58.6096 23.1304 61.7674C23.1304 64.9252 34.9723 67.4826 49.5739 67.4826C64.1823 67.4826 76.0175 64.9252 76.0175 61.7674Z" fill="#D7D8D8"/>
<path opacity="0.1735" d="M75.9164 61.7608C75.9164 58.6165 64.1082 56.0659 49.5471 56.0659C34.9859 56.0659 23.1777 58.6165 23.1777 61.7608C23.1777 64.9052 34.9859 67.4557 49.5471 67.4557C64.1082 67.4625 75.9164 64.9119 75.9164 61.7608Z" fill="#D6D7D7"/>
<path opacity="0.1765" d="M75.8085 61.7616C75.8085 58.624 64.034 56.0869 49.5134 56.0869C34.9927 56.0869 23.2183 58.624 23.2183 61.7616C23.2183 64.8992 34.9927 67.4363 49.5134 67.4363C64.0408 67.4363 75.8085 64.8992 75.8085 61.7616Z" fill="#D6D6D7"/>
<path opacity="0.1794" d="M75.7073 61.7545C75.7073 58.6304 63.9666 56.1001 49.4932 56.1001C35.013 56.1001 23.2791 58.6304 23.2791 61.7545C23.2791 64.8786 35.0198 67.409 49.4932 67.409C63.9666 67.4157 75.7073 64.8786 75.7073 61.7545Z" fill="#D5D5D6"/>
<path opacity="0.1824" d="M75.5992 61.7489C75.5992 58.6383 63.8922 56.1147 49.4593 56.1147C35.0196 56.1147 23.3193 58.6383 23.3193 61.7489C23.3193 64.8595 35.0196 67.3831 49.4593 67.3831C63.899 67.3899 75.5992 64.8663 75.5992 61.7489Z" fill="#D4D5D5"/>
<path opacity="0.1853" d="M75.4981 61.7482C75.4981 58.6444 63.8249 56.1343 49.4324 56.1343C35.0399 56.1343 23.3667 58.6444 23.3667 61.7482C23.3667 64.8521 35.0332 67.3622 49.4324 67.3622C63.8249 67.3622 75.4981 64.8521 75.4981 61.7482Z" fill="#D3D4D4"/>
<path opacity="0.1882" d="M75.3903 61.7417C75.3903 58.6513 63.7575 56.1479 49.3988 56.1479C35.0401 56.1479 23.4141 58.6513 23.4141 61.7417C23.4141 64.832 35.0468 67.3354 49.4055 67.3354C63.7643 67.3354 75.3903 64.832 75.3903 61.7417Z" fill="#D3D3D4"/>
<path opacity="0.1912" d="M75.2888 61.7409C75.2888 58.6641 63.6898 56.1675 49.3783 56.1675C35.0668 56.1675 23.4678 58.6641 23.4678 61.7409C23.4678 64.8178 35.0668 67.3144 49.3783 67.3144C63.6898 67.3144 75.2888 64.8178 75.2888 61.7409Z" fill="#D2D2D3"/>
<path opacity="0.1941" d="M75.1809 61.7353C75.1809 58.6652 63.6156 56.1821 49.3446 56.1821C35.0736 56.1821 23.5083 58.6652 23.5083 61.7353C23.5083 64.8055 35.0736 67.2886 49.3446 67.2886C63.6156 67.2886 75.1809 64.8055 75.1809 61.7353Z" fill="#D1D2D2"/>
<path opacity="0.1971" d="M75.0795 61.7283C75.0795 58.6717 63.548 56.1953 49.3175 56.1953C35.0937 56.1953 23.5554 58.6717 23.5554 61.7283C23.5554 64.7849 35.0869 67.2613 49.3175 67.2613C63.548 67.268 75.0795 64.7849 75.0795 61.7283Z" fill="#D0D1D1"/>
<path opacity="0.2" d="M74.9719 61.7281C74.9719 58.6849 63.4741 56.2153 49.284 56.2153C35.1007 56.2153 23.5962 58.6849 23.5962 61.7281C23.5962 64.7712 35.094 67.2408 49.284 67.2408C63.4741 67.2408 74.9719 64.7712 74.9719 61.7281Z" fill="#D0D0D1"/>
<path opacity="0.2029" d="M74.8705 61.721C74.8705 58.6846 63.4064 56.2285 49.2636 56.2285C35.1208 56.2285 23.6567 58.6846 23.6567 61.721C23.6567 64.7574 35.1208 67.2135 49.2636 67.2135C63.4064 67.2135 74.8705 64.7574 74.8705 61.721Z" fill="#CFCFD0"/>
<path opacity="0.2059" d="M74.7628 61.7139C74.7628 58.6911 63.3325 56.2417 49.2302 56.2417C35.1278 56.2417 23.6975 58.6911 23.6975 61.7139C23.6975 64.7368 35.1278 67.1929 49.2302 67.1929C63.3325 67.1929 74.7628 64.7436 74.7628 61.7139Z" fill="#CECFCF"/>
<path opacity="0.2088" d="M74.6612 61.7147C74.6612 58.7053 63.2647 56.2627 49.2028 56.2627C35.141 56.2627 23.7444 58.7053 23.7444 61.7147C23.7444 64.7308 35.141 67.1735 49.2028 67.1735C63.2647 67.1667 74.6612 64.7241 74.6612 61.7147Z" fill="#CDCECE"/>
<path opacity="0.2118" d="M74.5534 61.7076C74.5534 58.705 63.1906 56.2759 49.1759 56.2759C35.1613 56.2759 23.7917 58.7117 23.7917 61.7076C23.7917 64.7103 35.1546 67.1461 49.1759 67.1461C63.1906 67.1461 74.5534 64.7103 74.5534 61.7076Z" fill="#CDCDCE"/>
<path opacity="0.2147" d="M74.4522 61.7006C74.4522 58.7114 63.1231 56.2891 49.1489 56.2891C35.1748 56.2891 23.8457 58.7114 23.8457 61.7006C23.8457 64.6897 35.1748 67.1188 49.1489 67.1188C63.1231 67.1188 74.4522 64.6965 74.4522 61.7006Z" fill="#CCCCCD"/>
<path opacity="0.2176" d="M74.3442 61.7018C74.3442 58.7194 63.0489 56.3105 49.1152 56.3105C35.1816 56.3105 23.8862 58.7262 23.8862 61.7018C23.8862 64.6842 35.1816 67.0998 49.1152 67.0998C63.0489 67.0931 74.3442 64.6775 74.3442 61.7018Z" fill="#CBCCCC"/>
<path opacity="0.2206" d="M74.2429 61.6948C74.2429 58.7258 62.9813 56.3237 49.0881 56.3237C35.195 56.3237 23.9333 58.7326 23.9333 61.6948C23.9333 64.6637 35.195 67.0725 49.0881 67.0725C62.9813 67.0725 74.2429 64.6637 74.2429 61.6948Z" fill="#CACBCB"/>
<path opacity="0.2235" d="M74.1352 61.6936C74.1352 58.7381 62.9073 56.3428 49.0614 56.3428C35.2154 56.3428 23.9875 58.7381 23.9875 61.6936C23.9875 64.649 35.2154 67.0511 49.0614 67.0511C62.9073 67.0511 74.1352 64.649 74.1352 61.6936Z" fill="#C9CACB"/>
<path opacity="0.2265" d="M74.0336 61.6865C74.0336 58.7378 62.8395 56.356 49.034 56.356C35.2286 56.356 24.0344 58.7446 24.0344 61.6865C24.0344 64.6352 35.2286 67.0238 49.034 67.0238C62.8395 67.0171 74.0336 64.6284 74.0336 61.6865Z" fill="#C9C9CA"/>
<path opacity="0.2294" d="M73.9259 61.6809C73.9259 58.7457 62.7655 56.3706 49.0006 56.3706C35.2356 56.3706 24.0752 58.7525 24.0752 61.6809C24.0752 64.6161 35.2356 66.998 49.0006 66.998C62.7723 66.998 73.9259 64.6161 73.9259 61.6809Z" fill="#C8C9C9"/>
<path opacity="0.2324" d="M73.8249 61.6807C73.8249 58.759 62.6982 56.3906 48.9737 56.3906C35.2492 56.3906 24.1226 58.759 24.1226 61.6807C24.1226 64.6024 35.2492 66.9775 48.9737 66.9775C62.6982 66.9707 73.8249 64.6024 73.8249 61.6807Z" fill="#C7C8C8"/>
<path opacity="0.2353" d="M73.7166 61.6736C73.7166 58.7587 62.6237 56.4038 48.9464 56.4038C35.2625 56.4038 24.1763 58.7654 24.1763 61.6736C24.1763 64.5886 35.2692 66.9502 48.9464 66.9502C62.6304 66.9502 73.7166 64.5886 73.7166 61.6736Z" fill="#C6C7C8"/>
<path opacity="0.2382" d="M73.6155 61.6679C73.6155 58.7665 62.5563 56.4116 48.9196 56.4116C35.2828 56.4116 24.2236 58.7665 24.2236 61.6679C24.2236 64.5694 35.2828 66.9243 48.9196 66.9243C62.5563 66.9243 73.6155 64.5694 73.6155 61.6679Z" fill="#C6C6C7"/>
<path opacity="0.2412" d="M73.5076 61.6673C73.5076 58.7794 62.4822 56.438 48.8859 56.438C35.2896 56.438 24.2642 58.7794 24.2642 61.6673C24.2642 64.5553 35.2896 66.9034 48.8859 66.9034C62.4889 66.8967 73.5076 64.5553 73.5076 61.6673Z" fill="#C5C5C6"/>
<path opacity="0.2441" d="M73.4063 61.6592C73.4063 58.778 62.4146 56.4434 48.8588 56.4434C35.303 56.4434 24.3113 58.778 24.3113 61.6592C24.3113 64.5404 35.303 66.875 48.8588 66.875C62.4146 66.875 73.4063 64.5404 73.4063 61.6592Z" fill="#C4C5C5"/>
<path opacity="0.2471" d="M73.2983 61.6536C73.2983 58.7859 62.3403 56.458 48.8318 56.458C35.3165 56.458 24.3652 58.7859 24.3652 61.6536C24.3652 64.5213 35.3232 66.8492 48.8318 66.8492C62.3471 66.8492 73.2983 64.5213 73.2983 61.6536Z" fill="#C3C4C4"/>
<path opacity="0.25" d="M73.1972 61.6544C73.1972 58.8002 62.273 56.479 48.8049 56.479C35.3368 56.479 24.4126 58.7934 24.4126 61.6544C24.4126 64.5153 35.3368 66.8297 48.8049 66.8297C62.273 66.8297 73.1972 64.5086 73.1972 61.6544Z" fill="#C2C3C4"/>
<path opacity="0.2529" d="M73.0961 61.6473C73.0961 58.7998 62.2124 56.4922 48.7781 56.4922C35.3437 56.4922 24.46 58.7998 24.46 61.6473C24.46 64.4948 35.3437 66.8024 48.7781 66.8024C62.2124 66.8024 73.0961 64.4948 73.0961 61.6473Z" fill="#C2C2C3"/>
<path opacity="0.2559" d="M72.988 61.6393C72.988 58.8053 62.138 56.5044 48.7441 56.5044C35.357 56.5044 24.5002 58.8053 24.5002 61.6393C24.5002 64.4732 35.3503 66.7741 48.7441 66.7741C62.1312 66.7741 72.988 64.4732 72.988 61.6393Z" fill="#C1C2C2"/>
<path opacity="0.2588" d="M72.8868 61.6395C72.8868 58.8191 62.0705 56.5249 48.7239 56.5249C35.3773 56.5249 24.561 58.8123 24.561 61.6395C24.561 64.4667 35.3773 66.7542 48.7239 66.7542C62.0638 66.7542 72.8868 64.46 72.8868 61.6395Z" fill="#C0C1C1"/>
<path opacity="0.2618" d="M72.7787 61.6344C72.7787 58.8207 61.9961 56.54 48.69 56.54C35.3839 56.54 24.6013 58.8207 24.6013 61.6344C24.6013 64.4481 35.3839 66.7288 48.69 66.7288C61.9961 66.7288 72.7787 64.4481 72.7787 61.6344Z" fill="#BFC0C0"/>
<path opacity="0.2647" d="M72.6776 61.6269C72.6776 58.8267 61.9288 56.5527 48.6631 56.5527C35.4042 56.5527 24.6487 58.8199 24.6487 61.6269C24.6487 64.4271 35.3975 66.701 48.6631 66.701C61.922 66.701 72.6776 64.4339 72.6776 61.6269Z" fill="#BEBFC0"/>
<path opacity="0.2676" d="M72.5698 61.6262C72.5698 58.8327 61.8547 56.5723 48.6363 56.5723C35.4179 56.5723 24.696 58.8327 24.696 61.6262C24.696 64.4196 35.4111 66.6801 48.6295 66.6801C61.8479 66.6801 72.5698 64.4129 72.5698 61.6262Z" fill="#BEBEBF"/>
<path opacity="0.2706" d="M72.4685 61.6191C72.4685 58.8391 61.7872 56.5854 48.6093 56.5854C35.4313 56.5854 24.75 58.8391 24.75 61.6191C24.75 64.3991 35.4313 66.6528 48.6093 66.6528C61.7872 66.6528 72.4685 64.3991 72.4685 61.6191Z" fill="#BDBEBE"/>
<path opacity="0.2735" d="M72.3604 61.6135C72.3604 58.847 61.7128 56.6001 48.5753 56.6001C35.4379 56.6001 24.7903 58.8403 24.7903 61.6135C24.7903 64.3867 35.4379 66.6269 48.5753 66.6269C61.7128 66.6269 72.3604 64.3867 72.3604 61.6135Z" fill="#BCBDBD"/>
<path opacity="0.2765" d="M72.2593 61.6133C72.2593 58.8535 61.6454 56.6201 48.5485 56.6201C35.4515 56.6201 24.8376 58.8535 24.8376 61.6133C24.8376 64.373 35.4515 66.6065 48.5485 66.6065C61.6387 66.6065 72.2593 64.3663 72.2593 61.6133Z" fill="#BBBCBC"/>
<path opacity="0.2794" d="M72.1513 61.6062C72.1513 58.86 61.5712 56.6333 48.5214 56.6333C35.4717 56.6333 24.8916 58.86 24.8916 61.6062C24.8916 64.3525 35.4717 66.5792 48.5214 66.5792C61.5712 66.5792 72.1513 64.3525 72.1513 61.6062Z" fill="#BABBBC"/>
<path opacity="0.2824" d="M72.05 61.607C72.05 58.8742 61.5036 56.6543 48.4943 56.6543C35.4851 56.6543 24.9387 58.8742 24.9387 61.607C24.9387 64.3397 35.4851 66.5597 48.4943 66.5597C61.5036 66.5597 72.05 64.3397 72.05 61.607Z" fill="#BABABB"/>
<path opacity="0.2853" d="M71.9421 61.5999C71.9421 58.8739 61.4294 56.6675 48.4606 56.6675C35.4919 56.6675 24.9792 58.8739 24.9792 61.5999C24.9792 64.3259 35.4919 66.5324 48.4606 66.5324C61.4294 66.5324 71.9421 64.3259 71.9421 61.5999Z" fill="#B9BABA"/>
<path opacity="0.2882" d="M71.8407 61.5934C71.8407 58.8808 61.3618 56.6812 48.4335 56.6812C35.5053 56.6812 25.0264 58.8808 25.0264 61.5934C25.0264 64.3059 35.5053 66.5056 48.4335 66.5056C61.3618 66.5056 71.8407 64.3059 71.8407 61.5934Z" fill="#B8B9B9"/>
<path opacity="0.2912" d="M71.7327 61.5863C71.7327 58.8873 61.2876 56.6943 48.4065 56.6943C35.5255 56.6943 25.0803 58.8873 25.0803 61.5863C25.0803 64.2853 35.5255 66.4783 48.4065 66.4783C61.2876 66.485 71.7327 64.2921 71.7327 61.5863Z" fill="#B7B8B8"/>
<path opacity="0.2941" d="M71.6316 61.5856C71.6316 58.8933 61.2202 56.7139 48.3797 56.7139C35.5391 56.7139 25.1277 58.8933 25.1277 61.5856C25.1277 64.2778 35.5391 66.4573 48.3797 66.4573C61.2202 66.4573 71.6316 64.2778 71.6316 61.5856Z" fill="#B6B7B8"/>
<path opacity="0.2971" d="M71.524 61.5785C71.524 58.8998 61.1463 56.7271 48.3462 56.7271C35.5462 56.7271 25.1685 58.8998 25.1685 61.5785C25.1685 64.2573 35.5462 66.43 48.3462 66.43C61.1463 66.43 71.524 64.2573 71.524 61.5785Z" fill="#B6B6B7"/>
<path opacity="0.3" d="M71.4224 61.5798C71.4224 58.9145 61.0784 56.7485 48.3189 56.7485C35.5593 56.7485 25.2153 58.9145 25.2153 61.5798C25.2153 64.245 35.5593 66.411 48.3189 66.411C61.0784 66.411 71.4224 64.245 71.4224 61.5798Z" fill="#B5B5B6"/>
<path opacity="0.3029" d="M71.3147 61.5727C71.3147 58.9142 61.0044 56.7617 48.2921 56.7617C35.573 56.7617 25.2695 58.9142 25.2695 61.5727C25.2695 64.2312 35.5798 66.3837 48.2921 66.3837C61.0044 66.3837 71.3147 64.2312 71.3147 61.5727Z" fill="#B4B5B5"/>
<path opacity="0.3059" d="M71.2133 61.5656C71.2133 58.9206 60.9369 56.7749 48.265 56.7749C35.5931 56.7749 25.3167 58.9206 25.3167 61.5656C25.3167 64.2107 35.5931 66.3564 48.265 66.3564C60.9369 66.3564 71.2133 64.2107 71.2133 61.5656Z" fill="#B3B4B4"/>
<path opacity="0.3088" d="M71.1054 61.5664C71.1054 58.9349 60.8627 56.7959 48.2313 56.7959C35.5999 56.7959 25.3572 58.9349 25.3572 61.5664C25.3572 64.2047 35.5999 66.3369 48.2313 66.3369C60.8627 66.3369 71.1054 64.1979 71.1054 61.5664Z" fill="#B2B3B4"/>
<path opacity="0.3118" d="M71.0043 61.5593C71.0043 58.9346 60.7953 56.8091 48.2044 56.8091C35.6136 56.8091 25.4045 58.9346 25.4045 61.5593C25.4045 64.1841 35.6136 66.3096 48.2044 66.3096C60.7953 66.3096 71.0043 64.1841 71.0043 61.5593Z" fill="#B2B2B3"/>
<path opacity="0.3147" d="M70.8964 61.5523C70.8964 58.941 60.7211 56.8223 48.1774 56.8223C35.6338 56.8223 25.4585 58.941 25.4585 61.5523C25.4585 64.1636 35.6338 66.2823 48.1774 66.2823C60.7211 66.2823 70.8964 64.1703 70.8964 61.5523Z" fill="#B1B1B2"/>
<path opacity="0.3176" d="M70.7953 61.5516C70.7953 58.947 60.6537 56.8418 48.1506 56.8418C35.6474 56.8418 25.5059 58.9538 25.5059 61.5516C25.5059 64.1561 35.6474 66.2613 48.1506 66.2613C60.6537 66.2613 70.7953 64.1494 70.7953 61.5516Z" fill="#B0B0B1"/>
<path opacity="0.3206" d="M70.6871 61.546C70.6871 58.9549 60.5793 56.8564 48.1166 56.8564C35.6539 56.8564 25.5461 58.9549 25.5461 61.546C25.5461 64.137 35.6539 66.2355 48.1166 66.2355C60.5861 66.2355 70.6871 64.137 70.6871 61.546Z" fill="#AFB0B0"/>
<path opacity="0.3235" d="M70.586 61.5394C70.586 58.9618 60.5186 56.8701 48.0964 56.8701C35.6742 56.8701 25.6069 58.9618 25.6069 61.5394C25.6069 64.117 35.6742 66.2087 48.0964 66.2087C60.5119 66.2154 70.586 64.1237 70.586 61.5394Z" fill="#AEAFAF"/>
<path opacity="0.3265" d="M70.4778 61.5382C70.4778 58.9674 60.4442 56.8892 48.0625 56.8892C35.6808 56.8892 25.6472 58.9674 25.6472 61.5382C25.6472 64.109 35.6808 66.1873 48.0625 66.1873C60.4442 66.1873 70.4778 64.1023 70.4778 61.5382Z" fill="#ADAEAF"/>
<path opacity="0.3294" d="M70.3767 61.5326C70.3767 58.9753 60.3769 56.9038 48.0356 56.9038C35.6944 56.9038 25.6946 58.9753 25.6946 61.5326C25.6946 64.0899 35.6944 66.1614 48.0356 66.1614C60.3769 66.1614 70.3767 64.0899 70.3767 61.5326Z" fill="#ADADAE"/>
<path opacity="0.3324" d="M70.2686 61.5256C70.2686 58.9817 60.3025 56.917 48.0017 56.917C35.7077 56.917 25.7349 58.9817 25.7349 61.5256C25.7349 64.0694 35.701 66.1341 48.0017 66.1341C60.3025 66.1409 70.2686 64.0761 70.2686 61.5256Z" fill="#ACACAD"/>
<path opacity="0.3353" d="M70.1676 61.5253C70.1676 58.9883 60.2353 56.937 47.9818 56.937C35.7283 56.937 25.7959 58.995 25.7959 61.5253C25.7959 64.0624 35.7283 66.1137 47.9818 66.1137C60.2285 66.1137 70.1676 64.0557 70.1676 61.5253Z" fill="#ABABAC"/>
<path opacity="0.3382" d="M70.0595 61.5183C70.0595 58.9947 60.1609 56.9502 47.9478 56.9502C35.7348 56.9502 25.8362 58.9947 25.8362 61.5183C25.8362 64.0418 35.7348 66.0863 47.9478 66.0863C60.1609 66.0931 70.0595 64.0418 70.0595 61.5183Z" fill="#AAABAB"/>
<path opacity="0.3412" d="M69.9584 61.518C69.9584 59.008 60.0935 56.9702 47.921 56.9702C35.7484 56.9702 25.8835 59.008 25.8835 61.518C25.8835 64.0281 35.7484 66.0659 47.921 66.0659C60.0935 66.0659 69.9584 64.0281 69.9584 61.518Z" fill="#A9AAAA"/>
<path opacity="0.3441" d="M69.8502 61.511C69.8502 59.0077 60.0191 56.9834 47.887 56.9834C35.7617 56.9834 25.9238 59.0077 25.9238 61.511C25.9238 64.0143 35.755 66.0386 47.887 66.0386C60.0191 66.0386 69.8502 64.0143 69.8502 61.511Z" fill="#A8A9A9"/>
<path opacity="0.3471" d="M69.749 61.5054C69.749 59.0156 59.9516 56.998 47.8668 56.998C35.7819 56.998 25.9778 59.0156 25.9778 61.5054C25.9778 63.9952 35.7752 66.0127 47.86 66.0127C59.9448 66.0127 69.749 63.9952 69.749 61.5054Z" fill="#A8A8A9"/>
<path opacity="0.35" d="M69.6412 61.5047C69.6412 59.0283 59.8775 57.0176 47.8332 57.0176C35.7888 57.0176 26.0251 59.0283 26.0251 61.5047C26.0251 63.981 35.7888 65.9918 47.8332 65.9918C59.8775 65.9918 69.6412 63.981 69.6412 61.5047Z" fill="#A7A7A8"/>
<path opacity="0.3529" d="M69.5398 61.4976C69.5398 59.028 59.8099 57.0308 47.8061 57.0308C35.8022 57.0308 26.0723 59.028 26.0723 61.4976C26.0723 63.9672 35.8022 65.9712 47.8061 65.9712C59.8099 65.9712 69.5398 63.9672 69.5398 61.4976Z" fill="#A6A6A7"/>
<path opacity="0.3559" d="M69.4319 61.4915C69.4319 59.0354 59.7357 57.0449 47.7724 57.0449C35.809 57.0449 26.1128 59.0354 26.1128 61.4915C26.1128 63.9476 35.809 65.9382 47.7724 65.9382C59.7357 65.9449 69.4319 63.9476 69.4319 61.4915Z" fill="#A5A5A6"/>
<path opacity="0.3588" d="M69.3308 61.4918C69.3308 59.0425 59.6683 57.0654 47.7522 57.0654C35.836 57.0654 26.1736 59.0492 26.1736 61.4918C26.1736 63.9344 35.836 65.9249 47.7522 65.9249C59.6683 65.9182 69.3308 63.9344 69.3308 61.4918Z" fill="#A4A5A5"/>
<path opacity="0.3618" d="M69.2226 61.4848C69.2226 59.0489 59.5939 57.0786 47.7182 57.0786C35.8426 57.0786 26.2139 59.0556 26.2139 61.4848C26.2139 63.9206 35.8426 65.8976 47.7182 65.8976C59.5939 65.8976 69.2226 63.9206 69.2226 61.4848Z" fill="#A3A4A4"/>
<path opacity="0.3647" d="M69.1215 61.4782C69.1215 59.0558 59.5265 57.0923 47.6914 57.0923C35.8562 57.0923 26.2612 59.0558 26.2612 61.4782C26.2612 63.9005 35.8562 65.8708 47.6914 65.8708C59.5265 65.8708 69.1215 63.9073 69.1215 61.4782Z" fill="#A2A3A3"/>
<path opacity="0.3676" d="M69.0137 61.4784C69.0137 59.0628 59.4524 57.1128 47.6578 57.1128C35.8631 57.1128 26.3086 59.0696 26.3086 61.4784C26.3086 63.8941 35.8698 65.8508 47.6578 65.8508C59.4524 65.8441 69.0137 63.8873 69.0137 61.4784Z" fill="#A1A2A2"/>
<path opacity="0.3706" d="M68.9125 61.4724C68.9125 59.0702 59.385 57.127 47.6375 57.127C35.8901 57.127 26.3625 59.0702 26.3625 61.4724C26.3625 63.8745 35.8901 65.8245 47.6375 65.8245C59.385 65.8245 68.9125 63.8745 68.9125 61.4724Z" fill="#A1A1A2"/>
<path opacity="0.3735" d="M68.8045 61.4653C68.8045 59.0767 59.3108 57.1401 47.6038 57.1401C35.8968 57.1401 26.4031 59.0767 26.4031 61.4653C26.4031 63.8539 35.8968 65.7972 47.6038 65.7972C59.3175 65.7972 68.8045 63.8607 68.8045 61.4653Z" fill="#A0A0A1"/>
<path opacity="0.3765" d="M68.7032 61.4646C68.7032 59.0827 59.2432 57.1597 47.5767 57.1597C35.9102 57.1597 26.4502 59.0895 26.4502 61.4646C26.4502 63.8465 35.9102 65.7763 47.5767 65.7763C59.2432 65.7695 68.7032 63.8397 68.7032 61.4646Z" fill="#9F9FA0"/>
<path opacity="0.3794" d="M68.5955 61.4579C68.5955 59.0895 59.1692 57.1665 47.5499 57.1665C35.9239 57.1665 26.5044 59.0895 26.5044 61.4579C26.5044 63.8263 35.9307 65.7494 47.5499 65.7494C59.1759 65.7494 68.5955 63.8263 68.5955 61.4579Z" fill="#9E9E9F"/>
<path opacity="0.3824" d="M68.4939 61.4509C68.4939 59.096 59.1013 57.1797 47.5226 57.1797C35.9371 57.1797 26.5513 59.0892 26.5513 61.4509C26.5513 63.8058 35.9438 65.7221 47.5226 65.7221C59.1013 65.7221 68.4939 63.8125 68.4939 61.4509Z" fill="#9D9D9E"/>
<path opacity="0.3853" d="M68.3862 61.4503C68.3862 59.1021 59.0274 57.2061 47.4891 57.2061C35.9509 57.2061 26.592 59.1089 26.592 61.4503C26.592 63.7984 35.9509 65.7012 47.4891 65.7012C59.0274 65.7012 68.3862 63.7984 68.3862 61.4503Z" fill="#9C9D9D"/>
<path opacity="0.3882" d="M68.2851 61.4436C68.2851 59.1089 58.9601 57.2129 47.4623 57.2129C35.9645 57.2129 26.6394 59.1089 26.6394 61.4436C26.6394 63.7782 35.9645 65.6743 47.4623 65.6743C58.9601 65.6743 68.2851 63.7782 68.2851 61.4436Z" fill="#9B9C9C"/>
<path opacity="0.3912" d="M68.1769 61.438C68.1769 59.1169 58.8923 57.2275 47.435 57.2275C35.9777 57.2275 26.6931 59.1101 26.6931 61.438C26.6931 63.7592 35.9845 65.6485 47.435 65.6485C58.8923 65.6485 68.1769 63.7659 68.1769 61.438Z" fill="#9A9B9B"/>
<path opacity="0.3941" d="M68.0758 61.4373C68.0758 59.1229 58.825 57.2471 47.4082 57.2471C35.9913 57.2471 26.7405 59.1229 26.7405 61.4373C26.7405 63.7517 35.9913 65.6275 47.4082 65.6275C58.8182 65.6275 68.0758 63.7517 68.0758 61.4373Z" fill="#9A9A9A"/>
<path opacity="0.3971" d="M67.9677 61.4302C67.9677 59.1293 58.7505 57.2603 47.3742 57.2603C36.0046 57.2603 26.7808 59.1293 26.7808 61.4302C26.7808 63.7311 35.9979 65.6002 47.3742 65.6002C58.7505 65.6002 67.9677 63.7311 67.9677 61.4302Z" fill="#999999"/>
<path opacity="0.4" d="M67.8666 61.4315C67.8666 59.1441 58.6832 57.2817 47.3474 57.2817C36.0183 57.2817 26.8281 59.1373 26.8281 61.4315C26.8281 63.7189 36.0115 65.5812 47.3474 65.5812C58.6765 65.5745 67.8666 63.7189 67.8666 61.4315Z" fill="#989899"/>
<path opacity="0.4029" d="M67.7586 61.4244C67.7586 59.1437 58.609 57.2949 47.3203 57.2949C36.0317 57.2949 26.8821 59.1437 26.8821 61.4244C26.8821 63.7051 36.0317 65.5539 47.3203 65.5539C58.609 65.5539 67.7586 63.7051 67.7586 61.4244Z" fill="#979798"/>
<path opacity="0.4059" d="M67.6575 61.4173C67.6575 59.1502 58.5416 57.3081 47.2935 57.3081C36.0454 57.3081 26.9294 59.1502 26.9294 61.4173C26.9294 63.6845 36.0454 65.5266 47.2935 65.5266C58.5416 65.5266 67.6575 63.6845 67.6575 61.4173Z" fill="#969697"/>
<path opacity="0.4088" d="M67.5494 61.4181C67.5494 59.1644 58.4672 57.3291 47.2595 57.3291C36.0519 57.3291 26.9697 59.1577 26.9697 61.4181C26.9697 63.6785 36.0519 65.5071 47.2595 65.5071C58.4672 65.5004 67.5494 63.6718 67.5494 61.4181Z" fill="#959596"/>
<path opacity="0.4118" d="M67.4483 61.411C67.4483 59.1641 58.3998 57.3423 47.2327 57.3423C36.0723 57.3423 27.0171 59.1641 27.0171 61.411C27.0171 63.658 36.0655 65.4798 47.2327 65.4798C58.3998 65.4798 67.4483 63.658 67.4483 61.411Z" fill="#949595"/>
<path opacity="0.4147" d="M67.3403 61.404C67.3403 59.1706 58.3256 57.3555 47.2057 57.3555C36.0857 57.3555 27.071 59.1638 27.071 61.404C27.071 63.6442 36.0857 65.4525 47.2057 65.4525C58.3256 65.4525 67.3403 63.6442 67.3403 61.404Z" fill="#939494"/>
<path opacity="0.4176" d="M67.239 61.4033C67.239 59.1833 58.258 57.375 47.1786 57.375C36.0991 57.375 27.1182 59.1766 27.1182 61.4033C27.1182 63.63 36.0991 65.4316 47.1786 65.4316C58.258 65.4316 67.239 63.6232 67.239 61.4033Z" fill="#939393"/>
<path opacity="0.4206" d="M67.131 61.3977C67.131 59.1845 58.1838 57.3896 47.1449 57.3896C36.1059 57.3896 27.1587 59.1845 27.1587 61.3977C27.1587 63.6109 36.1059 65.4057 47.1449 65.4057C58.1838 65.4057 67.131 63.6109 67.131 61.3977Z" fill="#929292"/>
<path opacity="0.4235" d="M67.0299 61.3906C67.0299 59.1909 58.1164 57.4028 47.1247 57.4028C36.133 57.4028 27.2195 59.1909 27.2195 61.3906C27.2195 63.5903 36.133 65.3784 47.1247 65.3784C58.1164 65.3784 67.0299 63.5971 67.0299 61.3906Z" fill="#919191"/>
<path opacity="0.4265" d="M66.9217 61.3899C66.9217 59.197 58.042 57.4224 47.0908 57.4224C36.1395 57.4224 27.2598 59.197 27.2598 61.3899C27.2598 63.5829 36.1395 65.3575 47.0908 65.3575C58.042 65.3575 66.9217 63.5761 66.9217 61.3899Z" fill="#909090"/>
<path opacity="0.4294" d="M66.8207 61.3843C66.8207 59.2049 57.9746 57.437 47.0639 57.437C36.1531 57.437 27.3071 59.2049 27.3071 61.3843C27.3071 63.5638 36.1531 65.3316 47.0639 65.3316C57.9746 65.3316 66.8207 63.5638 66.8207 61.3843Z" fill="#8F8F90"/>
<path opacity="0.4324" d="M66.713 61.3773C66.713 59.2113 57.9007 57.4502 47.0304 57.4502C36.1602 57.4502 27.3479 59.2113 27.3479 61.3773C27.3479 63.5432 36.1602 65.3043 47.0304 65.3043C57.9075 65.3043 66.713 63.55 66.713 61.3773Z" fill="#8E8E8F"/>
<path opacity="0.4353" d="M66.6116 61.377C66.6116 59.2178 57.8331 57.4702 47.01 57.4702C36.1802 57.4702 27.4084 59.2178 27.4084 61.377C27.4084 63.5362 36.187 65.2839 47.01 65.2839C57.8331 65.2839 66.6116 63.5295 66.6116 61.377Z" fill="#8D8D8E"/>
<path opacity="0.4382" d="M66.5037 61.37C66.5037 59.2243 57.7589 57.4834 46.9763 57.4834C36.1938 57.4834 27.449 59.2243 27.449 61.37C27.449 63.5157 36.1938 65.2565 46.9763 65.2565C57.7656 65.2565 66.5037 63.5157 66.5037 61.37Z" fill="#8C8C8D"/>
<path opacity="0.4412" d="M66.4023 61.3644C66.4023 59.2322 57.6913 57.498 46.9492 57.498C36.2072 57.498 27.4961 59.2322 27.4961 61.3644C27.4961 63.4966 36.2072 65.2307 46.9492 65.2307C57.6913 65.2375 66.4023 63.5033 66.4023 61.3644Z" fill="#8B8B8C"/>
<path opacity="0.4441" d="M66.2944 61.3627C66.2944 59.2372 57.6171 57.5166 46.9155 57.5166C36.2139 57.5166 27.5366 59.2372 27.5366 61.3627C27.5366 63.4882 36.2139 65.2088 46.9155 65.2088C57.6238 65.2088 66.2944 63.4882 66.2944 61.3627Z" fill="#8A8A8B"/>
<path opacity="0.4471" d="M66.193 61.3556C66.193 59.2437 57.5494 57.5298 46.8951 57.5298C36.234 57.5298 27.5972 59.2437 27.5972 61.3556C27.5972 63.4676 36.2408 65.1815 46.8951 65.1815C57.5494 65.1815 66.193 63.4676 66.193 61.3556Z" fill="#8A8A8A"/>
<path opacity="0.45" d="M66.0854 61.3564C66.0854 59.2579 57.4755 57.5508 46.8616 57.5508C36.2478 57.5508 27.6379 59.2579 27.6379 61.3564C27.6379 63.4616 36.2478 65.162 46.8616 65.162C57.4823 65.162 66.0854 63.4549 66.0854 61.3564Z" fill="#898989"/>
<path opacity="0.4529" d="M65.9843 61.3493C65.9843 59.2576 57.4082 57.564 46.8348 57.564C36.2614 57.564 27.6853 59.2576 27.6853 61.3493C27.6853 63.4411 36.2614 65.1347 46.8348 65.1347C57.4082 65.1347 65.9843 63.4411 65.9843 61.3493Z" fill="#888888"/>
<path opacity="0.4559" d="M65.8761 61.3437C65.8761 59.2655 57.3337 57.5786 46.8008 57.5786C36.268 57.5786 27.7256 59.2655 27.7256 61.3437C27.7256 63.422 36.268 65.1089 46.8008 65.1089C57.3405 65.1089 65.8761 63.422 65.8761 61.3437Z" fill="#878787"/>
<path opacity="0.4588" d="M65.775 61.3435C65.775 59.272 57.2663 57.5986 46.7807 57.5986C36.2883 57.5986 27.7864 59.2788 27.7864 61.3435C27.7864 63.4083 36.295 65.0884 46.7807 65.0884C57.2663 65.0884 65.775 63.4083 65.775 61.3435Z" fill="#868686"/>
<path opacity="0.4618" d="M65.6668 61.3365C65.6668 59.2785 57.1986 57.6118 46.7467 57.6118C36.2948 57.6118 27.8267 59.2785 27.8267 61.3365C27.8267 63.3945 36.3016 65.0611 46.7467 65.0611C57.1986 65.0611 65.6668 63.3945 65.6668 61.3365Z" fill="#858585"/>
<path opacity="0.4647" d="M65.5657 61.3299C65.5657 59.2854 57.1313 57.6255 46.7199 57.6255C36.3152 57.6255 27.874 59.2854 27.874 61.3299C27.874 63.3744 36.3084 65.0343 46.7199 65.0343C57.1313 65.041 65.5657 63.3811 65.5657 61.3299Z" fill="#848484"/>
<path opacity="0.4676" d="M65.4645 61.3297C65.4645 59.2919 57.0638 57.6455 46.6929 57.6455C36.3286 57.6455 27.928 59.2987 27.928 61.3297C27.928 63.3674 36.3286 65.0138 46.6929 65.0138C57.0571 65.0138 65.4645 63.3607 65.4645 61.3297Z" fill="#838383"/>
<path opacity="0.4706" d="M65.3566 61.3226C65.3566 59.2983 56.9897 57.6587 46.666 57.6587C36.3423 57.6587 27.9753 59.2983 27.9753 61.3226C27.9753 63.3469 36.3423 64.9865 46.666 64.9865C56.9897 64.9865 65.3566 63.3469 65.3566 61.3226Z" fill="#828282"/>
<path opacity="0.4735" d="M65.2551 61.3155C65.2551 59.3048 56.9219 57.6719 46.6387 57.6719C36.3554 57.6719 28.0222 59.3048 28.0222 61.3155C28.0222 63.3263 36.3554 64.9592 46.6387 64.9592C56.9151 64.966 65.2551 63.3331 65.2551 61.3155Z" fill="#818182"/>
<path opacity="0.4765" d="M65.1474 61.3163C65.1474 59.3123 56.8479 57.6929 46.6052 57.6929C36.3692 57.6929 28.063 59.319 28.063 61.3163C28.063 63.3203 36.3624 64.9397 46.6052 64.9397C56.8479 64.9397 65.1474 63.3136 65.1474 61.3163Z" fill="#818081"/>
<path opacity="0.4794" d="M65.0462 61.3097C65.0462 59.3192 56.7804 57.7065 46.5782 57.7065C36.3827 57.7065 28.1169 59.3192 28.1169 61.3097C28.1169 63.3002 36.3827 64.9129 46.5782 64.9129C56.7737 64.9129 65.0462 63.3002 65.0462 61.3097Z" fill="#807F80"/>
<path opacity="0.4824" d="M64.9381 61.3027C64.9381 59.3256 56.7061 57.7197 46.5511 57.7197C36.396 57.7197 28.1641 59.3256 28.1641 61.3027C28.1641 63.2797 36.396 64.8856 46.5511 64.8856C56.7061 64.8924 64.9381 63.2864 64.9381 61.3027Z" fill="#7F7E7F"/>
<path opacity="0.4853" d="M46.5242 64.8646C56.6381 64.8646 64.837 63.2696 64.837 61.302C64.837 59.3343 56.6381 57.7393 46.5242 57.7393C36.4103 57.7393 28.2114 59.3343 28.2114 61.302C28.2114 63.2696 36.4103 64.8646 46.5242 64.8646Z" fill="#7E7E7E"/>
<path opacity="0.4882" d="M64.7288 61.2964C64.7288 59.3396 56.5643 57.7539 46.4903 57.7539C36.4162 57.7539 28.2517 59.3396 28.2517 61.2964C28.2517 63.2531 36.4162 64.8388 46.4903 64.8388C56.5643 64.8456 64.7288 63.2531 64.7288 61.2964Z" fill="#7D7D7D"/>
<path opacity="0.4912" d="M64.6279 61.2961C64.6279 59.3528 56.4972 57.7739 46.4703 57.7739C36.4435 57.7739 28.3127 59.3528 28.3127 61.2961C28.3127 63.2394 36.4435 64.8183 46.4703 64.8183C56.4972 64.8183 64.6279 63.2394 64.6279 61.2961Z" fill="#7C7C7C"/>
<path opacity="0.4941" d="M64.5198 61.2905C64.5198 59.354 56.4227 57.7886 46.4364 57.7886C36.4501 57.7886 28.353 59.3608 28.353 61.2905C28.353 63.2271 36.4501 64.7925 46.4364 64.7925C56.4227 64.7925 64.5198 63.2271 64.5198 61.2905Z" fill="#7B7B7B"/>
<path opacity="0.4971" d="M64.4187 61.2835C64.4187 59.3604 56.3554 57.8018 46.4095 57.8018C36.4637 57.8018 28.4004 59.3604 28.4004 61.2835C28.4004 63.2065 36.4637 64.7652 46.4095 64.7652C56.3554 64.772 64.4187 63.2065 64.4187 61.2835Z" fill="#7A7A7A"/>
<path opacity="0.5" d="M64.3105 61.2818C64.3105 59.3722 56.281 57.8203 46.3756 57.8203C36.4702 57.8203 28.4407 59.3722 28.4407 61.2818C28.4407 63.1913 36.4702 64.7433 46.3756 64.7433C56.281 64.7433 64.3105 63.1913 64.3105 61.2818Z" fill="#797979"/>
<path opacity="0.5029" d="M64.2094 61.2757C64.2094 59.3729 56.2136 57.8345 46.3554 57.8345C36.4973 57.8345 28.5015 59.3797 28.5015 61.2757C28.5015 63.1785 36.4973 64.717 46.3554 64.717C56.2136 64.717 64.2094 63.1785 64.2094 61.2757Z" fill="#787878"/>
<path opacity="0.5059" d="M64.1015 61.2682C64.1015 59.3789 56.1394 57.8472 46.3217 57.8472C36.5041 57.8472 28.542 59.3789 28.542 61.2682C28.542 63.1575 36.5041 64.6959 46.3217 64.6959C56.1394 64.6959 64.1015 63.1575 64.1015 61.2682Z" fill="#787777"/>
<path opacity="0.5088" d="M64.0001 61.2684C64.0001 59.3859 56.0718 57.8677 46.2946 57.8677C36.5175 57.8677 28.5891 59.3926 28.5891 61.2684C28.5891 63.151 36.5175 64.6692 46.2946 64.6692C56.0718 64.6692 64.0001 63.1442 64.0001 61.2684Z" fill="#777676"/>
<path opacity="0.5118" d="M63.8922 61.2623C63.8922 59.3933 55.9976 57.8818 46.2609 57.8818C36.5242 57.8818 28.6296 59.4 28.6296 61.2623C28.6296 63.1247 36.5242 64.6496 46.2609 64.6496C55.9976 64.6429 63.8922 63.1314 63.8922 61.2623Z" fill="#767575"/>
<path opacity="0.5147" d="M63.7911 61.2552C63.7911 59.3996 55.9302 57.8882 46.2407 57.8882C36.5446 57.8882 28.6904 59.3929 28.6904 61.2552C28.6904 63.1108 36.5513 64.6222 46.2407 64.6222C55.9302 64.6222 63.7911 63.1175 63.7911 61.2552Z" fill="#757474"/>
<path opacity="0.5176" d="M63.6829 61.255C63.6829 59.4062 55.8558 57.9082 46.2068 57.9082C36.5578 57.9082 28.7307 59.4062 28.7307 61.255C28.7307 63.1038 36.5578 64.6017 46.2068 64.6017C55.8558 64.595 63.6829 63.0971 63.6829 61.255Z" fill="#747373"/>
<path opacity="0.5206" d="M63.5818 61.249C63.5818 59.4137 55.7884 57.9292 46.18 57.9292C36.5715 57.9292 28.7781 59.4204 28.7781 61.249C28.7781 63.0843 36.5715 64.5755 46.18 64.5755C55.7884 64.5755 63.5818 63.0843 63.5818 61.249Z" fill="#737273"/>
<path opacity="0.5235" d="M63.474 61.2423C63.474 59.4205 55.7143 57.936 46.1463 57.936C36.5783 57.936 28.8254 59.4137 28.8254 61.2423C28.8254 63.0642 36.5851 64.5486 46.1463 64.5486C55.7211 64.5486 63.474 63.0709 63.474 61.2423Z" fill="#727172"/>
<path opacity="0.5265" d="M63.3728 61.2416C63.3728 59.4265 55.6468 57.9556 46.1261 57.9556C36.5986 57.9556 28.8794 59.4265 28.8794 61.2416C28.8794 63.0567 36.6053 64.5277 46.1261 64.5277C55.6468 64.5209 63.3728 63.05 63.3728 61.2416Z" fill="#717071"/>
<path opacity="0.5294" d="M63.2648 61.236C63.2648 59.4344 55.5794 57.9702 46.0924 57.9702C36.6121 57.9702 28.9199 59.4344 28.9199 61.236C28.9199 63.0376 36.6121 64.5018 46.0924 64.5018C55.5794 64.5018 63.2648 63.0376 63.2648 61.236Z" fill="#706F70"/>
<path opacity="0.5324" d="M63.1635 61.229C63.1635 59.4409 55.5118 57.9834 46.0653 57.9834C36.6255 57.9834 28.967 59.4341 28.967 61.229C28.967 63.0171 36.6255 64.4745 46.0653 64.4745C55.5051 64.4745 63.1635 63.0238 63.1635 61.229Z" fill="#6F6F6F"/>
<path opacity="0.5353" d="M63.0554 61.2287C63.0554 59.4474 55.4375 58.0034 46.0314 58.0034C36.6389 58.0034 29.0142 59.4474 29.0142 61.2287C29.0142 63.0101 36.6321 64.4541 46.0314 64.4541C55.4375 64.4473 63.0554 63.0033 63.0554 61.2287Z" fill="#6E6E6E"/>
<path opacity="0.5382" d="M62.9542 61.2202C62.9542 59.4524 55.37 58.0151 46.0112 58.0151C36.6523 58.0151 29.0681 59.4524 29.0681 61.2202C29.0681 62.9881 36.6523 64.4253 46.0112 64.4253C55.3632 64.4253 62.9542 62.9881 62.9542 61.2202Z" fill="#6D6D6D"/>
<path opacity="0.5412" d="M62.8465 61.2161C62.8465 59.4617 55.296 58.0312 45.9777 58.0312C36.6594 58.0312 29.1089 59.455 29.1089 61.2161C29.1089 62.9704 36.6594 64.4009 45.9777 64.4009C55.296 64.4009 62.8465 62.9772 62.8465 61.2161Z" fill="#6C6C6C"/>
<path opacity="0.5441" d="M62.7454 61.2144C62.7454 59.4668 55.2287 58.0498 45.9508 58.0498C36.6797 58.0498 29.1562 59.4668 29.1562 61.2144C29.1562 62.962 36.673 64.379 45.9508 64.379C55.222 64.379 62.7454 62.962 62.7454 61.2144Z" fill="#6C6B6B"/>
<path opacity="0.5471" d="M62.6372 61.2088C62.6372 59.4747 55.1542 58.0645 45.9236 58.0645C36.693 58.0645 29.21 59.4747 29.21 61.2088C29.21 62.9429 36.693 64.3531 45.9236 64.3531C55.1542 64.3531 62.6372 62.9429 62.6372 61.2088Z" fill="#6B6A6A"/>
<path opacity="0.55" d="M62.5361 61.2081C62.5361 59.4807 55.0869 58.084 45.8967 58.084C36.7066 58.084 29.2573 59.4807 29.2573 61.2081C29.2573 62.9287 36.7066 64.3322 45.8967 64.3322C55.0869 64.3254 62.5361 62.9287 62.5361 61.2081Z" fill="#6A6969"/>
<path opacity="0.5529" d="M62.428 61.201C62.428 59.4872 55.0124 58.0972 45.8628 58.0972C36.7131 58.0972 29.2976 59.4872 29.2976 61.201C29.2976 62.9149 36.7131 64.3049 45.8628 64.3049C55.0124 64.3049 62.428 62.9149 62.428 61.201Z" fill="#696868"/>
<path opacity="0.5559" d="M62.3269 61.1954C62.3269 59.4951 54.9451 58.1118 45.8359 58.1118C36.7335 58.1118 29.345 59.4951 29.345 61.1954C29.345 62.8958 36.7268 64.2791 45.8359 64.2791C54.9451 64.2791 62.3269 62.8958 62.3269 61.1954Z" fill="#686767"/>
<path opacity="0.5588" d="M62.2189 61.1942C62.2189 59.5006 54.8708 58.1309 45.8089 58.1309C36.747 58.1309 29.3989 59.5006 29.3989 61.1942C29.3989 62.8811 36.747 64.2576 45.8089 64.2576C54.8708 64.2509 62.2189 62.8811 62.2189 61.1942Z" fill="#676666"/>
<path opacity="0.5618" d="M62.1178 61.1882C62.1178 59.508 54.8035 58.145 45.7821 58.145C36.7606 58.145 29.4463 59.508 29.4463 61.1882C29.4463 62.8683 36.7606 64.2313 45.7821 64.2313C54.8035 64.2313 62.1178 62.8683 62.1178 61.1882Z" fill="#666565"/>
<path opacity="0.5647" d="M62.0097 61.1816C62.0097 59.5149 54.7291 58.1587 45.7481 58.1587C36.7672 58.1587 29.4866 59.5082 29.4866 61.1816C29.4866 62.8482 36.7672 64.2045 45.7481 64.2045C54.7291 64.2045 62.0097 62.8482 62.0097 61.1816Z" fill="#656464"/>
<path opacity="0.5676" d="M61.9086 61.1814C61.9086 59.5215 54.6617 58.1787 45.7213 58.1787C36.7808 58.1787 29.5339 59.5215 29.5339 61.1814C29.5339 62.8413 36.7808 64.184 45.7213 64.184C54.6617 64.184 61.9086 62.8345 61.9086 61.1814Z" fill="#646363"/>
<path opacity="0.5706" d="M61.8006 61.1743C61.8006 59.5279 54.5875 58.1919 45.6942 58.1919C36.801 58.1919 29.5879 59.5279 29.5879 61.1743C29.5879 62.8207 36.801 64.1567 45.6942 64.1567C54.5875 64.1567 61.8006 62.8207 61.8006 61.1743Z" fill="#636262"/>
<path opacity="0.5735" d="M61.6993 61.1672C61.6993 59.5343 54.5199 58.2051 45.6671 58.2051C36.8144 58.2051 29.635 59.5343 29.635 61.1672C29.635 62.8001 36.8144 64.1294 45.6671 64.1294C54.5199 64.1294 61.6993 62.8069 61.6993 61.1672Z" fill="#626161"/>
<path opacity="0.5765" d="M61.5913 61.168C61.5913 59.5418 54.4457 58.2261 45.6334 58.2261C36.8212 58.2261 29.6755 59.5418 29.6755 61.168C29.6755 62.7942 36.8212 64.1099 45.6334 64.1099C54.4457 64.1099 61.5913 62.7874 61.5913 61.168Z" fill="#61605F"/>
<path opacity="0.5794" d="M61.4903 61.1614C61.4903 59.5488 54.3785 58.2397 45.6067 58.2397C36.8349 58.2397 29.7297 59.5488 29.7297 61.1614C29.7297 62.7741 36.8416 64.0831 45.6067 64.0831C54.3785 64.0831 61.4903 62.7741 61.4903 61.1614Z" fill="#605F5E"/>
<path opacity="0.5824" d="M61.382 61.1544C61.382 59.5552 54.3039 58.2529 45.5793 58.2529C36.8548 58.2529 29.7766 59.5552 29.7766 61.1544C29.7766 62.7535 36.8548 64.0558 45.5793 64.0558C54.3106 64.0558 61.382 62.7603 61.382 61.1544Z" fill="#5F5D5D"/>
<path opacity="0.5853" d="M61.281 61.1551C61.281 59.5627 54.2365 58.2739 45.5525 58.2739C36.8684 58.2739 29.824 59.5627 29.824 61.1551C29.824 62.7475 36.8684 64.0363 45.5525 64.0363C54.2365 64.0363 61.281 62.7408 61.281 61.1551Z" fill="#5E5C5C"/>
<path opacity="0.5882" d="M61.1733 61.1481C61.1733 59.5691 54.1626 58.2871 45.519 58.2871C36.8754 58.2871 29.8647 59.5691 29.8647 61.1481C29.8647 62.727 36.8754 64.009 45.519 64.009C54.1693 64.009 61.1733 62.727 61.1733 61.1481Z" fill="#5D5B5B"/>
<path opacity="0.5912" d="M61.0719 61.141C61.0719 59.5688 54.0949 58.3003 45.4986 58.3003C36.8955 58.3003 29.9253 59.5756 29.9253 61.141C29.9253 62.7064 36.9022 63.9817 45.4986 63.9817C54.0949 63.9817 61.0719 62.7132 61.0719 61.141Z" fill="#5C5A5A"/>
<path opacity="0.5941" d="M60.964 61.1408C60.964 59.5821 54.0208 58.3203 45.4649 58.3203C36.9023 58.3203 29.9658 59.5821 29.9658 61.1408C29.9658 62.6995 36.909 63.9612 45.4649 63.9612C54.0275 63.9612 60.964 62.6995 60.964 61.1408Z" fill="#5B5959"/>
<path opacity="0.5971" d="M60.8626 61.1337C60.8626 59.5885 53.9599 58.3335 45.4378 58.3335C36.9224 58.3335 30.0129 59.5885 30.0129 61.1337C30.0129 62.6789 36.9224 63.9339 45.4378 63.9339C53.9532 63.9339 60.8626 62.6789 60.8626 61.1337Z" fill="#5A5858"/>
<path opacity="0.6" d="M30.0601 61.1335C30.0601 62.6652 36.9358 63.9135 45.4107 63.9135C53.8856 63.9135 60.7613 62.6652 60.7613 61.1335C60.7613 59.5951 53.8923 58.3535 45.4107 58.3535C36.9358 58.3468 30.0601 59.5951 30.0601 61.1335Z" fill="#595757"/>
<path opacity="0.6038" d="M60.4849 61.1139C60.4849 59.5957 53.6901 58.3677 45.3097 58.3677C36.9293 58.3677 30.1345 59.5957 30.1345 61.1139C30.1345 62.6254 36.9293 63.8602 45.3097 63.8602C53.6969 63.8602 60.4849 62.6254 60.4849 61.1139Z" fill="#585656"/>
<path opacity="0.6077" d="M60.2148 61.1003C60.2148 59.6091 53.5011 58.3945 45.2151 58.3945C36.9291 58.3945 30.2153 59.6091 30.2153 61.1003C30.2153 62.5915 36.9291 63.806 45.2151 63.806C53.5011 63.806 60.2148 62.5915 60.2148 61.1003Z" fill="#575555"/>
<path opacity="0.6115" d="M59.9519 61.0802C59.9519 59.6093 53.3123 58.4082 45.1275 58.4082C36.9428 58.4082 30.3032 59.6025 30.3032 61.0802C30.3032 62.5512 36.9428 63.7522 45.1275 63.7522C53.3123 63.7522 59.9519 62.5579 59.9519 61.0802Z" fill="#565454"/>
<path opacity="0.6154" d="M59.6818 61.0661C59.6818 59.6154 53.1232 58.4346 45.0329 58.4346C36.9426 58.4346 30.384 59.6154 30.384 61.0661C30.384 62.5168 36.9426 63.6976 45.0329 63.6976C53.1232 63.6976 59.6818 62.5168 59.6818 61.0661Z" fill="#555353"/>
<path opacity="0.6192" d="M59.4121 61.0456C59.4121 59.6151 52.9278 58.4478 44.9319 58.4478C36.9361 58.4478 30.4585 59.6083 30.4585 61.0456C30.4585 62.476 36.9429 63.6433 44.9319 63.6433C52.9278 63.6433 59.4121 62.4828 59.4121 61.0456Z" fill="#545252"/>
<path opacity="0.6231" d="M59.142 61.0339C59.142 59.6236 52.7386 58.4766 44.8372 58.4766C36.9426 58.4766 30.5325 59.6236 30.5325 61.0339C30.5325 62.4441 36.9359 63.5912 44.8372 63.5912C52.7386 63.5912 59.142 62.4441 59.142 61.0339Z" fill="#535150"/>
<path opacity="0.6269" d="M58.8722 61.0138C58.8722 59.6238 52.543 58.4902 44.7428 58.4902C36.9427 58.4902 30.6135 59.6171 30.6135 61.0138C30.6135 62.4105 36.9427 63.5374 44.7428 63.5374C52.543 63.5374 58.8722 62.4105 58.8722 61.0138Z" fill="#52504F"/>
<path opacity="0.6308" d="M58.6024 60.9997C58.6024 59.6299 52.3541 58.5166 44.6485 58.5166C36.9428 58.5166 30.6946 59.6299 30.6946 60.9997C30.6946 62.3694 36.9428 63.4828 44.6485 63.4828C52.3541 63.4828 58.6024 62.3694 58.6024 60.9997Z" fill="#514F4E"/>
<path opacity="0.6346" d="M58.3323 60.9791C58.3323 59.6296 52.1651 58.5298 44.5538 58.5298C36.9426 58.5298 30.7754 59.6296 30.7754 60.9791C30.7754 62.3286 36.9494 63.4285 44.5538 63.4285C52.1651 63.4285 58.3323 62.3354 58.3323 60.9791Z" fill="#504D4D"/>
<path opacity="0.6385" d="M58.0622 60.9655C58.0622 59.6362 51.9692 58.5566 44.4592 58.5566C36.9492 58.5566 30.8562 59.6362 30.8562 60.9655C30.8562 62.2948 36.9492 63.3744 44.4592 63.3744C51.9692 63.3744 58.0622 62.2948 58.0622 60.9655Z" fill="#4F4C4C"/>
<path opacity="0.6423" d="M57.7926 60.9513C57.7926 59.6423 51.7805 58.5762 44.3582 58.5762C36.9427 58.5762 30.9307 59.6423 30.9307 60.9513C30.9307 62.2603 36.9427 63.3264 44.3582 63.3264C51.7805 63.3197 57.7926 62.2603 57.7926 60.9513Z" fill="#4E4B4B"/>
<path opacity="0.6462" d="M57.5227 60.9323C57.5227 59.6435 51.5848 58.5977 44.2638 58.5977C36.9427 58.5977 31.0049 59.6435 31.0049 60.9323C31.0049 62.2211 36.9427 63.2669 44.2638 63.2669C51.5916 63.2669 57.5227 62.2211 57.5227 60.9323Z" fill="#4D4A4A"/>
<path opacity="0.65" d="M57.2529 60.9181C57.2529 59.6496 51.396 58.6172 44.1694 58.6172C36.9428 58.6172 31.0859 59.6496 31.0859 60.9181C31.0859 62.1866 36.9428 63.219 44.1694 63.219C51.396 63.2123 57.2529 62.1866 57.2529 60.9181Z" fill="#4C4948"/>
<path opacity="0.6538" d="M56.9896 60.8976C56.9896 59.6493 51.207 58.6372 44.0816 58.6372C36.9562 58.6372 31.1736 59.6493 31.1736 60.8976C31.1736 62.1459 36.9562 63.158 44.0816 63.158C51.207 63.158 56.9896 62.1459 56.9896 60.8976Z" fill="#4B4847"/>
<path opacity="0.6577" d="M56.7198 60.8849C56.7198 59.6568 51.0182 58.6582 43.9872 58.6582C36.9563 58.6582 31.2546 59.6568 31.2546 60.8849C31.2546 62.1129 36.9563 63.1116 43.9872 63.1116C51.0182 63.1048 56.7198 62.1129 56.7198 60.8849Z" fill="#4A4746"/>
<path opacity="0.6615" d="M56.4497 60.8634C56.4497 59.6556 50.829 58.6772 43.8858 58.6772C36.9493 58.6772 31.3286 59.6556 31.3286 60.8634C31.3286 62.0713 36.9561 63.0496 43.8858 63.0496C50.8222 63.0564 56.4497 62.0713 56.4497 60.8634Z" fill="#494645"/>
<path opacity="0.6654" d="M56.1798 60.8512C56.1798 59.6636 50.6334 58.6987 43.7914 58.6987C36.9561 58.6987 31.4097 59.6636 31.4097 60.8512C31.4097 62.0388 36.9561 63.0037 43.7914 63.0037C50.6334 63.0037 56.1798 62.0388 56.1798 60.8512Z" fill="#484444"/>
<path opacity="0.6692" d="M55.9099 60.8293C55.9099 59.6619 50.4444 58.7173 43.6969 58.7173C36.9561 58.7173 31.4839 59.6619 31.4839 60.8293C31.4839 61.9966 36.9494 62.9412 43.6969 62.9412C50.4444 62.948 55.9099 61.9966 55.9099 60.8293Z" fill="#474343"/>
<path opacity="0.6731" d="M55.6401 60.8165C55.6401 59.6694 50.2488 58.7383 43.6025 58.7383C36.9562 58.7383 31.5649 59.6694 31.5649 60.8165C31.5649 61.9636 36.9562 62.8948 43.6025 62.8948C50.2488 62.8948 55.6401 61.9636 55.6401 60.8165Z" fill="#464242"/>
<path opacity="0.6769" d="M55.3701 60.797C55.3701 59.6702 50.0598 58.7593 43.5079 58.7593C36.9561 58.7593 31.6458 59.6769 31.6458 60.797C31.6458 61.9239 36.9561 62.8348 43.5079 62.8348C50.0598 62.8415 55.3701 61.9239 55.3701 60.797Z" fill="#454140"/>
<path opacity="0.6808" d="M55.1002 60.7818C55.1002 59.6753 49.8642 58.7778 43.4135 58.7778C36.9629 58.7778 31.7268 59.6753 31.7268 60.7818C31.7268 61.8884 36.9629 62.7859 43.4135 62.7859C49.8709 62.7859 55.1002 61.8884 55.1002 60.7818Z" fill="#44403F"/>
<path opacity="0.6846" d="M54.8303 60.7692C54.8303 59.6828 49.6752 58.8057 43.3123 58.8057C36.9561 58.8057 31.801 59.6896 31.801 60.7692C31.801 61.8555 36.9561 62.7327 43.3123 62.7327C49.6752 62.7327 54.8303 61.8488 54.8303 60.7692Z" fill="#433F3E"/>
<path opacity="0.6885" d="M54.5605 60.7486C54.5605 59.6825 49.4796 58.8188 43.2179 58.8188C36.9562 58.8188 31.8821 59.6825 31.8821 60.7486C31.8821 61.8148 36.963 62.6784 43.2179 62.6784C49.4864 62.6784 54.5605 61.8148 54.5605 60.7486Z" fill="#423E3D"/>
<path opacity="0.6923" d="M54.2904 60.736C54.2904 59.6901 49.2905 58.8467 43.1232 58.8467C36.956 58.8467 31.9561 59.6969 31.9561 60.736C31.9561 61.7819 36.956 62.6253 43.1232 62.6253C49.2972 62.6253 54.2904 61.7751 54.2904 60.736Z" fill="#413D3C"/>
<path opacity="0.6962" d="M54.0276 60.7154C54.0276 59.6898 49.1087 58.8599 43.0359 58.8599C36.9699 58.8599 32.0442 59.6898 32.0442 60.7154C32.0442 61.7411 36.9631 62.571 43.0359 62.571C49.1019 62.571 54.0276 61.7411 54.0276 60.7154Z" fill="#3F3B3B"/>
<path opacity="0.7" d="M53.7573 60.7018C53.7573 59.6964 48.9126 58.8867 42.941 58.8867C36.9695 58.8867 32.1248 59.7032 32.1248 60.7018C32.1248 61.7072 36.9695 62.5169 42.941 62.5169C48.9126 62.5169 53.7573 61.7004 53.7573 60.7018Z" fill="#3E3A39"/>
<path opacity="0.7038" d="M53.4875 60.6822C53.4875 59.6971 48.7238 58.9009 42.8467 58.9009C36.9696 58.9009 32.2058 59.6971 32.2058 60.6822C32.2058 61.6674 36.9696 62.4636 42.8467 62.4636C48.7238 62.4636 53.4875 61.6674 53.4875 60.6822Z" fill="#3D3938"/>
<path opacity="0.7077" d="M53.2179 60.6686C53.2179 59.7037 48.5283 58.9277 42.7457 58.9277C36.9631 58.9277 32.2803 59.7104 32.2803 60.6686C32.2803 61.6335 36.9698 62.4095 42.7457 62.4095C48.5283 62.4095 53.2179 61.6335 53.2179 60.6686Z" fill="#3B3736"/>
<path opacity="0.7115" d="M52.9478 60.6485C52.9478 59.7039 48.3392 58.9414 42.6511 58.9414C36.9696 58.9414 32.3611 59.7039 32.3611 60.6485C32.3611 61.5932 36.9696 62.3557 42.6511 62.3557C48.3392 62.3557 52.9478 61.5932 52.9478 60.6485Z" fill="#393534"/>
<path opacity="0.7154" d="M52.6779 60.6344C52.6779 59.7167 48.1435 58.9678 42.5566 58.9678C36.9696 58.9678 32.4353 59.7167 32.4353 60.6344C32.4353 61.5588 36.9696 62.3011 42.5566 62.3011C48.1435 62.3011 52.6779 61.5588 52.6779 60.6344Z" fill="#363332"/>
<path opacity="0.7192" d="M52.4081 60.6153C52.4081 59.7179 47.9547 58.9824 42.4622 58.9824C36.9697 58.9824 32.5164 59.7112 32.5164 60.6153C32.5164 61.5195 36.9697 62.2482 42.4622 62.2482C47.9547 62.2482 52.4081 61.5195 52.4081 60.6153Z" fill="#343030"/>
<path opacity="0.7231" d="M52.138 60.6012C52.138 59.724 47.7656 59.0088 42.3676 59.0088C36.9696 59.0088 32.5972 59.724 32.5972 60.6012C32.5972 61.4851 36.9696 62.1936 42.3676 62.1936C47.7656 62.1936 52.138 61.4851 52.138 60.6012Z" fill="#312E2D"/>
<path opacity="0.7269" d="M51.8682 60.5875C51.8682 59.7305 47.57 59.0288 42.2732 59.0288C36.9764 59.0288 32.6782 59.7305 32.6782 60.5875C32.6782 61.4512 36.9764 62.1462 42.2732 62.1462C47.57 62.1462 51.8682 61.4444 51.8682 60.5875Z" fill="#2F2C2B"/>
<path opacity="0.7308" d="M51.598 60.567C51.598 59.7303 47.3808 59.0488 42.1717 59.0488C36.9694 59.0488 32.7522 59.7303 32.7522 60.567C32.7522 61.4105 36.9694 62.0852 42.1717 62.0852C47.3808 62.092 51.598 61.4105 51.598 60.567Z" fill="#2C2929"/>
<path opacity="0.7346" d="M51.3282 60.5543C51.3282 59.7378 47.1852 59.0698 42.0774 59.0698C36.9695 59.0698 32.8333 59.7378 32.8333 60.5543C32.8333 61.3775 36.9762 62.0387 42.0774 62.0387C47.192 62.0387 51.3282 61.3707 51.3282 60.5543Z" fill="#292726"/>
<path opacity="0.7385" d="M51.0652 60.5338C51.0652 59.7376 47.0031 59.0898 41.9897 59.0898C36.9831 59.0898 32.9143 59.7376 32.9143 60.5338C32.9143 61.3368 36.9763 61.9778 41.9897 61.9778C46.9964 61.9845 51.0652 61.3368 51.0652 60.5338Z" fill="#272524"/>
<path opacity="0.7423" d="M50.7953 60.5196C50.7953 59.7436 46.8075 59.1094 41.8953 59.1094C36.9831 59.1094 32.9954 59.7436 32.9954 60.5196C32.9954 61.2956 36.9831 61.9298 41.8953 61.9298C46.8075 61.9298 50.7953 61.2956 50.7953 60.5196Z" fill="#242222"/>
<path opacity="0.7462" d="M50.5255 60.4991C50.5255 59.7433 46.6187 59.1226 41.801 59.1226C36.9832 59.1226 33.0764 59.7366 33.0764 60.4991C33.0764 61.2548 36.9832 61.8688 41.801 61.8688C46.6187 61.8755 50.5255 61.2615 50.5255 60.4991Z" fill="#22201F"/>
<path opacity="0.75" d="M50.2556 60.4859C50.2556 59.7504 46.4298 59.1499 41.6998 59.1499C36.9765 59.1499 33.1506 59.7504 33.1506 60.4859C33.1506 61.2214 36.9765 61.8219 41.6998 61.8219C46.423 61.8219 50.2556 61.2214 50.2556 60.4859Z" fill="#1F1E1D"/>
<path opacity="0.7538" d="M49.9858 60.4659C49.9858 59.7507 46.2342 59.1704 41.6054 59.1704C36.9833 59.1704 33.2317 59.7507 33.2317 60.4659C33.2317 61.1812 36.9833 61.7682 41.6054 61.7682C46.2342 61.7682 49.9858 61.1879 49.9858 60.4659Z" fill="#1D1B1B"/>
<path opacity="0.7577" d="M49.7157 60.4532C49.7157 59.7582 46.0451 59.1914 41.5107 59.1914C36.9832 59.1914 33.3125 59.7582 33.3125 60.4532C33.3125 61.1482 36.9832 61.715 41.5107 61.715C46.0451 61.715 49.7157 61.1482 49.7157 60.4532Z" fill="#1B1919"/>
<path opacity="0.7615" d="M49.4458 60.4318C49.4458 59.757 45.8494 59.2104 41.4163 59.2104C36.9832 59.2104 33.3867 59.757 33.3867 60.4318C33.3867 61.1065 36.9832 61.6598 41.4163 61.6598C45.8494 61.6598 49.4458 61.1133 49.4458 60.4318Z" fill="#181717"/>
<path opacity="0.7654" d="M49.176 60.4195C49.176 59.765 45.6606 59.2319 41.3219 59.2319C36.9832 59.2319 33.4678 59.765 33.4678 60.4195C33.4678 61.074 36.9832 61.6071 41.3219 61.6071C45.6606 61.6071 49.176 61.074 49.176 60.4195Z" fill="#161514"/>
<path opacity="0.7692" d="M48.9062 60.4053C48.9062 59.771 45.465 59.2515 41.2275 59.2515C36.9901 59.2515 33.5488 59.771 33.5488 60.4053C33.5488 61.0396 36.9901 61.5591 41.2275 61.5591C45.4717 61.5524 48.9062 61.0396 48.9062 60.4053Z" fill="#131212"/>
<path opacity="0.7731" d="M48.6361 60.3848C48.6361 59.7708 45.2758 59.2715 41.1261 59.2715C36.9831 59.2715 33.6228 59.7708 33.6228 60.3848C33.6228 60.9989 36.9831 61.4982 41.1261 61.4982C45.2758 61.4982 48.6361 60.9989 48.6361 60.3848Z" fill="#111010"/>
<path opacity="0.7769" d="M48.3662 60.3721C48.3662 59.7783 45.0869 59.2925 41.0317 59.2925C36.9832 59.2925 33.7039 59.7783 33.7039 60.3721C33.7039 60.9659 36.9899 61.4517 41.0317 61.4517C45.0869 61.4449 48.3662 60.9659 48.3662 60.3721Z" fill="#0E0D0D"/>
<path opacity="0.7808" d="M48.103 60.3502C48.103 59.7766 44.8979 59.311 40.9439 59.311C36.9898 59.311 33.7915 59.7766 33.7915 60.3502C33.7915 60.9237 36.9966 61.3893 40.9439 61.3893C44.8979 61.3893 48.103 60.9237 48.103 60.3502Z" fill="#0C0B0B"/>
<path opacity="0.7846" d="M47.8331 60.3375C47.8331 59.7842 44.709 59.3389 40.8494 59.3389C36.9966 59.3389 33.8657 59.7909 33.8657 60.3375C33.8657 60.8908 36.9898 61.3429 40.8494 61.3429C44.7023 61.3361 47.8331 60.8908 47.8331 60.3375Z" fill="#090808"/>
<path opacity="0.7885" d="M47.5633 60.3169C47.5633 59.7839 44.5134 59.3521 40.755 59.3521C36.9967 59.3521 33.9468 59.7839 33.9468 60.3169C33.9468 60.85 36.9967 61.2818 40.755 61.2818C44.5134 61.2818 47.5633 60.85 47.5633 60.3169Z" fill="#060606"/>
<path opacity="0.7923" d="M47.2936 60.3032C47.2936 59.7904 44.3247 59.3721 40.6541 59.3721C36.9902 59.3721 34.0212 59.7904 34.0212 60.3032C34.0212 60.816 36.9902 61.2344 40.6541 61.2344C44.3247 61.2344 47.2936 60.816 47.2936 60.3032Z" fill="#040404"/>
<path opacity="0.7962" d="M47.0233 60.2833C47.0233 59.7907 44.1286 59.3926 40.5592 59.3926C36.9965 59.3926 34.1018 59.7907 34.1018 60.2833C34.1018 60.7758 36.9965 61.1739 40.5592 61.1739C44.1286 61.1807 47.0233 60.7826 47.0233 60.2833Z" fill="#020202"/>
<path opacity="0.8" d="M34.1829 60.27C34.1829 60.7423 36.9966 61.127 40.4648 61.127C43.9398 61.127 46.7535 60.7423 46.7535 60.27C46.7535 59.7977 43.9398 59.4131 40.4648 59.4131C36.9966 59.4131 34.1829 59.7977 34.1829 60.27Z" fill="black"/>
<path d="M68.1362 17.2482C68.1362 17.2482 71.0107 24.4073 66.6113 25.4195C63.0014 26.2494 57.212 23.5976 54.1486 19.1848C51.6993 15.6558 50.8018 9.59652 55.4576 9.52229C56.5912 9.50205 57.3874 9.65724 58.1701 9.89341C60.0392 10.4939 62.4751 11.6613 64.5331 13.0917C64.5331 13.0917 60.9164 7.24163 53.8855 4.36718C52.9071 3.07166 50.1406 -0.0794388 46.6184 0.00153151C46.6184 0.00153151 46.2338 0.575072 45.7817 1.61419C45.1744 1.58045 44.5199 1.60744 43.7439 1.81662C42.4349 2.16074 40.9842 3.18636 40.3499 5.29834C39.8169 7.07294 40.1273 10.5209 40.7953 12.363C40.7953 12.363 41.7264 9.27938 44.2837 8.53041C44.0813 13.4629 45.2621 20.0957 49.9449 25.1091C57.2457 32.9227 68.116 32.7675 70.228 27.6597C72.0431 23.2805 68.1362 17.2482 68.1362 17.2482Z" fill="#E85298"/>
<path d="M71.7665 30.5548C68.0823 40.8245 50.9504 34.7922 44.8236 29.0163C39.6145 24.1041 36.2407 20.1703 35.1476 11.7967C34.0815 3.59166 38.4202 1.23677 38.4202 1.19629C38.4202 1.19629 31.4095 3.3555 30.7213 12.0935C30.1815 18.8613 32.6106 27.2013 39.7427 34.1782C44.0611 38.4022 50.8019 42.0458 58.2242 42.7678C51.0651 44.0498 41.3081 41.9311 35.6672 37.7342C29.7564 33.3415 25.863 28.2741 24.2841 19.4281C22.3476 8.59833 26.9359 4.42161 26.9426 4.38112C26.9426 4.38112 19.5676 8.98968 19.237 19.7048C19.021 26.9044 20.9846 35.6289 29.4662 43.2536C33.346 46.7421 40.0598 50.6422 48.1839 51.688C45.3971 52.1334 42.4282 52.1604 39.3379 51.7083C29.6686 50.2913 21.0858 44.2725 16.5919 36.3846C12.7728 29.6844 12.5299 25.2242 12.5164 25.3322C10.1211 41.6545 21.4164 56.8229 37.7387 59.2115C53.6966 61.5462 68.5479 50.8041 71.4358 35.0756C72.0094 32.633 71.7665 30.5548 71.7665 30.5548Z" fill="#6B1685"/>
<path d="M18.6772 78.0565H10.958V76.1064H8.77179V78.0565H0V80.2427H19.7365L18.6772 78.0565ZM16.4707 83.4545V80.3169L9.11591 86.3559L2.78673 80.3169V83.4343L7.3683 87.7864L1.30902 92.7593V95.8497L12.4627 86.7338V89.8242L18.7986 95.843V92.7526L12.4762 86.7203L16.4707 83.4545Z" fill="black"/>
<path d="M58.2917 85.8487L53.1029 82.2186V84.6882L58.2917 88.3048V85.8487ZM43.292 94.1887L46.6253 89.4722V86.2468L43.292 90.9836V94.1887ZM61.5576 90.2819V76.0918H59.3916V80.363L54.6481 77.0432V79.506L59.3916 82.8191V90.2886H51.9828V92.2049H59.3848V95.8081H61.5508V92.2049H62.6102L61.5576 90.2819ZM49.5065 84.1349H51.9626V82.2186H49.5065V78.9595H51.9626L50.9099 77.0432H43.4742V78.9595H47.3338V82.2186H43.4742V84.1349H47.3338V95.8013H49.4997V87.8932L51.9761 89.6206V87.1712L49.4997 85.4371V84.1349H49.5065Z" fill="black"/>
<path d="M72.0908 82.5436L71.0382 80.6273H69.6617V76.093H67.4957V80.6273H64.4661V82.5436H67.4957V88.8728L64.4661 90.31V92.6244L67.4957 91.1872V95.8025H69.6617V90.1549L72.0233 89.0348V86.7204L69.6617 87.8404V82.5436H72.0908ZM83.4604 86.356V85.688V83.7717H79.5603V81.0794H84.0002L82.9475 79.1631H79.5603V75.9985H77.3943V79.1631H72.9545V81.0794H77.3943V83.7717H72.9545V85.1887V85.688V87.9956L75.8964 90.4315L72.6238 93.3194V95.8633L79.621 89.723V92.4827L83.6965 95.8565V93.09L79.6345 89.7095L83.4604 86.356ZM77.5293 88.9943L73.555 85.688H81.2809L77.5293 88.9943Z" fill="black"/>
<path d="M33.9536 78.07H31.7944L31.2479 76.1064H29.2101L29.7567 78.07H27.7526V79.7569H33.9536V78.07ZM25.1886 84.939H23.5489V78.9134H25.1751L24.1225 77.2265H21.6934V93.9402H25.1818L24.1292 92.2533H23.5489V86.6191H25.1886V93.9402H27.0509V77.2265H25.1886V84.939ZM38.9535 78.07L39.5001 76.1064H37.4623L36.9158 78.07H34.7566V79.7569H40.9508V78.07H38.9535ZM40.9508 82.6515L39.8982 80.9647H27.7526V82.6515H33.3328V84.939H31.5313L31.9294 83.522H29.8916L29.4935 84.939H27.7526V86.6258H29.0279L28.3869 88.9133H27.7526V90.6001H33.3328V92.26H27.7526V93.9469H33.3328V95.8092H35.3706V93.9469H40.9508L39.8982 92.26H35.3773V90.6001H40.9576V88.9133H40.3233L39.6823 86.6258H40.9508V84.939H39.2099L38.8118 83.522H36.7741L37.1722 84.939H35.3706V82.6515H40.9508ZM33.3328 88.9065H30.4247L31.0657 86.6191H33.3328V88.9065ZM37.6445 86.6191L38.2788 88.9065H35.3706V86.6191H37.6445Z" fill="black"/>
</svg>
