<svg width="135" height="135" viewBox="0 0 135 135" fill="none" xmlns="http://www.w3.org/2000/svg">
<rect width="135" height="135" fill="white"/>
<path d="M42.324 106.75L41.5769 103.363H42.2492L42.7224 105.689L43.315 103.363H44.092L44.6547 105.729L45.1478 103.363H45.8002L45.0233 106.75H44.3211L43.6886 104.22L43.0461 106.75H42.324Z" fill="#999999"/>
<path d="M46.7166 106.75V103.941H45.7653V103.363H48.3202V103.941H47.369V106.75H46.7166Z" fill="#999999"/>
<path d="M49.7197 106.75V103.363H50.6909L51.2736 105.674L51.8364 103.363H52.8175V106.75H52.2198L52.2149 104.085L51.5873 106.75H50.9548L50.3223 104.085L50.3174 106.75H49.7197Z" fill="#999999"/>
<path d="M53.3105 106.75V103.363H53.9629V106.75H53.3105Z" fill="#999999"/>
<path d="M56.5029 105.499L57.1354 105.703C57.0408 106.077 56.8764 106.356 56.6523 106.535C56.4282 106.719 56.1394 106.809 55.7957 106.809C55.3674 106.809 55.0138 106.654 54.7399 106.346C54.466 106.037 54.3265 105.619 54.3265 105.086C54.3265 104.523 54.466 104.085 54.7399 103.771C55.0188 103.457 55.3824 103.303 55.8356 103.303C56.229 103.303 56.5527 103.427 56.7968 103.671C56.9412 103.816 57.0557 104.025 57.1255 104.294L56.478 104.458C56.4382 104.284 56.3585 104.144 56.239 104.045C56.1194 103.94 55.97 103.89 55.7957 103.89C55.5567 103.89 55.3624 103.98 55.213 104.159C55.0636 104.339 54.9889 104.632 54.9889 105.036C54.9889 105.464 55.0636 105.768 55.208 105.952C55.3525 106.137 55.5467 106.226 55.7808 106.226C55.9551 106.226 56.1045 106.166 56.229 106.052C56.3585 105.932 56.4481 105.748 56.5029 105.499Z" fill="#999999"/>
<path d="M57.5587 106.75V103.363H58.9184C59.262 103.363 59.506 103.393 59.6654 103.453C59.8198 103.513 59.9443 103.622 60.0389 103.777C60.1336 103.931 60.1784 104.11 60.1784 104.31C60.1784 104.564 60.1087 104.773 59.9692 104.937C59.8298 105.101 59.6206 105.206 59.3467 105.251C59.4861 105.335 59.6007 105.43 59.6903 105.535C59.78 105.639 59.9045 105.824 60.0539 106.088L60.4423 106.75H59.6754L59.2122 106.013C59.0478 105.749 58.9333 105.585 58.8686 105.515C58.8088 105.445 58.744 105.4 58.6743 105.375C58.6046 105.35 58.495 105.335 58.3506 105.335H58.2161V106.75H57.5587ZM58.2161 104.798H58.6893C58.998 104.798 59.1873 104.783 59.262 104.758C59.3367 104.728 59.3965 104.683 59.4413 104.613C59.4861 104.544 59.506 104.459 59.506 104.359C59.506 104.245 59.4762 104.155 59.4214 104.085C59.3666 104.016 59.2819 103.971 59.1823 103.951C59.1325 103.941 58.9731 103.941 58.7142 103.941H58.2161V104.798Z" fill="#999999"/>
<path d="M60.532 105.082C60.532 104.738 60.5818 104.444 60.6814 104.21C60.7561 104.036 60.8557 103.881 60.9802 103.747C61.1047 103.607 61.2442 103.508 61.3986 103.443C61.5978 103.353 61.8319 103.309 62.0958 103.309C62.5689 103.309 62.9524 103.463 63.2363 103.772C63.5202 104.081 63.6646 104.514 63.6646 105.067C63.6646 105.614 63.5252 106.043 63.2413 106.352C62.9574 106.66 62.5789 106.815 62.1058 106.815C61.6277 106.815 61.2442 106.66 60.9603 106.352C60.6714 106.043 60.532 105.619 60.532 105.082ZM61.1994 105.057C61.1994 105.44 61.284 105.734 61.4534 105.933C61.6227 106.132 61.8368 106.232 62.0958 106.232C62.3548 106.232 62.5689 106.132 62.7383 105.938C62.9076 105.739 62.9873 105.445 62.9873 105.052C62.9873 104.663 62.9076 104.369 62.7433 104.18C62.5789 103.991 62.3648 103.891 62.0958 103.891C61.8269 103.891 61.6077 103.991 61.4434 104.18C61.284 104.374 61.1994 104.663 61.1994 105.057Z" fill="#999999"/>
<path d="M64.0331 106.75V103.363H66.4137V103.941H64.6856V104.688H66.2892V105.266H64.6856V106.177H66.4735V106.755H64.0331V106.75Z" fill="#999999"/>
<path d="M66.9018 106.75V103.389H67.5542V106.173H69.1629V106.75H66.9018Z" fill="#999999"/>
<path d="M69.5065 106.75V103.363H71.8871V103.941H70.159V104.688H71.7626V105.266H70.159V106.177H71.9469V106.755H69.5065V106.75Z" fill="#999999"/>
<path d="M74.4221 105.499L75.0546 105.703C74.96 106.077 74.7956 106.356 74.5715 106.535C74.3474 106.719 74.0586 106.809 73.7149 106.809C73.2866 106.809 72.933 106.654 72.6591 106.346C72.3852 106.037 72.2457 105.619 72.2457 105.086C72.2457 104.523 72.3852 104.085 72.6591 103.771C72.938 103.457 73.3015 103.303 73.7548 103.303C74.1482 103.303 74.4719 103.427 74.716 103.671C74.8604 103.816 74.9749 104.025 75.0447 104.294L74.3972 104.458C74.3574 104.284 74.2777 104.144 74.1582 104.045C74.0386 103.94 73.8892 103.89 73.7149 103.89C73.4759 103.89 73.2816 103.98 73.1322 104.159C72.9828 104.339 72.9081 104.632 72.9081 105.036C72.9081 105.464 72.9828 105.768 73.1272 105.952C73.2717 106.137 73.4659 106.226 73.7 106.226C73.8743 106.226 74.0237 106.166 74.1482 106.052C74.2777 105.932 74.3673 105.748 74.4221 105.499Z" fill="#999999"/>
<path d="M76.1951 106.75V103.941H75.2488V103.363H77.8037V103.941H76.8525V106.75H76.1951Z" fill="#999999"/>
<path d="M78.0926 106.75V103.363H79.4522C79.7959 103.363 80.0399 103.393 80.1993 103.453C80.3537 103.513 80.4782 103.622 80.5728 103.777C80.6674 103.931 80.7123 104.11 80.7123 104.31C80.7123 104.564 80.6425 104.773 80.5031 104.937C80.3636 105.101 80.1545 105.206 79.8805 105.251C80.02 105.335 80.1345 105.43 80.2242 105.535C80.3138 105.639 80.4383 105.824 80.5877 106.088L80.9762 106.75H80.2092L79.7461 106.013C79.5817 105.749 79.4672 105.585 79.4024 105.515C79.3427 105.445 79.2779 105.4 79.2082 105.375C79.1385 105.35 79.0289 105.335 78.8845 105.335H78.755V106.75H78.0926ZM78.745 104.798H79.2182C79.5269 104.798 79.7162 104.783 79.7909 104.758C79.8656 104.728 79.9254 104.683 79.9702 104.613C80.015 104.544 80.0349 104.459 80.0349 104.359C80.0349 104.245 80.005 104.155 79.9503 104.085C79.8955 104.016 79.8108 103.971 79.7112 103.951C79.6614 103.941 79.502 103.941 79.2431 103.941H78.745V104.798Z" fill="#999999"/>
<path d="M81.0609 105.082C81.0609 104.738 81.1107 104.444 81.2103 104.21C81.285 104.036 81.3846 103.881 81.5091 103.747C81.6336 103.607 81.7731 103.508 81.9275 103.443C82.1267 103.353 82.3607 103.309 82.6247 103.309C83.0978 103.309 83.4813 103.463 83.7652 103.772C84.0491 104.081 84.1935 104.514 84.1935 105.067C84.1935 105.614 84.0541 106.043 83.7702 106.352C83.4863 106.66 83.1078 106.815 82.6347 106.815C82.1566 106.815 81.7731 106.66 81.4892 106.352C81.2053 106.043 81.0609 105.619 81.0609 105.082ZM81.7332 105.057C81.7332 105.44 81.8179 105.734 81.9872 105.933C82.1566 106.132 82.3707 106.232 82.6297 106.232C82.8887 106.232 83.1028 106.132 83.2721 105.938C83.4365 105.739 83.5212 105.445 83.5212 105.052C83.5212 104.663 83.4415 104.369 83.2771 104.18C83.1128 103.991 82.8986 103.891 82.6297 103.891C82.3607 103.891 82.1416 103.991 81.9773 104.18C81.8129 104.374 81.7332 104.663 81.7332 105.057Z" fill="#999999"/>
<path d="M84.562 106.75V103.363H85.1895L86.5143 105.639V103.363H87.112V106.75H86.4645L85.1597 104.524V106.75H84.562Z" fill="#999999"/>
<path d="M87.6498 106.75V103.363H88.3023V106.75H87.6498Z" fill="#999999"/>
<path d="M90.8422 105.499L91.4747 105.703C91.3801 106.077 91.2157 106.356 90.9916 106.535C90.7675 106.719 90.4787 106.809 90.135 106.809C89.7067 106.809 89.3531 106.654 89.0792 106.346C88.8053 106.037 88.6658 105.619 88.6658 105.086C88.6658 104.523 88.8053 104.085 89.0792 103.771C89.3581 103.457 89.7216 103.303 90.1749 103.303C90.5683 103.303 90.892 103.427 91.1361 103.671C91.2805 103.816 91.395 104.025 91.4648 104.294L90.8173 104.458C90.7775 104.284 90.6978 104.144 90.5783 104.045C90.4587 103.94 90.3093 103.89 90.135 103.89C89.896 103.89 89.7017 103.98 89.5523 104.159C89.4029 104.339 89.3282 104.632 89.3282 105.036C89.3282 105.464 89.4029 105.768 89.5473 105.952C89.6918 106.137 89.886 106.226 90.1201 106.226C90.2944 106.226 90.4438 106.166 90.5683 106.052C90.6978 105.932 90.7874 105.748 90.8422 105.499Z" fill="#999999"/>
<path d="M91.7237 105.645L92.3562 105.58C92.3961 105.804 92.4708 105.963 92.5903 106.068C92.7049 106.172 92.8642 106.222 93.0634 106.222C93.2726 106.222 93.432 106.177 93.5366 106.083C93.6412 105.988 93.6959 105.884 93.6959 105.759C93.6959 105.679 93.676 105.61 93.6312 105.555C93.5864 105.5 93.5067 105.45 93.3971 105.41C93.3224 105.381 93.1481 105.336 92.8792 105.261C92.5306 105.171 92.2865 105.057 92.1471 104.927C91.9479 104.743 91.8532 104.514 91.8532 104.245C91.8532 104.071 91.8981 103.911 91.9927 103.762C92.0873 103.613 92.2168 103.498 92.3961 103.418C92.5704 103.339 92.7796 103.299 93.0286 103.299C93.432 103.299 93.7358 103.393 93.94 103.583C94.1442 103.772 94.2488 104.021 94.2587 104.335L93.6063 104.36C93.5764 104.185 93.5216 104.061 93.427 103.986C93.3374 103.911 93.1979 103.872 93.0186 103.872C92.8294 103.872 92.6849 103.911 92.5804 103.996C92.5106 104.051 92.4758 104.121 92.4758 104.205C92.4758 104.285 92.5057 104.355 92.5704 104.409C92.6501 104.479 92.8493 104.559 93.168 104.634C93.4818 104.713 93.7159 104.793 93.8703 104.878C94.0197 104.962 94.1392 105.077 94.2239 105.221C94.3085 105.366 94.3534 105.545 94.3534 105.759C94.3534 105.953 94.3035 106.133 94.199 106.307C94.0944 106.476 93.9499 106.601 93.7657 106.685C93.5764 106.77 93.3423 106.81 93.0634 106.81C92.6551 106.81 92.3413 106.71 92.1222 106.511C91.8931 106.317 91.7636 106.028 91.7237 105.645Z" fill="#999999"/>
<path opacity="0.01" d="M97.5059 75.2593C97.5059 72.4604 87.3361 70.1943 74.7907 70.1943C62.2453 70.1943 52.0755 72.4604 52.0755 75.2593C52.0755 78.0583 62.2453 80.3243 74.7907 80.3243C87.3361 80.3243 97.5059 78.0583 97.5059 75.2593Z" fill="white"/>
<path opacity="0.01" d="M97.4312 75.2541C97.4312 72.4652 87.2863 70.2041 74.7708 70.2041C62.2552 70.2041 52.1103 72.4652 52.1103 75.2541C52.1103 78.0431 62.2552 80.3042 74.7708 80.3042C87.2863 80.3092 97.4312 78.0481 97.4312 75.2541Z" fill="#FEFEFE"/>
<path opacity="0.01" d="M97.3515 75.2548C97.3515 72.4758 87.2315 70.2197 74.7459 70.2197C62.2602 70.2197 52.1402 72.4758 52.1402 75.2548C52.1402 78.0338 62.2602 80.2899 74.7459 80.2899C87.2315 80.2899 97.3515 78.0338 97.3515 75.2548Z" fill="#FEFEFE"/>
<path opacity="0.0118" d="M97.2768 75.2497C97.2768 72.4756 87.1817 70.2295 74.7309 70.2295C62.2751 70.2295 52.18 72.4756 52.18 75.2497C52.18 78.0237 62.2751 80.2698 74.7309 80.2698C87.1817 80.2698 97.2768 78.0237 97.2768 75.2497Z" fill="#FDFDFD"/>
<path opacity="0.0147" d="M97.2021 75.2494C97.2021 72.4853 87.1319 70.2441 74.711 70.2441C62.2901 70.2441 52.2199 72.4853 52.2199 75.2494C52.2199 78.0134 62.2901 80.2546 74.711 80.2546C87.1319 80.2546 97.2021 78.0134 97.2021 75.2494Z" fill="#FDFDFD"/>
<path opacity="0.0176" d="M97.1224 75.2442C97.1224 72.4901 87.0771 70.2539 74.6861 70.2539C62.2951 70.2539 52.2498 72.4851 52.2498 75.2442C52.2498 78.0033 62.2951 80.2345 74.6861 80.2345C87.0771 80.2345 97.1224 77.9983 97.1224 75.2442Z" fill="#FCFCFC"/>
<path opacity="0.0206" d="M97.0428 75.239C97.0428 72.4899 87.0224 70.2637 74.6612 70.2637C62.3001 70.2637 52.2796 72.4899 52.2796 75.239C52.2796 77.9882 62.3001 80.2144 74.6612 80.2144C87.0273 80.2144 97.0428 77.9882 97.0428 75.239Z" fill="#FBFBFB"/>
<path opacity="0.0235" d="M96.968 75.2397C96.968 72.5005 86.9725 70.2793 74.6463 70.2793C62.315 70.2793 52.3245 72.5005 52.3245 75.2397C52.3245 77.9789 62.32 80.2001 74.6463 80.2001C86.9725 80.2001 96.968 77.9789 96.968 75.2397Z" fill="#FBFBFB"/>
<path opacity="0.0265" d="M96.8933 75.2345C96.8933 72.5053 86.9227 70.2891 74.6263 70.2891C62.3299 70.2891 52.3593 72.5003 52.3593 75.2345C52.3593 77.9687 62.3299 80.18 74.6263 80.18C86.9227 80.18 96.8933 77.9687 96.8933 75.2345Z" fill="#FAFAFA"/>
<path opacity="0.0294" d="M96.8137 75.2293C96.8137 72.5051 86.868 70.2988 74.6014 70.2988C62.3349 70.2988 52.3892 72.5051 52.3892 75.2293C52.3892 77.9536 62.3349 80.1599 74.6014 80.1599C86.868 80.1648 96.8137 77.9536 96.8137 75.2293Z" fill="#F9F9F9"/>
<path opacity="0.0324" d="M96.734 75.229C96.734 72.5148 86.8132 70.3135 74.5765 70.3135C62.3399 70.3135 52.4191 72.5148 52.4191 75.229C52.4191 77.9433 62.3399 80.1446 74.5765 80.1446C86.8181 80.1446 96.734 77.9433 96.734 75.229Z" fill="#F9F9F9"/>
<path opacity="0.0353" d="M96.6593 75.2249C96.6593 72.5205 86.7634 70.3242 74.5616 70.3242C62.3548 70.3242 52.4639 72.5205 52.4639 75.2249C52.4639 77.9341 62.3598 80.1255 74.5616 80.1255C86.7634 80.1255 96.6593 77.9341 96.6593 75.2249Z" fill="#F8F8F8"/>
<path opacity="0.0382" d="M96.5845 75.2197C96.5845 72.5203 86.7136 70.334 74.5417 70.334C62.3648 70.334 52.4988 72.5203 52.4988 75.2197C52.4988 77.919 62.3648 80.1054 74.5417 80.1054C86.7136 80.1104 96.5845 77.919 96.5845 75.2197Z" fill="#F7F7F7"/>
<path opacity="0.0412" d="M96.5049 75.2194C96.5049 72.53 86.6588 70.3486 74.5168 70.3486C62.3747 70.3486 52.5287 72.53 52.5287 75.2194C52.5287 77.9088 62.3698 80.0901 74.5168 80.0901C86.6588 80.0901 96.5049 77.9088 96.5049 75.2194Z" fill="#F7F7F7"/>
<path opacity="0.0441" d="M96.4302 75.2142C96.4302 72.5298 86.609 70.3584 74.4969 70.3584C62.3847 70.3584 52.5635 72.5348 52.5635 75.2142C52.5635 77.8986 62.3797 80.07 74.4969 80.07C86.609 80.07 96.4302 77.8986 96.4302 75.2142Z" fill="#F6F6F6"/>
<path opacity="0.0471" d="M96.3505 75.21C96.3505 72.5356 86.5542 70.3691 74.4769 70.3691C62.3947 70.3691 52.6034 72.5356 52.6034 75.21C52.6034 77.8844 62.3947 80.0509 74.4769 80.0509C86.5592 80.0559 96.3505 77.8844 96.3505 75.21Z" fill="#F5F5F6"/>
<path opacity="0.05" d="M96.2758 75.2097C96.2758 72.5452 86.5094 70.3838 74.457 70.3838C62.4046 70.3838 52.6382 72.5452 52.6382 75.2097C52.6382 77.8792 62.4046 80.0356 74.457 80.0356C86.5044 80.0356 96.2758 77.8742 96.2758 75.2097Z" fill="#F5F5F5"/>
<path opacity="0.0529" d="M96.1961 75.2045C96.1961 72.5451 86.4546 70.3936 74.4321 70.3936C62.4146 70.3936 52.6681 72.5451 52.6681 75.2045C52.6681 77.864 62.4096 80.0205 74.4321 80.0205C86.4546 80.0205 96.1961 77.864 96.1961 75.2045Z" fill="#F4F4F4"/>
<path opacity="0.0559" d="M96.1214 75.2003C96.1214 72.5508 86.4048 70.4043 74.4172 70.4043C62.4295 70.4043 52.7129 72.5508 52.7129 75.2003C52.7129 77.8499 62.4295 80.0014 74.4172 80.0014C86.3998 80.0014 96.1214 77.8549 96.1214 75.2003Z" fill="#F3F3F4"/>
<path opacity="0.0588" d="M96.0417 75.2001C96.0417 72.5605 86.35 70.4189 74.3923 70.4189C62.4345 70.4189 52.7428 72.5605 52.7428 75.2001C52.7428 77.8446 62.4345 79.9861 74.3923 79.9861C86.35 79.9812 96.0417 77.8396 96.0417 75.2001Z" fill="#F3F3F3"/>
<path opacity="0.0618" d="M95.967 75.1949C95.967 72.5603 86.3002 70.4287 74.3723 70.4287C62.4445 70.4287 52.7777 72.5603 52.7777 75.1949C52.7777 77.8295 62.4445 79.966 74.3723 79.966C86.2952 79.966 95.967 77.8295 95.967 75.1949Z" fill="#F2F2F2"/>
<path opacity="0.0647" d="M95.8873 75.1897C95.8873 72.5651 86.2454 70.4385 74.3474 70.4385C62.4495 70.4385 52.8076 72.5651 52.8076 75.1897C52.8076 77.8143 62.4495 79.9409 74.3474 79.9409C86.2454 79.9459 95.8873 77.8193 95.8873 75.1897Z" fill="#F1F1F2"/>
<path opacity="0.0676" d="M95.8126 75.1904C95.8126 72.5757 86.1956 70.4541 74.3325 70.4541C62.4694 70.4541 52.8524 72.5757 52.8524 75.1904C52.8524 77.81 62.4694 79.9317 74.3325 79.9317C86.1906 79.9267 95.8126 77.8051 95.8126 75.1904Z" fill="#F0F1F1"/>
<path opacity="0.0706" d="M95.7329 75.1852C95.7329 72.5755 86.1409 70.4639 74.3076 70.4639C62.4744 70.4639 52.8823 72.5755 52.8823 75.1852C52.8823 77.7949 62.4744 79.9115 74.3076 79.9115C86.1409 79.9115 95.7329 77.7949 95.7329 75.1852Z" fill="#F0F0F0"/>
<path opacity="0.0735" d="M95.6582 75.1849C95.6582 72.5852 86.091 70.4785 74.2877 70.4785C62.4843 70.4785 52.9171 72.5852 52.9171 75.1849C52.9171 77.7846 62.4843 79.8963 74.2877 79.8963C86.0861 79.8913 95.6582 77.7846 95.6582 75.1849Z" fill="#EFEFF0"/>
<path opacity="0.0765" d="M95.5785 75.1797C95.5785 72.585 86.0362 70.4883 74.2628 70.4883C62.4893 70.4883 52.947 72.59 52.947 75.1797C52.947 77.7745 62.4893 79.8762 74.2628 79.8762C86.0362 79.8762 95.5785 77.7745 95.5785 75.1797Z" fill="#EEEFEF"/>
<path opacity="0.0794" d="M95.5038 75.1746C95.5038 72.5898 85.9865 70.498 74.2478 70.498C62.5042 70.498 52.9918 72.5948 52.9918 75.1746C52.9918 77.7594 62.5092 79.8561 74.2478 79.8561C85.9865 79.8561 95.5038 77.7594 95.5038 75.1746Z" fill="#EEEEEE"/>
<path opacity="0.0824" d="M95.4242 75.1753C95.4242 72.6004 85.9317 70.5137 74.2229 70.5137C62.5142 70.5137 53.0217 72.6004 53.0217 75.1753C53.0217 77.7501 62.5142 79.8418 74.2229 79.8418C85.9317 79.8368 95.4242 77.7501 95.4242 75.1753Z" fill="#EDEDEE"/>
<path opacity="0.0853" d="M95.3494 75.1701C95.3494 72.6002 85.8819 70.5234 74.203 70.5234C62.5241 70.5234 53.0566 72.6052 53.0566 75.1701C53.0566 77.7399 62.5241 79.8217 74.203 79.8217C85.8819 79.8217 95.3494 77.7399 95.3494 75.1701Z" fill="#ECEDED"/>
<path opacity="0.0882" d="M95.2697 75.1649C95.2697 72.605 85.8271 70.5332 74.1781 70.5332C62.5291 70.5332 53.0864 72.605 53.0864 75.1649C53.0864 77.7248 62.5291 79.8016 74.1781 79.8016C85.8271 79.8016 95.2697 77.7248 95.2697 75.1649Z" fill="#ECECEC"/>
<path opacity="0.0912" d="M95.195 75.1656C95.195 72.6157 85.7773 70.5488 74.1632 70.5488C62.5441 70.5488 53.1313 72.6157 53.1313 75.1656C53.1313 77.7155 62.5491 79.7873 74.1632 79.7873C85.7773 79.7823 95.195 77.7155 95.195 75.1656Z" fill="#EBEBEB"/>
<path opacity="0.0941" d="M95.1154 75.1604C95.1154 72.6155 85.7225 70.5586 74.1383 70.5586C62.554 70.5586 53.1611 72.6204 53.1611 75.1604C53.1611 77.7054 62.554 79.7672 74.1383 79.7672C85.7225 79.7672 95.1154 77.7054 95.1154 75.1604Z" fill="#EAEBEB"/>
<path opacity="0.0971" d="M95.0407 75.1552C95.0407 72.6203 85.6727 70.5684 74.1184 70.5684C62.564 70.5684 53.196 72.6252 53.196 75.1552C53.196 77.6902 62.564 79.7471 74.1184 79.7471C85.6727 79.7471 95.0407 77.6902 95.0407 75.1552Z" fill="#E9EAEA"/>
<path opacity="0.1" d="M94.961 75.1549C94.961 72.6299 85.6179 70.583 74.0984 70.583C62.574 70.583 53.2309 72.6299 53.2309 75.1549C53.2309 77.6849 62.574 79.7319 74.0984 79.7319C85.6179 79.7319 94.961 77.68 94.961 75.1549Z" fill="#E9E9E9"/>
<path opacity="0.1029" d="M94.8863 75.1498C94.8863 72.6297 85.5681 70.5928 74.0785 70.5928C62.5839 70.5928 53.2707 72.6347 53.2707 75.1498C53.2707 77.6698 62.5889 79.7117 74.0785 79.7117C85.5681 79.7117 94.8863 77.6698 94.8863 75.1498Z" fill="#E8E8E9"/>
<path opacity="0.1059" d="M94.8066 75.1447C94.8066 72.6346 85.5133 70.5977 74.0536 70.5977C62.5889 70.5977 53.3006 72.6296 53.3006 75.1447C53.3006 77.6548 62.5939 79.6917 74.0536 79.6917C85.5183 79.6917 94.8066 77.6597 94.8066 75.1447Z" fill="#E7E8E8"/>
<path opacity="0.1088" d="M94.7319 75.1453C94.7319 72.6452 85.4635 70.6182 74.0337 70.6182C62.6038 70.6182 53.3355 72.6452 53.3355 75.1453C53.3355 77.6504 62.5989 79.6774 74.0337 79.6774C85.4635 79.6774 94.7319 77.6454 94.7319 75.1453Z" fill="#E7E7E7"/>
<path opacity="0.1118" d="M94.6522 75.1402C94.6522 72.6451 85.4087 70.623 74.0138 70.623C62.6138 70.623 53.3753 72.6451 53.3753 75.1402C53.3753 77.6353 62.6138 79.6573 74.0138 79.6573C85.4137 79.6573 94.6522 77.6353 94.6522 75.1402Z" fill="#E6E6E7"/>
<path opacity="0.1147" d="M94.5775 75.135C94.5775 72.6498 85.3589 70.6328 73.9938 70.6328C62.6238 70.6328 53.4102 72.6449 53.4102 75.135C53.4102 77.6202 62.6238 79.6372 73.9938 79.6372C85.3589 79.6372 94.5775 77.6252 94.5775 75.135Z" fill="#E5E6E6"/>
<path opacity="0.1176" d="M94.4978 75.1347C94.4978 72.6595 85.3091 70.6475 73.9689 70.6475C62.6288 70.6475 53.4401 72.6545 53.4401 75.1347C53.4401 77.6149 62.6288 79.622 73.9689 79.622C85.3091 79.622 94.4978 77.6099 94.4978 75.1347Z" fill="#E4E5E5"/>
<path opacity="0.1206" d="M94.4231 75.1296C94.4231 72.6593 85.2593 70.6572 73.949 70.6572C62.6437 70.6572 53.4749 72.6593 53.4749 75.1296C53.4749 77.5998 62.6387 79.6019 73.949 79.6019C85.2544 79.6019 94.4231 77.5998 94.4231 75.1296Z" fill="#E4E4E4"/>
<path opacity="0.1235" d="M94.3434 75.1244C94.3434 72.6641 85.2045 70.667 73.9291 70.667C62.6536 70.667 53.5148 72.6591 53.5148 75.1244C53.5148 77.5847 62.6536 79.5818 73.9291 79.5818C85.2045 79.5867 94.3434 77.5896 94.3434 75.1244Z" fill="#E3E3E4"/>
<path opacity="0.1265" d="M94.2687 75.1251C94.2687 72.6747 85.1547 70.6826 73.9092 70.6826C62.6636 70.6826 53.5496 72.6698 53.5496 75.1251C53.5496 77.5804 62.6636 79.5675 73.9092 79.5675C85.1498 79.5675 94.2687 77.5754 94.2687 75.1251Z" fill="#E2E3E3"/>
<path opacity="0.1294" d="M94.189 75.1199C94.189 72.6745 85.1 70.6924 73.8843 70.6924C62.6686 70.6924 53.5795 72.6745 53.5795 75.1199C53.5795 77.5652 62.6686 79.5474 73.8843 79.5474C85.1 79.5474 94.189 77.5652 94.189 75.1199Z" fill="#E2E2E2"/>
<path opacity="0.1324" d="M94.1143 75.1196C94.1143 72.6842 85.0502 70.707 73.8644 70.707C62.6786 70.707 53.6144 72.6792 53.6144 75.1196C53.6144 77.555 62.6786 79.5322 73.8644 79.5322C85.0502 79.5322 94.1143 77.555 94.1143 75.1196Z" fill="#E1E1E2"/>
<path opacity="0.1353" d="M94.0347 75.1154C94.0347 72.685 84.9954 70.7178 73.8444 70.7178C62.6935 70.7178 53.6542 72.685 53.6542 75.1154C53.6542 77.5458 62.6935 79.513 73.8444 79.513C84.9954 79.513 94.0347 77.5458 94.0347 75.1154Z" fill="#E0E1E1"/>
<path opacity="0.1382" d="M93.9599 75.1102C93.9599 72.6898 84.9456 70.7275 73.8245 70.7275C62.7035 70.7275 53.6891 72.6898 53.6891 75.1102C53.6891 77.5307 62.7035 79.4929 73.8245 79.4929C84.9456 79.4929 93.9599 77.5307 93.9599 75.1102Z" fill="#DFE0E0"/>
<path opacity="0.1412" d="M93.8802 75.1099C93.8802 72.6995 84.8908 70.7422 73.7996 70.7422C62.7084 70.7422 53.7189 72.6945 53.7189 75.1099C53.7189 77.5204 62.7084 79.4777 73.7996 79.4777C84.8908 79.4777 93.8802 77.5204 93.8802 75.1099Z" fill="#DFDFDF"/>
<path opacity="0.1441" d="M93.8055 75.1048C93.8055 72.6993 84.841 70.752 73.7797 70.752C62.7184 70.752 53.7538 72.6993 53.7538 75.1048C53.7538 77.5102 62.7184 79.4576 73.7797 79.4576C84.841 79.4576 93.8055 77.5102 93.8055 75.1048Z" fill="#DEDEDF"/>
<path opacity="0.1471" d="M93.7259 75.1006C93.7259 72.705 84.7862 70.7627 73.7598 70.7627C62.7333 70.7627 53.7937 72.705 53.7937 75.1006C53.7937 77.4961 62.7333 79.4384 73.7598 79.4384C84.7862 79.4384 93.7259 77.4961 93.7259 75.1006Z" fill="#DDDEDE"/>
<path opacity="0.15" d="M93.6511 75.1003C93.6511 72.7147 84.7364 70.7773 73.7398 70.7773C62.7433 70.7773 53.8285 72.7097 53.8285 75.1003C53.8285 77.4858 62.7433 79.4232 73.7398 79.4232C84.7364 79.4232 93.6511 77.4858 93.6511 75.1003Z" fill="#DCDDDD"/>
<path opacity="0.1529" d="M93.5715 75.0951C93.5715 72.7145 84.6816 70.7871 73.7149 70.7871C62.7483 70.7871 53.8584 72.7145 53.8584 75.0951C53.8584 77.4757 62.7483 79.4031 73.7149 79.4031C84.6816 79.4031 93.5715 77.4757 93.5715 75.0951Z" fill="#DCDCDD"/>
<path opacity="0.1559" d="M93.4968 75.0909C93.4968 72.7203 84.6318 70.7979 73.695 70.7979C62.7582 70.7979 53.8983 72.7203 53.8983 75.0909C53.8983 77.4615 62.7632 79.3839 73.695 79.3839C84.6318 79.3889 93.4968 77.4665 93.4968 75.0909Z" fill="#DBDBDC"/>
<path opacity="0.1588" d="M93.4171 75.0906C93.4171 72.7249 84.577 70.8125 73.6751 70.8125C62.7732 70.8125 53.9331 72.7249 53.9331 75.0906C53.9331 77.4562 62.7732 79.3687 73.6751 79.3687C84.577 79.3687 93.4171 77.4513 93.4171 75.0906Z" fill="#DADBDB"/>
<path opacity="0.1618" d="M93.3424 75.0864C93.3424 72.7307 84.5272 70.8232 73.6552 70.8232C62.7831 70.8232 53.968 72.7307 53.968 75.0864C53.968 77.4421 62.7831 79.3496 73.6552 79.3496C84.5272 79.3496 93.3424 77.4421 93.3424 75.0864Z" fill="#D9DADA"/>
<path opacity="0.1647" d="M93.2627 75.0802C93.2627 72.7345 84.4724 70.832 73.6303 70.832C62.7881 70.832 53.9978 72.7345 53.9978 75.0802C53.9978 77.426 62.7881 79.3285 73.6303 79.3285C84.4774 79.3334 93.2627 77.431 93.2627 75.0802Z" fill="#D9D9DA"/>
<path opacity="0.1676" d="M93.188 75.08C93.188 72.7392 84.4226 70.8467 73.6153 70.8467C62.8031 70.8467 54.0377 72.7392 54.0377 75.08C54.0377 77.4207 62.8031 79.3132 73.6153 79.3132C84.4226 79.3132 93.188 77.4157 93.188 75.08Z" fill="#D8D8D9"/>
<path opacity="0.1706" d="M93.1083 75.0748C93.1083 72.744 84.3678 70.8564 73.5904 70.8564C62.808 70.8564 54.0726 72.744 54.0726 75.0748C54.0726 77.4056 62.813 79.2931 73.5904 79.2931C84.3728 79.2931 93.1083 77.4056 93.1083 75.0748Z" fill="#D7D8D8"/>
<path opacity="0.1735" d="M93.0336 75.0696C93.0336 72.7488 84.318 70.8662 73.5705 70.8662C62.823 70.8662 54.1074 72.7488 54.1074 75.0696C54.1074 77.3904 62.823 79.273 73.5705 79.273C84.318 79.278 93.0336 77.3954 93.0336 75.0696Z" fill="#D6D7D7"/>
<path opacity="0.1765" d="M92.9539 75.0703C92.9539 72.7544 84.2632 70.8818 73.5456 70.8818C62.828 70.8818 54.1373 72.7544 54.1373 75.0703C54.1373 77.3861 62.828 79.2587 73.5456 79.2587C84.2682 79.2587 92.9539 77.3861 92.9539 75.0703Z" fill="#D6D6D7"/>
<path opacity="0.1794" d="M92.8792 75.0651C92.8792 72.7592 84.2134 70.8916 73.5307 70.8916C62.8429 70.8916 54.1821 72.7592 54.1821 75.0651C54.1821 77.371 62.8479 79.2386 73.5307 79.2386C84.2134 79.2436 92.8792 77.371 92.8792 75.0651Z" fill="#D5D5D6"/>
<path opacity="0.1824" d="M92.7995 75.0609C92.7995 72.765 84.1587 70.9023 73.5058 70.9023C62.8479 70.9023 54.212 72.765 54.212 75.0609C54.212 77.3568 62.8479 79.2195 73.5058 79.2195C84.1637 79.2245 92.7995 77.3618 92.7995 75.0609Z" fill="#D4D5D5"/>
<path opacity="0.1853" d="M92.7248 75.0606C92.7248 72.7697 84.1089 70.917 73.4859 70.917C62.8628 70.917 54.2469 72.7697 54.2469 75.0606C54.2469 77.3516 62.8579 79.2042 73.4859 79.2042C84.1089 79.2042 92.7248 77.3516 92.7248 75.0606Z" fill="#D3D4D4"/>
<path opacity="0.1882" d="M92.6451 75.0554C92.6451 72.7745 84.0591 70.9268 73.4609 70.9268C62.8628 70.9268 54.2817 72.7745 54.2817 75.0554C54.2817 77.3364 62.8678 79.1841 73.4659 79.1841C84.0641 79.1841 92.6451 77.3364 92.6451 75.0554Z" fill="#D3D3D4"/>
<path opacity="0.1912" d="M92.5704 75.0552C92.5704 72.7841 84.0093 70.9414 73.446 70.9414C62.8827 70.9414 54.3216 72.7841 54.3216 75.0552C54.3216 77.3262 62.8827 79.1689 73.446 79.1689C84.0093 79.1689 92.5704 77.3262 92.5704 75.0552Z" fill="#D2D2D3"/>
<path opacity="0.1941" d="M92.4907 75.0509C92.4907 72.7849 83.9545 70.9521 73.4211 70.9521C62.8877 70.9521 54.3515 72.7849 54.3515 75.0509C54.3515 77.317 62.8877 79.1498 73.4211 79.1498C83.9545 79.1498 92.4907 77.317 92.4907 75.0509Z" fill="#D1D2D2"/>
<path opacity="0.1971" d="M92.416 75.0458C92.416 72.7897 83.9047 70.9619 73.4012 70.9619C62.9027 70.9619 54.3863 72.7897 54.3863 75.0458C54.3863 77.3019 62.8977 79.1296 73.4012 79.1296C83.9047 79.1346 92.416 77.3019 92.416 75.0458Z" fill="#D0D1D1"/>
<path opacity="0.2" d="M92.3364 75.0455C92.3364 72.7994 83.8499 70.9766 73.3763 70.9766C62.9077 70.9766 54.4162 72.7994 54.4162 75.0455C54.4162 77.2916 62.9027 79.1144 73.3763 79.1144C83.8499 79.1144 92.3364 77.2916 92.3364 75.0455Z" fill="#D0D0D1"/>
<path opacity="0.2029" d="M92.2616 75.0403C92.2616 72.7992 83.8001 70.9863 73.3613 70.9863C62.9226 70.9863 54.461 72.7992 54.461 75.0403C54.461 77.2815 62.9226 79.0943 73.3613 79.0943C83.8001 79.0943 92.2616 77.2815 92.2616 75.0403Z" fill="#CFCFD0"/>
<path opacity="0.2059" d="M92.182 75.0351C92.182 72.8039 83.7453 70.9961 73.3364 70.9961C62.9276 70.9961 54.4909 72.8039 54.4909 75.0351C54.4909 77.2663 62.9276 79.0792 73.3364 79.0792C83.7453 79.0792 92.182 77.2713 92.182 75.0351Z" fill="#CECFCF"/>
<path opacity="0.2088" d="M92.1073 75.0358C92.1073 72.8146 83.6955 71.0117 73.3165 71.0117C62.9375 71.0117 54.5258 72.8146 54.5258 75.0358C54.5258 77.262 62.9375 79.0649 73.3165 79.0649C83.6955 79.0599 92.1073 77.257 92.1073 75.0358Z" fill="#CDCECE"/>
<path opacity="0.2118" d="M92.0276 75.0306C92.0276 72.8144 83.6407 71.0215 73.2966 71.0215C62.9525 71.0215 54.5606 72.8194 54.5606 75.0306C54.5606 77.2469 62.9475 79.0448 73.2966 79.0448C83.6407 79.0448 92.0276 77.2469 92.0276 75.0306Z" fill="#CDCDCE"/>
<path opacity="0.2147" d="M91.9529 75.0255C91.9529 72.8192 83.5909 71.0312 73.2767 71.0312C62.9624 71.0312 54.6005 72.8192 54.6005 75.0255C54.6005 77.2318 62.9624 79.0247 73.2767 79.0247C83.5909 79.0247 91.9529 77.2367 91.9529 75.0255Z" fill="#CCCCCD"/>
<path opacity="0.2176" d="M91.8732 75.0262C91.8732 72.8249 83.5361 71.0469 73.2518 71.0469C62.9674 71.0469 54.6303 72.8298 54.6303 75.0262C54.6303 77.2275 62.9674 79.0104 73.2518 79.0104C83.5361 79.0054 91.8732 77.2225 91.8732 75.0262Z" fill="#CBCCCC"/>
<path opacity="0.2206" d="M91.7985 75.021C91.7985 72.8296 83.4863 71.0566 73.2318 71.0566C62.9774 71.0566 54.6652 72.8346 54.6652 75.021C54.6652 77.2123 62.9774 78.9903 73.2318 78.9903C83.4863 78.9903 91.7985 77.2123 91.7985 75.021Z" fill="#CACBCB"/>
<path opacity="0.2235" d="M91.7188 75.0197C91.7188 72.8383 83.4315 71.0703 73.2119 71.0703C62.9923 71.0703 54.705 72.8383 54.705 75.0197C54.705 77.2011 62.9923 78.9741 73.2119 78.9741C83.4315 78.9741 91.7188 77.2011 91.7188 75.0197Z" fill="#C9CACB"/>
<path opacity="0.2265" d="M91.6441 75.0145C91.6441 72.8381 83.3817 71.0801 73.192 71.0801C63.0023 71.0801 54.7399 72.8431 54.7399 75.0145C54.7399 77.1909 63.0023 78.954 73.192 78.954C83.3817 78.949 91.6441 77.186 91.6441 75.0145Z" fill="#C9C9CA"/>
<path opacity="0.2294" d="M91.5644 75.0103C91.5644 72.8439 83.327 71.0908 73.1671 71.0908C63.0073 71.0908 54.7698 72.8489 54.7698 75.0103C54.7698 77.1768 63.0073 78.9348 73.1671 78.9348C83.3319 78.9348 91.5644 77.1768 91.5644 75.0103Z" fill="#C8C9C9"/>
<path opacity="0.2324" d="M91.4897 75.01C91.4897 72.8536 83.2772 71.1055 73.1472 71.1055C63.0172 71.1055 54.8047 72.8536 54.8047 75.01C54.8047 77.1665 63.0172 78.9196 73.1472 78.9196C83.2772 78.9146 91.4897 77.1665 91.4897 75.01Z" fill="#C7C8C8"/>
<path opacity="0.2353" d="M91.41 75.0049C91.41 72.8534 83.2224 71.1152 73.1273 71.1152C63.0272 71.1152 54.8445 72.8583 54.8445 75.0049C54.8445 77.1564 63.0322 78.8995 73.1273 78.8995C83.2274 78.8995 91.41 77.1564 91.41 75.0049Z" fill="#C6C7C8"/>
<path opacity="0.2382" d="M91.3353 75.0008C91.3353 72.8592 83.1726 71.1211 73.1073 71.1211C63.0421 71.1211 54.8794 72.8592 54.8794 75.0008C54.8794 77.1423 63.0421 78.8804 73.1073 78.8804C83.1726 78.8804 91.3353 77.1423 91.3353 75.0008Z" fill="#C6C6C7"/>
<path opacity="0.2412" d="M91.2556 75.0004C91.2556 72.8688 83.1178 71.1406 73.0824 71.1406C63.0471 71.1406 54.9093 72.8688 54.9093 75.0004C54.9093 77.132 63.0471 78.8651 73.0824 78.8651C83.1228 78.8601 91.2556 77.132 91.2556 75.0004Z" fill="#C5C5C6"/>
<path opacity="0.2441" d="M91.1809 74.9953C91.1809 72.8687 83.068 71.1455 73.0625 71.1455C63.0571 71.1455 54.9441 72.8687 54.9441 74.9953C54.9441 77.1219 63.0571 78.8451 73.0625 78.8451C83.068 78.8451 91.1809 77.1219 91.1809 74.9953Z" fill="#C4C5C5"/>
<path opacity="0.2471" d="M91.1012 74.9911C91.1012 72.8745 83.0132 71.1562 73.0426 71.1562C63.067 71.1562 54.9839 72.8745 54.9839 74.9911C54.9839 77.1077 63.072 78.8259 73.0426 78.8259C83.0182 78.8259 91.1012 77.1077 91.1012 74.9911Z" fill="#C3C4C4"/>
<path opacity="0.25" d="M91.0265 74.9908C91.0265 72.8841 82.9634 71.1709 73.0227 71.1709C63.082 71.1709 55.0188 72.8792 55.0188 74.9908C55.0188 77.1025 63.082 78.8107 73.0227 78.8107C82.9634 78.8107 91.0265 77.0975 91.0265 74.9908Z" fill="#C2C3C4"/>
<path opacity="0.2529" d="M90.9518 74.9866C90.9518 72.8849 82.9186 71.1816 73.0028 71.1816C63.0869 71.1816 55.0537 72.8849 55.0537 74.9866C55.0537 77.0883 63.0869 78.7916 73.0028 78.7916C82.9186 78.7916 90.9518 77.0883 90.9518 74.9866Z" fill="#C2C2C3"/>
<path opacity="0.2559" d="M90.8722 74.9805C90.8722 72.8887 82.8638 71.1904 72.9779 71.1904C63.0969 71.1904 55.0836 72.8887 55.0836 74.9805C55.0836 77.0722 63.0919 78.7705 72.9779 78.7705C82.8588 78.7705 90.8722 77.0722 90.8722 74.9805Z" fill="#C1C2C2"/>
<path opacity="0.2588" d="M90.7974 74.9802C90.7974 72.8984 82.814 71.2051 72.9629 71.2051C63.1118 71.2051 55.1284 72.8934 55.1284 74.9802C55.1284 77.0669 63.1118 78.7552 72.9629 78.7552C82.809 78.7552 90.7974 77.0619 90.7974 74.9802Z" fill="#C0C1C1"/>
<path opacity="0.2618" d="M90.7177 74.9769C90.7177 72.9001 82.7592 71.2168 72.938 71.2168C63.1168 71.2168 55.1583 72.9001 55.1583 74.9769C55.1583 77.0537 63.1168 78.7371 72.938 78.7371C82.7592 78.7371 90.7177 77.0537 90.7177 74.9769Z" fill="#BFC0C0"/>
<path opacity="0.2647" d="M90.643 74.9708C90.643 72.904 82.7094 71.2256 72.9181 71.2256C63.1318 71.2256 55.1931 72.899 55.1931 74.9708C55.1931 77.0376 63.1268 78.716 72.9181 78.716C82.7044 78.716 90.643 77.0426 90.643 74.9708Z" fill="#BEBFC0"/>
<path opacity="0.2676" d="M90.5634 74.9705C90.5634 72.9086 82.6546 71.2402 72.8982 71.2402C63.1417 71.2402 55.228 72.9086 55.228 74.9705C55.228 77.0323 63.1367 78.7008 72.8932 78.7008C82.6496 78.7008 90.5634 77.0274 90.5634 74.9705Z" fill="#BEBEBF"/>
<path opacity="0.2706" d="M90.4886 74.9653C90.4886 72.9134 82.6048 71.25 72.8782 71.25C63.1517 71.25 55.2678 72.9134 55.2678 74.9653C55.2678 77.0172 63.1517 78.6806 72.8782 78.6806C82.6048 78.6806 90.4886 77.0172 90.4886 74.9653Z" fill="#BDBEBE"/>
<path opacity="0.2735" d="M90.409 74.9611C90.409 72.9192 82.55 71.2607 72.8533 71.2607C63.1567 71.2607 55.2977 72.9142 55.2977 74.9611C55.2977 77.008 63.1567 78.6615 72.8533 78.6615C82.55 78.6615 90.409 77.008 90.409 74.9611Z" fill="#BCBDBD"/>
<path opacity="0.2765" d="M90.3343 74.9608C90.3343 72.9239 82.5002 71.2754 72.8334 71.2754C63.1666 71.2754 55.3326 72.9239 55.3326 74.9608C55.3326 76.9978 63.1666 78.6463 72.8334 78.6463C82.4952 78.6463 90.3343 76.9928 90.3343 74.9608Z" fill="#BBBCBC"/>
<path opacity="0.2794" d="M90.2546 74.9557C90.2546 72.9287 82.4454 71.2852 72.8135 71.2852C63.1816 71.2852 55.3724 72.9287 55.3724 74.9557C55.3724 76.9826 63.1816 78.6261 72.8135 78.6261C82.4454 78.6261 90.2546 76.9826 90.2546 74.9557Z" fill="#BABBBC"/>
<path opacity="0.2824" d="M90.1799 74.9563C90.1799 72.9393 82.3956 71.3008 72.7936 71.3008C63.1915 71.3008 55.4073 72.9393 55.4073 74.9563C55.4073 76.9734 63.1915 78.6119 72.7936 78.6119C82.3956 78.6119 90.1799 76.9734 90.1799 74.9563Z" fill="#BABABB"/>
<path opacity="0.2853" d="M90.1002 74.9512C90.1002 72.9391 82.3409 71.3105 72.7687 71.3105C63.1965 71.3105 55.4372 72.9391 55.4372 74.9512C55.4372 76.9632 63.1965 78.5918 72.7687 78.5918C82.3409 78.5918 90.1002 76.9632 90.1002 74.9512Z" fill="#B9BABA"/>
<path opacity="0.2882" d="M90.0255 74.946C90.0255 72.9439 82.291 71.3203 72.7488 71.3203C63.2065 71.3203 55.472 72.9439 55.472 74.946C55.472 76.9481 63.2065 78.5717 72.7488 78.5717C82.291 78.5717 90.0255 76.9481 90.0255 74.946Z" fill="#B8B9B9"/>
<path opacity="0.2912" d="M89.9458 74.9408C89.9458 72.9487 82.2363 71.3301 72.7288 71.3301C63.2214 71.3301 55.5119 72.9487 55.5119 74.9408C55.5119 76.9329 63.2214 78.5515 72.7288 78.5515C82.2363 78.5565 89.9458 76.9379 89.9458 74.9408Z" fill="#B7B8B8"/>
<path opacity="0.2941" d="M89.8711 74.9405C89.8711 72.9534 82.1865 71.3447 72.7089 71.3447C63.2314 71.3447 55.5467 72.9534 55.5467 74.9405C55.5467 76.9277 63.2314 78.5363 72.7089 78.5363C82.1865 78.5363 89.8711 76.9277 89.8711 74.9405Z" fill="#B6B7B8"/>
<path opacity="0.2971" d="M89.7914 74.9353C89.7914 72.9582 82.1317 71.3545 72.684 71.3545C63.2363 71.3545 55.5766 72.9582 55.5766 74.9353C55.5766 76.9125 63.2363 78.5162 72.684 78.5162C82.1317 78.5162 89.7914 76.9125 89.7914 74.9353Z" fill="#B6B6B7"/>
<path opacity="0.3" d="M89.7167 74.936C89.7167 72.9688 82.0819 71.3701 72.6641 71.3701C63.2463 71.3701 55.6115 72.9688 55.6115 74.936C55.6115 76.9033 63.2463 78.5019 72.6641 78.5019C82.0819 78.5019 89.7167 76.9033 89.7167 74.936Z" fill="#B5B5B6"/>
<path opacity="0.3029" d="M89.637 74.9308C89.637 72.9686 82.0271 71.3799 72.6442 71.3799C63.2563 71.3799 55.6513 72.9686 55.6513 74.9308C55.6513 76.8931 63.2613 78.4818 72.6442 78.4818C82.0271 78.4818 89.637 76.8931 89.637 74.9308Z" fill="#B4B5B5"/>
<path opacity="0.3059" d="M89.5623 74.9257C89.5623 72.9734 81.9773 71.3896 72.6242 71.3896C63.2712 71.3896 55.6862 72.9734 55.6862 74.9257C55.6862 76.878 63.2712 78.4617 72.6242 78.4617C81.9773 78.4617 89.5623 76.878 89.5623 74.9257Z" fill="#B3B4B4"/>
<path opacity="0.3088" d="M89.4826 74.9264C89.4826 72.984 81.9225 71.4053 72.5994 71.4053C63.2762 71.4053 55.7161 72.984 55.7161 74.9264C55.7161 76.8737 63.2762 78.4474 72.5994 78.4474C81.9225 78.4474 89.4826 76.8687 89.4826 74.9264Z" fill="#B2B3B4"/>
<path opacity="0.3118" d="M89.4079 74.9212C89.4079 72.9838 81.8727 71.415 72.5794 71.415C63.2862 71.415 55.7509 72.9838 55.7509 74.9212C55.7509 76.8585 63.2862 78.4273 72.5794 78.4273C81.8727 78.4273 89.4079 76.8585 89.4079 74.9212Z" fill="#B2B2B3"/>
<path opacity="0.3147" d="M89.3282 74.916C89.3282 72.9886 81.8179 71.4248 72.5595 71.4248C63.3011 71.4248 55.7908 72.9886 55.7908 74.916C55.7908 76.8434 63.3011 78.4072 72.5595 78.4072C81.8179 78.4072 89.3282 76.8484 89.3282 74.916Z" fill="#B1B1B2"/>
<path opacity="0.3176" d="M89.2535 74.9147C89.2535 72.9923 81.7681 71.4385 72.5396 71.4385C63.3111 71.4385 55.8256 72.9973 55.8256 74.9147C55.8256 76.8371 63.3111 78.391 72.5396 78.391C81.7681 78.391 89.2535 76.8322 89.2535 74.9147Z" fill="#B0B0B1"/>
<path opacity="0.3206" d="M89.1739 74.9105C89.1739 72.9981 81.7133 71.4492 72.5147 71.4492C63.316 71.4492 55.8555 72.9981 55.8555 74.9105C55.8555 76.823 63.316 78.3719 72.5147 78.3719C81.7183 78.3719 89.1739 76.823 89.1739 74.9105Z" fill="#AFB0B0"/>
<path opacity="0.3235" d="M89.0991 74.9063C89.0991 73.0039 81.6685 71.46 72.4997 71.46C63.331 71.46 55.9003 73.0039 55.9003 74.9063C55.9003 76.8088 63.331 78.3527 72.4997 78.3527C81.6635 78.3577 89.0991 76.8138 89.0991 74.9063Z" fill="#AEAFAF"/>
<path opacity="0.3265" d="M89.0195 74.9051C89.0195 73.0076 81.6137 71.4736 72.4748 71.4736C63.3359 71.4736 55.9302 73.0076 55.9302 74.9051C55.9302 76.8026 63.3359 78.3365 72.4748 78.3365C81.6137 78.3365 89.0195 76.7976 89.0195 74.9051Z" fill="#ADAEAF"/>
<path opacity="0.3294" d="M88.9448 74.9009C88.9448 73.0133 81.5639 71.4844 72.4549 71.4844C63.3459 71.4844 55.9651 73.0133 55.9651 74.9009C55.9651 76.7884 63.3459 78.3174 72.4549 78.3174C81.5639 78.3174 88.9448 76.7884 88.9448 74.9009Z" fill="#ADADAE"/>
<path opacity="0.3324" d="M88.8651 74.8957C88.8651 73.0181 81.5091 71.4941 72.43 71.4941C63.3559 71.4941 55.9949 73.0181 55.9949 74.8957C55.9949 76.7733 63.3509 78.2973 72.43 78.2973C81.5091 78.3022 88.8651 76.7783 88.8651 74.8957Z" fill="#ACACAD"/>
<path opacity="0.3353" d="M88.7904 74.8954C88.7904 73.0228 81.4593 71.5088 72.4151 71.5088C63.3708 71.5088 56.0398 73.0278 56.0398 74.8954C56.0398 76.768 63.3708 78.282 72.4151 78.282C81.4544 78.282 88.7904 76.763 88.7904 74.8954Z" fill="#ABABAC"/>
<path opacity="0.3382" d="M88.7107 74.8912C88.7107 73.0286 81.4045 71.5195 72.3902 71.5195C63.3758 71.5195 56.0697 73.0286 56.0697 74.8912C56.0697 76.7538 63.3758 78.2629 72.3902 78.2629C81.4045 78.2679 88.7107 76.7538 88.7107 74.8912Z" fill="#AAABAB"/>
<path opacity="0.3412" d="M88.636 74.8909C88.636 73.0382 81.3548 71.5342 72.3703 71.5342C63.3858 71.5342 56.1045 73.0382 56.1045 74.8909C56.1045 76.7436 63.3858 78.2477 72.3703 78.2477C81.3548 78.2477 88.636 76.7436 88.636 74.8909Z" fill="#A9AAAA"/>
<path opacity="0.3441" d="M88.5563 74.8857C88.5563 73.038 81.3 71.5439 72.3454 71.5439C63.3957 71.5439 56.1344 73.038 56.1344 74.8857C56.1344 76.7334 63.3907 78.2275 72.3454 78.2275C81.3 78.2275 88.5563 76.7334 88.5563 74.8857Z" fill="#A8A9A9"/>
<path opacity="0.3471" d="M88.4816 74.8815C88.4816 73.0438 81.2502 71.5547 72.3304 71.5547C63.4107 71.5547 56.1743 73.0438 56.1743 74.8815C56.1743 76.7193 63.4057 78.2084 72.3254 78.2084C81.2452 78.2084 88.4816 76.7193 88.4816 74.8815Z" fill="#A8A8A9"/>
<path opacity="0.35" d="M88.4019 74.8812C88.4019 73.0535 81.1954 71.5693 72.3055 71.5693C63.4156 71.5693 56.2091 73.0535 56.2091 74.8812C56.2091 76.709 63.4156 78.1932 72.3055 78.1932C81.1954 78.1932 88.4019 76.709 88.4019 74.8812Z" fill="#A7A7A8"/>
<path opacity="0.3529" d="M88.3272 74.8761C88.3272 73.0533 81.1456 71.5791 72.2856 71.5791C63.4256 71.5791 56.244 73.0533 56.244 74.8761C56.244 76.6989 63.4256 78.178 72.2856 78.178C81.1456 78.178 88.3272 76.6989 88.3272 74.8761Z" fill="#A6A6A7"/>
<path opacity="0.3559" d="M88.2475 74.8709C88.2475 73.0581 81.0908 71.5889 72.2607 71.5889C63.4306 71.5889 56.2739 73.0581 56.2739 74.8709C56.2739 76.6837 63.4306 78.1529 72.2607 78.1529C81.0908 78.1579 88.2475 76.6837 88.2475 74.8709Z" fill="#A5A5A6"/>
<path opacity="0.3588" d="M88.1728 74.8716C88.1728 73.0637 81.041 71.6045 72.2457 71.6045C63.4505 71.6045 56.3187 73.0687 56.3187 74.8716C56.3187 76.6745 63.4505 78.1437 72.2457 78.1437C81.041 78.1387 88.1728 76.6745 88.1728 74.8716Z" fill="#A4A5A5"/>
<path opacity="0.3618" d="M88.0931 74.8664C88.0931 73.0685 80.9862 71.6143 72.2208 71.6143C63.4555 71.6143 56.3486 73.0735 56.3486 74.8664C56.3486 76.6643 63.4555 78.1235 72.2208 78.1235C80.9862 78.1235 88.0931 76.6643 88.0931 74.8664Z" fill="#A3A4A4"/>
<path opacity="0.3647" d="M88.0184 74.8612C88.0184 73.0733 80.9364 71.624 72.2009 71.624C63.4654 71.624 56.3834 73.0733 56.3834 74.8612C56.3834 76.6492 63.4654 78.1034 72.2009 78.1034C80.9364 78.1034 88.0184 76.6541 88.0184 74.8612Z" fill="#A2A3A3"/>
<path opacity="0.3676" d="M87.9387 74.8619C87.9387 73.079 80.8816 71.6396 72.176 71.6396C63.4704 71.6396 56.4183 73.0839 56.4183 74.8619C56.4183 76.6449 63.4754 78.0892 72.176 78.0892C80.8816 78.0842 87.9387 76.6399 87.9387 74.8619Z" fill="#A1A2A2"/>
<path opacity="0.3706" d="M87.864 74.8567C87.864 73.0837 80.8318 71.6494 72.1611 71.6494C63.4903 71.6494 56.4581 73.0837 56.4581 74.8567C56.4581 76.6297 63.4903 78.069 72.1611 78.069C80.8318 78.069 87.864 76.6297 87.864 74.8567Z" fill="#A1A1A2"/>
<path opacity="0.3735" d="M87.7844 74.8516C87.7844 73.0885 80.777 71.6592 72.1362 71.6592C63.4953 71.6592 56.488 73.0885 56.488 74.8516C56.488 76.6146 63.4953 78.0489 72.1362 78.0489C80.782 78.0489 87.7844 76.6196 87.7844 74.8516Z" fill="#A0A0A1"/>
<path opacity="0.3765" d="M87.7096 74.8513C87.7096 73.0932 80.7272 71.6738 72.1163 71.6738C63.5053 71.6738 56.5229 73.0982 56.5229 74.8513C56.5229 76.6093 63.5053 78.0337 72.1163 78.0337C80.7272 78.0287 87.7096 76.6043 87.7096 74.8513Z" fill="#9F9FA0"/>
<path opacity="0.3794" d="M87.6299 74.8462C87.6299 73.0981 80.6724 71.6787 72.0963 71.6787C63.5152 71.6787 56.5627 73.0981 56.5627 74.8462C56.5627 76.5943 63.5202 78.0137 72.0963 78.0137C80.6774 78.0137 87.6299 76.5943 87.6299 74.8462Z" fill="#9E9E9F"/>
<path opacity="0.3824" d="M87.5552 74.841C87.5552 73.1029 80.6226 71.6885 72.0764 71.6885C63.5252 71.6885 56.5976 73.0979 56.5976 74.841C56.5976 76.5792 63.5302 77.9936 72.0764 77.9936C80.6226 77.9936 87.5552 76.5841 87.5552 74.841Z" fill="#9D9D9E"/>
<path opacity="0.3853" d="M87.4756 74.8406C87.4756 73.1075 80.5679 71.708 72.0515 71.708C63.5352 71.708 56.6275 73.1125 56.6275 74.8406C56.6275 76.5738 63.5352 77.9782 72.0515 77.9782C80.5679 77.9782 87.4756 76.5738 87.4756 74.8406Z" fill="#9C9D9D"/>
<path opacity="0.3882" d="M87.4009 74.8355C87.4009 73.1124 80.5181 71.7129 72.0316 71.7129C63.5451 71.7129 56.6623 73.1124 56.6623 74.8355C56.6623 76.5587 63.5451 77.9582 72.0316 77.9582C80.5181 77.9582 87.4009 76.5587 87.4009 74.8355Z" fill="#9B9C9C"/>
<path opacity="0.3912" d="M87.3212 74.8314C87.3212 73.1181 80.4683 71.7236 72.0117 71.7236C63.5551 71.7236 56.7022 73.1131 56.7022 74.8314C56.7022 76.5446 63.5601 77.9391 72.0117 77.9391C80.4683 77.9391 87.3212 76.5496 87.3212 74.8314Z" fill="#9A9B9B"/>
<path opacity="0.3941" d="M87.2465 74.8311C87.2465 73.1228 80.4185 71.7383 71.9917 71.7383C63.565 71.7383 56.737 73.1228 56.737 74.8311C56.737 76.5393 63.565 77.9238 71.9917 77.9238C80.4135 77.9238 87.2465 76.5393 87.2465 74.8311Z" fill="#9A9A9A"/>
<path opacity="0.3971" d="M87.1668 74.8259C87.1668 73.1276 80.3637 71.748 71.9668 71.748C63.575 71.748 56.7669 73.1276 56.7669 74.8259C56.7669 76.5242 63.57 77.9037 71.9668 77.9037C80.3637 77.9037 87.1668 76.5242 87.1668 74.8259Z" fill="#999999"/>
<path opacity="0.4" d="M87.0921 74.8266C87.0921 73.1382 80.3139 71.7637 71.9469 71.7637C63.585 71.7637 56.8018 73.1333 56.8018 74.8266C56.8018 76.5149 63.58 77.8895 71.9469 77.8895C80.3089 77.8845 87.0921 76.5149 87.0921 74.8266Z" fill="#989899"/>
<path opacity="0.4029" d="M87.0124 74.8214C87.0124 73.138 80.2591 71.7734 71.927 71.7734C63.5949 71.7734 56.8416 73.138 56.8416 74.8214C56.8416 76.5047 63.5949 77.8693 71.927 77.8693C80.2591 77.8693 87.0124 76.5047 87.0124 74.8214Z" fill="#979798"/>
<path opacity="0.4059" d="M86.9377 74.8162C86.9377 73.1428 80.2093 71.7832 71.9071 71.7832C63.6049 71.7832 56.8765 73.1428 56.8765 74.8162C56.8765 76.4896 63.6049 77.8492 71.9071 77.8492C80.2093 77.8492 86.9377 76.4896 86.9377 74.8162Z" fill="#969697"/>
<path opacity="0.4088" d="M86.858 74.8169C86.858 73.1535 80.1545 71.7988 71.8822 71.7988C63.6099 71.7988 56.9064 73.1485 56.9064 74.8169C56.9064 76.4853 63.6099 77.835 71.8822 77.835C80.1545 77.83 86.858 76.4803 86.858 74.8169Z" fill="#959596"/>
<path opacity="0.4118" d="M86.7833 74.8117C86.7833 73.1533 80.1047 71.8086 71.8623 71.8086C63.6248 71.8086 56.9412 73.1533 56.9412 74.8117C56.9412 76.4702 63.6198 77.8149 71.8623 77.8149C80.1047 77.8149 86.7833 76.4702 86.7833 74.8117Z" fill="#949595"/>
<path opacity="0.4147" d="M86.7036 74.8066C86.7036 73.1581 80.0499 71.8184 71.8423 71.8184C63.6348 71.8184 56.9811 73.1531 56.9811 74.8066C56.9811 76.46 63.6348 77.7947 71.8423 77.7947C80.0499 77.7947 86.7036 76.46 86.7036 74.8066Z" fill="#939494"/>
<path opacity="0.4176" d="M86.6289 74.8053C86.6289 73.1668 80.0001 71.832 71.8224 71.832C63.6447 71.832 57.0159 73.1618 57.0159 74.8053C57.0159 76.4488 63.6447 77.7785 71.8224 77.7785C80.0001 77.7785 86.6289 76.4438 86.6289 74.8053Z" fill="#939393"/>
<path opacity="0.4206" d="M86.5492 74.8011C86.5492 73.1675 79.9453 71.8428 71.7975 71.8428C63.6497 71.8428 57.0458 73.1675 57.0458 74.8011C57.0458 76.4346 63.6497 77.7594 71.7975 77.7594C79.9453 77.7594 86.5492 76.4346 86.5492 74.8011Z" fill="#929292"/>
<path opacity="0.4235" d="M86.4745 74.7959C86.4745 73.1723 79.8955 71.8525 71.7826 71.8525C63.6696 71.8525 57.0906 73.1723 57.0906 74.7959C57.0906 76.4195 63.6696 77.7393 71.7826 77.7393C79.8955 77.7393 86.4745 76.4245 86.4745 74.7959Z" fill="#919191"/>
<path opacity="0.4265" d="M86.3948 74.7956C86.3948 73.177 79.8407 71.8672 71.7577 71.8672C63.6746 71.8672 57.1205 73.177 57.1205 74.7956C57.1205 76.4142 63.6746 77.724 71.7577 77.724C79.8407 77.724 86.3948 76.4092 86.3948 74.7956Z" fill="#909090"/>
<path opacity="0.4294" d="M86.3201 74.7914C86.3201 73.1828 79.7909 71.8779 71.7378 71.8779C63.6846 71.8779 57.1554 73.1828 57.1554 74.7914C57.1554 76.4001 63.6846 77.7049 71.7378 77.7049C79.7909 77.7049 86.3201 76.4001 86.3201 74.7914Z" fill="#8F8F90"/>
<path opacity="0.4324" d="M86.2404 74.7862C86.2404 73.1876 79.7361 71.8877 71.7128 71.8877C63.6896 71.8877 57.1853 73.1876 57.1853 74.7862C57.1853 76.3849 63.6896 77.6848 71.7128 77.6848C79.7411 77.6848 86.2404 76.3899 86.2404 74.7862Z" fill="#8E8E8F"/>
<path opacity="0.4353" d="M86.1657 74.7859C86.1657 73.1922 79.6863 71.9023 71.6979 71.9023C63.7045 71.9023 57.2301 73.1922 57.2301 74.7859C57.2301 76.3797 63.7095 77.6696 71.6979 77.6696C79.6863 77.6696 86.1657 76.3747 86.1657 74.7859Z" fill="#8D8D8E"/>
<path opacity="0.4382" d="M86.086 74.7817C86.086 73.198 79.6315 71.9131 71.673 71.9131C63.7144 71.9131 57.2599 73.198 57.2599 74.7817C57.2599 76.3655 63.7144 77.6504 71.673 77.6504C79.6365 77.6504 86.086 76.3655 86.086 74.7817Z" fill="#8C8C8D"/>
<path opacity="0.4412" d="M86.0113 74.7766C86.0113 73.2028 79.5817 71.9229 71.6531 71.9229C63.7244 71.9229 57.2948 73.2028 57.2948 74.7766C57.2948 76.3504 63.7244 77.6303 71.6531 77.6303C79.5817 77.6353 86.0113 76.3553 86.0113 74.7766Z" fill="#8B8B8C"/>
<path opacity="0.4441" d="M85.9317 74.7763C85.9317 73.2075 79.527 71.9375 71.6282 71.9375C63.7294 71.9375 57.3247 73.2075 57.3247 74.7763C57.3247 76.3451 63.7294 77.6151 71.6282 77.6151C79.532 77.6151 85.9317 76.3451 85.9317 74.7763Z" fill="#8A8A8B"/>
<path opacity="0.4471" d="M85.8569 74.7711C85.8569 73.2123 79.4772 71.9473 71.6132 71.9473C63.7443 71.9473 57.3695 73.2123 57.3695 74.7711C57.3695 76.3299 63.7493 77.5949 71.6132 77.5949C79.4772 77.5949 85.8569 76.3299 85.8569 74.7711Z" fill="#8A8A8A"/>
<path opacity="0.45" d="M85.7773 74.7718C85.7773 73.2229 79.4224 71.9629 71.5883 71.9629C63.7543 71.9629 57.3994 73.2229 57.3994 74.7718C57.3994 76.3257 63.7543 77.5807 71.5883 77.5807C79.4274 77.5807 85.7773 76.3207 85.7773 74.7718Z" fill="#898989"/>
<path opacity="0.4529" d="M85.7026 74.7666C85.7026 73.2227 79.3726 71.9727 71.5684 71.9727C63.7643 71.9727 57.4343 73.2227 57.4343 74.7666C57.4343 76.3105 63.7643 77.5606 71.5684 77.5606C79.3726 77.5606 85.7026 76.3105 85.7026 74.7666Z" fill="#888888"/>
<path opacity="0.4559" d="M85.6229 74.7624C85.6229 73.2285 79.3178 71.9834 71.5435 71.9834C63.7692 71.9834 57.4642 73.2285 57.4642 74.7624C57.4642 76.2964 63.7692 77.5414 71.5435 77.5414C79.3228 77.5414 85.6229 76.2964 85.6229 74.7624Z" fill="#878787"/>
<path opacity="0.4588" d="M85.5482 74.7621C85.5482 73.2332 79.268 71.998 71.5286 71.998C63.7842 71.998 57.509 73.2381 57.509 74.7621C57.509 76.2861 63.7892 77.5262 71.5286 77.5262C79.268 77.5262 85.5482 76.2861 85.5482 74.7621Z" fill="#868686"/>
<path opacity="0.4618" d="M85.4685 74.757C85.4685 73.238 79.2182 72.0078 71.5037 72.0078C63.7892 72.0078 57.5389 73.238 57.5389 74.757C57.5389 76.2759 63.7941 77.5061 71.5037 77.5061C79.2182 77.5061 85.4685 76.2759 85.4685 74.757Z" fill="#858585"/>
<path opacity="0.4647" d="M85.3938 74.7518C85.3938 73.2427 79.1684 72.0176 71.4838 72.0176C63.8041 72.0176 57.5737 73.2427 57.5737 74.7518C57.5737 76.2608 63.7991 77.486 71.4838 77.486C79.1684 77.4909 85.3938 76.2658 85.3938 74.7518Z" fill="#848484"/>
<path opacity="0.4676" d="M85.3191 74.7515C85.3191 73.2474 79.1186 72.0322 71.4638 72.0322C63.8141 72.0322 57.6136 73.2524 57.6136 74.7515C57.6136 76.2555 63.8141 77.4707 71.4638 77.4707C79.1136 77.4707 85.3191 76.2506 85.3191 74.7515Z" fill="#838383"/>
<path opacity="0.4706" d="M85.2394 74.7463C85.2394 73.2522 79.0638 72.042 71.4439 72.042C63.824 72.042 57.6484 73.2522 57.6484 74.7463C57.6484 76.2404 63.824 77.4506 71.4439 77.4506C79.0638 77.4506 85.2394 76.2404 85.2394 74.7463Z" fill="#828282"/>
<path opacity="0.4735" d="M85.1647 74.7411C85.1647 73.257 79.014 72.0518 71.424 72.0518C63.834 72.0518 57.6833 73.257 57.6833 74.7411C57.6833 76.2253 63.834 77.4305 71.424 77.4305C79.009 77.4355 85.1647 76.2302 85.1647 74.7411Z" fill="#818182"/>
<path opacity="0.4765" d="M85.085 74.7418C85.085 73.2627 78.9592 72.0674 71.3991 72.0674C63.844 72.0674 57.7132 73.2676 57.7132 74.7418C57.7132 76.221 63.839 77.4162 71.3991 77.4162C78.9592 77.4162 85.085 76.216 85.085 74.7418Z" fill="#818081"/>
<path opacity="0.4794" d="M85.0103 74.7366C85.0103 73.2674 78.9094 72.0771 71.3792 72.0771C63.8539 72.0771 57.753 73.2674 57.753 74.7366C57.753 76.2058 63.8539 77.3961 71.3792 77.3961C78.9044 77.3961 85.0103 76.2058 85.0103 74.7366Z" fill="#807F80"/>
<path opacity="0.4824" d="M84.9306 74.7315C84.9306 73.2722 78.8546 72.0869 71.3592 72.0869C63.8639 72.0869 57.7879 73.2722 57.7879 74.7315C57.7879 76.1907 63.8639 77.376 71.3592 77.376C78.8546 77.381 84.9306 76.1957 84.9306 74.7315Z" fill="#7F7E7F"/>
<path opacity="0.4853" d="M71.3393 77.3608C78.8043 77.3608 84.8559 76.1835 84.8559 74.7312C84.8559 73.2789 78.8043 72.1016 71.3393 72.1016C63.8743 72.1016 57.8227 73.2789 57.8227 74.7312C57.8227 76.1835 63.8743 77.3608 71.3393 77.3608Z" fill="#7E7E7E"/>
<path opacity="0.4882" d="M84.7762 74.727C84.7762 73.2827 78.75 72.1123 71.3144 72.1123C63.8788 72.1123 57.8526 73.2827 57.8526 74.727C57.8526 76.1713 63.8788 77.3416 71.3144 77.3416C78.75 77.3466 84.7762 76.1713 84.7762 74.727Z" fill="#7D7D7D"/>
<path opacity="0.4912" d="M84.7015 74.7267C84.7015 73.2923 78.7002 72.127 71.2995 72.127C63.8987 72.127 57.8974 73.2923 57.8974 74.7267C57.8974 76.161 63.8987 77.3264 71.2995 77.3264C78.7002 77.3264 84.7015 76.161 84.7015 74.7267Z" fill="#7C7C7C"/>
<path opacity="0.4941" d="M84.6218 74.7225C84.6218 73.2931 78.6454 72.1377 71.2746 72.1377C63.9037 72.1377 57.9273 73.2981 57.9273 74.7225C57.9273 76.1518 63.9037 77.3073 71.2746 77.3073C78.6454 77.3073 84.6218 76.1518 84.6218 74.7225Z" fill="#7B7B7B"/>
<path opacity="0.4971" d="M84.5471 74.7173C84.5471 73.2979 78.5956 72.1475 71.2546 72.1475C63.9137 72.1475 57.9622 73.2979 57.9622 74.7173C57.9622 76.1367 63.9137 77.2872 71.2546 77.2872C78.5956 77.2921 84.5471 76.1367 84.5471 74.7173Z" fill="#7A7A7A"/>
<path opacity="0.5" d="M84.4675 74.716C84.4675 73.3066 78.5409 72.1611 71.2298 72.1611C63.9187 72.1611 57.9921 73.3066 57.9921 74.716C57.9921 76.1255 63.9187 77.2709 71.2298 77.2709C78.5409 77.2709 84.4675 76.1255 84.4675 74.716Z" fill="#797979"/>
<path opacity="0.5029" d="M84.3927 74.7118C84.3927 73.3074 78.4911 72.1719 71.2148 72.1719C63.9386 72.1719 58.0369 73.3124 58.0369 74.7118C58.0369 76.1163 63.9386 77.2518 71.2148 77.2518C78.4911 77.2518 84.3927 76.1163 84.3927 74.7118Z" fill="#787878"/>
<path opacity="0.5059" d="M84.3131 74.7057C84.3131 73.3112 78.4363 72.1807 71.1899 72.1807C63.9436 72.1807 58.0668 73.3112 58.0668 74.7057C58.0668 76.1002 63.9436 77.2357 71.1899 77.2357C78.4363 77.2357 84.3131 76.1002 84.3131 74.7057Z" fill="#787777"/>
<path opacity="0.5088" d="M84.2384 74.7064C84.2384 73.3169 78.3865 72.1963 71.17 72.1963C63.9535 72.1963 58.1016 73.3218 58.1016 74.7064C58.1016 76.0959 63.9535 77.2164 71.17 77.2164C78.3865 77.2164 84.2384 76.0909 84.2384 74.7064Z" fill="#777676"/>
<path opacity="0.5118" d="M84.1587 74.7012C84.1587 73.3216 78.3317 72.2061 71.1451 72.2061C63.9585 72.2061 58.1315 73.3266 58.1315 74.7012C58.1315 76.0758 63.9585 77.2013 71.1451 77.2013C78.3317 77.1963 84.1587 76.0807 84.1587 74.7012Z" fill="#767575"/>
<path opacity="0.5147" d="M84.084 74.6961C84.084 73.3265 78.2819 72.2109 71.1302 72.2109C63.9734 72.2109 58.1763 73.3215 58.1763 74.6961C58.1763 76.0657 63.9784 77.1813 71.1302 77.1813C78.2819 77.1813 84.084 76.0707 84.084 74.6961Z" fill="#757474"/>
<path opacity="0.5176" d="M84.0043 74.6958C84.0043 73.3312 78.2271 72.2256 71.1053 72.2256C63.9834 72.2256 58.2062 73.3312 58.2062 74.6958C58.2062 76.0604 63.9834 77.1661 71.1053 77.1661C78.2271 77.1611 84.0043 76.0555 84.0043 74.6958Z" fill="#747373"/>
<path opacity="0.5206" d="M83.9296 74.6915C83.9296 73.3369 78.1773 72.2412 71.0853 72.2412C63.9934 72.2412 58.2411 73.3419 58.2411 74.6915C58.2411 76.0462 63.9934 77.1468 71.0853 77.1468C78.1773 77.1468 83.9296 76.0462 83.9296 74.6915Z" fill="#737273"/>
<path opacity="0.5235" d="M83.8499 74.6865C83.8499 73.3418 78.1225 72.2461 71.0604 72.2461C63.9983 72.2461 58.2759 73.3368 58.2759 74.6865C58.2759 76.0311 64.0033 77.1268 71.0604 77.1268C78.1275 77.1268 83.8499 76.0361 83.8499 74.6865Z" fill="#727172"/>
<path opacity="0.5265" d="M83.7752 74.6862C83.7752 73.3465 78.0727 72.2607 71.0455 72.2607C64.0133 72.2607 58.3158 73.3465 58.3158 74.6862C58.3158 76.0259 64.0182 77.1116 71.0455 77.1116C78.0727 77.1066 83.7752 76.0209 83.7752 74.6862Z" fill="#717071"/>
<path opacity="0.5294" d="M83.6955 74.682C83.6955 73.3522 78.0229 72.2715 71.0206 72.2715C64.0233 72.2715 58.3457 73.3522 58.3457 74.682C58.3457 76.0117 64.0233 77.0924 71.0206 77.0924C78.0229 77.0924 83.6955 76.0117 83.6955 74.682Z" fill="#706F70"/>
<path opacity="0.5324" d="M83.6208 74.6768C83.6208 73.357 77.9731 72.2812 71.0007 72.2812C64.0332 72.2812 58.3805 73.352 58.3805 74.6768C58.3805 75.9966 64.0332 77.0723 71.0007 77.0723C77.9681 77.0723 83.6208 76.0015 83.6208 74.6768Z" fill="#6F6F6F"/>
<path opacity="0.5353" d="M83.5411 74.6765C83.5411 73.3617 77.9183 72.2959 70.9758 72.2959C64.0432 72.2959 58.4154 73.3617 58.4154 74.6765C58.4154 75.9913 64.0382 77.0571 70.9758 77.0571C77.9183 77.0521 83.5411 75.9863 83.5411 74.6765Z" fill="#6E6E6E"/>
<path opacity="0.5382" d="M83.4664 74.6713C83.4664 73.3665 77.8685 72.3057 70.9608 72.3057C64.0531 72.3057 58.4552 73.3665 58.4552 74.6713C58.4552 75.9762 64.0531 77.037 70.9608 77.037C77.8636 77.037 83.4664 75.9762 83.4664 74.6713Z" fill="#6D6D6D"/>
<path opacity="0.5412" d="M83.3867 74.6671C83.3867 73.3722 77.8137 72.3164 70.9359 72.3164C64.0581 72.3164 58.4851 73.3673 58.4851 74.6671C58.4851 75.962 64.0581 77.0178 70.9359 77.0178C77.8137 77.0178 83.3867 75.967 83.3867 74.6671Z" fill="#6C6C6C"/>
<path opacity="0.5441" d="M83.312 74.6668C83.312 73.3769 77.7639 72.3311 70.916 72.3311C64.073 72.3311 58.52 73.3769 58.52 74.6668C58.52 75.9567 64.0681 77.0026 70.916 77.0026C77.759 77.0026 83.312 75.9567 83.312 74.6668Z" fill="#6C6B6B"/>
<path opacity="0.5471" d="M83.2323 74.6626C83.2323 73.3827 77.7091 72.3418 70.8961 72.3418C64.083 72.3418 58.5598 73.3827 58.5598 74.6626C58.5598 75.9426 64.083 76.9835 70.8961 76.9835C77.7091 76.9835 83.2323 75.9426 83.2323 74.6626Z" fill="#6B6A6A"/>
<path opacity="0.55" d="M83.1576 74.6623C83.1576 73.3874 77.6593 72.3564 70.8761 72.3564C64.093 72.3564 58.5947 73.3874 58.5947 74.6623C58.5947 75.9323 64.093 76.9682 70.8761 76.9682C77.6593 76.9632 83.1576 75.9323 83.1576 74.6623Z" fill="#6A6969"/>
<path opacity="0.5529" d="M83.0779 74.6572C83.0779 73.3922 77.6046 72.3662 70.8512 72.3662C64.0979 72.3662 58.6246 73.3922 58.6246 74.6572C58.6246 75.9222 64.0979 76.9481 70.8512 76.9481C77.6046 76.9481 83.0779 75.9222 83.0779 74.6572Z" fill="#696868"/>
<path opacity="0.5559" d="M83.0032 74.653C83.0032 73.3979 77.5548 72.377 70.8313 72.377C64.1129 72.377 58.6594 73.3979 58.6594 74.653C58.6594 75.908 64.1079 76.929 70.8313 76.929C77.5548 76.929 83.0032 75.908 83.0032 74.653Z" fill="#686767"/>
<path opacity="0.5588" d="M82.9236 74.6517C82.9236 73.4016 77.5 72.3906 70.8114 72.3906C64.1228 72.3906 58.6993 73.4016 58.6993 74.6517C58.6993 75.8968 64.1228 76.9128 70.8114 76.9128C77.5 76.9078 82.9236 75.8968 82.9236 74.6517Z" fill="#676666"/>
<path opacity="0.5618" d="M82.8488 74.6475C82.8488 73.4074 77.4502 72.4014 70.7915 72.4014C64.1328 72.4014 58.7341 73.4074 58.7341 74.6475C58.7341 75.8876 64.1328 76.8936 70.7915 76.8936C77.4502 76.8936 82.8488 75.8876 82.8488 74.6475Z" fill="#666565"/>
<path opacity="0.5647" d="M82.7691 74.6423C82.7691 73.4122 77.3954 72.4111 70.7666 72.4111C64.1378 72.4111 58.764 73.4072 58.764 74.6423C58.764 75.8725 64.1378 76.8735 70.7666 76.8735C77.3954 76.8735 82.7691 75.8725 82.7691 74.6423Z" fill="#656464"/>
<path opacity="0.5676" d="M82.6944 74.642C82.6944 73.4169 77.3456 72.4258 70.7467 72.4258C64.1477 72.4258 58.7989 73.4169 58.7989 74.642C58.7989 75.8672 64.1477 76.8583 70.7467 76.8583C77.3456 76.8583 82.6944 75.8622 82.6944 74.642Z" fill="#646363"/>
<path opacity="0.5706" d="M82.6148 74.6369C82.6148 73.4217 77.2908 72.4355 70.7268 72.4355C64.1627 72.4355 58.8387 73.4217 58.8387 74.6369C58.8387 75.852 64.1627 76.8382 70.7268 76.8382C77.2908 76.8382 82.6148 75.852 82.6148 74.6369Z" fill="#636262"/>
<path opacity="0.5735" d="M82.5401 74.6317C82.5401 73.4264 77.241 72.4453 70.7068 72.4453C64.1727 72.4453 58.8736 73.4264 58.8736 74.6317C58.8736 75.8369 64.1727 76.818 70.7068 76.818C77.241 76.818 82.5401 75.8419 82.5401 74.6317Z" fill="#626161"/>
<path opacity="0.5765" d="M82.4604 74.6324C82.4604 73.4321 77.1862 72.4609 70.6819 72.4609C64.1776 72.4609 58.9035 73.4321 58.9035 74.6324C58.9035 75.8326 64.1776 76.8038 70.6819 76.8038C77.1862 76.8038 82.4604 75.8276 82.4604 74.6324Z" fill="#61605F"/>
<path opacity="0.5794" d="M82.3857 74.6272C82.3857 73.4369 77.1364 72.4707 70.662 72.4707C64.1876 72.4707 58.9433 73.4369 58.9433 74.6272C58.9433 75.8175 64.1926 76.7837 70.662 76.7837C77.1364 76.7837 82.3857 75.8175 82.3857 74.6272Z" fill="#605F5E"/>
<path opacity="0.5824" d="M82.306 74.622C82.306 73.4417 77.0816 72.4805 70.6421 72.4805C64.2025 72.4805 58.9782 73.4417 58.9782 74.622C58.9782 75.8023 64.2025 76.7635 70.6421 76.7635C77.0866 76.7635 82.306 75.8073 82.306 74.622Z" fill="#5F5D5D"/>
<path opacity="0.5853" d="M82.2313 74.6227C82.2313 73.4473 77.0318 72.4961 70.6222 72.4961C64.2125 72.4961 59.013 73.4473 59.013 74.6227C59.013 75.798 64.2125 76.7493 70.6222 76.7493C77.0318 76.7493 82.2313 75.7931 82.2313 74.6227Z" fill="#5E5C5C"/>
<path opacity="0.5882" d="M82.1516 74.6175C82.1516 73.4521 76.9771 72.5059 70.5973 72.5059C64.2175 72.5059 59.0429 73.4521 59.0429 74.6175C59.0429 75.7829 64.2175 76.7292 70.5973 76.7292C76.982 76.7292 82.1516 75.7829 82.1516 74.6175Z" fill="#5D5B5B"/>
<path opacity="0.5912" d="M82.0769 74.6123C82.0769 73.4519 76.9272 72.5156 70.5823 72.5156C64.2324 72.5156 59.0877 73.4569 59.0877 74.6123C59.0877 75.7678 64.2374 76.7091 70.5823 76.7091C76.9272 76.7091 82.0769 75.7728 82.0769 74.6123Z" fill="#5C5A5A"/>
<path opacity="0.5941" d="M81.9972 74.612C81.9972 73.4616 76.8725 72.5303 70.5574 72.5303C64.2374 72.5303 59.1176 73.4616 59.1176 74.612C59.1176 75.7625 64.2424 76.6938 70.5574 76.6938C76.8774 76.6938 81.9972 75.7625 81.9972 74.612Z" fill="#5B5959"/>
<path opacity="0.5971" d="M81.9225 74.6069C81.9225 73.4664 76.8276 72.54 70.5375 72.54C64.2523 72.54 59.1525 73.4664 59.1525 74.6069C59.1525 75.7474 64.2523 76.6737 70.5375 76.6737C76.8227 76.6737 81.9225 75.7474 81.9225 74.6069Z" fill="#5A5858"/>
<path opacity="0.6" d="M59.1873 74.6066C59.1873 75.7371 64.2623 76.6585 70.5176 76.6585C76.7729 76.6585 81.8478 75.7371 81.8478 74.6066C81.8478 73.4711 76.7778 72.5547 70.5176 72.5547C64.2623 72.5497 59.1873 73.4711 59.1873 74.6066Z" fill="#595757"/>
<path opacity="0.6038" d="M81.6436 74.5924C81.6436 73.4718 76.6284 72.5654 70.4429 72.5654C64.2573 72.5654 59.2421 73.4718 59.2421 74.5924C59.2421 75.708 64.2573 76.6194 70.4429 76.6194C76.6334 76.6194 81.6436 75.708 81.6436 74.5924Z" fill="#585656"/>
<path opacity="0.6077" d="M81.4444 74.5821C81.4444 73.4814 76.489 72.585 70.3731 72.585C64.2573 72.585 59.3019 73.4814 59.3019 74.5821C59.3019 75.6827 64.2573 76.5792 70.3731 76.5792C76.489 76.5792 81.4444 75.6827 81.4444 74.5821Z" fill="#575555"/>
<path opacity="0.6115" d="M81.2502 74.5669C81.2502 73.4812 76.3495 72.5947 70.3084 72.5947C64.2673 72.5947 59.3666 73.4762 59.3666 74.5669C59.3666 75.6526 64.2673 76.5391 70.3084 76.5391C76.3495 76.5391 81.2502 75.6576 81.2502 74.5669Z" fill="#565454"/>
<path opacity="0.6154" d="M81.0509 74.5566C81.0509 73.4858 76.2101 72.6143 70.2387 72.6143C64.2673 72.6143 59.4264 73.4858 59.4264 74.5566C59.4264 75.6274 64.2673 76.4989 70.2387 76.4989C76.2101 76.4989 81.0509 75.6274 81.0509 74.5566Z" fill="#555353"/>
<path opacity="0.6192" d="M80.8517 74.5414C80.8517 73.4856 76.0656 72.624 70.164 72.624C64.2623 72.624 59.4812 73.4806 59.4812 74.5414C59.4812 75.5973 64.2673 76.4589 70.164 76.4589C76.0656 76.4589 80.8517 75.6023 80.8517 74.5414Z" fill="#545252"/>
<path opacity="0.6231" d="M80.6525 74.533C80.6525 73.4922 75.9262 72.6455 70.0942 72.6455C64.2673 72.6455 59.536 73.4922 59.536 74.533C59.536 75.5739 64.2623 76.4206 70.0942 76.4206C75.9262 76.4206 80.6525 75.5739 80.6525 74.533Z" fill="#535150"/>
<path opacity="0.6269" d="M80.4533 74.5179C80.4533 73.492 75.7818 72.6553 70.0245 72.6553C64.2673 72.6553 59.5957 73.487 59.5957 74.5179C59.5957 75.5488 64.2673 76.3806 70.0245 76.3806C75.7818 76.3806 80.4533 75.5488 80.4533 74.5179Z" fill="#52504F"/>
<path opacity="0.6308" d="M80.2541 74.5076C80.2541 73.4966 75.6423 72.6748 69.9548 72.6748C64.2673 72.6748 59.6555 73.4966 59.6555 74.5076C59.6555 75.5186 64.2673 76.3403 69.9548 76.3403C75.6423 76.3403 80.2541 75.5186 80.2541 74.5076Z" fill="#514F4E"/>
<path opacity="0.6346" d="M80.0549 74.4924C80.0549 73.4964 75.5029 72.6846 69.8851 72.6846C64.2673 72.6846 59.7153 73.4964 59.7153 74.4924C59.7153 75.4885 64.2722 76.3003 69.8851 76.3003C75.5029 76.3003 80.0549 75.4935 80.0549 74.4924Z" fill="#504D4D"/>
<path opacity="0.6385" d="M79.8557 74.4831C79.8557 73.5019 75.3584 72.7051 69.8153 72.7051C64.2723 72.7051 59.775 73.5019 59.775 74.4831C59.775 75.4642 64.2723 76.261 69.8153 76.261C75.3584 76.261 79.8557 75.4642 79.8557 74.4831Z" fill="#4F4C4C"/>
<path opacity="0.6423" d="M79.6565 74.4728C79.6565 73.5066 75.219 72.7197 69.7406 72.7197C64.2673 72.7197 59.8298 73.5066 59.8298 74.4728C59.8298 75.439 64.2673 76.2259 69.7406 76.2259C75.219 76.2209 79.6565 75.439 79.6565 74.4728Z" fill="#4E4B4B"/>
<path opacity="0.6462" d="M79.4573 74.4585C79.4573 73.5073 75.0746 72.7354 69.6709 72.7354C64.2673 72.7354 59.8846 73.5073 59.8846 74.4585C59.8846 75.4098 64.2673 76.1817 69.6709 76.1817C75.0796 76.1817 79.4573 75.4098 79.4573 74.4585Z" fill="#4D4A4A"/>
<path opacity="0.65" d="M79.258 74.4483C79.258 73.512 74.9351 72.75 69.6012 72.75C64.2673 72.75 59.9444 73.512 59.9444 74.4483C59.9444 75.3846 64.2673 76.1466 69.6012 76.1466C74.9351 76.1416 79.258 75.3846 79.258 74.4483Z" fill="#4C4948"/>
<path opacity="0.6538" d="M79.0638 74.4331C79.0638 73.5117 74.7957 72.7646 69.5364 72.7646C64.2772 72.7646 60.0091 73.5117 60.0091 74.4331C60.0091 75.3544 64.2772 76.1015 69.5364 76.1015C74.7957 76.1015 79.0638 75.3544 79.0638 74.4331Z" fill="#4B4847"/>
<path opacity="0.6577" d="M78.8646 74.4238C78.8646 73.5174 74.6562 72.7803 69.4667 72.7803C64.2772 72.7803 60.0689 73.5174 60.0689 74.4238C60.0689 75.3302 64.2772 76.0673 69.4667 76.0673C74.6562 76.0623 78.8646 75.3302 78.8646 74.4238Z" fill="#4A4746"/>
<path opacity="0.6615" d="M78.6654 74.4076C78.6654 73.5161 74.5168 72.7939 69.392 72.7939C64.2722 72.7939 60.1236 73.5161 60.1236 74.4076C60.1236 75.299 64.2772 76.0212 69.392 76.0212C74.5118 76.0262 78.6654 75.299 78.6654 74.4076Z" fill="#494645"/>
<path opacity="0.6654" d="M78.4662 74.3983C78.4662 73.5218 74.3723 72.8096 69.3223 72.8096C64.2772 72.8096 60.1834 73.5218 60.1834 74.3983C60.1834 75.2748 64.2772 75.987 69.3223 75.987C74.3723 75.987 78.4662 75.2748 78.4662 74.3983Z" fill="#484444"/>
<path opacity="0.6692" d="M78.2669 74.3821C78.2669 73.5205 74.2329 72.8232 69.2526 72.8232C64.2772 72.8232 60.2382 73.5205 60.2382 74.3821C60.2382 75.2437 64.2722 75.9409 69.2526 75.9409C74.2329 75.9459 78.2669 75.2437 78.2669 74.3821Z" fill="#474343"/>
<path opacity="0.6731" d="M78.0677 74.3728C78.0677 73.5261 74.0885 72.8389 69.1829 72.8389C64.2772 72.8389 60.298 73.5261 60.298 74.3728C60.298 75.2195 64.2772 75.9067 69.1829 75.9067C74.0885 75.9067 78.0677 75.2195 78.0677 74.3728Z" fill="#464242"/>
<path opacity="0.6769" d="M77.8685 74.3585C77.8685 73.5268 73.949 72.8545 69.1131 72.8545C64.2772 72.8545 60.3577 73.5318 60.3577 74.3585C60.3577 75.1903 64.2772 75.8626 69.1131 75.8626C73.949 75.8676 77.8685 75.1903 77.8685 74.3585Z" fill="#454140"/>
<path opacity="0.6808" d="M77.6693 74.3473C77.6693 73.5305 73.8046 72.8682 69.0434 72.8682C64.2822 72.8682 60.4175 73.5305 60.4175 74.3473C60.4175 75.1641 64.2822 75.8265 69.0434 75.8265C73.8096 75.8265 77.6693 75.1641 77.6693 74.3473Z" fill="#44403F"/>
<path opacity="0.6846" d="M77.4701 74.3379C77.4701 73.5361 73.6651 72.8887 68.9687 72.8887C64.2772 72.8887 60.4723 73.5411 60.4723 74.3379C60.4723 75.1398 64.2772 75.7872 68.9687 75.7872C73.6651 75.7872 77.4701 75.1348 77.4701 74.3379Z" fill="#433F3E"/>
<path opacity="0.6885" d="M77.2709 74.3228C77.2709 73.5359 73.5207 72.8984 68.899 72.8984C64.2772 72.8984 60.532 73.5359 60.532 74.3228C60.532 75.1097 64.2822 75.7472 68.899 75.7472C73.5257 75.7472 77.2709 75.1097 77.2709 74.3228Z" fill="#423E3D"/>
<path opacity="0.6923" d="M77.0717 74.3134C77.0717 73.5415 73.3813 72.9189 68.8293 72.9189C64.2772 72.9189 60.5868 73.5465 60.5868 74.3134C60.5868 75.0854 64.2772 75.7079 68.8293 75.7079C73.3862 75.7079 77.0717 75.0804 77.0717 74.3134Z" fill="#413D3C"/>
<path opacity="0.6962" d="M76.8774 74.2983C76.8774 73.5413 73.2468 72.9287 68.7645 72.9287C64.2872 72.9287 60.6516 73.5413 60.6516 74.2983C60.6516 75.0553 64.2822 75.6679 68.7645 75.6679C73.2418 75.6679 76.8774 75.0553 76.8774 74.2983Z" fill="#3F3B3B"/>
<path opacity="0.7" d="M76.6782 74.2879C76.6782 73.5459 73.1024 72.9482 68.6948 72.9482C64.2872 72.9482 60.7113 73.5509 60.7113 74.2879C60.7113 75.03 64.2872 75.6277 68.6948 75.6277C73.1024 75.6277 76.6782 75.025 76.6782 74.2879Z" fill="#3E3A39"/>
<path opacity="0.7038" d="M76.479 74.2738C76.479 73.5467 72.9629 72.959 68.6251 72.959C64.2872 72.959 60.7711 73.5467 60.7711 74.2738C60.7711 75.0009 64.2872 75.5886 68.6251 75.5886C72.9629 75.5886 76.479 75.0009 76.479 74.2738Z" fill="#3D3938"/>
<path opacity="0.7077" d="M76.2798 74.2634C76.2798 73.5513 72.8185 72.9785 68.5503 72.9785C64.2822 72.9785 60.8259 73.5562 60.8259 74.2634C60.8259 74.9756 64.2872 75.5484 68.5503 75.5484C72.8185 75.5484 76.2798 74.9756 76.2798 74.2634Z" fill="#3B3736"/>
<path opacity="0.7115" d="M76.0806 74.2483C76.0806 73.5511 72.679 72.9883 68.4806 72.9883C64.2872 72.9883 60.8856 73.5511 60.8856 74.2483C60.8856 74.9455 64.2872 75.5083 68.4806 75.5083C72.679 75.5083 76.0806 74.9455 76.0806 74.2483Z" fill="#393534"/>
<path opacity="0.7154" d="M75.8814 74.238C75.8814 73.5606 72.5346 73.0078 68.4109 73.0078C64.2872 73.0078 60.9404 73.5606 60.9404 74.238C60.9404 74.9203 64.2872 75.4681 68.4109 75.4681C72.5346 75.4681 75.8814 74.9203 75.8814 74.238Z" fill="#363332"/>
<path opacity="0.7192" d="M75.6822 74.2238C75.6822 73.5614 72.3952 73.0186 68.3412 73.0186C64.2872 73.0186 61.0002 73.5564 61.0002 74.2238C61.0002 74.8912 64.2872 75.429 68.3412 75.429C72.3952 75.429 75.6822 74.8912 75.6822 74.2238Z" fill="#343030"/>
<path opacity="0.7231" d="M75.483 74.2134C75.483 73.566 72.2557 73.0381 68.2715 73.0381C64.2872 73.0381 61.06 73.566 61.06 74.2134C61.06 74.8659 64.2872 75.3888 68.2715 75.3888C72.2557 75.3888 75.483 74.8659 75.483 74.2134Z" fill="#312E2D"/>
<path opacity="0.7269" d="M75.2837 74.2032C75.2837 73.5707 72.1113 73.0527 68.2017 73.0527C64.2922 73.0527 61.1197 73.5707 61.1197 74.2032C61.1197 74.8407 64.2922 75.3536 68.2017 75.3536C72.1113 75.3536 75.2837 74.8357 75.2837 74.2032Z" fill="#2F2C2B"/>
<path opacity="0.7308" d="M75.0845 74.1889C75.0845 73.5714 71.9718 73.0684 68.127 73.0684C64.2872 73.0684 61.1745 73.5714 61.1745 74.1889C61.1745 74.8115 64.2872 75.3095 68.127 75.3095C71.9718 75.3145 75.0845 74.8115 75.0845 74.1889Z" fill="#2C2929"/>
<path opacity="0.7346" d="M74.8853 74.1787C74.8853 73.5761 71.8274 73.083 68.0573 73.083C64.2872 73.083 61.2343 73.5761 61.2343 74.1787C61.2343 74.7863 64.2922 75.2743 68.0573 75.2743C71.8324 75.2743 74.8853 74.7813 74.8853 74.1787Z" fill="#292726"/>
<path opacity="0.7385" d="M74.6911 74.1644C74.6911 73.5767 71.6929 73.0986 67.9926 73.0986C64.2972 73.0986 61.294 73.5767 61.294 74.1644C61.294 74.7571 64.2922 75.2302 67.9926 75.2302C71.688 75.2352 74.6911 74.7571 74.6911 74.1644Z" fill="#272524"/>
<path opacity="0.7423" d="M74.4919 74.1542C74.4919 73.5814 71.5485 73.1133 67.9228 73.1133C64.2972 73.1133 61.3538 73.5814 61.3538 74.1542C61.3538 74.7269 64.2972 75.1951 67.9228 75.1951C71.5485 75.1951 74.4919 74.7269 74.4919 74.1542Z" fill="#242222"/>
<path opacity="0.7462" d="M74.2926 74.139C74.2926 73.5812 71.409 73.123 67.8531 73.123C64.2971 73.123 61.4135 73.5763 61.4135 74.139C61.4135 74.6968 64.2971 75.15 67.8531 75.15C71.409 75.155 74.2926 74.7018 74.2926 74.139Z" fill="#22201F"/>
<path opacity="0.75" d="M74.0934 74.1287C74.0934 73.5858 71.2696 73.1426 67.7784 73.1426C64.2922 73.1426 61.4683 73.5858 61.4683 74.1287C61.4683 74.6715 64.2922 75.1148 67.7784 75.1148C71.2646 75.1148 74.0934 74.6715 74.0934 74.1287Z" fill="#1F1E1D"/>
<path opacity="0.7538" d="M73.8942 74.1144C73.8942 73.5865 71.1252 73.1582 67.7087 73.1582C64.2972 73.1582 61.5281 73.5865 61.5281 74.1144C61.5281 74.6423 64.2972 75.0756 67.7087 75.0756C71.1252 75.0756 73.8942 74.6473 73.8942 74.1144Z" fill="#1D1B1B"/>
<path opacity="0.7577" d="M73.695 74.1051C73.695 73.5922 70.9857 73.1738 67.6389 73.1738C64.2972 73.1738 61.5879 73.5922 61.5879 74.1051C61.5879 74.6181 64.2972 75.0365 67.6389 75.0365C70.9857 75.0365 73.695 74.6181 73.695 74.1051Z" fill="#1B1919"/>
<path opacity="0.7615" d="M73.4958 74.0889C73.4958 73.5909 70.8413 73.1875 67.5692 73.1875C64.2972 73.1875 61.6427 73.5909 61.6427 74.0889C61.6427 74.587 64.2972 74.9954 67.5692 74.9954C70.8413 74.9954 73.4958 74.5919 73.4958 74.0889Z" fill="#181717"/>
<path opacity="0.7654" d="M73.2966 74.0797C73.2966 73.5966 70.7018 73.2031 67.4995 73.2031C64.2972 73.2031 61.7024 73.5966 61.7024 74.0797C61.7024 74.5628 64.2972 74.9562 67.4995 74.9562C70.7018 74.9562 73.2966 74.5628 73.2966 74.0797Z" fill="#161514"/>
<path opacity="0.7692" d="M73.0974 74.0694C73.0974 73.6013 70.5574 73.2178 67.4298 73.2178C64.3022 73.2178 61.7622 73.6013 61.7622 74.0694C61.7622 74.5376 64.3022 74.921 67.4298 74.921C70.5624 74.9161 73.0974 74.5376 73.0974 74.0694Z" fill="#131212"/>
<path opacity="0.7731" d="M72.8982 74.0542C72.8982 73.601 70.418 73.2324 67.3551 73.2324C64.2972 73.2324 61.817 73.601 61.817 74.0542C61.817 74.5074 64.2972 74.8759 67.3551 74.8759C70.418 74.8759 72.8982 74.5074 72.8982 74.0542Z" fill="#111010"/>
<path opacity="0.7769" d="M72.699 74.0449C72.699 73.6066 70.2785 73.248 67.2854 73.248C64.2972 73.248 61.8767 73.6066 61.8767 74.0449C61.8767 74.4832 64.3021 74.8417 67.2854 74.8417C70.2785 74.8368 72.699 74.4832 72.699 74.0449Z" fill="#0E0D0D"/>
<path opacity="0.7808" d="M72.5047 74.0287C72.5047 73.6054 70.1391 73.2617 67.2206 73.2617C64.3021 73.2617 61.9415 73.6054 61.9415 74.0287C61.9415 74.452 64.3071 74.7957 67.2206 74.7957C70.1391 74.7957 72.5047 74.452 72.5047 74.0287Z" fill="#0C0B0B"/>
<path opacity="0.7846" d="M72.3055 74.0193C72.3055 73.6109 69.9996 73.2822 67.1509 73.2822C64.3071 73.2822 61.9962 73.6159 61.9962 74.0193C61.9962 74.4277 64.3021 74.7614 67.1509 74.7614C69.9946 74.7564 72.3055 74.4277 72.3055 74.0193Z" fill="#090808"/>
<path opacity="0.7885" d="M72.1063 74.0042C72.1063 73.6107 69.8552 73.292 67.0812 73.292C64.3071 73.292 62.056 73.6107 62.056 74.0042C62.056 74.3976 64.3071 74.7164 67.0812 74.7164C69.8552 74.7164 72.1063 74.3976 72.1063 74.0042Z" fill="#060606"/>
<path opacity="0.7923" d="M71.9071 73.9939C71.9071 73.6154 69.7158 73.3066 67.0065 73.3066C64.3022 73.3066 62.1108 73.6154 62.1108 73.9939C62.1108 74.3724 64.3022 74.6812 67.0065 74.6812C69.7158 74.6812 71.9071 74.3724 71.9071 73.9939Z" fill="#040404"/>
<path opacity="0.7962" d="M71.7079 73.9787C71.7079 73.6151 69.5713 73.3213 66.9367 73.3213C64.3071 73.3213 62.1706 73.6151 62.1706 73.9787C62.1706 74.3423 64.3071 74.6361 66.9367 74.6361C69.5713 74.6411 71.7079 74.3472 71.7079 73.9787Z" fill="#020202"/>
<path opacity="0.8" d="M62.2303 73.9694C62.2303 74.318 64.3071 74.6019 66.867 74.6019C69.4319 74.6019 71.5087 74.318 71.5087 73.9694C71.5087 73.6208 69.4319 73.3369 66.867 73.3369C64.3071 73.3369 62.2303 73.6208 62.2303 73.9694Z" fill="black"/>
<path d="M87.2913 42.2152C87.2913 42.2152 89.4129 47.4993 86.1657 48.2464C83.5012 48.8589 79.2281 46.9017 76.9671 43.6446C75.1592 41.0398 74.4968 36.5675 77.9332 36.5127C78.7699 36.4978 79.3576 36.6123 79.9353 36.7867C81.3149 37.2299 83.1128 38.0915 84.6318 39.1473C84.6318 39.1473 81.9623 34.8294 76.7728 32.7078C76.0507 31.7516 74.0088 29.4257 71.409 29.4855C71.409 29.4855 71.1251 29.9088 70.7915 30.6758C70.3432 30.6509 69.8601 30.6708 69.2874 30.8252C68.3212 31.0792 67.2505 31.8362 66.7823 33.3951C66.3889 34.7049 66.618 37.2498 67.111 38.6095C67.111 38.6095 67.7983 36.3334 69.6858 35.7806C69.5364 39.4212 70.408 44.3169 73.8643 48.0173C79.253 53.7845 87.2763 53.6699 88.8352 49.8998C90.1749 46.6676 87.2913 42.2152 87.2913 42.2152Z" fill="#E85298"/>
<path d="M89.9707 52.0366C87.2514 59.6166 74.6064 55.1642 70.0843 50.901C66.2395 47.2754 63.7493 44.3718 62.9425 38.1913C62.1556 32.1352 65.358 30.3971 65.358 30.3672C65.358 30.3672 60.1834 31.9609 59.6754 38.4104C59.277 43.4057 61.0699 49.5613 66.3341 54.711C69.5215 57.8287 74.4968 60.518 79.9752 61.0509C74.6911 61.9972 67.4895 60.4334 63.326 57.3356C58.9632 54.0934 56.0896 50.3532 54.9242 43.824C53.4948 35.8306 56.8814 32.7478 56.8864 32.7179C56.8864 32.7179 51.4429 36.1195 51.1989 44.0282C51.0395 49.3422 52.4888 55.7818 58.7491 61.4095C61.6127 63.9843 66.5682 66.863 72.5645 67.6349C70.5076 67.9636 68.3163 67.9835 66.0353 67.6499C58.8985 66.604 52.5635 62.1615 49.2466 56.3396C46.4278 51.3941 46.2485 48.1021 46.2385 48.1818C44.4705 60.2292 52.8075 71.4249 64.8549 73.188C76.6334 74.9112 87.5951 66.9825 89.7267 55.3734C90.15 53.5705 89.9707 52.0366 89.9707 52.0366Z" fill="#6B1685"/>
<path d="M50.7855 87.0975H45.088V85.6582H43.4744V87.0975H37V88.7111H51.5674L50.7855 87.0975ZM49.157 91.0818V88.7659L43.7284 93.2233L39.0569 88.7659V91.0668L42.4385 94.2791L37.9662 97.9496V100.231L46.1986 93.5022V95.7832L50.8752 100.226V97.9447L46.2086 93.4922L49.157 91.0818Z" fill="black"/>
<path d="M80.025 92.849L76.1951 90.1696V91.9924L80.025 94.6618V92.849ZM68.9537 99.0047L71.414 95.5234V93.1428L68.9537 96.639V99.0047ZM82.4355 96.1211V85.6475H80.8368V88.8L77.3356 86.3497V88.1675L80.8368 90.6128V96.1261H75.3684V97.5405H80.8318V100.2H82.4305V97.5405H83.2124L82.4355 96.1211ZM73.5406 91.584H75.3534V90.1696H73.5406V87.7641H75.3534L74.5765 86.3497H69.0882V87.7641H71.9369V90.1696H69.0882V91.584H71.9369V100.195H73.5356V94.358L75.3634 95.633V93.8251L73.5356 92.5452V91.584H73.5406Z" fill="black"/>
<path d="M90.2098 90.41L89.4328 88.9956H88.4168V85.6488H86.8182V88.9956H84.582V90.41H86.8182V95.0816L84.582 96.1424V97.8506L86.8182 96.7898V100.196H88.4168V96.0278L90.16 95.2011V93.4928L88.4168 94.3196V90.41H90.2098ZM98.6016 93.2239V92.7308V91.3164H95.723V89.3293H99L98.2231 87.9149H95.723V85.5791H94.1243V87.9149H90.8472V89.3293H94.1243V91.3164H90.8472V92.3623V92.7308V94.4341L93.0187 96.232L90.6032 98.3636V100.241L95.7678 95.7091V97.746L98.7759 100.236V98.1943L95.7778 95.6991L98.6016 93.2239ZM94.2239 95.1712L91.2905 92.7308H96.993L94.2239 95.1712Z" fill="black"/>
<path d="M62.061 87.1075H60.4673L60.0639 85.6582H58.5598L58.9632 87.1075H57.4841V88.3526H62.061V87.1075ZM55.5915 92.1774H54.3813V87.73H55.5816L54.8046 86.4849H53.0117V98.8212H55.5866L54.8096 97.5761H54.3813V93.4175H55.5915V98.8212H56.9661V86.4849H55.5915V92.1774ZM65.7514 87.1075L66.1548 85.6582H64.6507L64.2473 87.1075H62.6536V88.3526H67.2256V87.1075H65.7514ZM67.2256 90.4891L66.4486 89.244H57.4841V90.4891H61.6028V92.1774H60.273L60.5669 91.1316H59.0628L58.769 92.1774H57.4841V93.4225H58.4253L57.9522 95.1109H57.4841V96.3559H61.6028V97.5811H57.4841V98.8262H61.6028V100.201H63.1068V98.8262H67.2256L66.4486 97.5811H63.1118V96.3559H67.2305V95.1109H66.7624L66.2893 93.4225H67.2256V92.1774H65.9406L65.6468 91.1316H64.1427L64.4366 92.1774H63.1068V90.4891H67.2256ZM61.6028 95.1059H59.4563L59.9294 93.4175H61.6028V95.1059ZM64.7852 93.4175L65.2534 95.1059H63.1068V93.4175H64.7852Z" fill="black"/>
</svg>
