<svg width="16" height="13" viewBox="0 0 16 13" fill="none" xmlns="http://www.w3.org/2000/svg">
<g id="Group 313">
<g id="Group 322">
<path id="Arrow 3" d="M7.64645 8.96225C7.84171 9.15751 8.15829 9.15751 8.35355 8.96225L11.5355 5.78027C11.7308 5.58501 11.7308 5.26842 11.5355 5.07316C11.3403 4.8779 11.0237 4.8779 10.8284 5.07316L8 7.90159L5.17157 5.07316C4.97631 4.8779 4.65973 4.8779 4.46447 5.07316C4.2692 5.26842 4.2692 5.58501 4.46447 5.78027L7.64645 8.96225ZM7.5 -2.18557e-08L7.5 8.6087L8.5 8.6087L8.5 2.18557e-08L7.5 -2.18557e-08Z" fill="#6A747B"/>
<path id="Vector 34" d="M1 9V12H15V9" stroke="#6A747B"/>
</g>
</g>
</svg>
