<svg width="341" height="96" viewBox="0 0 341 96" fill="none" xmlns="http://www.w3.org/2000/svg">
<path d="M97.2915 53.7555C97.2915 42.7187 104.708 35.4023 115.297 35.4023C119.178 35.4023 123.001 36.2845 125.476 37.6462L121.414 45.6721C120.057 44.905 118.117 44.3105 116.005 44.3105C110.471 44.3105 106.533 48.4433 106.533 53.8706C106.533 59.3555 110.471 63.6705 116.062 63.6705C118.117 63.6705 120.067 63.076 121.414 62.3089L125.476 70.3348C122.829 71.8115 118.948 72.5786 115.297 72.5786C105.645 72.5882 97.2915 65.502 97.2915 53.7555Z" fill="#040000"/>
<path d="M125.345 53.8802C125.345 43.0159 132.991 35.4023 144.049 35.4023C155.107 35.4023 162.753 43.0159 162.753 53.8802C162.753 65.1568 154.046 72.5882 144.049 72.5882C134.052 72.5882 125.345 65.1472 125.345 53.8802ZM153.52 53.8802C153.52 48.5104 149.583 44.32 144.049 44.32C138.515 44.32 134.578 48.5104 134.578 53.8802C134.578 59.3651 138.515 63.6801 144.049 63.6801C149.583 63.6705 153.52 59.3651 153.52 53.8802Z" fill="#040000"/>
<path d="M167.089 35.998H178.682L186.863 58.8964L194.394 35.998H205.987L206.809 72.0044H198.16L197.806 50.0458L190.218 72.0044H182.868L175.28 50.0458L174.926 72.0044H166.277L167.089 35.998Z" fill="#040000"/>
<path d="M212.649 35.998H225.982C236.399 35.998 238.98 42.8254 238.98 50.0842C238.98 57.343 236.065 64.736 225.475 64.736H221.586V71.9948H212.64V35.998H212.649ZM221.586 56.0005H225.122C229.184 56.0005 229.738 53.4019 229.738 50.3335C229.738 47.265 229.117 44.724 225.122 44.724H221.586V56.0005Z" fill="#040000"/>
<path d="M261.391 66.6059H248.049L246.128 72.0044H236.953L250.658 35.998H259.011L272.716 72.0044H263.359L261.391 66.6059ZM254.548 47.5048L250.639 59.1073H258.686L254.548 47.5048Z" fill="#040000"/>
<path d="M274.744 35.998H282.036L296.563 56.3649V35.998H304.916V72.0044H297.681L283.087 51.6376V72.0044H274.734V35.998H274.744Z" fill="#040000"/>
<path d="M318.976 61.0827L306.743 35.998H316.74L323.678 51.1677L330.388 35.998H340.098L327.922 60.9676V72.0044H318.976V61.0827Z" fill="#040000"/>
<path d="M99.2805 35.998H88.5859L76.0276 50.5157V50.5061V35.998H67.0342V71.9948H76.0276V57.4964V57.4772L88.5859 71.9948H99.2805L85.2217 53.9773L99.2805 35.998Z" fill="#040000"/>
<path d="M64.4541 35.998H53.75L41.1917 50.5157V50.5061V35.998H32.1982V71.9948H41.1917V57.4964V57.4772L53.75 71.9948H64.4541L50.3858 53.9773L64.4541 35.998Z" fill="#040000"/>
</svg>
