<svg width="100" height="35" viewBox="0 0 100 35" fill="none" xmlns="http://www.w3.org/2000/svg">
<g id="Group 515">
<g id="Group 431">
<path id="Vector" d="M97.7845 8.04557C97.9687 8.0473 98.1515 8.01214 98.3222 7.94213C98.4929 7.87211 98.6482 7.76862 98.7791 7.63763C98.91 7.50664 99.0139 7.35076 99.0848 7.17898C99.1557 7.00721 99.1922 6.82294 99.1922 6.63683V1.38689C99.1854 1.01516 99.0338 0.661122 98.7703 0.401519C98.5068 0.141916 98.1526 -0.0023375 97.7845 2.86553e-05H77.2748C76.9048 2.86553e-05 76.5501 0.148448 76.2885 0.412637C76.027 0.676826 75.88 1.03514 75.88 1.40876V1.43939V33.5647V33.5866C75.8794 33.7719 75.9151 33.9556 75.9849 34.127C76.0548 34.2984 76.1574 34.4542 76.287 34.5855C76.4166 34.7168 76.5705 34.8209 76.74 34.892C76.9095 34.9631 77.0912 34.9997 77.2748 34.9997H97.7845C98.1544 34.9997 98.5091 34.8512 98.7707 34.5871C99.0323 34.3229 99.1792 33.9645 99.1792 33.5909V28.341C99.1781 27.9677 99.0308 27.6101 98.7694 27.3461C98.5081 27.0822 98.154 26.9334 97.7845 26.9322H83.8457V21.5204H97.7845C97.9676 21.5222 98.1493 21.4874 98.3192 21.4182C98.4891 21.349 98.6438 21.2467 98.7745 21.1171C98.9052 20.9875 99.0094 20.8332 99.0811 20.6629C99.1528 20.4927 99.1905 20.3098 99.1922 20.1248V14.8749C99.1911 14.5016 99.0438 14.144 98.7824 13.88C98.5211 13.6161 98.167 13.4673 97.7975 13.4661H83.8457V8.04557H97.7845Z" fill="#06C755"/>
<path id="Vector_2" d="M21.9175 26.9498H7.97865V1.4088C7.97751 1.03553 7.83019 0.677884 7.56888 0.413945C7.30756 0.150005 6.95346 0.00121499 6.5839 6.11477e-05H1.40775C1.2235 -0.00167277 1.04073 0.0334848 0.87001 0.103504C0.699289 0.173523 0.543996 0.277014 0.413102 0.408C0.282209 0.538986 0.178309 0.69487 0.107405 0.866647C0.0365012 1.03842 -1.08112e-06 1.22269 6.91611e-06 1.4088V33.5647V33.5866C-0.000574473 33.7731 0.0355047 33.9578 0.106152 34.1301C0.176799 34.3024 0.280609 34.4588 0.41156 34.5902C0.542512 34.7217 0.697999 34.8255 0.869005 34.8958C1.04001 34.9661 1.22313 35.0014 1.40775 34.9997H21.9175C22.2874 34.9997 22.6421 34.8513 22.9037 34.5871C23.1653 34.3229 23.3122 33.9646 23.3122 33.591V28.341C23.3065 27.9708 23.1572 27.6176 22.8964 27.3574C22.6356 27.0973 22.284 26.9509 21.9175 26.9498Z" fill="#06C755"/>
<path id="Vector_3" d="M34.2628 0.00488281H29.0866C28.3163 0.00488281 27.6919 0.635595 27.6919 1.41362V33.5914C27.6919 34.3694 28.3163 35.0001 29.0866 35.0001H34.2628C35.0331 35.0001 35.6575 34.3694 35.6575 33.5914V1.41362C35.6575 0.635595 35.0331 0.00488281 34.2628 0.00488281Z" fill="#06C755"/>
<path id="Vector_4" d="M69.5085 0H64.3323C63.9624 0 63.6077 0.148419 63.3461 0.412609C63.0845 0.676798 62.9376 1.03512 62.9376 1.40874V20.5185L48.3621 0.643119C48.3274 0.590619 48.2884 0.542493 48.2494 0.494369L48.1671 0.406871H48.1411C48.1174 0.382459 48.0912 0.360477 48.0632 0.341246L48.0285 0.310621L47.9549 0.262497L47.9116 0.236248L47.8336 0.192499L47.7903 0.170623L47.708 0.135623H47.6603L47.5781 0.109374H47.5261H47.4438H47.3875H47.3095H42.0164C41.6472 0.110532 41.2936 0.259464 41.033 0.523528C40.7723 0.787591 40.626 1.14525 40.626 1.51811V33.6959C40.6522 34.0503 40.8101 34.3815 41.0679 34.6233C41.3258 34.8651 41.6646 34.9995 42.0164 34.9996H47.2142C47.5834 34.9985 47.937 34.8495 48.1976 34.5855C48.4583 34.3214 48.6046 33.9638 48.6046 33.5909V14.4855L63.2018 34.3915C63.2992 34.5308 63.4211 34.6509 63.5613 34.7459L63.648 34.7984L63.6869 34.8203L63.7562 34.8553L63.8256 34.8859H63.8689L63.9642 34.9209H63.9858C64.1046 34.9525 64.2268 34.9686 64.3497 34.969H69.4955C69.8654 34.969 70.2202 34.8206 70.4817 34.5564C70.7433 34.2922 70.8902 33.9339 70.8902 33.5603V1.41311C70.8914 1.041 70.7468 0.683533 70.4879 0.418774C70.229 0.154014 69.8769 0.00346507 69.5085 0Z" fill="#06C755"/>
</g>
</g>
</svg>
