<svg width="154" height="42" viewBox="0 0 154 42" fill="none" xmlns="http://www.w3.org/2000/svg">
<g id="Group 538">
<g id="Group">
<g id="Group_2">
<path id="Vector" d="M72.6469 33.1746C65.7143 33.1746 59.4951 29.237 59.4951 23.7337C59.4951 18.2253 65.7143 14.2852 72.6958 14.2852C75.732 14.2852 78.5648 15.05 81.6474 16.7703L79.4739 19.5618C77.4986 18.6064 75.1706 18.0321 72.6932 18.0321C69.76 18.0321 66.371 19.6751 66.371 23.7312C66.371 27.7846 69.7085 29.4276 72.6932 29.4276C75.1706 29.4276 77.5476 28.9306 79.5717 28.0498L81.7478 30.9933C79.1726 32.3762 76.0359 33.1746 72.6469 33.1746Z" fill="#000100"/>
<path id="Vector_2" d="M118.565 23.6618C118.565 27.7152 115.176 29.3583 112.243 29.3583C109.307 29.3583 105.921 27.7178 105.921 23.6618C105.921 19.6058 109.307 17.9628 112.243 17.9628C115.179 17.9628 118.565 19.6058 118.565 23.6618ZM112.243 33.1052C119.222 33.1052 125.444 29.1677 125.444 23.6644C125.444 18.1559 119.222 14.2158 112.243 14.2158C105.262 14.2158 99.0399 18.1585 99.0399 23.6644C99.0399 29.1651 105.262 33.1052 112.243 33.1052Z" fill="#000100"/>
<path id="Vector_3" d="M128.256 32.6493H134.776V21.4032C134.776 19.8864 135.956 18.0992 138.068 18.0863C139.541 18.0992 140.954 19.1061 140.954 20.386L140.942 32.6467H147.477V20.0383C147.477 16.7188 143.918 13.9453 139.669 13.9453C139.628 13.9453 139.587 13.9505 139.546 13.9505C139.505 13.9479 139.463 13.9453 139.422 13.9453C137.666 13.9453 136.002 14.4578 134.642 15.3153C134.63 15.2664 134.264 14.0612 128.256 14.0612V32.6493Z" fill="#000100"/>
<path id="Vector_4" d="M56.3629 14.6748H49.9763V32.6474H56.3629V14.6748Z" fill="#000100"/>
</g>
<path id="Vector_5" d="M84.7966 32.6488H91.1858V21.7478C91.1858 20.0249 93.2074 18.6472 95.3835 18.6472C96.447 18.6472 97.4488 18.8609 98.2883 19.2317H98.2909V14.5062C97.5364 14.3929 96.7226 14.3311 96.0041 14.3311C94.2916 14.3311 92.5739 14.8281 91.1704 15.6599C91.0648 15.4487 90.2819 14.4444 84.7992 14.4444V32.6488H84.7966Z" fill="#000100"/>
<path id="Vector_6" d="M52.1946 1.90714C49.7713 -1.56429 42.2387 -0.158206 32.4759 5.00001C32.0407 5.21633 31.6518 5.44037 31.366 5.63867C30.8947 5.96572 31.1703 6.20522 31.5179 6.07903C31.8733 5.95027 32.2802 5.79318 32.7412 5.56914C40.06 2.10028 45.7668 1.4745 47.9995 3.8978C51.3988 7.58813 44.4354 19.6789 32.3781 28.6227C30.7685 29.8176 28.2834 31.5636 26.6662 32.5345C26.558 32.6015 26.4499 32.6684 26.3443 32.738C25.9168 33.0187 25.5356 33.2788 25.2369 33.5105C24.9459 33.7397 25.0026 34.0977 25.5279 33.8736C25.8472 33.7371 26.2387 33.5286 26.6533 33.2762C26.746 33.2195 26.8387 33.1654 26.9366 33.1062C28.7547 32.004 31.4536 30.1395 33.2974 28.8519C34.8838 27.7446 36.3826 26.6192 37.7912 25.4912V32.6555H44.3323V19.5733C51.5327 12.1386 54.5149 5.23178 52.1946 1.90714Z" fill="#000100"/>
<path id="Vector_7" d="M12.2243 41.9826H18.7654V35.202C20.5527 34.1462 22.3631 32.9873 24.1425 31.7744C24.5443 31.4988 24.8971 31.2258 25.1546 30.9915C25.577 30.6052 25.2731 30.4069 24.946 30.5794C24.6112 30.7546 24.2121 30.9941 23.782 31.2696C13.6768 37.7309 6.85752 39.7035 4.33635 36.2836C2.1474 33.3143 5.73471 27.5741 12.2243 21.0948V36.142C14.0656 35.5162 16.2417 34.5196 18.7654 33.1161L18.7629 19.1582L20.1999 22.2176C21.7759 25.5989 24.6396 27.6205 28.2758 27.6205C31.9121 27.6205 34.7757 25.5989 36.3518 22.2176L37.7913 19.1582V22.7198C40.1322 20.451 42.128 18.1848 43.6449 15.9907C43.8329 15.7203 43.8174 15.4911 43.7144 15.2413C42.7049 13.1373 40.5571 11.6875 38.0643 11.6875C35.5972 11.6875 33.4546 13.1193 32.4271 15.1898L29.6922 20.9892C29.4089 21.5558 28.8887 21.87 28.2784 21.87C27.6706 21.87 27.1453 21.5558 26.862 20.9892L24.1245 15.1846C23.6043 14.1339 22.7931 13.2455 21.7991 12.63C23.8 11.0411 25.7444 9.62211 27.6603 8.46068C28.0955 8.19543 28.4535 7.93017 28.7548 7.70098C29.0484 7.47693 28.9969 7.1164 28.4664 7.33787C28.1471 7.47178 27.7299 7.6778 27.3152 7.9276C25.3581 9.11221 23.3571 10.3277 21.4437 11.6334C21.2119 11.7905 20.9827 11.9501 20.7535 12.1098C20.0505 11.8368 19.2856 11.6849 18.4873 11.6849C15.021 11.6849 12.2217 14.4867 12.2217 17.953V18.8157C2.98435 27.0514 -1.86741 35.2097 0.669208 38.8434C2.52853 41.5062 6.9425 40.8907 12.2243 38.5962V41.9826Z" fill="#000100"/>
<g id="Group_3">
<path id="Vector_8" d="M150.307 15.7156C150.307 14.6984 151.136 13.8691 152.153 13.8691C153.17 13.8691 153.999 14.6984 153.999 15.7156C153.999 16.7328 153.17 17.562 152.153 17.562C151.136 17.562 150.307 16.7328 150.307 15.7156ZM153.549 15.7156C153.549 14.8503 152.926 14.2271 152.153 14.2271C151.38 14.2271 150.757 14.8503 150.757 15.7156C150.757 16.5809 151.38 17.2041 152.153 17.2041C152.926 17.2041 153.549 16.5783 153.549 15.7156ZM151.442 14.6623H152.22C152.722 14.6623 152.993 14.8374 152.993 15.2752C152.993 15.6332 152.786 15.8057 152.447 15.8366L153.008 16.7508H152.609L152.068 15.8521H151.831V16.7508H151.442V14.6623ZM151.831 15.5559H152.174C152.403 15.5559 152.604 15.525 152.604 15.2443C152.604 14.9997 152.38 14.9585 152.179 14.9585H151.831V15.5559Z" fill="#000100"/>
</g>
</g>
</g>
</svg>
