<svg width="152" height="36" viewBox="0 0 152 36" fill="none" xmlns="http://www.w3.org/2000/svg">
<path d="M129.517 6.37598C118.582 6.37598 110.216 12.009 110.216 21.8539C110.216 30.1626 117.833 36.0004 128.045 36.0004C135.792 36.0004 142.234 30.4315 144.08 26.898C144.08 25.8226 142.97 25.3489 141.937 25.3489C140.155 28.0886 135.133 30.1498 133.067 30.0474C120.725 29.6121 118.724 24.696 118.582 19.5495C118.35 13.9677 124.417 9.14127 129.607 9.52534C132.603 9.73017 133.661 14.6206 136.295 16.4002C137.134 16.8482 139.045 16.7714 140.31 16.541C141.266 16.4002 143.848 15.8113 143.848 13.6093C143.848 11.7657 141.55 9.74297 139.342 8.42434C137.121 7.41296 132.164 6.37598 129.517 6.37598Z" fill="#DF3232"/>
<path d="M56.5347 27.6275C56.5347 32.1723 55.3598 34.6175 51.6545 34.8223L51.732 35.5649C57.9161 35.4753 64.2164 35.5649 70.2713 35.4112L70.3488 35.04C67.5472 35.04 65.3783 32.0954 65.3783 28.4468V16.195C65.3783 13.1865 69.0836 11.279 71.5882 11.5094C75.5 11.8551 77.6561 14.3387 77.6561 16.5535V28.6004C77.6561 32.2747 76.5458 34.5407 73.6668 34.7583V35.424H90.6698V34.912C88.1393 34.6303 86.3706 32.3387 86.3706 28.8949V16.259C86.3706 13.5578 88.7332 11.7142 92.9549 11.6374C96.6602 11.5606 98.8808 14.2875 98.8808 16.8479V28.2804C98.8808 32.1595 97.693 34.6047 94.7365 34.8863V35.3984C100.946 35.4624 106.033 35.4624 112.166 35.3984V35.0272C108.925 35.0272 107.802 32.8892 107.802 28.434V15.811C107.802 11.6246 105.517 6.67013 99.1003 6.67013C94.7236 6.67013 91.5348 8.78251 89.7015 9.39702C88.4363 9.8835 87.5454 10.4852 87.2485 10.4852C86.6675 10.4852 86.0091 10.1139 85.1957 9.24339C83.6336 7.6047 80.8579 6.67013 77.8885 6.67013C74.1057 6.67013 70.3617 8.78251 68.5672 9.39702C68.3606 9.44823 67.0179 10.1139 66.863 10.1139C66.5661 10.1139 65.3783 10.1139 65.3783 9.96032C65.3783 6.45249 65.6107 8.1936 65.4687 5.70996H63.0157C62.2927 5.70996 61.0146 7.0286 59.5428 7.6047C57.7741 8.34723 54.2366 8.27042 52.7777 8.65448V11.1381L56.6121 11.8551V16.6943L56.5347 27.6275Z" fill="#DF3232"/>
<path d="M39.8932 35.4882C46.4 35.1938 52.6874 33.8111 52.6874 27.5636C52.6874 23.0188 47.6652 20.1639 42.3333 17.8723C38.9249 16.4897 33.9802 14.4413 33.9802 12.8154C33.9802 10.9207 37.7501 7.24642 41.3779 10.1781L47.6652 15.3759L50.5572 14.787L48.9305 7.04158C47.4458 7.10559 46.4 7.20801 41.0164 6.29905C34.3417 5.35168 26.4535 8.65467 26.4535 14.7998C26.4535 18.9221 32.4439 21.777 37.1691 23.6717C39.7512 24.7983 44.3344 26.4114 44.3344 28.8951C44.3344 31.3019 40.0481 31.9804 37.608 31.9804C33.4638 31.9804 28.8806 26.4754 28.8806 26.4754H26.1694L27.6412 34.6945C28.1447 34.2464 30.0167 34.3104 30.3782 34.4641C31.7209 34.9633 36.4978 35.7187 39.8932 35.4882Z" fill="#DF3232"/>
<path d="M24.2457 10.5619V6.7596L16.1767 6.82361C15.1439 6.82361 15.2214 6.61878 15.2214 5.27454L15.2988 0.0640114L11.245 0C9.97974 2.7909 8.41758 4.63442 7.55258 4.99289L0 8.28307V10.6259L2.82738 10.6899C4.07969 10.6899 4.5961 10.6259 4.5961 12.0853V27.5633C4.5961 32.2745 7.19109 35.7184 13.827 35.8592C18.8363 36 21.8831 33.8108 24.0262 31.7496L23.4324 29.7525C22.5416 30.3542 21.8186 30.8663 20.6179 30.8663C14.9244 30.8663 15.0793 26.4623 15.0793 22.5704V12.0853C15.0793 10.5619 15.2084 10.5619 16.2542 10.5619H24.2457Z" fill="#DF3232"/>
<path d="M150.729 33.3502C150.729 34.0031 150.484 34.5792 150.032 35.0145C149.567 35.4753 148.947 35.7186 148.315 35.7186C147.682 35.7186 147.088 35.4625 146.636 35.0145C146.184 34.5664 145.926 33.9647 145.926 33.3374C145.926 32.71 146.184 32.1083 146.636 31.6475C147.075 31.2122 147.669 30.9561 148.315 30.9561C148.96 30.9561 149.567 31.1994 150.032 31.6603C150.484 32.1211 150.729 32.71 150.729 33.3502ZM148.328 30.7129C147.605 30.7129 146.959 30.9817 146.468 31.4682C145.952 31.9803 145.681 32.646 145.681 33.3502C145.681 34.0543 145.952 34.7072 146.468 35.2065C146.972 35.7058 147.63 35.9874 148.34 35.9874C149.038 35.9874 149.709 35.7058 150.238 35.1937C150.742 34.7072 151.013 34.0671 151.013 33.3374C151.013 32.6332 150.742 31.9675 150.238 31.481C149.722 30.9945 149.051 30.7129 148.328 30.7129ZM148.418 31.7883H147.308V34.848H147.721V33.491H148.495L149.167 34.848H149.644L148.947 33.427C149.399 33.3758 149.683 33.0557 149.683 32.6332C149.683 32.0443 149.27 31.7883 148.418 31.7883ZM148.328 32.0699C148.947 32.0699 149.257 32.2364 149.257 32.6204C149.257 33.0813 148.986 33.2093 148.328 33.2093H147.721V32.0827H148.328V32.0699Z" fill="black"/>
</svg>
