<?xml version="1.0" encoding="UTF-8"?>
<svg id="_圖層_2" data-name="圖層 2" xmlns="http://www.w3.org/2000/svg" viewBox="0 0 364.79 56.71">
  <defs>
    <style>
      .cls-1 {
        fill: #005d2e;
        stroke-width: 0px;
      }
    </style>
  </defs>
  <g id="_圖層_1-2" data-name="圖層 1">
    <g>
      <path class="cls-1" d="m30.22,50.04v-3.54h19.38v-6.46h-19.8v-2.92s7.29-.84,8.13-8.34l-.21-6.67s1.88-2.71,3.13-.62v11.67s1.25,3.13,3.75,3.13h5.21l-.21-4.79s-1.46-.21-1.66-2.29v-5.63l1.66-1.04v-5h-1.04V2.52h-9.17V.01h-7.5v2.71h-2.92v4.59h1.88v4.79l-2.08,3.96,1.88.83v12.71s-.42,1.67-2.92,1.87l-2.29.21v-3.76h-8.55v-2.5h9.59v-5.84h-3.13v-3.12h2.71v-5.21h-7.92v-3.76h6.67V2.31h-7.09V.64h-7.29v1.67H0v5.42h8.96v3.12H.21v5.21h3.12v4.17H0v4.59h9.59v3.54H.21v5.42h8.75v3.34h8.54v-2.92h8.76l1.66,2.92h-7.29v2.92H.42v5.63h20.01v3.75H0v7.29h50.02v-6.67h-19.8Zm9.07-41.47c1.78,0,3.23,1.44,3.23,3.23s-1.45,3.23-3.23,3.23-3.23-1.45-3.23-3.23,1.45-3.23,3.23-3.23Zm-25.32,13.55c-1.78,0-3.23-1.45-3.23-3.23s1.45-3.23,3.23-3.23,3.23,1.45,3.23,3.23-1.44,3.23-3.23,3.23Z"/>
      <path class="cls-1" d="m95.5.22v4.64h-4.85V.01h-6.74v4.22h-2.32v7.8h1.9l-.84,11.59h-3.58V.22L62.83.01v49.53s.21,1.9-1.47,1.9v5.06h3.58s2.11-3.79,3.79-3.79c0,0,1.48-.42,1.69,4h4.64l3.16-3.16v3.16l12.86-.21,4-3.38v2.95h6.33v-1.47h7.37s1.9-.21,2.11-1.9V.22h-15.39Zm-24.76,13.7c1.8,0,3.27,1.46,3.27,3.26s-1.46,3.27-3.27,3.27-3.27-1.47-3.27-3.27,1.46-3.26,3.27-3.26Zm1.58,35.19h-4.01l.21-9.48c1.69-2.32,3.8-.21,3.8-.21v9.69Zm-1.37-16.44c-1.8,0-3.27-1.46-3.27-3.27s1.46-3.27,3.27-3.27,3.27,1.46,3.27,3.27-1.46,3.27-3.27,3.27Zm11.7,3.37l-2.53,5.06h-1.69v-11.17l4.22.21v5.9Zm4.32,14.12c-1.8,0-3.26-1.46-3.26-3.26s1.46-3.27,3.26-3.27,3.27,1.46,3.27,3.27-1.46,3.26-3.27,3.26Zm5.27-14.96c-1.8,0-3.27-1.47-3.27-3.27s1.46-3.27,3.27-3.27,3.27,1.46,3.27,3.27-1.46,3.27-3.27,3.27Zm1.26-13.07c-1.8,0-3.26-1.46-3.26-3.27s1.46-3.26,3.26-3.26,3.27,1.46,3.27,3.26-1.46,3.27-3.27,3.27Zm11.7,28.66h-2.95l.21-45.1,2.74.42v44.68Z"/>
      <path class="cls-1" d="m172.3,8.63V.01h-45.96v9.17h6.16l-4.38,12.31s-.54,1.64-2.19,1.78h-2.6l-1.09,7.66,5.47-1.5s-3.7,16,9.85,23.53c0,0,11.62,8.62,25.17-.28,0,0,9.85-5.6,8.48-22.57,0,0-1.78-12.04-14.64-16.55,0,0-5.88-2.32-15.73.41l1.09-5.34h30.37Zm-22.98,12.31c7.4,0,13.4,6,13.4,13.41s-6,13.41-13.4,13.41-13.41-6.01-13.41-13.41,6-13.41,13.41-13.41Z"/>
      <path class="cls-1" d="m235.82,23.78v-5.78h-4.91v-2.43h3.21v-5.35h-3.21v-2.43h3.68V2.43h-3.68V0h-6.84v2.43h-7.95V0h-6.78v2.43h-4.68v5.35h4.68v2.43h-3.92v5.35h3.92v2.43h-5.61v5.78h12.39v2.43h-10.93v16.3l-2.22,2.98,2.22,3.16v2.19h-2.59c-.47,0-.78-.29-.94-.85V1.4h-15.83l.04,48.6c-.15.57-.46.85-.91.85h-1.31v5.84h3.83c1.91,0,2.63.03,3.83-2.74l3.24-6.84h.25v6.84c0,3.11,1.97,2.74,3.92,2.74h13.45v-8.03h15.26v1.4c0,.69-.41,1.03-1.23,1.03h-7.02v5.6h8.71c4.33,0,6.49-1.79,6.49-5.35v-25.12h-11.17v-2.43h12.63Zm-42.08,15.93c-1.92,0-3.48-1.46-3.48-3.26s1.56-3.26,3.48-3.26,3.48,1.46,3.48,3.26-1.56,3.26-3.48,3.26Zm0-11.45c-1.92,0-3.48-1.46-3.48-3.26s1.56-3.26,3.48-3.26,3.48,1.46,3.48,3.26-1.56,3.26-3.48,3.26Zm0-11.45c-1.92,0-3.48-1.46-3.48-3.26s1.56-3.26,3.48-3.26,3.48,1.46,3.48,3.26-1.56,3.26-3.48,3.26Zm22.37-9.03h7.95v2.43h-7.95v-2.43Zm9.61,29.35c0,3.29-2.67,5.95-5.95,5.95s-5.95-2.66-5.95-5.95,2.67-5.95,5.95-5.95,5.95,2.66,5.95,5.95Zm-9.61-19.13v-2.43h7.95v2.43h-7.95Z"/>
      <path class="cls-1" d="m280.8,4.77L282.88.01h-8.34l-3.82,8.41h-5.31V.26h-7.26v8.16h-2.21V1.81h-6.3v22.41c-.04.87-.3,1.3-.79,1.3h-1.08v6.99h3.12c1.17,0,2.74-.05,3.86-1.27.68-.74,1.11-1.43,1.19-2.75v-12.39h2.21v12.43s-6.19,18.99-6.21,19.07c-.11.36-.27.73-.47,1.05-.25.4-.64.48-1.09.52h-3.23s0,7.55,0,7.55c2.19,0,4.38-.01,6.57,0,2.33.01,2.89-1.62,3.56-3.52.97-2.76,1.93-5.52,2.9-8.28v11.8h8.83l1.99-4.8,2.03,4.8h5.51c4.05,0,6.58-4.18,7.6-10.45l4.7-33.82h.76v34.81c0,1.2-.59,1.79-1.76,1.79h-.96v7.67h3.69c4.69,0,7.03-2.25,7.03-6.74V4.77h-18.8Zm-12.07,34.44c-.57,2.76-1.3,4.14-2.21,4.14h-1.1v-10.02l3.43-7.72-3.43-1.13v-8.39h7.07l-3.75,23.12Zm9.98,4.14c-.68,3.26-1.57,4.88-2.66,4.88h-2.38c.98-1.32,1.66-3.21,2.04-5.69l4.85-30.11h2.56l-4.41,30.91Z"/>
      <path class="cls-1" d="m347.59,1.22h-14.78v47.44l-1.96.05c-.28-.03-.34-1.1-.69-2.81,0-.04-.84-13.24-.84-13.24h-4.7v-2.87h.48c1.36,0,2.52-.57,3.48-1.71.82-.98,1.23-1.93,1.23-2.87v-7.81h-5.62v5.37c0,.61-.34.92-1.02.92h-3.27l11.35-18.49h-6.85l-2.35,3.84h-2.57L325.1,0h-6.42l-5.41,9.15c-.29.37-.43.75-.43,1.16v5.12h5.41l-4.28,7.14c-.89,1.18-1.34,2.14-1.34,2.87v4.33h6.27v2.87h-4.68l-1.05,13.24c-.21,1.83-.46,2.75-.75,2.75h-1.48v8.07h3.25c1.78,0,2.57-.01,3.27-4.03l1.45-12.43v16.44h5.73v-16.44l1.77,12.44c.76,3.06,1.08,4.03,2.18,4.02h4.87s5.95-.01,5.95-.01v-23.19h2.72v9.76c0,2.56,1.22,3.84,3.68,3.84h12.23v1.28c0,.94-.55,1.4-1.64,1.4h-9.29v6.9h11.79c3.96,0,5.94-2.05,5.94-6.16V1.22h-17.21Zm10.41,6.59v7.63h-2.32l1.13-5.61h-5.83l-1.25,5.61h-2.38l-.74-5.61h-5.83l.68,5.61h-2.09v-7.63h18.62Zm-18.62,19.04v-5.12h5.19v5.12h-5.19Zm16.39,12.15c-.4,2.34-2.66,3.89-5.06,3.47-2.39-.42-4.01-2.67-3.61-5.01.4-2.34,2.66-3.89,5.06-3.47,2.39.42,4.01,2.67,3.61,5.01Zm-4.4-12.15v-5.12h6.62v5.12h-6.62Z"/>
    </g>
  </g>
</svg>