<svg width="80" height="100" viewBox="0 0 80 100" fill="none" xmlns="http://www.w3.org/2000/svg">
<g id="Group 519">
<g id="Group">
<g id="Group_2">
<path id="Vector" d="M6.86957 99.6989L5.90564 95.3291H6.77318L7.38367 98.3301L8.14839 95.3291H9.15088L9.87704 98.3816L10.5132 95.3291H11.3551L10.3526 99.6989H9.44648L8.63035 96.4344L7.80137 99.6989H6.86957Z" fill="#999999"/>
<path id="Vector_2" d="M12.5376 99.6989V96.0745H11.3102V95.3291H14.6068V96.0745H13.3794V99.6989H12.5376Z" fill="#999999"/>
<path id="Vector_3" d="M16.4124 99.6989V95.3291H17.6655L18.4173 98.3109L19.1435 95.3291H20.4095V99.6989H19.6383L19.6319 96.2609L18.8222 99.6989H18.0061L17.1899 96.2609L17.1835 99.6989H16.4124Z" fill="#999999"/>
<path id="Vector_4" d="M21.0457 99.6989V95.3291H21.8875V99.6989H21.0457Z" fill="#999999"/>
<path id="Vector_5" d="M25.1649 98.083L25.9811 98.3465C25.859 98.8284 25.6469 99.1883 25.3577 99.4196C25.0686 99.6574 24.6958 99.7731 24.2524 99.7731C23.6998 99.7731 23.2435 99.5739 22.8901 99.1754C22.5366 98.777 22.3567 98.2372 22.3567 97.5496C22.3567 96.8234 22.5366 96.2579 22.8901 95.8531C23.2499 95.4482 23.719 95.249 24.3038 95.249C24.8115 95.249 25.2292 95.4097 25.5441 95.7246C25.7305 95.9109 25.8783 96.1808 25.9682 96.5278L25.1328 96.7399C25.0814 96.515 24.9786 96.3351 24.8244 96.2065C24.6701 96.0716 24.4773 96.0073 24.2524 96.0073C23.944 96.0073 23.6933 96.123 23.5006 96.3543C23.3078 96.5857 23.2114 96.9648 23.2114 97.4853C23.2114 98.038 23.3078 98.43 23.4941 98.6678C23.6805 98.9055 23.9311 99.0212 24.2331 99.0212C24.4581 99.0212 24.6508 98.9441 24.8115 98.7963C24.9786 98.6421 25.0943 98.4043 25.1649 98.083Z" fill="#999999"/>
<path id="Vector_6" d="M26.5276 99.6989V95.3291H28.2819C28.7254 95.3291 29.0402 95.3677 29.2459 95.4448C29.4451 95.5219 29.6057 95.6633 29.7278 95.8625C29.8499 96.0617 29.9078 96.293 29.9078 96.5501C29.9078 96.8778 29.8178 97.1477 29.6379 97.3598C29.4579 97.5719 29.188 97.7068 28.8346 97.7646C29.0145 97.8739 29.1623 97.996 29.278 98.1309C29.3937 98.2659 29.5543 98.5037 29.7471 98.8442L30.2484 99.6989H29.2587L28.6611 98.7479C28.449 98.4073 28.3012 98.1952 28.2177 98.1052C28.1406 98.0153 28.057 97.9574 27.9671 97.9253C27.8771 97.8932 27.7357 97.8739 27.5494 97.8739H27.3758V99.6989H26.5276ZM27.3758 97.1799H27.9863C28.3848 97.1799 28.629 97.1606 28.7254 97.1284C28.8217 97.0899 28.8989 97.0321 28.9567 96.9421C29.0145 96.8521 29.0402 96.7429 29.0402 96.6143C29.0402 96.4665 29.0017 96.3509 28.931 96.2609C28.8603 96.1709 28.7511 96.1131 28.6225 96.0874C28.5583 96.0745 28.3526 96.0745 28.0185 96.0745H27.3758V97.1799Z" fill="#999999"/>
<path id="Vector_7" d="M30.3636 97.5455C30.3636 97.1021 30.4279 96.723 30.5564 96.421C30.6528 96.196 30.7814 95.9968 30.942 95.8233C31.1027 95.6434 31.2826 95.5149 31.4818 95.4313C31.7389 95.3157 32.0409 95.2578 32.3815 95.2578C32.992 95.2578 33.4868 95.457 33.8531 95.8555C34.2194 96.2539 34.4057 96.813 34.4057 97.5263C34.4057 98.2331 34.2258 98.7858 33.8595 99.1842C33.4932 99.5827 33.0048 99.7819 32.3943 99.7819C31.7774 99.7819 31.2826 99.5827 30.9163 99.1842C30.5436 98.7858 30.3636 98.2396 30.3636 97.5455ZM31.2248 97.5134C31.2248 98.0082 31.334 98.3874 31.5525 98.6444C31.771 98.9015 32.0473 99.03 32.3815 99.03C32.7156 99.03 32.992 98.9015 33.2105 98.6509C33.429 98.3938 33.5318 98.0147 33.5318 97.507C33.5318 97.0057 33.429 96.6266 33.2169 96.3824C33.0048 96.1382 32.7285 96.0097 32.3815 96.0097C32.0345 96.0097 31.7517 96.1382 31.5396 96.3824C31.334 96.633 31.2248 97.0057 31.2248 97.5134Z" fill="#999999"/>
<path id="Vector_8" d="M34.8815 99.6989V95.3291H37.9532V96.0745H35.7233V97.0385H37.7925V97.7839H35.7233V98.9599H38.0303V99.7054H34.8815V99.6989Z" fill="#999999"/>
<path id="Vector_9" d="M38.5829 99.698V95.3604H39.4247V98.9526H41.5004V99.698H38.5829Z" fill="#999999"/>
<path id="Vector_10" d="M41.944 99.6989V95.3291H45.0157V96.0745H42.7858V97.0385H44.855V97.7839H42.7858V98.9599H45.0928V99.7054H41.944V99.6989Z" fill="#999999"/>
<path id="Vector_11" d="M48.2865 98.083L49.1027 98.3465C48.9806 98.8284 48.7685 99.1883 48.4793 99.4196C48.1901 99.6574 47.8174 99.7731 47.374 99.7731C46.8214 99.7731 46.3651 99.5739 46.0116 99.1754C45.6582 98.777 45.4783 98.2372 45.4783 97.5496C45.4783 96.8234 45.6582 96.2579 46.0116 95.8531C46.3715 95.4482 46.8406 95.249 47.4254 95.249C47.9331 95.249 48.3508 95.4097 48.6657 95.7246C48.852 95.9109 48.9998 96.1808 49.0898 96.5278L48.2544 96.7399C48.203 96.515 48.1002 96.3351 47.9459 96.2065C47.7917 96.0716 47.5989 96.0073 47.374 96.0073C47.0655 96.0073 46.8149 96.123 46.6221 96.3543C46.4294 96.5857 46.333 96.9648 46.333 97.4853C46.333 98.038 46.4294 98.43 46.6157 98.6678C46.8021 98.9055 47.0527 99.0212 47.3547 99.0212C47.5796 99.0212 47.7724 98.9441 47.9331 98.7963C48.1002 98.6421 48.2158 98.4043 48.2865 98.083Z" fill="#999999"/>
<path id="Vector_12" d="M50.574 99.6989V96.0745H49.353V95.3291H52.6497V96.0745H51.4223V99.6989H50.574Z" fill="#999999"/>
<path id="Vector_13" d="M53.0223 99.6989V95.3291H54.7767C55.2201 95.3291 55.535 95.3677 55.7406 95.4448C55.9398 95.5219 56.1005 95.6633 56.2226 95.8625C56.3447 96.0617 56.4025 96.293 56.4025 96.5501C56.4025 96.8778 56.3126 97.1477 56.1326 97.3598C55.9527 97.5719 55.6828 97.7068 55.3293 97.7646C55.5093 97.8739 55.6571 97.996 55.7728 98.1309C55.8884 98.2659 56.0491 98.5037 56.2419 98.8442L56.7431 99.6989H55.7535L55.1558 98.7479C54.9438 98.4073 54.796 98.1952 54.7124 98.1052C54.6353 98.0153 54.5518 97.9574 54.4618 97.9253C54.3718 97.8932 54.2305 97.8739 54.0441 97.8739H53.877V99.6989H53.0223ZM53.8642 97.1799H54.4747C54.8731 97.1799 55.1173 97.1606 55.2137 97.1284C55.3101 97.0899 55.3872 97.0321 55.445 96.9421C55.5029 96.8521 55.5286 96.7429 55.5286 96.6143C55.5286 96.4665 55.49 96.3509 55.4193 96.2609C55.3486 96.1709 55.2394 96.1131 55.1109 96.0874C55.0466 96.0745 54.841 96.0745 54.5068 96.0745H53.8642V97.1799Z" fill="#999999"/>
<path id="Vector_14" d="M56.8525 97.5455C56.8525 97.1021 56.9168 96.723 57.0453 96.421C57.1417 96.196 57.2702 95.9968 57.4309 95.8233C57.5916 95.6434 57.7715 95.5149 57.9707 95.4313C58.2277 95.3157 58.5298 95.2578 58.8704 95.2578C59.4809 95.2578 59.9757 95.457 60.342 95.8555C60.7083 96.2539 60.8946 96.813 60.8946 97.5263C60.8946 98.2331 60.7147 98.7858 60.3484 99.1842C59.9821 99.5827 59.4937 99.7819 58.8832 99.7819C58.2663 99.7819 57.7715 99.5827 57.4052 99.1842C57.0389 98.7858 56.8525 98.2396 56.8525 97.5455ZM57.7201 97.5134C57.7201 98.0082 57.8293 98.3874 58.0478 98.6444C58.2663 98.9015 58.5426 99.03 58.8768 99.03C59.211 99.03 59.4873 98.9015 59.7058 98.6509C59.9178 98.3938 60.0271 98.0147 60.0271 97.507C60.0271 97.0057 59.9243 96.6266 59.7122 96.3824C59.5001 96.1382 59.2238 96.0097 58.8768 96.0097C58.5298 96.0097 58.247 96.1382 58.035 96.3824C57.8229 96.633 57.7201 97.0057 57.7201 97.5134Z" fill="#999999"/>
<path id="Vector_15" d="M61.3704 99.6989V95.3291H62.1801L63.8894 98.2659V95.3291H64.6606V99.6989H63.8252L62.1415 96.8264V99.6989H61.3704Z" fill="#999999"/>
<path id="Vector_16" d="M65.3547 99.6989V95.3291H66.1966V99.6989H65.3547Z" fill="#999999"/>
<path id="Vector_17" d="M69.4735 98.083L70.2897 98.3465C70.1676 98.8284 69.9555 99.1883 69.6663 99.4196C69.3771 99.6574 69.0044 99.7731 68.561 99.7731C68.0084 99.7731 67.5521 99.5739 67.1987 99.1754C66.8452 98.777 66.6653 98.2372 66.6653 97.5496C66.6653 96.8234 66.8452 96.2579 67.1987 95.8531C67.5585 95.4482 68.0276 95.249 68.6124 95.249C69.1201 95.249 69.5378 95.4097 69.8527 95.7246C70.039 95.9109 70.1868 96.1808 70.2768 96.5278L69.4414 96.7399C69.39 96.515 69.2872 96.3351 69.133 96.2065C68.9787 96.0716 68.7859 96.0073 68.561 96.0073C68.2526 96.0073 68.0019 96.123 67.8091 96.3543C67.6164 96.5857 67.52 96.9648 67.52 97.4853C67.52 98.038 67.6164 98.43 67.8027 98.6678C67.9891 98.9055 68.2397 99.0212 68.5417 99.0212C68.7667 99.0212 68.9594 98.9441 69.1201 98.7963C69.2872 98.6421 69.4029 98.4043 69.4735 98.083Z" fill="#999999"/>
<path id="Vector_18" d="M70.6111 98.2719L71.4272 98.1883C71.4786 98.4775 71.575 98.6831 71.7292 98.8181C71.8771 98.953 72.0827 99.0173 72.3397 99.0173C72.6096 99.0173 72.8153 98.9595 72.9502 98.8374C73.0852 98.7153 73.1559 98.5803 73.1559 98.4197C73.1559 98.3168 73.1302 98.2269 73.0723 98.1562C73.0145 98.0855 72.9117 98.0212 72.7703 97.9698C72.6739 97.9313 72.449 97.8734 72.102 97.777C71.6521 97.6614 71.3372 97.5136 71.1573 97.3465C70.9003 97.1087 70.7782 96.8131 70.7782 96.4661C70.7782 96.2412 70.836 96.0355 70.9581 95.8428C71.0802 95.65 71.2473 95.5022 71.4786 95.3993C71.7035 95.2965 71.9734 95.2451 72.2948 95.2451C72.8153 95.2451 73.2073 95.3672 73.4708 95.6114C73.7342 95.8556 73.8692 96.1769 73.882 96.5818L73.0402 96.6139C73.0016 96.389 72.931 96.2283 72.8089 96.1319C72.6932 96.0355 72.5132 95.9841 72.2819 95.9841C72.0377 95.9841 71.8513 96.0355 71.7164 96.1448C71.6264 96.2155 71.5814 96.3054 71.5814 96.4147C71.5814 96.5175 71.62 96.6075 71.7035 96.6782C71.8064 96.7681 72.0634 96.8709 72.4747 96.9673C72.8795 97.0702 73.1816 97.173 73.3808 97.2822C73.5736 97.3915 73.7278 97.5393 73.837 97.7256C73.9463 97.912 74.0041 98.1433 74.0041 98.4197C74.0041 98.6703 73.9399 98.9016 73.8049 99.1265C73.67 99.345 73.4836 99.5057 73.2458 99.6149C73.0016 99.7242 72.6996 99.7756 72.3397 99.7756C71.8128 99.7756 71.4079 99.6471 71.1252 99.39C70.8296 99.1394 70.6625 98.7667 70.6111 98.2719Z" fill="#999999"/>
</g>
<g id="Group_3">
<g id="Group_4">
<path id="Vector_19" opacity="0.01" d="M78.0718 59.0657C78.0718 55.4542 64.9495 52.5303 48.7619 52.5303C32.5742 52.5303 19.4519 55.4542 19.4519 59.0657C19.4519 62.6773 32.5742 65.6012 48.7619 65.6012C64.9495 65.6012 78.0718 62.6773 78.0718 59.0657Z" fill="white"/>
<path id="Vector_20" opacity="0.01" d="M77.9756 59.0591C77.9756 55.4605 64.8854 52.543 48.7363 52.543C32.5873 52.543 19.4971 55.4605 19.4971 59.0591C19.4971 62.6578 32.5873 65.5753 48.7363 65.5753C64.8854 65.5818 77.9756 62.6643 77.9756 59.0591Z" fill="#FEFEFE"/>
<path id="Vector_21" opacity="0.01" d="M77.8726 59.0604C77.8726 55.4746 64.8145 52.5635 48.704 52.5635C32.5935 52.5635 19.5354 55.4746 19.5354 59.0604C19.5354 62.6462 32.5935 65.5573 48.704 65.5573C64.8145 65.5573 77.8726 62.6462 77.8726 59.0604Z" fill="#FEFEFE"/>
<path id="Vector_22" opacity="0.0118" d="M77.7763 59.0528C77.7763 55.4734 64.7503 52.5752 48.6848 52.5752C32.6129 52.5752 19.5869 55.4734 19.5869 59.0528C19.5869 62.6322 32.6129 65.5304 48.6848 65.5304C64.7503 65.5304 77.7763 62.6322 77.7763 59.0528Z" fill="#FDFDFD"/>
<path id="Vector_23" opacity="0.0147" d="M77.6796 59.0521C77.6796 55.4855 64.6858 52.5938 48.6588 52.5938C32.6319 52.5938 19.6381 55.4855 19.6381 59.0521C19.6381 62.6186 32.6319 65.5104 48.6588 65.5104C64.6858 65.5104 77.6796 62.6186 77.6796 59.0521Z" fill="#FDFDFD"/>
<path id="Vector_24" opacity="0.0176" d="M77.5772 59.0455C77.5772 55.4918 64.6155 52.6064 48.6271 52.6064C32.6387 52.6064 19.677 55.4854 19.677 59.0455C19.677 62.6056 32.6387 65.4846 48.6271 65.4846C64.6155 65.4846 77.5772 62.5992 77.5772 59.0455Z" fill="#FCFCFC"/>
<path id="Vector_25" opacity="0.0206" d="M77.4741 59.0409C77.4741 55.4936 64.5446 52.6211 48.5947 52.6211C32.6449 52.6211 19.7153 55.4936 19.7153 59.0409C19.7153 62.5882 32.6449 65.4607 48.5947 65.4607C64.551 65.4607 77.4741 62.5882 77.4741 59.0409Z" fill="#FBFBFB"/>
<path id="Vector_26" opacity="0.0235" d="M77.378 59.0392C77.378 55.5048 64.4806 52.6387 48.5757 52.6387C32.6644 52.6387 19.7734 55.5048 19.7734 59.0392C19.7734 62.5736 32.6708 65.4397 48.5757 65.4397C64.4806 65.4397 77.378 62.5736 77.378 59.0392Z" fill="#FBFBFB"/>
<path id="Vector_27" opacity="0.0265" d="M77.2816 59.0336C77.2816 55.512 64.4163 52.6523 48.55 52.6523C32.6836 52.6523 19.8184 55.5056 19.8184 59.0336C19.8184 62.5616 32.6836 65.4148 48.55 65.4148C64.4163 65.4148 77.2816 62.5616 77.2816 59.0336Z" fill="#FAFAFA"/>
<path id="Vector_28" opacity="0.0294" d="M77.1788 59.027C77.1788 55.5119 64.3456 52.665 48.5178 52.665C32.6901 52.665 19.8569 55.5119 19.8569 59.027C19.8569 62.5421 32.6901 65.3889 48.5178 65.3889C64.3456 65.3954 77.1788 62.5421 77.1788 59.027Z" fill="#F9F9F9"/>
<path id="Vector_29" opacity="0.0324" d="M77.0757 59.0272C77.0757 55.525 64.2747 52.6846 48.4855 52.6846C32.6963 52.6846 19.8953 55.525 19.8953 59.0272C19.8953 62.5295 32.6963 65.3699 48.4855 65.3699C64.2811 65.3699 77.0757 62.5295 77.0757 59.0272Z" fill="#F9F9F9"/>
<path id="Vector_30" opacity="0.0353" d="M76.9796 59.0216C76.9796 55.5322 64.2107 52.6982 48.4665 52.6982C32.7158 52.6982 19.9534 55.5322 19.9534 59.0216C19.9534 62.5175 32.7223 65.345 48.4665 65.345C64.2107 65.345 76.9796 62.5175 76.9796 59.0216Z" fill="#F8F8F8"/>
<path id="Vector_31" opacity="0.0382" d="M76.8831 59.0151C76.8831 55.532 64.1464 52.7109 48.4407 52.7109C32.7286 52.7109 19.9983 55.532 19.9983 59.0151C19.9983 62.4981 32.7286 65.3192 48.4407 65.3192C64.1464 65.3256 76.8831 62.4981 76.8831 59.0151Z" fill="#F7F7F7"/>
<path id="Vector_32" opacity="0.0412" d="M76.7803 59.0124C76.7803 55.5422 64.0757 52.7275 48.4086 52.7275C32.7415 52.7275 20.0369 55.5422 20.0369 59.0124C20.0369 62.4825 32.7351 65.2972 48.4086 65.2972C64.0757 65.2972 76.7803 62.4825 76.7803 59.0124Z" fill="#F7F7F7"/>
<path id="Vector_33" opacity="0.0441" d="M76.6839 59.0077C76.6839 55.544 64.0114 52.7422 48.3828 52.7422C32.7543 52.7422 20.0818 55.5504 20.0818 59.0077C20.0818 62.4715 32.7479 65.2733 48.3828 65.2733C64.0114 65.2733 76.6839 62.4715 76.6839 59.0077Z" fill="#F6F6F6"/>
<path id="Vector_34" opacity="0.0471" d="M76.5812 59.0031C76.5812 55.5522 63.9408 52.7568 48.3572 52.7568C32.7672 52.7568 20.1333 55.5522 20.1333 59.0031C20.1333 62.454 32.7672 65.2494 48.3572 65.2494C63.9472 65.2558 76.5812 62.454 76.5812 59.0031Z" fill="#F5F5F6"/>
<path id="Vector_35" opacity="0.05" d="M76.4847 59.0024C76.4847 55.5644 63.8829 52.7754 48.3315 52.7754C32.78 52.7754 20.1782 55.5644 20.1782 59.0024C20.1782 62.4468 32.78 65.2294 48.3315 65.2294C63.8765 65.2294 76.4847 62.4404 76.4847 59.0024Z" fill="#F5F5F5"/>
<path id="Vector_36" opacity="0.0529" d="M76.3815 58.9939C76.3815 55.5623 63.8119 52.7861 48.299 52.7861C32.7925 52.7861 20.2164 55.5623 20.2164 58.9939C20.2164 62.4255 32.7861 65.208 48.299 65.208C63.8119 65.208 76.3815 62.4255 76.3815 58.9939Z" fill="#F4F4F4"/>
<path id="Vector_37" opacity="0.0559" d="M76.2854 58.9882C76.2854 55.5695 63.7479 52.7998 48.28 52.7998C32.8121 52.7998 20.2745 55.5695 20.2745 58.9882C20.2745 62.407 32.8121 65.1831 48.28 65.1831C63.7414 65.1831 76.2854 62.4134 76.2854 58.9882Z" fill="#F3F3F4"/>
<path id="Vector_38" opacity="0.0588" d="M76.1824 58.9885C76.1824 55.5826 63.677 52.8193 48.2476 52.8193C32.8183 52.8193 20.3129 55.5826 20.3129 58.9885C20.3129 62.4008 32.8183 65.1641 48.2476 65.1641C63.677 65.1577 76.1824 62.3944 76.1824 58.9885Z" fill="#F3F3F3"/>
<path id="Vector_39" opacity="0.0618" d="M76.0863 58.9809C76.0863 55.5815 63.613 52.8311 48.2222 52.8311C32.8314 52.8311 20.3582 55.5815 20.3582 58.9809C20.3582 62.3804 32.8314 65.1373 48.2222 65.1373C63.6066 65.1373 76.0863 62.3804 76.0863 58.9809Z" fill="#F2F2F2"/>
<path id="Vector_40" opacity="0.0647" d="M75.9831 58.9763C75.9831 55.5897 63.542 52.8457 48.1897 52.8457C32.8375 52.8457 20.3964 55.5897 20.3964 58.9763C20.3964 62.3629 32.8375 65.1069 48.1897 65.1069C63.542 65.1133 75.9831 62.3693 75.9831 58.9763Z" fill="#F1F1F2"/>
<path id="Vector_41" opacity="0.0676" d="M75.887 58.9756C75.887 55.6018 63.478 52.8643 48.1707 52.8643C32.8635 52.8643 20.4545 55.6018 20.4545 58.9756C20.4545 62.3558 32.8635 65.0933 48.1707 65.0933C63.4715 65.0869 75.887 62.3493 75.887 58.9756Z" fill="#F0F1F1"/>
<path id="Vector_42" opacity="0.0706" d="M75.7843 58.969C75.7843 55.6017 63.4074 52.877 48.1387 52.877C32.8701 52.877 20.4932 55.6017 20.4932 58.969C20.4932 62.3363 32.8701 65.0675 48.1387 65.0675C63.4074 65.0675 75.7843 62.3363 75.7843 58.969Z" fill="#F0F0F0"/>
<path id="Vector_43" opacity="0.0735" d="M75.6877 58.9702C75.6877 55.6158 63.343 52.8975 48.1128 52.8975C32.8827 52.8975 20.538 55.6158 20.538 58.9702C20.538 62.3247 32.8827 65.0494 48.1128 65.0494C63.3365 65.043 75.6877 62.3247 75.6877 58.9702Z" fill="#EFEFF0"/>
<path id="Vector_44" opacity="0.0765" d="M75.585 58.9636C75.585 55.6156 63.2724 52.9102 48.0809 52.9102C32.8893 52.9102 20.5767 55.622 20.5767 58.9636C20.5767 62.3117 32.8893 65.0236 48.0809 65.0236C63.2724 65.0236 75.585 62.3117 75.585 58.9636Z" fill="#EEEFEF"/>
<path id="Vector_45" opacity="0.0794" d="M75.4886 58.9551C75.4886 55.6199 63.2081 52.9209 48.0615 52.9209C32.9085 52.9209 20.6344 55.6263 20.6344 58.9551C20.6344 62.2903 32.9149 64.9958 48.0615 64.9958C63.2081 64.9958 75.4886 62.2903 75.4886 58.9551Z" fill="#EEEEEE"/>
<path id="Vector_46" opacity="0.0824" d="M75.3859 58.9573C75.3859 55.635 63.1375 52.9424 48.0295 52.9424C32.9215 52.9424 20.6731 55.635 20.6731 58.9573C20.6731 62.2797 32.9215 64.9787 48.0295 64.9787C63.1375 64.9723 75.3859 62.2797 75.3859 58.9573Z" fill="#EDEDEE"/>
<path id="Vector_47" opacity="0.0853" d="M75.2893 58.9507C75.2893 55.6348 63.0731 52.9551 48.0036 52.9551C32.9341 52.9551 20.7179 55.6412 20.7179 58.9507C20.7179 62.2667 32.9341 64.9528 48.0036 64.9528C63.0731 64.9528 75.2893 62.2667 75.2893 58.9507Z" fill="#ECEDED"/>
<path id="Vector_48" opacity="0.0882" d="M75.1866 58.9432C75.1866 55.6401 63.0025 52.9668 47.9716 52.9668C32.9407 52.9668 20.7566 55.6401 20.7566 58.9432C20.7566 62.2463 32.9407 64.926 47.9716 64.926C63.0025 64.926 75.1866 62.2463 75.1866 58.9432Z" fill="#ECECEC"/>
<path id="Vector_49" opacity="0.0912" d="M75.0901 58.9454C75.0901 55.6552 62.9382 52.9883 47.9522 52.9883C32.9599 52.9883 20.8143 55.6552 20.8143 58.9454C20.8143 62.2356 32.9663 64.9089 47.9522 64.9089C62.9382 64.9025 75.0901 62.2356 75.0901 58.9454Z" fill="#EBEBEB"/>
<path id="Vector_50" opacity="0.0941" d="M74.9873 58.9388C74.9873 55.655 62.8675 53.001 47.9201 53.001C32.9727 53.001 20.8529 55.6614 20.8529 58.9388C20.8529 62.2226 32.9727 64.883 47.9201 64.883C62.8675 64.883 74.9873 62.2226 74.9873 58.9388Z" fill="#EAEBEB"/>
<path id="Vector_51" opacity="0.0971" d="M74.8909 58.9322C74.8909 55.6613 62.8032 53.0137 47.8943 53.0137C32.9855 53.0137 20.8978 55.6677 20.8978 58.9322C20.8978 62.2032 32.9855 64.8572 47.8943 64.8572C62.8032 64.8572 74.8909 62.2032 74.8909 58.9322Z" fill="#E9EAEA"/>
<path id="Vector_52" opacity="0.1" d="M74.788 58.9305C74.788 55.6724 62.7324 53.0312 47.8686 53.0312C32.9983 53.0312 20.9427 55.6724 20.9427 58.9305C20.9427 62.195 32.9983 64.8362 47.8686 64.8362C62.7324 64.8362 74.788 62.1886 74.788 58.9305Z" fill="#E9E9E9"/>
<path id="Vector_53" opacity="0.1029" d="M74.6917 58.9249C74.6917 55.6732 62.6683 53.0449 47.843 53.0449C33.0113 53.0449 20.9943 55.6797 20.9943 58.9249C20.9943 62.1766 33.0177 64.8113 47.843 64.8113C62.6683 64.8113 74.6917 62.1766 74.6917 58.9249Z" fill="#E8E8E9"/>
<path id="Vector_54" opacity="0.1059" d="M74.5889 58.9179C74.5889 55.6791 62.5976 53.0508 47.8109 53.0508C33.0177 53.0508 21.0328 55.6727 21.0328 58.9179C21.0328 62.1567 33.0242 64.785 47.8109 64.785C62.604 64.785 74.5889 62.1631 74.5889 58.9179Z" fill="#E7E8E8"/>
<path id="Vector_55" opacity="0.1088" d="M74.4924 58.9176C74.4924 55.6916 62.5333 53.0762 47.7851 53.0762C33.0369 53.0762 21.0778 55.6916 21.0778 58.9176C21.0778 62.15 33.0305 64.7655 47.7851 64.7655C62.5333 64.7655 74.4924 62.1436 74.4924 58.9176Z" fill="#E7E7E7"/>
<path id="Vector_56" opacity="0.1118" d="M74.3897 58.9126C74.3897 55.693 62.4627 53.084 47.7595 53.084C33.0499 53.084 21.1293 55.693 21.1293 58.9126C21.1293 62.1321 33.0499 64.7411 47.7595 64.7411C62.4691 64.7411 74.3897 62.1321 74.3897 58.9126Z" fill="#E6E6E7"/>
<path id="Vector_57" opacity="0.1147" d="M74.2933 58.906C74.2933 55.6993 62.3983 53.0967 47.7337 53.0967C33.0627 53.0967 21.1742 55.6929 21.1742 58.906C21.1742 62.1127 33.0627 64.7153 47.7337 64.7153C62.3983 64.7153 74.2933 62.1191 74.2933 58.906Z" fill="#E5E6E6"/>
<path id="Vector_58" opacity="0.1176" d="M74.1905 58.9053C74.1905 55.7114 62.3341 53.1152 47.7016 53.1152C33.0691 53.1152 21.2128 55.705 21.2128 58.9053C21.2128 62.1055 33.0691 64.6953 47.7016 64.6953C62.3341 64.6953 74.1905 62.0991 74.1905 58.9053Z" fill="#E4E5E5"/>
<path id="Vector_59" opacity="0.1206" d="M74.094 58.8977C74.094 55.7103 62.2698 53.127 47.6759 53.127C33.0883 53.127 21.2577 55.7103 21.2577 58.8977C21.2577 62.0851 33.0819 64.6684 47.6759 64.6684C62.2634 64.6684 74.094 62.0851 74.094 58.8977Z" fill="#E4E4E4"/>
<path id="Vector_60" opacity="0.1235" d="M73.9913 58.8931C73.9913 55.7185 62.1992 53.1416 47.6503 53.1416C33.1013 53.1416 21.3092 55.7121 21.3092 58.8931C21.3092 62.0676 33.1013 64.6445 47.6503 64.6445C62.1992 64.6509 73.9913 62.074 73.9913 58.8931Z" fill="#E3E3E4"/>
<path id="Vector_61" opacity="0.1265" d="M73.8948 58.8914C73.8948 55.7297 62.1349 53.1592 47.6245 53.1592C33.1141 53.1592 21.3541 55.7232 21.3541 58.8914C21.3541 62.0595 33.1141 64.6235 47.6245 64.6235C62.1284 64.6235 73.8948 62.0531 73.8948 58.8914Z" fill="#E2E3E3"/>
<path id="Vector_62" opacity="0.1294" d="M73.792 58.8858C73.792 55.7305 62.0642 53.1729 47.5924 53.1729C33.1205 53.1729 21.3927 55.7305 21.3927 58.8858C21.3927 62.041 33.1205 64.5987 47.5924 64.5987C62.0642 64.5987 73.792 62.041 73.792 58.8858Z" fill="#E2E2E2"/>
<path id="Vector_63" opacity="0.1324" d="M73.6956 58.886C73.6956 55.7436 61.9999 53.1924 47.5666 53.1924C33.1333 53.1924 21.4376 55.7372 21.4376 58.886C21.4376 62.0284 33.1333 64.5796 47.5666 64.5796C61.9999 64.5796 73.6956 62.0284 73.6956 58.886Z" fill="#E1E1E2"/>
<path id="Vector_64" opacity="0.1353" d="M73.5929 58.8814C73.5929 55.7454 61.9293 53.207 47.541 53.207C33.1527 53.207 21.4891 55.7454 21.4891 58.8814C21.4891 62.0174 33.1527 64.5557 47.541 64.5557C61.9293 64.5557 73.5929 62.0174 73.5929 58.8814Z" fill="#E0E1E1"/>
<path id="Vector_65" opacity="0.1382" d="M73.4964 58.8728C73.4964 55.7497 61.865 53.2178 47.5152 53.2178C33.1655 53.2178 21.5341 55.7497 21.5341 58.8728C21.5341 61.996 33.1655 64.5279 47.5152 64.5279C61.865 64.5279 73.4964 61.996 73.4964 58.8728Z" fill="#DFE0E0"/>
<path id="Vector_66" opacity="0.1412" d="M73.3936 58.8741C73.3936 55.7638 61.7943 53.2383 47.4831 53.2383C33.1719 53.2383 21.5726 55.7574 21.5726 58.8741C21.5726 61.9844 33.1719 64.5099 47.4831 64.5099C61.7943 64.5099 73.3936 61.9844 73.3936 58.8741Z" fill="#DFDFDF"/>
<path id="Vector_67" opacity="0.1441" d="M73.2972 58.8646C73.2972 55.7607 61.73 53.248 47.4574 53.248C33.1847 53.248 21.6176 55.7607 21.6176 58.8646C21.6176 61.9684 33.1847 64.4811 47.4574 64.4811C61.73 64.4811 73.2972 61.9684 73.2972 58.8646Z" fill="#DEDEDF"/>
<path id="Vector_68" opacity="0.1471" d="M73.1945 58.8599C73.1945 55.7689 61.6594 53.2627 47.4318 53.2627C33.2041 53.2627 21.6691 55.7689 21.6691 58.8599C21.6691 61.9509 33.2041 64.4572 47.4318 64.4572C61.6594 64.4572 73.1945 61.9509 73.1945 58.8599Z" fill="#DDDEDE"/>
<path id="Vector_69" opacity="0.15" d="M73.098 58.8612C73.098 55.783 61.5951 53.2832 47.406 53.2832C33.2169 53.2832 21.714 55.7766 21.714 58.8612C21.714 61.9393 33.2169 64.4391 47.406 64.4391C61.5951 64.4391 73.098 61.9393 73.098 58.8612Z" fill="#DCDDDD"/>
<path id="Vector_70" opacity="0.1529" d="M72.9952 58.8526C72.9952 55.7809 61.5244 53.2939 47.3739 53.2939C33.2234 53.2939 21.7526 55.7809 21.7526 58.8526C21.7526 61.9243 33.2234 64.4113 47.3739 64.4113C61.5244 64.4113 72.9952 61.9243 72.9952 58.8526Z" fill="#DCDCDD"/>
<path id="Vector_71" opacity="0.1559" d="M72.8989 58.848C72.8989 55.7891 61.4602 53.3086 47.3483 53.3086C33.2363 53.3086 21.8041 55.7891 21.8041 58.848C21.8041 61.9069 33.2427 64.3874 47.3483 64.3874C61.4602 64.3938 72.8989 61.9133 72.8989 58.848Z" fill="#DBDBDC"/>
<path id="Vector_72" opacity="0.1588" d="M72.796 58.8482C72.796 55.7958 61.3895 53.3281 47.3225 53.3281C33.2555 53.3281 21.849 55.7958 21.849 58.8482C21.849 61.9007 33.2555 64.3684 47.3225 64.3684C61.3895 64.3684 72.796 61.8943 72.796 58.8482Z" fill="#DADBDB"/>
<path id="Vector_73" opacity="0.1618" d="M72.6998 58.8426C72.6998 55.803 61.3254 53.3418 47.297 53.3418C33.2686 53.3418 21.8942 55.803 21.8942 58.8426C21.8942 61.8822 33.2686 64.3435 47.297 64.3435C61.3254 64.3435 72.6998 61.8822 72.6998 58.8426Z" fill="#D9DADA"/>
<path id="Vector_74" opacity="0.1647" d="M72.5968 58.8341C72.5968 55.8074 61.2545 53.3525 47.2646 53.3525C33.2748 53.3525 21.9325 55.8074 21.9325 58.8341C21.9325 61.8608 33.2748 64.3157 47.2646 64.3157C61.2609 64.3221 72.5968 61.8673 72.5968 58.8341Z" fill="#D9D9DA"/>
<path id="Vector_75" opacity="0.1676" d="M72.5005 58.8334C72.5005 55.8131 61.1903 53.3711 47.2454 53.3711C33.2941 53.3711 21.984 55.8131 21.984 58.8334C21.984 61.8537 33.2941 64.2957 47.2454 64.2957C61.1903 64.2957 72.5005 61.8473 72.5005 58.8334Z" fill="#D8D8D9"/>
<path id="Vector_76" opacity="0.1706" d="M72.3976 58.8278C72.3976 55.8203 61.1196 53.3848 47.2133 53.3848C33.3005 53.3848 22.0289 55.8203 22.0289 58.8278C22.0289 61.8352 33.3069 64.2708 47.2133 64.2708C61.126 64.2708 72.3976 61.8352 72.3976 58.8278Z" fill="#D7D8D8"/>
<path id="Vector_77" opacity="0.1735" d="M72.3014 58.8212C72.3014 55.8266 61.0555 53.3975 47.1877 53.3975C33.32 53.3975 22.0741 55.8266 22.0741 58.8212C22.0741 61.8158 33.32 64.2449 47.1877 64.2449C61.0555 64.2513 72.3014 61.8222 72.3014 58.8212Z" fill="#D6D7D7"/>
<path id="Vector_78" opacity="0.1765" d="M72.1983 58.8214C72.1983 55.8332 60.9846 53.417 47.1554 53.417C33.3262 53.417 22.1124 55.8332 22.1124 58.8214C22.1124 61.8096 33.3262 64.2259 47.1554 64.2259C60.991 64.2259 72.1983 61.8096 72.1983 58.8214Z" fill="#D6D6D7"/>
<path id="Vector_79" opacity="0.1794" d="M72.1022 58.8158C72.1022 55.8405 60.9206 53.4307 47.1364 53.4307C33.3457 53.4307 22.1705 55.8405 22.1705 58.8158C22.1705 61.7912 33.3521 64.201 47.1364 64.201C60.9206 64.2074 72.1022 61.7912 72.1022 58.8158Z" fill="#D5D5D6"/>
<path id="Vector_80" opacity="0.1824" d="M71.9992 58.8092C71.9992 55.8468 60.8497 53.4434 47.104 53.4434C33.3519 53.4434 22.2089 55.8468 22.2089 58.8092C22.2089 61.7717 33.3519 64.1751 47.104 64.1751C60.8561 64.1816 71.9992 61.7782 71.9992 58.8092Z" fill="#D4D5D5"/>
<path id="Vector_81" opacity="0.1853" d="M71.9026 58.8095C71.9026 55.8534 60.7852 53.4629 47.0781 53.4629C33.371 53.4629 22.2537 55.8534 22.2537 58.8095C22.2537 61.7656 33.3646 64.1561 47.0781 64.1561C60.7852 64.1561 71.9026 61.7656 71.9026 58.8095Z" fill="#D3D4D4"/>
<path id="Vector_82" opacity="0.1882" d="M71.8001 58.8029C71.8001 55.8597 60.7213 53.4756 47.0463 53.4756C33.3713 53.4756 22.299 55.8597 22.299 58.8029C22.299 61.7461 33.3777 64.1302 47.0527 64.1302C60.7277 64.1302 71.8001 61.7461 71.8001 58.8029Z" fill="#D3D3D4"/>
<path id="Vector_83" opacity="0.1912" d="M71.7034 58.8032C71.7034 55.8728 60.6568 53.4951 47.0268 53.4951C33.3968 53.4951 22.3501 55.8728 22.3501 58.8032C22.3501 61.7335 33.3968 64.1112 47.0268 64.1112C60.6568 64.1112 71.7034 61.7335 71.7034 58.8032Z" fill="#D2D2D3"/>
<path id="Vector_84" opacity="0.1941" d="M71.6006 58.7966C71.6006 55.8727 60.5861 53.5078 46.9946 53.5078C33.4032 53.5078 22.3887 55.8727 22.3887 58.7966C22.3887 61.7205 33.4032 64.0854 46.9946 64.0854C60.5861 64.0854 71.6006 61.7205 71.6006 58.7966Z" fill="#D1D2D2"/>
<path id="Vector_85" opacity="0.1971" d="M71.5042 58.791C71.5042 55.8799 60.5218 53.5215 46.9689 53.5215C33.4224 53.5215 22.4336 55.8799 22.4336 58.791C22.4336 61.7021 33.416 64.0605 46.9689 64.0605C60.5218 64.0669 71.5042 61.7021 71.5042 58.791Z" fill="#D0D1D1"/>
<path id="Vector_86" opacity="0.2" d="M71.4017 58.7893C71.4017 55.8911 60.4515 53.5391 46.9371 53.5391C33.4292 53.5391 22.4725 55.8911 22.4725 58.7893C22.4725 61.6875 33.4228 64.0395 46.9371 64.0395C60.4515 64.0395 71.4017 61.6875 71.4017 58.7893Z" fill="#D0D0D1"/>
<path id="Vector_87" opacity="0.2029" d="M71.305 58.7827C71.305 55.8909 60.3869 53.5518 46.9175 53.5518C33.4482 53.5518 22.53 55.8909 22.53 58.7827C22.53 61.6745 33.4482 64.0136 46.9175 64.0136C60.3869 64.0136 71.305 61.6745 71.305 58.7827Z" fill="#CFCFD0"/>
<path id="Vector_88" opacity="0.2059" d="M71.2026 58.7761C71.2026 55.8972 60.3165 53.5645 46.8858 53.5645C33.455 53.5645 22.569 55.8972 22.569 58.7761C22.569 61.6551 33.455 63.9942 46.8858 63.9942C60.3165 63.9942 71.2026 61.6615 71.2026 58.7761Z" fill="#CECFCF"/>
<path id="Vector_89" opacity="0.2088" d="M71.1057 58.7773C71.1057 55.9113 60.2519 53.585 46.8596 53.585C33.4674 53.585 22.6135 55.9113 22.6135 58.7773C22.6135 61.6499 33.4674 63.9762 46.8596 63.9762C60.2519 63.9697 71.1057 61.6434 71.1057 58.7773Z" fill="#CDCECE"/>
<path id="Vector_90" opacity="0.2118" d="M71.0032 58.7708C71.0032 55.9111 60.1815 53.5977 46.8342 53.5977C33.487 53.5977 22.6588 55.9175 22.6588 58.7708C22.6588 61.6304 33.4806 63.9503 46.8342 63.9503C60.1815 63.9503 71.0032 61.6304 71.0032 58.7708Z" fill="#CDCDCE"/>
<path id="Vector_91" opacity="0.2147" d="M70.9066 58.7632C70.9066 55.9164 60.1169 53.6094 46.8083 53.6094C33.4996 53.6094 22.71 55.9164 22.71 58.7632C22.71 61.61 33.4996 63.9234 46.8083 63.9234C60.1169 63.9234 70.9066 61.6164 70.9066 58.7632Z" fill="#CCCCCD"/>
<path id="Vector_92" opacity="0.2176" d="M70.8038 58.7644C70.8038 55.924 60.0463 53.6299 46.7761 53.6299C33.506 53.6299 22.7485 55.9305 22.7485 58.7644C22.7485 61.6048 33.506 63.9054 46.7761 63.9054C60.0463 63.899 70.8038 61.5984 70.8038 58.7644Z" fill="#CBCCCC"/>
<path id="Vector_93" opacity="0.2206" d="M70.7073 58.7578C70.7073 55.9303 59.9819 53.6426 46.7504 53.6426C33.5188 53.6426 22.7935 55.9367 22.7935 58.7578C22.7935 61.5854 33.5188 63.8795 46.7504 63.8795C59.9819 63.8795 70.7073 61.5854 70.7073 58.7578Z" fill="#CACBCB"/>
<path id="Vector_94" opacity="0.2235" d="M70.6046 58.7561C70.6046 55.9415 59.9114 53.6602 46.7248 53.6602C33.5382 53.6602 22.845 55.9415 22.845 58.7561C22.845 61.5708 33.5382 63.8586 46.7248 63.8586C59.9114 63.8586 70.6046 61.5708 70.6046 58.7561Z" fill="#C9CACB"/>
<path id="Vector_95" opacity="0.2265" d="M70.5081 58.7515C70.5081 55.9433 59.847 53.6748 46.699 53.6748C33.551 53.6748 22.8899 55.9497 22.8899 58.7515C22.8899 61.5598 33.551 63.8347 46.699 63.8347C59.847 63.8282 70.5081 61.5533 70.5081 58.7515Z" fill="#C9C9CA"/>
<path id="Vector_96" opacity="0.2294" d="M70.4053 58.744C70.4053 55.9486 59.7764 53.6865 46.6669 53.6865C33.5574 53.6865 22.9285 55.955 22.9285 58.744C22.9285 61.5394 33.5574 63.8078 46.6669 63.8078C59.7828 63.8078 70.4053 61.5394 70.4053 58.744Z" fill="#C8C9C9"/>
<path id="Vector_97" opacity="0.2324" d="M70.3092 58.7442C70.3092 55.9617 59.7124 53.7061 46.6415 53.7061C33.5706 53.7061 22.9738 55.9617 22.9738 58.7442C22.9738 61.5268 33.5706 63.7888 46.6415 63.7888C59.7124 63.7824 70.3092 61.5268 70.3092 58.7442Z" fill="#C7C8C8"/>
<path id="Vector_98" opacity="0.2353" d="M70.2062 58.7376C70.2062 55.9615 59.6415 53.7188 46.6155 53.7188C33.5832 53.7188 23.0249 55.9679 23.0249 58.7376C23.0249 61.5138 33.5896 63.7629 46.6155 63.7629C59.6479 63.7629 70.2062 61.5138 70.2062 58.7376Z" fill="#C6C7C8"/>
<path id="Vector_99" opacity="0.2382" d="M70.11 58.7336C70.11 55.9703 59.5774 53.7275 46.59 53.7275C33.6026 53.7275 23.0701 55.9703 23.0701 58.7336C23.0701 61.4968 33.6026 63.7396 46.59 63.7396C59.5774 63.7396 70.11 61.4968 70.11 58.7336Z" fill="#C6C6C7"/>
<path id="Vector_100" opacity="0.2412" d="M70.0069 58.7313C70.0069 55.9809 59.5065 53.751 46.5577 53.751C33.6088 53.751 23.1084 55.9809 23.1084 58.7313C23.1084 61.4817 33.6088 63.718 46.5577 63.718C59.5129 63.7116 70.0069 61.4817 70.0069 58.7313Z" fill="#C5C5C6"/>
<path id="Vector_101" opacity="0.2441" d="M69.9108 58.7243C69.9108 55.9803 59.4425 53.7568 46.5323 53.7568C33.622 53.7568 23.1537 55.9803 23.1537 58.7243C23.1537 61.4683 33.622 63.6918 46.5323 63.6918C59.4425 63.6918 69.9108 61.4683 69.9108 58.7243Z" fill="#C4C5C5"/>
<path id="Vector_102" opacity="0.2471" d="M69.8077 58.7197C69.8077 55.9885 59.3716 53.7715 46.5063 53.7715C33.6346 53.7715 23.2048 55.9885 23.2048 58.7197C23.2048 61.4508 33.641 63.6679 46.5063 63.6679C59.378 63.6679 69.8077 61.4508 69.8077 58.7197Z" fill="#C3C4C4"/>
<path id="Vector_103" opacity="0.25" d="M69.7115 58.7199C69.7115 56.0016 59.3075 53.791 46.4808 53.791C33.654 53.791 23.25 55.9952 23.25 58.7199C23.25 61.4446 33.654 63.6488 46.4808 63.6488C59.3075 63.6488 69.7115 61.4382 69.7115 58.7199Z" fill="#C2C3C4"/>
<path id="Vector_104" opacity="0.2529" d="M69.6151 58.7124C69.6151 56.0005 59.2496 53.8027 46.455 53.8027C33.6604 53.8027 23.2949 56.0005 23.2949 58.7124C23.2949 61.4242 33.6604 63.622 46.455 63.622C59.2496 63.622 69.6151 61.4242 69.6151 58.7124Z" fill="#C2C2C3"/>
<path id="Vector_105" opacity="0.2559" d="M69.5124 58.7058C69.5124 56.0068 59.179 53.8154 46.423 53.8154C33.6734 53.8154 23.3336 56.0068 23.3336 58.7058C23.3336 61.4048 33.667 63.5961 46.423 63.5961C59.1726 63.5961 69.5124 61.4048 69.5124 58.7058Z" fill="#C1C2C2"/>
<path id="Vector_106" opacity="0.2588" d="M69.4159 58.706C69.4159 56.0199 59.1147 53.835 46.4036 53.835C33.6926 53.835 23.3914 56.0134 23.3914 58.706C23.3914 61.3986 33.6926 63.5771 46.4036 63.5771C59.1082 63.5771 69.4159 61.3922 69.4159 58.706Z" fill="#C0C1C1"/>
<path id="Vector_107" opacity="0.2618" d="M69.3131 58.7004C69.3131 56.0207 59.044 53.8486 46.3715 53.8486C33.699 53.8486 23.4299 56.0207 23.4299 58.7004C23.4299 61.3802 33.699 63.5522 46.3715 63.5522C59.044 63.5522 69.3131 61.3802 69.3131 58.7004Z" fill="#BFC0C0"/>
<path id="Vector_108" opacity="0.2647" d="M69.2166 58.6919C69.2166 56.025 58.9797 53.8594 46.3457 53.8594C33.7182 53.8594 23.4749 56.0186 23.4749 58.6919C23.4749 61.3588 33.7118 63.5244 46.3457 63.5244C58.9733 63.5244 69.2166 61.3652 69.2166 58.6919Z" fill="#BEBFC0"/>
<path id="Vector_109" opacity="0.2676" d="M69.1138 58.6941C69.1138 56.0336 58.9089 53.8809 46.32 53.8809C33.731 53.8809 23.5198 56.0336 23.5198 58.6941C23.5198 61.3545 33.7246 63.5073 46.3136 63.5073C58.9025 63.5073 69.1138 61.3481 69.1138 58.6941Z" fill="#BEBEBF"/>
<path id="Vector_110" opacity="0.2706" d="M69.0175 58.6856C69.0175 56.038 58.8448 53.8916 46.2944 53.8916C33.744 53.8916 23.5713 56.038 23.5713 58.6856C23.5713 61.3332 33.744 63.4795 46.2944 63.4795C58.8448 63.4795 69.0175 61.3332 69.0175 58.6856Z" fill="#BDBEBE"/>
<path id="Vector_111" opacity="0.2735" d="M68.9143 58.68C68.9143 56.0452 58.7737 53.9053 46.2619 53.9053C33.7501 53.9053 23.6095 56.0388 23.6095 58.68C23.6095 61.3211 33.7501 63.4546 46.2619 63.4546C58.7737 63.4546 68.9143 61.3211 68.9143 58.68Z" fill="#BCBDBD"/>
<path id="Vector_112" opacity="0.2765" d="M68.8182 58.6802C68.8182 56.0519 58.7098 53.9248 46.2365 53.9248C33.7632 53.9248 23.6548 56.0519 23.6548 58.6802C23.6548 61.3085 33.7632 63.4356 46.2365 63.4356C58.7034 63.4356 68.8182 61.3021 68.8182 58.6802Z" fill="#BBBCBC"/>
<path id="Vector_113" opacity="0.2794" d="M68.7151 58.6736C68.7151 56.0582 58.6388 53.9375 46.2105 53.9375C33.7822 53.9375 23.7059 56.0582 23.7059 58.6736C23.7059 61.2891 33.7822 63.4097 46.2105 63.4097C58.6388 63.4097 68.7151 61.2891 68.7151 58.6736Z" fill="#BABBBC"/>
<path id="Vector_114" opacity="0.2824" d="M68.619 58.6739C68.619 56.0713 58.5749 53.957 46.1851 53.957C33.7954 53.957 23.7512 56.0713 23.7512 58.6739C23.7512 61.2765 33.7954 63.3907 46.1851 63.3907C58.5749 63.3907 68.619 61.2765 68.619 58.6739Z" fill="#BABABB"/>
<path id="Vector_115" opacity="0.2853" d="M68.5159 58.6683C68.5159 56.0721 58.5038 53.9707 46.1527 53.9707C33.8015 53.9707 23.7894 56.0721 23.7894 58.6683C23.7894 61.2645 33.8015 63.3658 46.1527 63.3658C58.5038 63.3658 68.5159 61.2645 68.5159 58.6683Z" fill="#B9BABA"/>
<path id="Vector_116" opacity="0.2882" d="M68.4198 58.6617C68.4198 56.0783 58.4399 53.9834 46.1272 53.9834C33.8146 53.9834 23.8347 56.0783 23.8347 58.6617C23.8347 61.245 33.8146 63.34 46.1272 63.34C58.4399 63.34 68.4198 61.245 68.4198 58.6617Z" fill="#B8B9B9"/>
<path id="Vector_117" opacity="0.2912" d="M68.3167 58.6531C68.3167 56.0827 58.3689 53.9941 46.1013 53.9941C33.8336 53.9941 23.8859 56.0827 23.8859 58.6531C23.8859 61.2236 33.8336 63.3121 46.1013 63.3121C58.3689 63.3186 68.3167 61.2301 68.3167 58.6531Z" fill="#B7B8B8"/>
<path id="Vector_118" opacity="0.2941" d="M68.2206 58.6553C68.2206 56.0913 58.305 54.0156 46.0759 54.0156C33.8468 54.0156 23.9312 56.0913 23.9312 58.6553C23.9312 61.2194 33.8468 63.2951 46.0759 63.2951C58.305 63.2951 68.2206 61.2194 68.2206 58.6553Z" fill="#B6B7B8"/>
<path id="Vector_119" opacity="0.2971" d="M68.1178 58.6468C68.1178 56.0956 58.2343 54.0264 46.0438 54.0264C33.8532 54.0264 23.9697 56.0956 23.9697 58.6468C23.9697 61.198 33.8532 63.2673 46.0438 63.2673C58.2343 63.2673 68.1178 61.198 68.1178 58.6468Z" fill="#B6B6B7"/>
<path id="Vector_120" opacity="0.3" d="M68.0214 58.649C68.0214 56.1107 58.17 54.0479 46.018 54.0479C33.866 54.0479 24.0146 56.1107 24.0146 58.649C24.0146 61.1874 33.866 63.2502 46.018 63.2502C58.17 63.2502 68.0214 61.1874 68.0214 58.649Z" fill="#B5B5B6"/>
<path id="Vector_121" opacity="0.3029" d="M67.9186 58.6415C67.9186 56.1095 58.0994 54.0596 45.9924 54.0596C33.879 54.0596 24.0662 56.1095 24.0662 58.6415C24.0662 61.1734 33.8854 63.2233 45.9924 63.2233C58.0994 63.2233 67.9186 61.1734 67.9186 58.6415Z" fill="#B4B5B5"/>
<path id="Vector_122" opacity="0.3059" d="M67.8221 58.6349C67.8221 56.1158 58.0349 54.0723 45.9665 54.0723C33.8981 54.0723 24.111 56.1158 24.111 58.6349C24.111 61.154 33.8981 63.1975 45.9665 63.1975C58.0349 63.1975 67.8221 61.154 67.8221 58.6349Z" fill="#B3B4B4"/>
<path id="Vector_123" opacity="0.3088" d="M67.7194 58.6351C67.7194 56.1289 57.9644 54.0918 45.9345 54.0918C33.9047 54.0918 24.1497 56.1289 24.1497 58.6351C24.1497 61.1478 33.9047 63.1785 45.9345 63.1785C57.9644 63.1785 67.7194 61.1414 67.7194 58.6351Z" fill="#B2B3B4"/>
<path id="Vector_124" opacity="0.3118" d="M67.6229 58.6295C67.6229 56.1297 57.9001 54.1055 45.9088 54.1055C33.9174 54.1055 24.1946 56.1297 24.1946 58.6295C24.1946 61.1293 33.9174 63.1536 45.9088 63.1536C57.9001 63.1536 67.6229 61.1293 67.6229 58.6295Z" fill="#B2B2B3"/>
<path id="Vector_125" opacity="0.3147" d="M67.5202 58.6229C67.5202 56.136 57.8295 54.1182 45.8832 54.1182C33.9368 54.1182 24.2461 56.136 24.2461 58.6229C24.2461 61.1099 33.9368 63.1277 45.8832 63.1277C57.8295 63.1277 67.5202 61.1163 67.5202 58.6229Z" fill="#B1B1B2"/>
<path id="Vector_126" opacity="0.3176" d="M67.4236 58.6222C67.4236 56.1417 57.765 54.1367 45.8573 54.1367C33.9495 54.1367 24.2909 56.1481 24.2909 58.6222C24.2909 61.1027 33.9495 63.1077 45.8573 63.1077C57.765 63.1077 67.4236 61.0963 67.4236 58.6222Z" fill="#B0B0B1"/>
<path id="Vector_127" opacity="0.3206" d="M67.321 58.6156C67.321 56.148 57.6945 54.1494 45.8253 54.1494C33.9561 54.1494 24.3296 56.148 24.3296 58.6156C24.3296 61.0833 33.9561 63.0819 45.8253 63.0819C57.7009 63.0819 67.321 61.0833 67.321 58.6156Z" fill="#AFB0B0"/>
<path id="Vector_128" opacity="0.3235" d="M67.2245 58.61C67.2245 56.1552 57.6366 54.1631 45.8059 54.1631C33.9752 54.1631 24.3873 56.1552 24.3873 58.61C24.3873 61.0648 33.9752 63.057 45.8059 63.057C57.6301 63.0634 67.2245 61.0713 67.2245 58.61Z" fill="#AEAFAF"/>
<path id="Vector_129" opacity="0.3265" d="M67.1217 58.6083C67.1217 56.1599 57.5659 54.1807 45.7738 54.1807C33.9817 54.1807 24.4259 56.1599 24.4259 58.6083C24.4259 61.0567 33.9817 63.036 45.7738 63.036C57.5659 63.036 67.1217 61.0503 67.1217 58.6083Z" fill="#ADAEAF"/>
<path id="Vector_130" opacity="0.3294" d="M67.0252 58.6037C67.0252 56.1682 57.5016 54.1953 45.748 54.1953C33.9945 54.1953 24.4708 56.1682 24.4708 58.6037C24.4708 61.0392 33.9945 63.0121 45.748 63.0121C57.5016 63.0121 67.0252 61.0392 67.0252 58.6037Z" fill="#ADADAE"/>
<path id="Vector_131" opacity="0.3324" d="M66.9225 58.5981C66.9225 56.1754 57.431 54.209 45.716 54.209C34.0075 54.209 24.5095 56.1754 24.5095 58.5981C24.5095 61.0208 34.001 62.9872 45.716 62.9872C57.431 62.9936 66.9225 61.0272 66.9225 58.5981Z" fill="#ACACAD"/>
<path id="Vector_132" opacity="0.3353" d="M66.826 58.5974C66.826 56.1811 57.3667 54.2275 45.6967 54.2275C34.0266 54.2275 24.5673 56.1875 24.5673 58.5974C24.5673 61.0136 34.0266 62.9672 45.6967 62.9672C57.3602 62.9672 66.826 61.0072 66.826 58.5974Z" fill="#ABABAC"/>
<path id="Vector_133" opacity="0.3382" d="M66.7232 58.5898C66.7232 56.1864 57.296 54.2393 45.6645 54.2393C34.0331 54.2393 24.6058 56.1864 24.6058 58.5898C24.6058 60.9932 34.0331 62.9404 45.6645 62.9404C57.296 62.9468 66.7232 60.9932 66.7232 58.5898Z" fill="#AAABAB"/>
<path id="Vector_134" opacity="0.3412" d="M66.6268 58.5901C66.6268 56.1995 57.2317 54.2588 45.6388 54.2588C34.0459 54.2588 24.6508 56.1995 24.6508 58.5901C24.6508 60.9806 34.0459 62.9213 45.6388 62.9213C57.2317 62.9213 66.6268 60.9806 66.6268 58.5901Z" fill="#A9AAAA"/>
<path id="Vector_135" opacity="0.3441" d="M66.5241 58.5835C66.5241 56.1994 57.1611 54.2715 45.6068 54.2715C34.0589 54.2715 24.6895 56.1994 24.6895 58.5835C24.6895 60.9676 34.0524 62.8955 45.6068 62.8955C57.1611 62.8955 66.5241 60.9676 66.5241 58.5835Z" fill="#A8A9A9"/>
<path id="Vector_136" opacity="0.3471" d="M66.4274 58.5769C66.4274 56.2056 57.0966 54.2842 45.5872 54.2842C34.0779 54.2842 24.7406 56.2056 24.7406 58.5769C24.7406 60.9482 34.0715 62.8696 45.5808 62.8696C57.0902 62.8696 66.4274 60.9482 66.4274 58.5769Z" fill="#A8A8A9"/>
<path id="Vector_137" opacity="0.35" d="M66.3248 58.5771C66.3248 56.2187 57.0261 54.3037 45.5553 54.3037C34.0845 54.3037 24.7858 56.2187 24.7858 58.5771C24.7858 60.9356 34.0845 62.8506 45.5553 62.8506C57.0261 62.8506 66.3248 60.9356 66.3248 58.5771Z" fill="#A7A7A8"/>
<path id="Vector_138" opacity="0.3529" d="M66.2284 58.5706C66.2284 56.2186 56.9618 54.3164 45.5295 54.3164C34.0973 54.3164 24.8307 56.2186 24.8307 58.5706C24.8307 60.9226 34.0973 62.8311 45.5295 62.8311C56.9618 62.8311 66.2284 60.9226 66.2284 58.5706Z" fill="#A6A6A7"/>
<path id="Vector_139" opacity="0.3559" d="M66.1253 58.5649C66.1253 56.2258 56.8908 54.3301 45.4972 54.3301C34.1035 54.3301 24.869 56.2258 24.869 58.5649C24.869 60.9041 34.1035 62.7998 45.4972 62.7998C56.8908 62.8063 66.1253 60.9041 66.1253 58.5649Z" fill="#A5A5A6"/>
<path id="Vector_140" opacity="0.3588" d="M66.0292 58.5642C66.0292 56.2315 56.8268 54.3486 45.4782 54.3486C34.1295 54.3486 24.9271 56.2379 24.9271 58.5642C24.9271 60.8905 34.1295 62.7862 45.4782 62.7862C56.8268 62.7798 66.0292 60.8905 66.0292 58.5642Z" fill="#A4A5A5"/>
<path id="Vector_141" opacity="0.3618" d="M65.926 58.5586C65.926 56.2388 56.7558 54.3623 45.4457 54.3623C34.1355 54.3623 24.9653 56.2452 24.9653 58.5586C24.9653 60.8785 34.1355 62.7614 45.4457 62.7614C56.7558 62.7614 65.926 60.8785 65.926 58.5586Z" fill="#A3A4A4"/>
<path id="Vector_142" opacity="0.3647" d="M65.8299 58.552C65.8299 56.245 56.6919 54.375 45.4203 54.375C34.1487 54.375 25.0106 56.245 25.0106 58.552C25.0106 60.859 34.1487 62.7355 45.4203 62.7355C56.6919 62.7355 65.8299 60.8655 65.8299 58.552Z" fill="#A2A3A3"/>
<path id="Vector_143" opacity="0.3676" d="M65.727 58.5523C65.727 56.2517 56.6211 54.3945 45.3881 54.3945C34.1551 54.3945 25.0555 56.2581 25.0555 58.5523C25.0555 60.8529 34.1615 62.7165 45.3881 62.7165C56.6211 62.71 65.727 60.8465 65.727 58.5523Z" fill="#A1A2A2"/>
<path id="Vector_144" opacity="0.3706" d="M65.6308 58.5467C65.6308 56.2589 56.5569 54.4082 45.3689 54.4082C34.1809 54.4082 25.1071 56.2589 25.1071 58.5467C25.1071 60.8344 34.1809 62.6916 45.3689 62.6916C56.5569 62.6916 65.6308 60.8344 65.6308 58.5467Z" fill="#A1A1A2"/>
<path id="Vector_145" opacity="0.3735" d="M65.528 58.5401C65.528 56.2652 56.4863 54.4209 45.3368 54.4209C34.1873 54.4209 25.1456 56.2652 25.1456 58.5401C25.1456 60.815 34.1873 62.6657 45.3368 62.6657C56.4927 62.6657 65.528 60.8214 65.528 58.5401Z" fill="#A0A0A1"/>
<path id="Vector_146" opacity="0.3765" d="M65.4315 58.5384C65.4315 56.2699 56.4219 54.4385 45.311 54.4385C34.2001 54.4385 25.1906 56.2764 25.1906 58.5384C25.1906 60.8069 34.2001 62.6448 45.311 62.6448C56.4219 62.6383 65.4315 60.8004 65.4315 58.5384Z" fill="#9F9FA0"/>
<path id="Vector_147" opacity="0.3794" d="M65.3288 58.5314C65.3288 56.2758 56.3514 54.4443 45.2854 54.4443C34.2131 54.4443 25.2421 56.2758 25.2421 58.5314C25.2421 60.787 34.2195 62.6185 45.2854 62.6185C56.3578 62.6185 65.3288 60.787 65.3288 58.5314Z" fill="#9E9E9F"/>
<path id="Vector_148" opacity="0.3824" d="M65.2323 58.5258C65.2323 56.2831 56.287 54.458 45.2597 54.458C34.2259 54.458 25.287 56.2766 25.287 58.5258C25.287 60.7686 34.2323 62.5936 45.2597 62.5936C56.287 62.5936 65.2323 60.775 65.2323 58.5258Z" fill="#9D9D9E"/>
<path id="Vector_149" opacity="0.3853" d="M65.1295 58.5255C65.1295 56.2892 56.2164 54.4834 45.2275 54.4834C34.2387 54.4834 25.3256 56.2956 25.3256 58.5255C25.3256 60.7618 34.2387 62.574 45.2275 62.574C56.2164 62.574 65.1295 60.7618 65.1295 58.5255Z" fill="#9C9D9D"/>
<path id="Vector_150" opacity="0.3882" d="M65.0334 58.5175C65.0334 56.294 56.1524 54.4883 45.2021 54.4883C34.2519 54.4883 25.3708 56.294 25.3708 58.5175C25.3708 60.741 34.2519 62.5468 45.2021 62.5468C56.1524 62.5468 65.0334 60.741 65.0334 58.5175Z" fill="#9B9C9C"/>
<path id="Vector_151" opacity="0.3912" d="M64.9304 58.5139C64.9304 56.3032 56.0879 54.5039 45.1762 54.5039C34.2645 54.5039 25.422 56.2968 25.422 58.5139C25.422 60.7245 34.2709 62.5238 45.1762 62.5238C56.0879 62.5238 64.9304 60.7309 64.9304 58.5139Z" fill="#9A9B9B"/>
<path id="Vector_152" opacity="0.3941" d="M64.8341 58.5131C64.8341 56.309 56.0238 54.5225 45.1507 54.5225C34.2775 54.5225 25.4672 56.309 25.4672 58.5131C25.4672 60.7173 34.2775 62.5038 45.1507 62.5038C56.0174 62.5038 64.8341 60.7173 64.8341 58.5131Z" fill="#9A9A9A"/>
<path id="Vector_153" opacity="0.3971" d="M64.7311 58.5066C64.7311 56.3152 55.9529 54.5352 45.1183 54.5352C34.2901 54.5352 25.5055 56.3152 25.5055 58.5066C25.5055 60.6979 34.2837 62.478 45.1183 62.478C55.9529 62.478 64.7311 60.6979 64.7311 58.5066Z" fill="#999999"/>
<path id="Vector_154" opacity="0.4" d="M64.6346 58.5078C64.6346 56.3293 55.8886 54.5557 45.0925 54.5557C34.3029 54.5557 25.5504 56.3229 25.5504 58.5078C25.5504 60.6863 34.2965 62.4599 45.0925 62.4599C55.8821 62.4535 64.6346 60.6863 64.6346 58.5078Z" fill="#989899"/>
<path id="Vector_155" opacity="0.4029" d="M64.5319 58.5012C64.5319 56.3291 55.818 54.5684 45.0669 54.5684C34.3159 54.5684 25.6019 56.3291 25.6019 58.5012C25.6019 60.6733 34.3159 62.434 45.0669 62.434C55.818 62.434 64.5319 60.6733 64.5319 58.5012Z" fill="#979798"/>
<path id="Vector_156" opacity="0.4059" d="M64.4354 58.4946C64.4354 56.3354 55.7535 54.5811 45.041 54.5811C34.3285 54.5811 25.6467 56.3354 25.6467 58.4946C25.6467 60.6538 34.3285 62.4082 45.041 62.4082C55.7535 62.4082 64.4354 60.6538 64.4354 58.4946Z" fill="#969697"/>
<path id="Vector_157" opacity="0.4088" d="M64.3327 58.4958C64.3327 56.3495 55.683 54.6016 45.009 54.6016C34.3351 54.6016 25.6854 56.3431 25.6854 58.4958C25.6854 60.6486 34.3351 62.3901 45.009 62.3901C55.683 62.3837 64.3327 60.6422 64.3327 58.4958Z" fill="#959596"/>
<path id="Vector_158" opacity="0.4118" d="M64.2362 58.4873C64.2362 56.3474 55.6187 54.6123 44.9833 54.6123C34.3543 54.6123 25.7303 56.3474 25.7303 58.4873C25.7303 60.6272 34.3479 62.3623 44.9833 62.3623C55.6187 62.3623 64.2362 60.6272 64.2362 58.4873Z" fill="#949595"/>
<path id="Vector_159" opacity="0.4147" d="M64.1334 58.4807C64.1334 56.3537 55.548 54.625 44.9576 54.625C34.3672 54.625 25.7817 56.3472 25.7817 58.4807C25.7817 60.6142 34.3672 62.3365 44.9576 62.3365C55.548 62.3365 64.1334 60.6142 64.1334 58.4807Z" fill="#939494"/>
<path id="Vector_160" opacity="0.4176" d="M64.0369 58.481C64.0369 56.3668 55.4836 54.6445 44.9318 54.6445C34.3799 54.6445 25.8267 56.3603 25.8267 58.481C25.8267 60.6016 34.3799 62.3174 44.9318 62.3174C55.4836 62.3174 64.0369 60.5952 64.0369 58.481Z" fill="#939393"/>
<path id="Vector_161" opacity="0.4206" d="M63.9342 58.4754C63.9342 56.3676 55.4131 54.6582 44.8998 54.6582C34.3865 54.6582 25.8654 56.3676 25.8654 58.4754C25.8654 60.5832 34.3865 62.2925 44.8998 62.2925C55.4131 62.2925 63.9342 60.5832 63.9342 58.4754Z" fill="#929292"/>
<path id="Vector_162" opacity="0.4235" d="M63.8378 58.4678C63.8378 56.3729 55.3487 54.6699 44.8804 54.6699C34.4121 54.6699 25.9231 56.3729 25.9231 58.4678C25.9231 60.5628 34.4121 62.2657 44.8804 62.2657C55.3487 62.2657 63.8378 60.5692 63.8378 58.4678Z" fill="#919191"/>
<path id="Vector_163" opacity="0.4265" d="M63.735 58.469C63.735 56.3805 55.2781 54.6904 44.8483 54.6904C34.4186 54.6904 25.9617 56.3805 25.9617 58.469C25.9617 60.5576 34.4186 62.2477 44.8483 62.2477C55.2781 62.2477 63.735 60.5511 63.735 58.469Z" fill="#909090"/>
<path id="Vector_164" opacity="0.4294" d="M63.6385 58.4625C63.6385 56.3868 55.2137 54.7031 44.8225 54.7031C34.4314 54.7031 26.0066 56.3868 26.0066 58.4625C26.0066 60.5381 34.4314 62.2218 44.8225 62.2218C55.2137 62.2218 63.6385 60.5381 63.6385 58.4625Z" fill="#8F8F90"/>
<path id="Vector_165" opacity="0.4324" d="M63.5361 58.4559C63.5361 56.3931 55.1434 54.7158 44.7908 54.7158C34.4382 54.7158 26.0455 56.3931 26.0455 58.4559C26.0455 60.5187 34.4382 62.1959 44.7908 62.1959C55.1499 62.1959 63.5361 60.5251 63.5361 58.4559Z" fill="#8E8E8F"/>
<path id="Vector_166" opacity="0.4353" d="M63.4393 58.4542C63.4393 56.3978 55.0788 54.7334 44.7712 54.7334C34.4571 54.7334 26.103 56.3978 26.103 58.4542C26.103 60.5106 34.4635 62.175 44.7712 62.175C55.0788 62.175 63.4393 60.5041 63.4393 58.4542Z" fill="#8D8D8E"/>
<path id="Vector_167" opacity="0.4382" d="M63.3369 58.4495C63.3369 56.406 55.0085 54.748 44.7394 54.748C34.4703 54.748 26.142 56.406 26.142 58.4495C26.142 60.4931 34.4703 62.151 44.7394 62.151C55.0149 62.151 63.3369 60.4931 63.3369 58.4495Z" fill="#8C8C8D"/>
<path id="Vector_168" opacity="0.4412" d="M63.2401 58.4439C63.2401 56.4133 54.9438 54.7617 44.7133 54.7617C34.4828 54.7617 26.1865 56.4133 26.1865 58.4439C26.1865 60.4746 34.4828 62.1262 44.7133 62.1262C54.9438 62.1326 63.2401 60.4811 63.2401 58.4439Z" fill="#8B8B8C"/>
<path id="Vector_169" opacity="0.4441" d="M63.1374 58.4413C63.1374 56.417 54.8733 54.7783 44.6813 54.7783C34.4893 54.7783 26.2252 56.417 26.2252 58.4413C26.2252 60.4655 34.4893 62.1042 44.6813 62.1042C54.8797 62.1042 63.1374 60.4655 63.1374 58.4413Z" fill="#8A8A8B"/>
<path id="Vector_170" opacity="0.4471" d="M63.0409 58.4357C63.0409 56.4242 54.8089 54.792 44.6619 54.792C34.5085 54.792 26.283 56.4242 26.283 58.4357C26.283 60.4471 34.5149 62.0793 44.6619 62.0793C54.8089 62.0793 63.0409 60.4471 63.0409 58.4357Z" fill="#8A8A8A"/>
<path id="Vector_171" opacity="0.45" d="M62.9381 58.4359C62.9381 56.4374 54.7382 54.8115 44.6298 54.8115C34.5214 54.8115 26.3215 56.4374 26.3215 58.4359C26.3215 60.4409 34.5214 62.0603 44.6298 62.0603C54.7447 62.0603 62.9381 60.4345 62.9381 58.4359Z" fill="#898989"/>
<path id="Vector_172" opacity="0.4529" d="M62.842 58.4293C62.842 56.4372 54.6743 54.8242 44.6044 54.8242C34.5345 54.8242 26.3668 56.4372 26.3668 58.4293C26.3668 60.4215 34.5345 62.0344 44.6044 62.0344C54.6743 62.0344 62.842 60.4215 62.842 58.4293Z" fill="#888888"/>
<path id="Vector_173" opacity="0.4559" d="M62.7388 58.4237C62.7388 56.4444 54.6033 54.8379 44.5719 54.8379C34.5406 54.8379 26.405 56.4444 26.405 58.4237C26.405 60.403 34.5406 62.0095 44.5719 62.0095C54.6097 62.0095 62.7388 60.403 62.7388 58.4237Z" fill="#878787"/>
<path id="Vector_174" opacity="0.4588" d="M62.6428 58.424C62.6428 56.4511 54.5394 54.8574 44.553 54.8574C34.5603 54.8574 26.4633 56.4576 26.4633 58.424C26.4633 60.3904 34.5667 61.9905 44.553 61.9905C54.5394 61.9905 62.6428 60.3904 62.6428 58.424Z" fill="#868686"/>
<path id="Vector_175" opacity="0.4618" d="M62.5397 58.4164C62.5397 56.4564 54.4748 54.8691 44.5206 54.8691C34.5664 54.8691 26.5015 56.4564 26.5015 58.4164C26.5015 60.3764 34.5728 61.9637 44.5206 61.9637C54.4748 61.9637 62.5397 60.3764 62.5397 58.4164Z" fill="#858585"/>
<path id="Vector_176" opacity="0.4647" d="M62.4436 58.4108C62.4436 56.4637 54.4108 54.8828 44.4952 54.8828C34.5859 54.8828 26.5468 56.4637 26.5468 58.4108C26.5468 60.3579 34.5795 61.9388 44.4952 61.9388C54.4108 61.9452 62.4436 60.3644 62.4436 58.4108Z" fill="#848484"/>
<path id="Vector_177" opacity="0.4676" d="M62.3469 58.4111C62.3469 56.4703 54.3463 54.9023 44.4692 54.9023C34.5985 54.9023 26.5979 56.4768 26.5979 58.4111C26.5979 60.3518 34.5985 61.9198 44.4692 61.9198C54.3399 61.9198 62.3469 60.3453 62.3469 58.4111Z" fill="#838383"/>
<path id="Vector_178" opacity="0.4706" d="M62.2443 58.4045C62.2443 56.4766 54.2758 54.915 44.4437 54.915C34.6116 54.915 26.6431 56.4766 26.6431 58.4045C26.6431 60.3323 34.6116 61.8939 44.4437 61.8939C54.2758 61.8939 62.2443 60.3323 62.2443 58.4045Z" fill="#828282"/>
<path id="Vector_179" opacity="0.4735" d="M62.1475 58.3959C62.1475 56.4809 54.2111 54.9258 44.4175 54.9258C34.624 54.9258 26.6876 56.4809 26.6876 58.3959C26.6876 60.3109 34.624 61.8661 44.4175 61.8661C54.2047 61.8725 62.1475 60.3174 62.1475 58.3959Z" fill="#818182"/>
<path id="Vector_180" opacity="0.4765" d="M62.0452 58.3972C62.0452 56.4886 54.1409 54.9463 44.3859 54.9463C34.6374 54.9463 26.7267 56.495 26.7267 58.3972C26.7267 60.3058 34.6309 61.848 44.3859 61.848C54.1409 61.848 62.0452 60.2993 62.0452 58.3972Z" fill="#818081"/>
<path id="Vector_181" opacity="0.4794" d="M61.9485 58.3906C61.9485 56.4949 54.0764 54.959 44.36 54.959C34.6499 54.959 26.7778 56.4949 26.7778 58.3906C26.7778 60.2863 34.6499 61.8222 44.36 61.8222C54.07 61.8222 61.9485 60.2863 61.9485 58.3906Z" fill="#807F80"/>
<path id="Vector_182" opacity="0.4824" d="M61.8459 58.384C61.8459 56.5011 54.0059 54.9717 44.3344 54.9717C34.663 54.9717 26.823 56.5011 26.823 58.384C26.823 60.2669 34.663 61.7963 44.3344 61.7963C54.0059 61.8027 61.8459 60.2733 61.8459 58.384Z" fill="#7F7E7F"/>
<path id="Vector_183" opacity="0.4853" d="M44.3087 61.7773C53.9409 61.7773 61.7494 60.2582 61.7494 58.3843C61.7494 56.5103 53.9409 54.9912 44.3087 54.9912C34.6764 54.9912 26.8679 56.5103 26.8679 58.3843C26.8679 60.2582 34.6764 61.7773 44.3087 61.7773Z" fill="#7E7E7E"/>
<path id="Vector_184" opacity="0.4882" d="M61.6464 58.3786C61.6464 56.515 53.8706 55.0049 44.2763 55.0049C34.682 55.0049 26.9062 56.515 26.9062 58.3786C26.9062 60.2422 34.682 61.7524 44.2763 61.7524C53.8706 61.7588 61.6464 60.2422 61.6464 58.3786Z" fill="#7D7D7D"/>
<path id="Vector_185" opacity="0.4912" d="M61.5502 58.3779C61.5502 56.5272 53.8066 55.0234 44.2573 55.0234C34.7079 55.0234 26.9644 56.5272 26.9644 58.3779C26.9644 60.2287 34.7079 61.7324 44.2573 61.7324C53.8066 61.7324 61.5502 60.2287 61.5502 58.3779Z" fill="#7C7C7C"/>
<path id="Vector_186" opacity="0.4941" d="M61.4471 58.3743C61.4471 56.5299 53.7356 55.0391 44.2248 55.0391C34.714 55.0391 27.0026 56.5364 27.0026 58.3743C27.0026 60.2186 34.714 61.7095 44.2248 61.7095C53.7356 61.7095 61.4471 60.2186 61.4471 58.3743Z" fill="#7B7B7B"/>
<path id="Vector_187" opacity="0.4971" d="M61.351 58.3667C61.351 56.5352 53.6717 55.0508 44.1994 55.0508C34.7272 55.0508 27.0479 56.5352 27.0479 58.3667C27.0479 60.1982 34.7272 61.6826 44.1994 61.6826C53.6717 61.6891 61.351 60.1982 61.351 58.3667Z" fill="#7A7A7A"/>
<path id="Vector_188" opacity="0.5" d="M61.2479 58.364C61.2479 56.5454 53.6007 55.0674 44.1671 55.0674C34.7334 55.0674 27.0862 56.5454 27.0862 58.364C27.0862 60.1826 34.7334 61.6607 44.1671 61.6607C53.6007 61.6607 61.2479 60.1826 61.2479 58.364Z" fill="#797979"/>
<path id="Vector_189" opacity="0.5029" d="M61.1518 58.3594C61.1518 56.5472 53.5367 55.082 44.148 55.082C34.7593 55.082 27.1443 56.5536 27.1443 58.3594C27.1443 60.1716 34.7593 61.6368 44.148 61.6368C53.5367 61.6368 61.1518 60.1716 61.1518 58.3594Z" fill="#787878"/>
<path id="Vector_190" opacity="0.5059" d="M61.0486 58.3528C61.0486 56.5535 53.4657 55.0947 44.1156 55.0947C34.7654 55.0947 27.1825 56.5535 27.1825 58.3528C27.1825 60.1522 34.7654 61.6173 44.1156 61.6173C53.4657 61.6173 61.0486 60.1522 61.0486 58.3528Z" fill="#787777"/>
<path id="Vector_191" opacity="0.5088" d="M60.9525 58.3511C60.9525 56.5582 53.4017 55.1123 44.0902 55.1123C34.7786 55.1123 27.2278 56.5646 27.2278 58.3511C27.2278 60.144 34.7786 61.5899 44.0902 61.5899C53.4017 61.5899 60.9525 60.1376 60.9525 58.3511Z" fill="#777676"/>
<path id="Vector_192" opacity="0.5118" d="M60.8494 58.3455C60.8494 56.5654 53.3307 55.126 44.0577 55.126C34.7847 55.126 27.266 56.5719 27.266 58.3455C27.266 60.1191 34.7847 61.5715 44.0577 61.5715C53.3307 61.565 60.8494 60.1256 60.8494 58.3455Z" fill="#767575"/>
<path id="Vector_193" opacity="0.5147" d="M60.7534 58.3395C60.7534 56.5723 53.2668 55.1328 44.0388 55.1328C34.8043 55.1328 27.3242 56.5659 27.3242 58.3395C27.3242 60.1067 34.8108 61.5462 44.0388 61.5462C53.2668 61.5462 60.7534 60.1131 60.7534 58.3395Z" fill="#757474"/>
<path id="Vector_194" opacity="0.5176" d="M60.6502 58.3388C60.6502 56.578 53.1958 55.1514 44.0063 55.1514C34.8168 55.1514 27.3624 56.578 27.3624 58.3388C27.3624 60.0996 34.8168 61.5262 44.0063 61.5262C53.1958 61.5197 60.6502 60.0931 60.6502 58.3388Z" fill="#747373"/>
<path id="Vector_195" opacity="0.5206" d="M60.5541 58.3326C60.5541 56.5847 53.1318 55.1709 43.9809 55.1709C34.83 55.1709 27.4077 56.5911 27.4077 58.3326C27.4077 60.0805 34.83 61.5007 43.9809 61.5007C53.1318 61.5007 60.5541 60.0805 60.5541 58.3326Z" fill="#737273"/>
<path id="Vector_196" opacity="0.5235" d="M60.4512 58.3285C60.4512 56.5935 53.0611 55.1797 43.9487 55.1797C34.8364 55.1797 27.4526 56.587 27.4526 58.3285C27.4526 60.0636 34.8428 61.4774 43.9487 61.4774C53.0675 61.4774 60.4512 60.07 60.4512 58.3285Z" fill="#727172"/>
<path id="Vector_197" opacity="0.5265" d="M60.3548 58.3268C60.3548 56.5982 52.9968 55.1973 43.9294 55.1973C34.8556 55.1973 27.504 56.5982 27.504 58.3268C27.504 60.0555 34.862 61.4564 43.9294 61.4564C52.9968 61.45 60.3548 60.0491 60.3548 58.3268Z" fill="#717071"/>
<path id="Vector_198" opacity="0.5294" d="M60.2522 58.3212C60.2522 56.6054 52.9327 55.2109 43.8974 55.2109C34.8686 55.2109 27.5427 56.6054 27.5427 58.3212C27.5427 60.037 34.8686 61.4315 43.8974 61.4315C52.9327 61.4315 60.2522 60.037 60.2522 58.3212Z" fill="#706F70"/>
<path id="Vector_199" opacity="0.5324" d="M60.1557 58.3137C60.1557 56.6107 52.8684 55.2227 43.8717 55.2227C34.8814 55.2227 27.5876 56.6043 27.5876 58.3137C27.5876 60.0166 34.8814 61.4047 43.8717 61.4047C52.8619 61.4047 60.1557 60.023 60.1557 58.3137Z" fill="#6F6F6F"/>
<path id="Vector_200" opacity="0.5353" d="M60.0527 58.3149C60.0527 56.6184 52.7975 55.2432 43.8394 55.2432C34.8941 55.2432 27.6324 56.6184 27.6324 58.3149C27.6324 60.0114 34.8876 61.3866 43.8394 61.3866C52.7975 61.3802 60.0527 60.005 60.0527 58.3149Z" fill="#6E6E6E"/>
<path id="Vector_201" opacity="0.5382" d="M59.9564 58.3064C59.9564 56.6227 52.7333 55.2539 43.8202 55.2539C34.907 55.2539 27.684 56.6227 27.684 58.3064C27.684 59.99 34.907 61.3588 43.8202 61.3588C52.7269 61.3588 59.9564 59.99 59.9564 58.3064Z" fill="#6D6D6D"/>
<path id="Vector_202" opacity="0.5412" d="M59.8537 58.3017C59.8537 56.6309 52.6628 55.2686 43.7882 55.2686C34.9136 55.2686 27.7227 56.6245 27.7227 58.3017C27.7227 59.9725 34.9136 61.3349 43.7882 61.3349C52.6628 61.3349 59.8537 59.979 59.8537 58.3017Z" fill="#6C6C6C"/>
<path id="Vector_203" opacity="0.5441" d="M59.7573 58.3C59.7573 56.6356 52.5985 55.2861 43.7624 55.2861C34.9328 55.2861 27.7676 56.6356 27.7676 58.3C27.7676 59.9644 34.9264 61.3139 43.7624 61.3139C52.592 61.3139 59.7573 59.9644 59.7573 58.3Z" fill="#6C6B6B"/>
<path id="Vector_204" opacity="0.5471" d="M59.6546 58.2954C59.6546 56.6439 52.5279 55.3008 43.7368 55.3008C34.9458 55.3008 27.8191 56.6439 27.8191 58.2954C27.8191 59.9469 34.9458 61.29 43.7368 61.29C52.5279 61.29 59.6546 59.9469 59.6546 58.2954Z" fill="#6B6A6A"/>
<path id="Vector_205" opacity="0.55" d="M59.558 58.2937C59.558 56.6486 52.4634 55.3184 43.7109 55.3184C34.9584 55.3184 27.8639 56.6486 27.8639 58.2937C27.8639 59.9324 34.9584 61.269 43.7109 61.269C52.4634 61.2626 59.558 59.9324 59.558 58.2937Z" fill="#6A6969"/>
<path id="Vector_206" opacity="0.5529" d="M59.4553 58.2881C59.4553 56.6558 52.3929 55.332 43.6789 55.332C34.965 55.332 27.9026 56.6558 27.9026 58.2881C27.9026 59.9203 34.965 61.2442 43.6789 61.2442C52.3929 61.2442 59.4553 59.9203 59.4553 58.2881Z" fill="#696868"/>
<path id="Vector_207" opacity="0.5559" d="M59.3588 58.2835C59.3588 56.6641 52.3286 55.3467 43.6532 55.3467C34.9842 55.3467 27.9475 56.6641 27.9475 58.2835C27.9475 59.9029 34.9778 61.2202 43.6532 61.2202C52.3286 61.2202 59.3588 59.9029 59.3588 58.2835Z" fill="#686767"/>
<path id="Vector_208" opacity="0.5588" d="M59.256 58.2808C59.256 56.6678 52.2579 55.3633 43.6275 55.3633C34.997 55.3633 27.9989 56.6678 27.9989 58.2808C27.9989 59.8873 34.997 61.1983 43.6275 61.1983C52.2579 61.1919 59.256 59.8873 59.256 58.2808Z" fill="#676666"/>
<path id="Vector_209" opacity="0.5618" d="M59.1595 58.2762C59.1595 56.676 52.1935 55.3779 43.6017 55.3779C35.0098 55.3779 28.0438 56.676 28.0438 58.2762C28.0438 59.8763 35.0098 61.1744 43.6017 61.1744C52.1935 61.1744 59.1595 59.8763 59.1595 58.2762Z" fill="#666565"/>
<path id="Vector_210" opacity="0.5647" d="M59.0569 58.2696C59.0569 56.6823 52.123 55.3906 43.5697 55.3906C35.0164 55.3906 28.0825 56.6759 28.0825 58.2696C28.0825 59.8568 35.0164 61.1485 43.5697 61.1485C52.123 61.1485 59.0569 59.8568 59.0569 58.2696Z" fill="#656464"/>
<path id="Vector_211" opacity="0.5676" d="M58.9603 58.2688C58.9603 56.688 52.0585 55.4092 43.5438 55.4092C35.0291 55.4092 28.1273 56.688 28.1273 58.2688C28.1273 59.8497 35.0291 61.1285 43.5438 61.1285C52.0585 61.1285 58.9603 59.8433 58.9603 58.2688Z" fill="#646363"/>
<path id="Vector_212" opacity="0.5706" d="M58.8576 58.2632C58.8576 56.6952 51.988 55.4229 43.5182 55.4229C35.0485 55.4229 28.1788 56.6952 28.1788 58.2632C28.1788 59.8312 35.0485 61.1036 43.5182 61.1036C51.988 61.1036 58.8576 59.8312 58.8576 58.2632Z" fill="#636262"/>
<path id="Vector_213" opacity="0.5735" d="M58.7611 58.2567C58.7611 56.7015 51.9236 55.4355 43.4924 55.4355C35.0612 55.4355 28.2238 56.7015 28.2238 58.2567C28.2238 59.8118 35.0612 61.0778 43.4924 61.0778C51.9236 61.0778 58.7611 59.8182 58.7611 58.2567Z" fill="#626161"/>
<path id="Vector_214" opacity="0.5765" d="M58.6581 58.2569C58.6581 56.7082 51.8527 55.4551 43.4601 55.4551C35.0674 55.4551 28.2621 56.7082 28.2621 58.2569C28.2621 59.8056 35.0674 61.0587 43.4601 61.0587C51.8527 61.0587 58.6581 59.7992 58.6581 58.2569Z" fill="#61605F"/>
<path id="Vector_215" opacity="0.5794" d="M58.562 58.2503C58.562 56.7145 51.7888 55.4678 43.4347 55.4678C35.0806 55.4678 28.3138 56.7145 28.3138 58.2503C28.3138 59.7862 35.0871 61.0329 43.4347 61.0329C51.7888 61.0329 58.562 59.7862 58.562 58.2503Z" fill="#605F5E"/>
<path id="Vector_216" opacity="0.5824" d="M58.4588 58.2428C58.4588 56.7197 51.7177 55.4795 43.4086 55.4795C35.0995 55.4795 28.3584 56.7197 28.3584 58.2428C28.3584 59.7658 35.0995 61.006 43.4086 61.006C51.7241 61.006 58.4588 59.7722 58.4588 58.2428Z" fill="#5F5D5D"/>
<path id="Vector_217" opacity="0.5853" d="M58.3627 58.243C58.3627 56.7264 51.6537 55.499 43.3832 55.499C35.1127 55.499 28.4037 56.7264 28.4037 58.243C28.4037 59.7596 35.1127 60.987 43.3832 60.987C51.6537 60.987 58.3627 59.7532 58.3627 58.243Z" fill="#5E5C5C"/>
<path id="Vector_218" opacity="0.5882" d="M58.2599 58.2364C58.2599 56.7327 51.5831 55.5117 43.3511 55.5117C35.1191 55.5117 28.4423 56.7327 28.4423 58.2364C28.4423 59.7402 35.1191 60.9611 43.3511 60.9611C51.5895 60.9611 58.2599 59.7402 58.2599 58.2364Z" fill="#5D5B5B"/>
<path id="Vector_219" opacity="0.5912" d="M58.1635 58.2308C58.1635 56.7335 51.5188 55.5254 43.3318 55.5254C35.1384 55.5254 28.5001 56.7399 28.5001 58.2308C28.5001 59.7217 35.1448 60.9363 43.3318 60.9363C51.5188 60.9363 58.1635 59.7281 58.1635 58.2308Z" fill="#5C5A5A"/>
<path id="Vector_220" opacity="0.5941" d="M58.0607 58.2301C58.0607 56.7456 51.4481 55.5439 43.2997 55.5439C35.1448 55.5439 28.5387 56.7456 28.5387 58.2301C28.5387 59.7146 35.1513 60.9163 43.2997 60.9163C51.4546 60.9163 58.0607 59.7146 58.0607 58.2301Z" fill="#5B5959"/>
<path id="Vector_221" opacity="0.5971" d="M57.9643 58.2235C57.9643 56.7519 51.3902 55.5566 43.2739 55.5566C35.1641 55.5566 28.5836 56.7519 28.5836 58.2235C28.5836 59.6951 35.1641 60.8904 43.2739 60.8904C51.3838 60.8904 57.9643 59.6951 57.9643 58.2235Z" fill="#5A5858"/>
<path id="Vector_222" opacity="0.6" d="M28.6285 58.2238C28.6285 59.6825 35.1769 60.8714 43.2482 60.8714C51.3195 60.8714 57.8678 59.6825 57.8678 58.2238C57.8678 56.7586 51.3259 55.5762 43.2482 55.5762C35.1769 55.5698 28.6285 56.7586 28.6285 58.2238Z" fill="#595757"/>
<path id="Vector_223" opacity="0.6038" d="M57.6046 58.2053C57.6046 56.7594 51.1334 55.5898 43.152 55.5898C35.1707 55.5898 28.6995 56.7594 28.6995 58.2053C28.6995 59.6448 35.1707 60.8208 43.152 60.8208C51.1398 60.8208 57.6046 59.6448 57.6046 58.2053Z" fill="#585656"/>
<path id="Vector_224" opacity="0.6077" d="M57.3473 58.1902C57.3473 56.77 50.9532 55.6133 43.0618 55.6133C35.1705 55.6133 28.7764 56.77 28.7764 58.1902C28.7764 59.6104 35.1705 60.7671 43.0618 60.7671C50.9532 60.7671 57.3473 59.6104 57.3473 58.1902Z" fill="#575555"/>
<path id="Vector_225" opacity="0.6115" d="M57.097 58.1737C57.097 56.7728 50.7736 55.6289 42.9786 55.6289C35.1836 55.6289 28.8602 56.7663 28.8602 58.1737C28.8602 59.5746 35.1836 60.7185 42.9786 60.7185C50.7736 60.7185 57.097 59.581 57.097 58.1737Z" fill="#565454"/>
<path id="Vector_226" opacity="0.6154" d="M56.8395 58.1586C56.8395 56.7769 50.5932 55.6523 42.8882 55.6523C35.1832 55.6523 28.9369 56.7769 28.9369 58.1586C28.9369 59.5402 35.1832 60.6648 42.8882 60.6648C50.5932 60.6648 56.8395 59.5402 56.8395 58.1586Z" fill="#555353"/>
<path id="Vector_227" opacity="0.6192" d="M56.5827 58.1401C56.5827 56.7777 50.4071 55.666 42.792 55.666C35.177 55.666 29.0078 56.7713 29.0078 58.1401C29.0078 59.5025 35.1834 60.6142 42.792 60.6142C50.4071 60.6142 56.5827 59.5089 56.5827 58.1401Z" fill="#545252"/>
<path id="Vector_228" opacity="0.6231" d="M56.3256 58.1279C56.3256 56.7848 50.2272 55.6924 42.7021 55.6924C35.1834 55.6924 29.0785 56.7848 29.0785 58.1279C29.0785 59.471 35.177 60.5634 42.7021 60.5634C50.2272 60.5634 56.3256 59.471 56.3256 58.1279Z" fill="#535150"/>
<path id="Vector_229" opacity="0.6269" d="M56.0687 58.1085C56.0687 56.7847 50.041 55.7051 42.6123 55.7051C35.1835 55.7051 29.1558 56.7783 29.1558 58.1085C29.1558 59.4387 35.1835 60.5119 42.6123 60.5119C50.041 60.5119 56.0687 59.4387 56.0687 58.1085Z" fill="#52504F"/>
<path id="Vector_230" opacity="0.6308" d="M55.8115 58.0963C55.8115 56.7918 49.8608 55.7314 42.5221 55.7314C35.1833 55.7314 29.2327 56.7918 29.2327 58.0963C29.2327 59.4008 35.1833 60.4611 42.5221 60.4611C49.8608 60.4611 55.8115 59.4008 55.8115 58.0963Z" fill="#514F4E"/>
<path id="Vector_231" opacity="0.6346" d="M55.5542 58.0769C55.5542 56.7916 49.6807 55.7441 42.4319 55.7441C35.1831 55.7441 29.3096 56.7916 29.3096 58.0769C29.3096 59.3621 35.1896 60.4096 42.4319 60.4096C49.6807 60.4096 55.5542 59.3685 55.5542 58.0769Z" fill="#504D4D"/>
<path id="Vector_232" opacity="0.6385" d="M55.2973 58.0637C55.2973 56.7977 49.4945 55.7695 42.3421 55.7695C35.1897 55.7695 29.3868 56.7977 29.3868 58.0637C29.3868 59.3297 35.1897 60.3578 42.3421 60.3578C49.4945 60.3578 55.2973 59.3297 55.2973 58.0637Z" fill="#4F4C4C"/>
<path id="Vector_233" opacity="0.6423" d="M55.0405 58.0491C55.0405 56.8025 49.3148 55.7871 42.2459 55.7871C35.1835 55.7871 29.4578 56.8025 29.4578 58.0491C29.4578 59.2958 35.1835 60.3112 42.2459 60.3112C49.3148 60.3047 55.0405 59.2958 55.0405 58.0491Z" fill="#4E4B4B"/>
<path id="Vector_234" opacity="0.6462" d="M54.7835 58.0301C54.7835 56.8027 49.1284 55.8066 42.156 55.8066C35.1835 55.8066 29.5284 56.8027 29.5284 58.0301C29.5284 59.2575 35.1835 60.2536 42.156 60.2536C49.1348 60.2536 54.7835 59.2575 54.7835 58.0301Z" fill="#4D4A4A"/>
<path id="Vector_235" opacity="0.65" d="M54.5262 58.0195C54.5262 56.8113 48.9482 55.8281 42.0658 55.8281C35.1833 55.8281 29.6053 56.8113 29.6053 58.0195C29.6053 59.2276 35.1833 60.2108 42.0658 60.2108C48.9482 60.2044 54.5262 59.2276 54.5262 58.0195Z" fill="#4C4948"/>
<path id="Vector_236" opacity="0.6538" d="M54.2755 57.9985C54.2755 56.8096 48.7683 55.8457 41.9822 55.8457C35.1961 55.8457 29.6888 56.8096 29.6888 57.9985C29.6888 59.1873 35.1961 60.1513 41.9822 60.1513C48.7683 60.1513 54.2755 59.1873 54.2755 57.9985Z" fill="#4B4847"/>
<path id="Vector_237" opacity="0.6577" d="M54.0186 57.9878C54.0186 56.8183 48.5885 55.8672 41.8924 55.8672C35.1963 55.8672 29.7661 56.8183 29.7661 57.9878C29.7661 59.1574 35.1963 60.1085 41.8924 60.1085C48.5885 60.1021 54.0186 59.1574 54.0186 57.9878Z" fill="#4A4746"/>
<path id="Vector_238" opacity="0.6615" d="M53.7616 57.9669C53.7616 56.8166 48.4085 55.8848 41.796 55.8848C35.1898 55.8848 29.8368 56.8166 29.8368 57.9669C29.8368 59.1171 35.1963 60.049 41.796 60.049C48.4021 60.0554 53.7616 59.1171 53.7616 57.9669Z" fill="#494645"/>
<path id="Vector_239" opacity="0.6654" d="M53.5047 57.9543C53.5047 56.8232 48.2223 55.9043 41.7062 55.9043C35.1964 55.9043 29.9141 56.8232 29.9141 57.9543C29.9141 59.0853 35.1964 60.0042 41.7062 60.0042C48.2223 60.0042 53.5047 59.0853 53.5047 57.9543Z" fill="#484444"/>
<path id="Vector_240" opacity="0.6692" d="M53.2473 57.9343C53.2473 56.8225 48.042 55.9229 41.6158 55.9229C35.196 55.9229 29.9844 56.8225 29.9844 57.9343C29.9844 59.046 35.1896 59.9457 41.6158 59.9457C48.042 59.9521 53.2473 59.046 53.2473 57.9343Z" fill="#474343"/>
<path id="Vector_241" opacity="0.6731" d="M52.9904 57.9217C52.9904 56.8292 47.8558 55.9424 41.526 55.9424C35.1962 55.9424 30.0616 56.8292 30.0616 57.9217C30.0616 59.0141 35.1962 59.9009 41.526 59.9009C47.8558 59.9009 52.9904 59.0141 52.9904 57.9217Z" fill="#464242"/>
<path id="Vector_242" opacity="0.6769" d="M52.7334 57.9036C52.7334 56.8304 47.6759 55.9629 41.4361 55.9629C35.1962 55.9629 30.1388 56.8369 30.1388 57.9036C30.1388 58.9768 35.1962 59.8443 41.4361 59.8443C47.6759 59.8508 52.7334 58.9768 52.7334 57.9036Z" fill="#454140"/>
<path id="Vector_243" opacity="0.6808" d="M52.4765 57.8881C52.4765 56.8342 47.4897 55.9795 41.3463 55.9795C35.2028 55.9795 30.2161 56.8342 30.2161 57.8881C30.2161 58.942 35.2028 59.7967 41.3463 59.7967C47.4961 59.7967 52.4765 58.942 52.4765 57.8881Z" fill="#44403F"/>
<path id="Vector_244" opacity="0.6846" d="M52.219 57.8778C52.219 56.8432 47.3094 56.0078 41.2495 56.0078C35.196 56.0078 30.2864 56.8496 30.2864 57.8778C30.2864 58.9125 35.196 59.7479 41.2495 59.7479C47.3094 59.7479 52.219 58.906 52.219 57.8778Z" fill="#433F3E"/>
<path id="Vector_245" opacity="0.6885" d="M51.9622 57.8574C51.9622 56.8421 47.1232 56.0195 41.1597 56.0195C35.1962 56.0195 30.3636 56.8421 30.3636 57.8574C30.3636 58.8728 35.2026 59.6953 41.1597 59.6953C47.1296 59.6953 51.9622 58.8728 51.9622 57.8574Z" fill="#423E3D"/>
<path id="Vector_246" opacity="0.6923" d="M51.7051 57.8443C51.7051 56.8482 46.9433 56.0449 41.0697 56.0449C35.1961 56.0449 30.4343 56.8546 30.4343 57.8443C30.4343 58.8403 35.1961 59.6436 41.0697 59.6436C46.9497 59.6436 51.7051 58.8339 51.7051 57.8443Z" fill="#413D3C"/>
<path id="Vector_247" opacity="0.6962" d="M51.4548 57.8258C51.4548 56.849 46.7701 56.0586 40.9865 56.0586C35.2093 56.0586 30.5182 56.849 30.5182 57.8258C30.5182 58.8026 35.2029 59.593 40.9865 59.593C46.7637 59.593 51.4548 58.8026 51.4548 57.8258Z" fill="#3F3B3B"/>
<path id="Vector_248" opacity="0.7" d="M51.1975 57.8126C51.1975 56.8551 46.5835 56.084 40.8963 56.084C35.2091 56.084 30.5951 56.8616 30.5951 57.8126C30.5951 58.7701 35.2091 59.5413 40.8963 59.5413C46.5835 59.5413 51.1975 58.7637 51.1975 57.8126Z" fill="#3E3A39"/>
<path id="Vector_249" opacity="0.7038" d="M50.9403 57.7932C50.9403 56.855 46.4034 56.0967 40.8061 56.0967C35.2089 56.0967 30.672 56.855 30.672 57.7932C30.672 58.7314 35.2089 59.4897 40.8061 59.4897C46.4034 59.4897 50.9403 58.7314 50.9403 57.7932Z" fill="#3D3938"/>
<path id="Vector_250" opacity="0.7077" d="M50.6836 57.781C50.6836 56.8621 46.2174 56.123 40.7101 56.123C35.2028 56.123 30.743 56.8685 30.743 57.781C30.743 58.7 35.2093 59.439 40.7101 59.439C46.2174 59.439 50.6836 58.7 50.6836 57.781Z" fill="#3B3736"/>
<path id="Vector_251" opacity="0.7115" d="M50.4263 57.7616C50.4263 56.8619 46.0372 56.1357 40.6199 56.1357C35.2091 56.1357 30.8199 56.8619 30.8199 57.7616C30.8199 58.6612 35.2091 59.3874 40.6199 59.3874C46.0372 59.3874 50.4263 58.6612 50.4263 57.7616Z" fill="#393534"/>
<path id="Vector_252" opacity="0.7154" d="M50.1695 57.7494C50.1695 56.8754 45.8511 56.1621 40.5302 56.1621C35.2093 56.1621 30.8909 56.8754 30.8909 57.7494C30.8909 58.6298 35.2093 59.3367 40.5302 59.3367C45.8511 59.3367 50.1695 58.6298 50.1695 57.7494Z" fill="#363332"/>
<path id="Vector_253" opacity="0.7192" d="M49.9122 57.7299C49.9122 56.8753 45.6709 56.1748 40.44 56.1748C35.2091 56.1748 30.9678 56.8688 30.9678 57.7299C30.9678 58.5911 35.2091 59.2851 40.44 59.2851C45.6709 59.2851 49.9122 58.5911 49.9122 57.7299Z" fill="#343030"/>
<path id="Vector_254" opacity="0.7231" d="M49.655 57.7158C49.655 56.8804 45.4908 56.1992 40.3498 56.1992C35.2089 56.1992 31.0447 56.8804 31.0447 57.7158C31.0447 58.5576 35.2089 59.2324 40.3498 59.2324C45.4908 59.2324 49.655 58.5576 49.655 57.7158Z" fill="#312E2D"/>
<path id="Vector_255" opacity="0.7269" d="M49.3981 57.7032C49.3981 56.8871 45.3046 56.2188 40.26 56.2188C35.2154 56.2188 31.1219 56.8871 31.1219 57.7032C31.1219 58.5258 35.2154 59.1877 40.26 59.1877C45.3046 59.1877 49.3981 58.5193 49.3981 57.7032Z" fill="#2F2C2B"/>
<path id="Vector_256" opacity="0.7308" d="M49.141 57.6832C49.141 56.8864 45.1247 56.2373 40.1636 56.2373C35.209 56.2373 31.1926 56.8864 31.1926 57.6832C31.1926 58.4865 35.209 59.1291 40.1636 59.1291C45.1247 59.1355 49.141 58.4865 49.141 57.6832Z" fill="#2C2929"/>
<path id="Vector_257" opacity="0.7346" d="M48.8841 57.6716C48.8841 56.894 44.9385 56.2578 40.0738 56.2578C35.2092 56.2578 31.2699 56.894 31.2699 57.6716C31.2699 58.4556 35.2156 59.0853 40.0738 59.0853C44.9449 59.0853 48.8841 58.4491 48.8841 57.6716Z" fill="#292726"/>
<path id="Vector_258" opacity="0.7385" d="M48.6333 57.6526C48.6333 56.8943 44.7647 56.2773 39.9901 56.2773C35.2218 56.2773 31.3468 56.8943 31.3468 57.6526C31.3468 58.4173 35.2154 59.0278 39.9901 59.0278C44.7583 59.0342 48.6333 58.4173 48.6333 57.6526Z" fill="#272524"/>
<path id="Vector_259" opacity="0.7423" d="M48.3764 57.639C48.3764 56.9 44.5785 56.2959 39.9002 56.2959C35.222 56.2959 31.4241 56.9 31.4241 57.639C31.4241 58.378 35.222 58.9821 39.9002 58.9821C44.5785 58.9821 48.3764 58.378 48.3764 57.639Z" fill="#242222"/>
<path id="Vector_260" opacity="0.7462" d="M48.1195 57.6205C48.1195 56.9008 44.3988 56.3096 39.8104 56.3096C35.2221 56.3096 31.5013 56.8944 31.5013 57.6205C31.5013 58.3403 35.2221 58.925 39.8104 58.925C44.3988 58.9315 48.1195 58.3467 48.1195 57.6205Z" fill="#22201F"/>
<path id="Vector_261" opacity="0.75" d="M47.8624 57.6073C47.8624 56.9069 44.2187 56.335 39.7139 56.335C35.2156 56.335 31.5719 56.9069 31.5719 57.6073C31.5719 58.3078 35.2156 58.8797 39.7139 58.8797C44.2123 58.8797 47.8624 58.3078 47.8624 57.6073Z" fill="#1F1E1D"/>
<path id="Vector_262" opacity="0.7538" d="M47.6051 57.5883C47.6051 56.9071 44.0321 56.3545 39.6237 56.3545C35.2218 56.3545 31.6488 56.9071 31.6488 57.5883C31.6488 58.2695 35.2218 58.8286 39.6237 58.8286C44.0321 58.8286 47.6051 58.2759 47.6051 57.5883Z" fill="#1D1B1B"/>
<path id="Vector_263" opacity="0.7577" d="M47.3482 57.5757C47.3482 56.9138 43.8523 56.374 39.5339 56.374C35.2219 56.374 31.7261 56.9138 31.7261 57.5757C31.7261 58.2376 35.2219 58.7774 39.5339 58.7774C43.8523 58.7774 47.3482 58.2376 47.3482 57.5757Z" fill="#1B1919"/>
<path id="Vector_264" opacity="0.7615" d="M47.0911 57.5547C47.0911 56.9121 43.666 56.3916 39.4439 56.3916C35.2219 56.3916 31.7968 56.9121 31.7968 57.5547C31.7968 58.1974 35.2219 58.7243 39.4439 58.7243C43.666 58.7243 47.0911 58.2038 47.0911 57.5547Z" fill="#181717"/>
<path id="Vector_265" opacity="0.7654" d="M46.8342 57.5431C46.8342 56.9198 43.4862 56.4121 39.3541 56.4121C35.2221 56.4121 31.874 56.9198 31.874 57.5431C31.874 58.1665 35.2221 58.6741 39.3541 58.6741C43.4862 58.6741 46.8342 58.1665 46.8342 57.5431Z" fill="#161514"/>
<path id="Vector_266" opacity="0.7692" d="M46.5774 57.5295C46.5774 56.9255 43.3 56.4307 39.2643 56.4307C35.2287 56.4307 31.9513 56.9255 31.9513 57.5295C31.9513 58.1336 35.2287 58.6284 39.2643 58.6284C43.3064 58.622 46.5774 58.1336 46.5774 57.5295Z" fill="#131212"/>
<path id="Vector_267" opacity="0.7731" d="M46.3199 57.5105C46.3199 56.9257 43.1197 56.4502 39.1676 56.4502C35.2219 56.4502 32.0216 56.9257 32.0216 57.5105C32.0216 58.0953 35.2219 58.5708 39.1676 58.5708C43.1197 58.5708 46.3199 58.0953 46.3199 57.5105Z" fill="#111010"/>
<path id="Vector_268" opacity="0.7769" d="M46.063 57.4989C46.063 56.9334 42.9399 56.4707 39.0777 56.4707C35.222 56.4707 32.0989 56.9334 32.0989 57.4989C32.0989 58.0644 35.2284 58.5271 39.0777 58.5271C42.9399 58.5207 46.063 58.0644 46.063 57.4989Z" fill="#0E0D0D"/>
<path id="Vector_269" opacity="0.7808" d="M45.8124 57.4769C45.8124 56.9307 42.7599 56.4873 38.9942 56.4873C35.2284 56.4873 32.1824 56.9307 32.1824 57.4769C32.1824 58.0232 35.2348 58.4666 38.9942 58.4666C42.7599 58.4666 45.8124 58.0232 45.8124 57.4769Z" fill="#0C0B0B"/>
<path id="Vector_270" opacity="0.7846" d="M45.5553 57.4647C45.5553 56.9378 42.58 56.5137 38.9042 56.5137C35.2348 56.5137 32.2531 56.9442 32.2531 57.4647C32.2531 57.9917 35.2284 58.4223 38.9042 58.4223C42.5736 58.4158 45.5553 57.9917 45.5553 57.4647Z" fill="#090808"/>
<path id="Vector_271" opacity="0.7885" d="M45.2981 57.4453C45.2981 56.9376 42.3934 56.5264 38.814 56.5264C35.2346 56.5264 32.33 56.9376 32.33 57.4453C32.33 57.953 35.2346 58.3643 38.814 58.3643C42.3934 58.3643 45.2981 57.953 45.2981 57.4453Z" fill="#060606"/>
<path id="Vector_272" opacity="0.7923" d="M45.0412 57.4327C45.0412 56.9443 42.2137 56.5459 38.7178 56.5459C35.2284 56.5459 32.4009 56.9443 32.4009 57.4327C32.4009 57.9211 35.2284 58.3195 38.7178 58.3195C42.2137 58.3195 45.0412 57.9211 45.0412 57.4327Z" fill="#040404"/>
<path id="Vector_273" opacity="0.7962" d="M44.784 57.4137C44.784 56.9446 42.0271 56.5654 38.6277 56.5654C35.2346 56.5654 32.4778 56.9446 32.4778 57.4137C32.4778 57.8828 35.2346 58.262 38.6277 58.262C42.0271 58.2684 44.784 57.8892 44.784 57.4137Z" fill="#020202"/>
<path id="Vector_274" opacity="0.8" d="M32.5551 57.4011C32.5551 57.8509 35.2348 58.2172 38.5379 58.2172C41.8474 58.2172 44.5271 57.8509 44.5271 57.4011C44.5271 56.9513 41.8474 56.585 38.5379 56.585C35.2348 56.585 32.5551 56.9513 32.5551 57.4011Z" fill="black"/>
</g>
<path id="Vector_275" d="M64.8917 16.4269C64.8917 16.4269 67.6293 23.2451 63.4394 24.209C60.0014 24.9994 54.4877 22.4739 51.5702 18.2712C49.2375 14.9103 48.3828 9.13953 52.8169 9.06884C53.8965 9.04957 54.6548 9.19737 55.4002 9.42229C57.1803 9.99422 59.5001 11.106 61.4601 12.4683C61.4601 12.4683 58.0157 6.89678 51.3196 4.15922C50.3878 2.92539 47.753 -0.075656 44.3985 0.00145858C44.3985 0.00145858 44.0322 0.547687 43.6017 1.53732C43.0233 1.50519 42.4 1.5309 41.661 1.73011C40.4143 2.05785 39.0327 3.03463 38.4286 5.04604C37.9209 6.73613 38.2165 10.0199 38.8527 11.7743C38.8527 11.7743 39.7395 8.8375 42.1751 8.12419C41.9823 12.8218 43.1069 19.1387 47.5667 23.9134C54.5198 31.3549 64.8725 31.2071 66.8839 26.3425C68.6125 22.1719 64.8917 16.4269 64.8917 16.4269Z" fill="#E85298"/>
<path id="Vector_276" d="M68.3492 29.0991C64.8405 38.8798 48.5243 33.1348 42.6893 27.6339C37.7283 22.9557 34.5152 19.2092 33.4741 11.2343C32.4588 3.41998 36.5908 1.17723 36.5908 1.13867C36.5908 1.13867 29.914 3.19506 29.2585 11.517C28.7444 17.9625 31.0579 25.9053 37.8504 32.55C41.9632 36.5728 48.3829 40.043 55.4518 40.7306C48.6336 41.9516 39.3413 39.9337 33.9689 35.9366C28.3396 31.7532 24.6317 26.9271 23.1279 18.5023C21.2836 8.18823 25.6534 4.2104 25.6598 4.17184C25.6598 4.17184 18.636 8.56095 18.3211 18.7658C18.1155 25.6225 19.9855 33.9316 28.0633 41.1933C31.7583 44.5156 38.1524 48.23 45.8896 49.226C43.2355 49.6502 40.408 49.6759 37.4648 49.2453C28.256 47.8958 20.0819 42.1636 15.802 34.6514C12.1648 28.2701 11.9335 24.0224 11.9206 24.1252C9.6393 39.6702 20.3968 54.1164 35.9418 56.3913C51.1398 58.6147 65.2839 48.3842 68.0343 33.4047C68.5805 31.0784 68.3492 29.0991 68.3492 29.0991Z" fill="#6B1685"/>
</g>
<g id="Group_5">
<path id="Vector_277" d="M17.7878 74.3396H10.4362V72.4824H8.35408V74.3396H0V76.4217H18.7967L17.7878 74.3396ZM15.6864 79.4806V76.4924L8.68181 82.2438L2.65403 76.4924V79.4613L7.01742 83.6062L1.24669 88.3423V91.2855L11.8692 82.6037V85.5469L17.9034 91.2791V88.3359L11.8821 82.5909L15.6864 79.4806Z" fill="black"/>
<path id="Vector_278" d="M55.5161 81.7601L50.5743 78.3028V80.6548L55.5161 84.0992V81.7601ZM41.2306 89.7029L44.4051 85.211V82.1392L41.2306 86.6504V89.7029ZM58.6264 85.9821V72.4678H56.5635V76.5356L52.0459 73.3739V75.7194L56.5635 78.8747V85.9885H49.5076V87.8136H56.5571V91.2452H58.6199V87.8136H59.6288L58.6264 85.9821ZM47.1491 80.1278H49.4883V78.3028H47.1491V75.1989H49.4883L48.4858 73.3739H41.4041V75.1989H45.0799V78.3028H41.4041V80.1278H45.0799V91.2387H47.1427V83.7072L49.5011 85.3523V83.0196L47.1427 81.3681V80.1278H47.1491Z" fill="black"/>
<path id="Vector_279" d="M68.6579 78.6123L67.6554 76.7873H66.3444V72.4689H64.2816V76.7873H61.3962V78.6123H64.2816V84.6401L61.3962 86.0089V88.2131L64.2816 86.8443V91.2398H66.3444V85.8611L68.5936 84.7943V82.5902L66.3444 83.6569V78.6123H68.6579ZM79.486 82.2431V81.6069V79.7819H75.7717V77.2178H80.0001L78.9976 75.3928H75.7717V72.3789H73.7089V75.3928H69.4804V77.2178H73.7089V79.7819H69.4804V81.1314V81.6069V83.8047L72.2822 86.1246L69.1655 88.875V91.2977L75.8295 85.4498V88.0781L79.7109 91.2913V88.6565L75.8424 85.437L79.486 82.2431ZM73.8374 84.7558L70.0524 81.6069H77.4104L73.8374 84.7558Z" fill="black"/>
<path id="Vector_280" d="M32.3366 74.3524H30.2802L29.7597 72.4824H27.819L28.3395 74.3524H26.4309V75.959H32.3366V74.3524ZM23.9889 80.8943H22.4274V75.1557H23.9761L22.9736 73.5492H20.6602V89.4669H23.9825L22.98 87.8604H22.4274V82.4945H23.9889V89.4669H25.7626V73.5492H23.9889V80.8943ZM37.0984 74.3524L37.6189 72.4824H35.6782L35.1577 74.3524H33.1013V75.959H39.0006V74.3524H37.0984ZM39.0006 78.7158L37.9981 77.1093H26.4309V78.7158H31.7454V80.8943H30.0296L30.4087 79.5448H28.468L28.0889 80.8943H26.4309V82.5009H27.6454L27.035 84.6794H26.4309V86.2859H31.7454V87.8668H26.4309V89.4733H31.7454V91.247H33.6861V89.4733H39.0006L37.9981 87.8668H33.6925V86.2859H39.007V84.6794H38.4029L37.7924 82.5009H39.0006V80.8943H37.3426L36.9635 79.5448H35.0227L35.4019 80.8943H33.6861V78.7158H39.0006ZM31.7454 84.6729H28.9757L29.5862 82.4945H31.7454V84.6729ZM35.8517 82.4945L36.4558 84.6729H33.6861V82.4945H35.8517Z" fill="black"/>
</g>
</g>
</g>
</svg>
