<svg width="240" height="59" viewBox="0 0 240 59" fill="none" xmlns="http://www.w3.org/2000/svg">
<g id="Group">
<g id="Group_2">
<path id="Vector" d="M37.6048 29.2868C36.957 24.5903 32.9354 20.9668 28.0568 20.9668C25.7423 20.9668 23.6167 21.7833 21.95 23.1463C19.7908 24.921 18.4075 27.6066 18.4075 30.6161C18.4075 33.6256 19.784 36.3112 21.95 38.0859C23.6167 39.4489 25.7423 40.2654 28.0568 40.2654C32.9354 40.2654 36.9503 36.6486 37.6048 31.9521C37.6656 31.5135 37.7128 31.0749 37.7128 30.6161C37.7128 30.1572 37.6656 29.7254 37.6048 29.2868Z" fill="#82C1EA"/>
<path id="Vector_2" d="M56.1278 24.6361V0H40.3246V2.19977H40.2908V30.7765C40.2908 31.3433 40.2369 31.8966 40.1626 32.4432C39.3529 38.3272 34.3191 42.8617 28.2056 42.8617C25.3041 42.8617 22.6455 41.8361 20.5604 40.1356C17.8546 37.9156 16.1204 34.5553 16.1204 30.7833C16.1204 27.0113 17.8478 23.6441 20.5604 21.4309C20.7696 21.2554 20.9923 21.1002 21.2149 20.9383C23.192 19.528 25.601 18.698 28.2056 18.698H37.9426V2.19977H28.0369C21.3094 2.19977 15.1352 4.58173 10.3038 8.53591C4.02166 13.6777 0.00674775 21.4849 0 30.2367V30.2772C0.00674775 39.029 4.02166 46.8362 10.3038 51.978C15.142 55.9389 21.3229 58.3141 28.0639 58.3141C42.2544 58.3141 53.9416 47.7809 55.8309 34.1234C56.0064 32.8616 56.1278 31.5862 56.1278 30.2839C56.1278 30.2772 56.1278 30.2637 56.1278 30.2569C56.1278 30.2502 56.1278 30.2367 56.1278 30.2232V24.6293V24.6361Z" fill="#82C1EA"/>
<path id="Vector_3" d="M28.0706 31.5514L26.5321 26.2949H22.5442V34.9388H25.0274V28.3462L26.937 34.9388H29.184L31.1003 28.3462V34.9388H33.5835V26.2949H29.5956L28.0706 31.5514Z" fill="white"/>
</g>
<g id="Group_3">
<path id="Vector_4" d="M75.5897 15.7492C75.6909 15.8841 75.7314 16.0393 75.7246 16.208C75.7111 16.3835 75.6504 16.5319 75.5424 16.6534L75.4749 16.7343C75.3602 16.8491 75.232 16.8963 75.0836 16.8761C74.9351 16.8558 74.8204 16.7883 74.7394 16.6669C74.0917 15.7829 73.3966 14.9867 72.6476 14.2714C72.6139 14.2377 72.5869 14.2444 72.5667 14.2849C71.9526 15.3915 71.2981 16.343 70.5896 17.146C70.5761 17.1595 70.5761 17.173 70.5828 17.1864C70.5828 17.2067 70.6031 17.2134 70.6233 17.2134H74.5572C74.6989 17.2134 74.8339 17.2674 74.9419 17.3754C75.0498 17.4834 75.1106 17.6116 75.1106 17.76C75.1106 17.9085 75.0566 18.0367 74.9419 18.1446C74.8272 18.2526 74.6989 18.3066 74.5572 18.3066H73.1672C73.12 18.3066 73.0997 18.3336 73.0997 18.3875V20.0273C73.0997 20.0812 73.12 20.1082 73.1672 20.1082H74.9554C75.1106 20.1082 75.2455 20.1622 75.3467 20.2702C75.448 20.3781 75.5087 20.5063 75.5087 20.6615C75.5087 20.8167 75.4547 20.9517 75.3467 21.0529C75.2388 21.1609 75.1106 21.2149 74.9554 21.2149H73.1672C73.12 21.2149 73.0997 21.2418 73.0997 21.2958V26.2149C73.0997 26.2689 73.12 26.2959 73.1672 26.2824L75.2253 25.9113C75.367 25.8911 75.4952 25.9248 75.6099 26.0125C75.7246 26.1002 75.7786 26.2217 75.7786 26.3634C75.7921 26.5051 75.7516 26.6401 75.6639 26.7615C75.5762 26.883 75.4547 26.9639 75.2928 26.9977C74.0309 27.2541 72.2563 27.5915 69.9755 28.0166C69.8203 28.0368 69.6719 28.0031 69.5302 27.9154C69.3885 27.8277 69.3007 27.7062 69.2535 27.5443C69.2063 27.3823 69.2333 27.2406 69.321 27.1124C69.4087 26.9842 69.5302 26.9032 69.6921 26.8762C70.124 26.8087 70.8662 26.6873 71.9189 26.5051C71.9661 26.4916 71.9864 26.4579 71.9864 26.4039V21.2823C71.9864 21.2284 71.9661 21.2014 71.9189 21.2014H69.908C69.7528 21.2014 69.6179 21.1474 69.5032 21.0394C69.3885 20.9315 69.3345 20.8032 69.3345 20.648C69.3345 20.4928 69.3885 20.3579 69.5032 20.2567C69.6179 20.1487 69.7461 20.0947 69.908 20.0947H71.9189C71.9661 20.0947 71.9864 20.0677 71.9864 20.0138V18.3741C71.9864 18.3201 71.9661 18.2931 71.9189 18.2931H70.6503C70.5086 18.2931 70.3804 18.2391 70.2724 18.1311C70.1645 18.0232 70.1105 17.9017 70.1105 17.7533C70.1105 17.7398 70.0902 17.733 70.0632 17.7195L70.016 17.7668C69.9013 17.8815 69.7731 17.9287 69.6246 17.9085C69.4762 17.8882 69.3412 17.8275 69.2333 17.7128C69.1186 17.6048 69.0646 17.4699 69.0646 17.3147C69.0646 17.173 69.1118 17.0447 69.213 16.9435C70.2184 15.9651 71.0282 14.818 71.6422 13.5157C71.8109 13.1715 72.0741 12.9961 72.4452 12.9961C72.8163 12.9961 73.147 13.1243 73.4169 13.3807C74.3211 14.2309 75.0498 15.0069 75.6099 15.7222L75.5897 15.7492ZM69.7866 22.8613C69.7731 22.8141 69.7663 22.7803 69.7663 22.7466C69.7663 22.6656 69.7866 22.5981 69.8136 22.5307C69.8811 22.416 69.9755 22.3485 70.097 22.3147C70.2184 22.2945 70.3399 22.3147 70.4479 22.3755C70.5626 22.4362 70.6368 22.5307 70.684 22.6521C70.9202 23.3876 71.0889 24.1231 71.2036 24.8586C71.2239 24.9936 71.2036 25.1218 71.1226 25.2433C71.0417 25.3647 70.9405 25.4457 70.8055 25.4794C70.6705 25.5267 70.5491 25.5064 70.4479 25.4322C70.3399 25.3512 70.2859 25.2568 70.2724 25.1286C70.1847 24.4335 70.0228 23.6845 69.7866 22.8681V22.8613ZM74.618 25.0003C74.5842 25.1151 74.5168 25.196 74.4088 25.25C74.3008 25.304 74.1929 25.3175 74.0849 25.277C73.9702 25.2365 73.8892 25.1623 73.8352 25.0611C73.7813 24.9531 73.7678 24.8384 73.8015 24.7169C74.0107 23.9679 74.1929 23.2392 74.3346 22.5239C74.3548 22.3822 74.429 22.2675 74.5505 22.2C74.672 22.1258 74.8002 22.1123 74.9351 22.1595C75.0768 22.2068 75.1848 22.2878 75.2523 22.416C75.3197 22.5442 75.3332 22.6791 75.2995 22.8276C74.9284 24.0084 74.699 24.7372 74.6112 25.0003H74.618ZM83.6667 21.6872C83.8354 21.6872 83.9704 21.7479 84.0851 21.8626C84.1998 21.9774 84.2538 22.1191 84.2538 22.2878V26.053C84.2538 26.3566 84.22 26.5861 84.1593 26.748C84.0986 26.91 83.9771 27.0382 83.8017 27.1394C83.5453 27.2541 83.1404 27.3148 82.5803 27.3418C82.4116 27.3418 82.2632 27.2878 82.1282 27.1799C81.9933 27.0719 81.8988 26.937 81.8448 26.7683C81.7976 26.6333 81.8178 26.5118 81.8921 26.4039C81.9663 26.2892 82.0742 26.2352 82.2092 26.2352H82.8975C82.9852 26.2352 83.0459 26.2217 83.0729 26.1947C83.0999 26.1677 83.1134 26.1137 83.1134 26.0328V22.8546C83.1134 22.8073 83.0864 22.7871 83.0324 22.7871H80.7382C80.6842 22.7871 80.6572 22.8073 80.6572 22.8546V28.0233C80.6572 28.192 80.6032 28.3337 80.4885 28.4485C80.3738 28.5632 80.2389 28.6239 80.0702 28.6239C79.9015 28.6239 79.7665 28.5632 79.6518 28.4485C79.5371 28.3337 79.4831 28.192 79.4831 28.0233V22.8546C79.4831 22.8073 79.4561 22.7871 79.4021 22.7871H77.3441C77.2968 22.7871 77.2766 22.8073 77.2766 22.8546V26.7345C77.2766 26.8897 77.2159 27.0247 77.1012 27.1394C76.9864 27.2541 76.8447 27.3081 76.6895 27.3081C76.5343 27.3081 76.3994 27.2541 76.2847 27.1394C76.17 27.0247 76.116 26.8965 76.116 26.7345V22.2878C76.116 22.1191 76.1767 21.9774 76.2914 21.8626C76.4061 21.7479 76.5478 21.6872 76.703 21.6872H79.3954C79.4494 21.6872 79.4764 21.667 79.4764 21.6197V20.4659C79.4764 20.4119 79.4494 20.3849 79.3954 20.3849H76.9864C76.8177 20.3849 76.676 20.3242 76.5613 20.2094C76.4466 20.0947 76.3859 19.953 76.3859 19.7978V15.2161C76.3859 15.0474 76.4466 14.9057 76.5613 14.791C76.676 14.6763 76.8177 14.6156 76.9864 14.6156H79.058C79.1052 14.6156 79.139 14.5953 79.1592 14.5481C79.2672 14.1702 79.3684 13.8261 79.4426 13.5292C79.4899 13.374 79.5776 13.2525 79.7125 13.158C79.8272 13.0771 79.9352 13.0433 80.0499 13.0433C80.0972 13.0433 80.1309 13.0433 80.1646 13.0568L80.3468 13.0771C80.4885 13.1108 80.6032 13.1918 80.6842 13.32C80.7652 13.4482 80.7719 13.5831 80.718 13.7316C80.583 14.0555 80.4683 14.3254 80.3671 14.5481C80.3468 14.5953 80.3536 14.6156 80.4008 14.6156H83.3428C83.5115 14.6156 83.6532 14.6763 83.7679 14.791C83.8826 14.9057 83.9434 15.0474 83.9434 15.2161V19.7978C83.9434 19.953 83.8826 20.088 83.7679 20.2094C83.6532 20.3242 83.5115 20.3849 83.3428 20.3849H80.7314C80.6775 20.3849 80.6505 20.4119 80.6505 20.4659V21.6197C80.6505 21.667 80.6775 21.6872 80.7314 21.6872H83.66H83.6667ZM77.6072 15.6142C77.56 15.6142 77.5398 15.6345 77.5398 15.6817V16.9503C77.5398 17.0043 77.56 17.0313 77.6072 17.0313H82.6613C82.7085 17.0313 82.7288 17.0043 82.7288 16.9503V15.6817C82.7288 15.6345 82.7085 15.6142 82.6613 15.6142H77.6072ZM77.6072 17.9557C77.56 17.9557 77.5398 17.9759 77.5398 18.0232V19.312C77.5398 19.366 77.56 19.393 77.6072 19.393H82.6613C82.7085 19.393 82.7288 19.366 82.7288 19.312V18.0232C82.7288 17.9759 82.7085 17.9557 82.6613 17.9557H77.6072Z" fill="#9FA0A0"/>
<path id="Vector_5" d="M92.4324 23.6101C92.4324 23.7788 92.3717 23.9205 92.257 24.0352C92.1423 24.1499 92.0006 24.2106 91.8319 24.2106H88.1206C88.0734 24.2106 88.0532 24.2309 88.0532 24.2781V25.1823C88.0532 25.351 87.9924 25.4927 87.8777 25.6074C87.763 25.7221 87.6213 25.7828 87.4526 25.7828H87.4391C87.2839 25.7828 87.1489 25.7221 87.0275 25.6074C86.9128 25.4927 86.8521 25.351 86.8521 25.1823V14.6625C86.8521 14.4939 86.9128 14.3522 87.0275 14.2374C87.1422 14.1227 87.2839 14.062 87.4391 14.062H91.8386C92.0073 14.062 92.149 14.1227 92.2637 14.2374C92.3785 14.3522 92.4392 14.4939 92.4392 14.6625V23.6101H92.4324ZM91.2448 15.2968C91.2448 15.2429 91.2246 15.2159 91.1774 15.2159H88.1139C88.0666 15.2159 88.0464 15.2429 88.0464 15.2968V18.3738C88.0464 18.4278 88.0666 18.4548 88.1139 18.4548H91.1774C91.2246 18.4548 91.2448 18.4278 91.2448 18.3738V15.2968ZM88.0464 22.942C88.0464 22.996 88.0666 23.023 88.1139 23.023H91.1774C91.2246 23.023 91.2448 22.996 91.2448 22.942V19.6964C91.2448 19.6424 91.2246 19.6154 91.1774 19.6154H88.1139C88.0666 19.6154 88.0464 19.6424 88.0464 19.6964V22.942ZM100.658 13.7381C100.813 13.7381 100.948 13.7988 101.07 13.9135C101.184 14.0283 101.245 14.17 101.245 14.3252V26.957C101.245 27.3686 101.191 27.6857 101.083 27.9016C100.975 28.1176 100.793 28.2795 100.523 28.3807C100.098 28.5359 99.3152 28.6169 98.1613 28.6169C97.9926 28.6169 97.8374 28.5629 97.7024 28.455C97.5607 28.347 97.4663 28.212 97.4123 28.0433C97.3988 27.9961 97.3853 27.9556 97.365 27.9084C97.3178 27.7869 97.3313 27.6655 97.3988 27.5575C97.4663 27.4495 97.5607 27.3888 97.6889 27.3888H99.5716C99.7403 27.3753 99.855 27.3416 99.9157 27.2808C99.9764 27.2201 100.01 27.1122 100.01 26.957V23.2794C100.01 23.2254 99.9899 23.1985 99.9427 23.1985H95.0438C94.9898 23.1985 94.9628 23.2254 94.9628 23.2794C94.5512 25.432 93.6403 27.1324 92.2368 28.3807C92.1153 28.4954 91.9736 28.5427 91.8116 28.5292C91.6497 28.5157 91.508 28.4482 91.3865 28.3267C91.3528 28.3065 91.3258 28.2795 91.3056 28.2593C91.1909 28.1581 91.1369 28.0298 91.1369 27.8747C91.1369 27.7329 91.1909 27.6047 91.3056 27.5035C91.7712 27.0784 92.1828 26.6061 92.5269 26.0865C92.871 25.5669 93.1342 25.0676 93.3231 24.5817C93.5053 24.0959 93.6538 23.5561 93.7685 22.9555C93.8832 22.3617 93.9507 21.8287 93.9777 21.3563C94.0047 20.8907 94.0182 20.3644 94.0182 19.7841V14.3117C94.0182 14.1565 94.0789 14.0215 94.1936 13.9001C94.3083 13.7786 94.45 13.7246 94.6187 13.7246H100.678L100.658 13.7381ZM95.1383 21.9501C95.1383 22.0041 95.1585 22.0311 95.2058 22.0311H99.9427C99.9899 22.0311 100.01 22.0041 100.01 21.9501V19.1093C100.01 19.0553 99.9899 19.0283 99.9427 19.0283H95.307C95.2598 19.0283 95.2395 19.0553 95.2395 19.1093V19.7976C95.2395 20.6478 95.2058 21.3631 95.1383 21.9569V21.9501ZM100.003 15.0067C100.003 14.9594 99.9832 14.9392 99.9359 14.9392H95.3002C95.253 14.9392 95.2328 14.9594 95.2328 15.0067V17.7868C95.2328 17.8407 95.253 17.8677 95.3002 17.8677H99.9359C99.9832 17.8677 100.003 17.8407 100.003 17.7868V15.0067Z" fill="#9FA0A0"/>
<path id="Vector_6" d="M106.556 20.0476C106.4 20.0476 106.272 19.9869 106.171 19.8721C106.07 19.7574 106.029 19.6157 106.056 19.4605L106.157 18.5901C106.171 18.5428 106.157 18.5226 106.11 18.5226H104.099C103.964 18.5226 103.85 18.4754 103.755 18.3809C103.661 18.2864 103.614 18.1717 103.614 18.0368C103.614 17.9018 103.661 17.7871 103.755 17.6926C103.85 17.5982 103.964 17.5509 104.099 17.5509H106.225C106.272 17.5509 106.299 17.5307 106.306 17.4834L106.407 16.667C106.427 16.4983 106.502 16.3633 106.63 16.2486C106.758 16.1339 106.906 16.0799 107.075 16.0799H115.638C115.793 16.0799 115.928 16.1406 116.029 16.2553C116.137 16.3701 116.185 16.5118 116.171 16.6805L116.104 17.4834C116.104 17.5307 116.124 17.5509 116.171 17.5509H118.195C118.33 17.5509 118.445 17.5982 118.54 17.6926C118.634 17.7871 118.681 17.9018 118.681 18.0368C118.681 18.1717 118.634 18.2864 118.54 18.3809C118.445 18.4754 118.33 18.5226 118.195 18.5226H116.09C116.043 18.5226 116.016 18.5428 116.009 18.5901L115.942 19.4403C115.928 19.609 115.861 19.7507 115.732 19.8654C115.604 19.9801 115.456 20.0408 115.287 20.0408H106.556V20.0476ZM116.077 20.7696C116.245 20.7696 116.387 20.8303 116.502 20.945C116.616 21.0597 116.677 21.2015 116.677 21.3567V25.5875C116.677 25.7562 116.616 25.8979 116.502 26.0059C116.387 26.1206 116.245 26.1745 116.077 26.1745H108.998C108.998 26.1745 108.978 26.1745 108.978 26.188C108.978 26.2015 108.978 26.2083 108.998 26.2218L109.417 26.4917C109.538 26.5727 109.599 26.6739 109.592 26.8088C109.592 26.9438 109.525 27.045 109.417 27.1125C108.222 27.7265 106.67 28.2191 104.767 28.6037C104.686 28.6172 104.626 28.6172 104.565 28.6172C104.275 28.6172 104.032 28.4958 103.829 28.2461C103.775 28.1786 103.748 28.1044 103.748 28.0302C103.748 27.9964 103.748 27.9627 103.762 27.929C103.809 27.8075 103.89 27.7333 104.012 27.713C104.936 27.5443 105.84 27.3284 106.724 27.0518C107.608 26.7818 108.283 26.5052 108.762 26.2218C108.776 26.2083 108.776 26.2015 108.769 26.188C108.769 26.1745 108.755 26.1745 108.742 26.1745H106.286C106.117 26.1745 105.975 26.1206 105.861 26.0059C105.746 25.8911 105.685 25.7562 105.685 25.5875V21.3567C105.685 21.2015 105.746 21.0665 105.861 20.945C105.975 20.8236 106.117 20.7696 106.286 20.7696H116.07H116.077ZM105.253 15.2837C105.206 15.2837 105.186 15.3107 105.186 15.3646V16.3836C105.186 16.5388 105.125 16.6737 105.01 16.7884C104.896 16.9031 104.754 16.9571 104.592 16.9571C104.43 16.9571 104.295 16.9031 104.18 16.7884C104.066 16.6737 104.012 16.5455 104.012 16.3836V14.8451C104.012 14.6764 104.072 14.5347 104.187 14.4267C104.302 14.3187 104.443 14.258 104.612 14.258H110.402C110.449 14.258 110.469 14.231 110.469 14.177V13.59C110.469 13.4348 110.53 13.2998 110.645 13.1784C110.759 13.0569 110.901 13.0029 111.07 13.0029H111.117C111.286 13.0029 111.427 13.0637 111.542 13.1784C111.657 13.2931 111.718 13.4348 111.718 13.59V14.177C111.718 14.231 111.738 14.258 111.785 14.258H117.676C117.831 14.258 117.966 14.312 118.087 14.4267C118.202 14.5414 118.263 14.6764 118.263 14.8451V16.3701C118.263 16.5388 118.202 16.6805 118.087 16.7884C117.973 16.9031 117.831 16.9571 117.676 16.9571H117.662C117.494 16.9571 117.352 16.9031 117.237 16.7884C117.123 16.6737 117.062 16.5388 117.062 16.3701V15.3646C117.062 15.3107 117.042 15.2837 116.994 15.2837H105.253ZM115.341 22.3081C115.388 22.3081 115.409 22.2811 115.409 22.2271V21.6266C115.409 21.5793 115.388 21.5591 115.341 21.5591H107.008C106.954 21.5591 106.927 21.5793 106.927 21.6266V22.2271C106.927 22.2811 106.954 22.3081 107.008 22.3081H115.341ZM115.341 23.8466C115.388 23.8466 115.409 23.8263 115.409 23.7791V23.1246C115.409 23.0773 115.388 23.0571 115.341 23.0571H107.008C106.954 23.0571 106.927 23.0773 106.927 23.1246V23.7791C106.927 23.8263 106.954 23.8466 107.008 23.8466H115.341ZM115.341 25.3851C115.388 25.3851 115.409 25.3648 115.409 25.3176V24.6833C115.409 24.6293 115.388 24.6023 115.341 24.6023H107.008C106.954 24.6023 106.927 24.6293 106.927 24.6833V25.3176C106.927 25.3648 106.954 25.3851 107.008 25.3851H115.341ZM107.392 18.4416C107.345 18.4416 107.318 18.4619 107.311 18.5091L107.23 19.1974C107.23 19.2514 107.251 19.2783 107.298 19.2783H110.226C110.28 19.2783 110.307 19.2514 110.307 19.1974C110.328 19.0422 110.355 18.8127 110.388 18.5091C110.402 18.4619 110.375 18.4416 110.321 18.4416H107.392ZM110.557 16.9166C110.557 16.8626 110.537 16.8357 110.489 16.8357H107.595C107.547 16.8357 107.52 16.8626 107.514 16.9166L107.433 17.5712C107.433 17.6184 107.453 17.6386 107.5 17.6386H110.429C110.476 17.6386 110.496 17.6184 110.496 17.5712C110.51 17.4902 110.516 17.3822 110.53 17.2338C110.543 17.0853 110.55 16.9841 110.564 16.9166H110.557ZM111.394 19.1906C111.38 19.2446 111.407 19.2716 111.461 19.2716H114.72C114.768 19.2716 114.795 19.2446 114.801 19.1906L114.849 18.5023C114.849 18.4551 114.828 18.4349 114.781 18.4349H111.535C111.488 18.4349 111.461 18.4551 111.454 18.5023C111.441 18.7048 111.421 18.9342 111.387 19.1906H111.394ZM114.842 17.6319C114.889 17.6319 114.916 17.6116 114.923 17.5644L114.97 16.9099C114.97 16.8559 114.95 16.8289 114.903 16.8289H111.67C111.623 16.8289 111.596 16.8559 111.589 16.9099L111.556 17.5644C111.556 17.6116 111.576 17.6319 111.623 17.6319H114.835H114.842ZM112.77 27.0518C112.629 27.0045 112.554 26.9101 112.554 26.7481C112.554 26.6604 112.595 26.5862 112.669 26.5322C112.858 26.3635 113.074 26.2825 113.324 26.2825C113.411 26.2825 113.512 26.296 113.627 26.3163C115.355 26.8088 116.88 27.2677 118.195 27.7063C118.33 27.7535 118.398 27.848 118.398 28.0099C118.398 28.1112 118.351 28.1854 118.263 28.2461L118.148 28.3271C117.959 28.462 117.75 28.5295 117.527 28.5295C117.392 28.5295 117.257 28.5025 117.109 28.4485C115.861 27.9897 114.417 27.5308 112.777 27.0585L112.77 27.0518Z" fill="#9FA0A0"/>
<path id="Vector_7" d="M135.564 23.6718C135.665 23.7798 135.712 23.9013 135.712 24.0497C135.712 24.1982 135.665 24.3196 135.564 24.4276C135.463 24.5356 135.335 24.5895 135.179 24.5895H130.112C130.112 24.5895 130.092 24.5895 130.085 24.6098C130.085 24.6233 130.085 24.63 130.092 24.6435C130.793 25.1901 131.63 25.6827 132.602 26.1213C133.573 26.5599 134.565 26.9108 135.577 27.1672C135.699 27.2009 135.78 27.2819 135.814 27.4034C135.827 27.4371 135.827 27.4776 135.827 27.5181C135.827 27.599 135.8 27.6665 135.746 27.734C135.699 27.8015 135.658 27.8622 135.611 27.9162C135.496 28.0579 135.362 28.1658 135.2 28.2333C135.038 28.3008 134.882 28.3076 134.72 28.2468C133.627 27.9027 132.568 27.4438 131.542 26.8703C130.517 26.2967 129.633 25.6624 128.897 24.9742C128.884 24.9607 128.877 24.9607 128.863 24.9674C128.85 24.9674 128.85 24.9809 128.85 24.9944V28.0579C128.85 28.2266 128.789 28.3683 128.674 28.483C128.56 28.5977 128.418 28.6584 128.249 28.6584H128.202C128.033 28.6584 127.892 28.5977 127.777 28.483C127.662 28.3683 127.602 28.2266 127.602 28.0579V25.0821C127.602 25.0821 127.602 25.0619 127.588 25.0551C127.575 25.0551 127.568 25.0551 127.554 25.0619C126.819 25.7097 125.942 26.3102 124.916 26.8568C123.89 27.4034 122.851 27.8555 121.778 28.2063C121.623 28.2603 121.461 28.2603 121.292 28.1996C121.124 28.1389 120.989 28.0376 120.888 27.8892C120.854 27.842 120.813 27.8015 120.773 27.7542C120.719 27.6733 120.692 27.599 120.692 27.5181C120.692 27.4843 120.705 27.4438 120.726 27.4034C120.759 27.2684 120.84 27.1874 120.975 27.1537C121.954 26.8973 122.932 26.5464 123.897 26.101C124.862 25.6557 125.692 25.1698 126.38 24.6435C126.394 24.63 126.394 24.6233 126.387 24.6098C126.387 24.5963 126.373 24.5895 126.36 24.5895H121.373C121.225 24.5895 121.104 24.5356 120.996 24.4276C120.888 24.3196 120.834 24.1982 120.834 24.0497C120.834 23.9013 120.888 23.7798 120.996 23.6718C121.104 23.5639 121.225 23.5099 121.373 23.5099H127.527C127.575 23.5099 127.595 23.4829 127.595 23.4289V22.3088C127.595 22.2616 127.575 22.2413 127.527 22.2413H122.925C122.79 22.2413 122.676 22.1941 122.581 22.0996C122.487 22.0051 122.44 21.8904 122.44 21.7555C122.44 21.6205 122.487 21.5058 122.581 21.4046C122.676 21.3034 122.79 21.2561 122.925 21.2561H127.527C127.575 21.2561 127.595 21.2359 127.595 21.1887V20.082C127.595 20.0348 127.575 20.0146 127.527 20.0146H122.109C121.967 20.0146 121.839 19.9606 121.738 19.8526C121.637 19.7446 121.589 19.6232 121.589 19.4815C121.589 19.3398 121.637 19.2183 121.738 19.1104C121.839 19.0024 121.96 18.9484 122.109 18.9484H125.24C125.294 18.9484 125.321 18.9282 125.307 18.8809C125.186 18.5233 125.004 18.1319 124.774 17.7068C124.707 17.5854 124.7 17.4639 124.747 17.3492C124.795 17.2345 124.889 17.1603 125.024 17.14V17.1265H121.448C121.299 17.1265 121.178 17.0725 121.07 16.9578C120.962 16.8431 120.908 16.7149 120.908 16.5665C120.908 16.418 120.962 16.2898 121.07 16.1818C121.178 16.0739 121.299 16.0199 121.448 16.0199H123.553C123.607 16.0199 123.627 15.9996 123.6 15.9524C123.411 15.4531 123.067 14.8053 122.581 14.0091C122.5 13.8876 122.487 13.7594 122.541 13.6244C122.588 13.4895 122.682 13.4018 122.817 13.3545C122.973 13.3005 123.135 13.2938 123.297 13.3478C123.458 13.395 123.587 13.4962 123.688 13.6379C124.032 14.1508 124.329 14.6501 124.572 15.1427C124.639 15.2844 124.639 15.4328 124.579 15.588C124.518 15.7365 124.41 15.8444 124.255 15.8984L124.005 15.9996V16.0131H125.962C126.016 16.0131 126.043 15.9929 126.043 15.9457V13.5705C126.043 13.4153 126.104 13.2803 126.218 13.1588C126.333 13.0441 126.475 12.9834 126.637 12.9834C126.799 12.9834 126.94 13.0441 127.055 13.1588C127.17 13.2736 127.23 13.4153 127.23 13.5705V15.9457C127.23 15.9929 127.251 16.0131 127.298 16.0131H129.187C129.235 16.0131 129.255 15.9929 129.255 15.9457V13.5705C129.255 13.4153 129.316 13.2803 129.43 13.1588C129.545 13.0441 129.687 12.9834 129.855 12.9834H129.876C130.031 12.9834 130.166 13.0441 130.287 13.1588C130.409 13.2736 130.463 13.4153 130.463 13.5705V15.9457C130.463 15.9929 130.49 16.0131 130.544 16.0131H132.467V15.9996C132.325 15.9524 132.224 15.8579 132.163 15.7162C132.102 15.5745 132.116 15.4328 132.197 15.2979C132.467 14.8053 132.723 14.2925 132.966 13.7594C133.034 13.6042 133.142 13.4895 133.303 13.4085C133.465 13.3275 133.614 13.314 133.769 13.3613L133.917 13.4085C134.073 13.4422 134.181 13.53 134.235 13.6649C134.289 13.8066 134.282 13.9416 134.201 14.0765C133.756 14.8795 133.364 15.5071 133.027 15.9659C133.007 15.9996 133.013 16.0131 133.061 16.0131H135.098C135.24 16.0131 135.368 16.0671 135.476 16.1751C135.584 16.2831 135.638 16.4113 135.638 16.5665C135.638 16.7217 135.584 16.8566 135.476 16.9578C135.368 17.0658 135.247 17.1198 135.098 17.1198H132.291C132.244 17.1198 132.21 17.14 132.177 17.1872C131.812 17.8823 131.488 18.4491 131.205 18.8944C131.171 18.9282 131.185 18.9417 131.239 18.9417H134.518C134.66 18.9417 134.788 18.9956 134.896 19.1036C135.004 19.2116 135.058 19.333 135.058 19.4747C135.058 19.6164 135.004 19.7379 134.896 19.8459C134.788 19.9538 134.666 20.0078 134.518 20.0078H128.911C128.863 20.0078 128.843 20.0281 128.843 20.0753V21.1819C128.843 21.2292 128.863 21.2494 128.911 21.2494H133.715C133.85 21.2494 133.965 21.2966 134.059 21.3978C134.154 21.4991 134.201 21.6138 134.201 21.7487C134.201 21.8837 134.154 21.9984 134.059 22.0929C133.965 22.1873 133.85 22.2346 133.715 22.2346H128.911C128.863 22.2346 128.843 22.2548 128.843 22.302V23.4222C128.843 23.4762 128.863 23.5032 128.911 23.5032H135.166C135.321 23.5032 135.449 23.5571 135.55 23.6651L135.564 23.6718ZM130.78 17.2075C130.8 17.1603 130.78 17.14 130.733 17.14H125.847C125.8 17.14 125.793 17.1535 125.813 17.1872C126.056 17.5449 126.272 17.943 126.448 18.3749C126.502 18.4963 126.495 18.6178 126.434 18.7325C126.367 18.8472 126.272 18.9214 126.151 18.9417C126.137 18.9552 126.137 18.9552 126.151 18.9552H130.085C129.984 18.9214 129.963 18.8607 130.017 18.773C130.294 18.2804 130.55 17.7608 130.787 17.2007L130.78 17.2075Z" fill="#9FA0A0"/>
<path id="Vector_8" d="M142.824 13.6449C142.98 13.6449 143.115 13.7056 143.236 13.8203C143.351 13.935 143.411 14.0767 143.411 14.2319V27.1471C143.411 27.4913 143.371 27.7679 143.283 27.9636C143.202 28.1661 143.047 28.3213 142.824 28.4292C142.554 28.5642 142.015 28.6384 141.205 28.6452H141.185C141.016 28.6452 140.868 28.5912 140.733 28.4765C140.598 28.3617 140.51 28.2268 140.463 28.0581L140.429 27.9906C140.382 27.8557 140.402 27.7342 140.476 27.6195C140.55 27.5048 140.658 27.4508 140.793 27.4508H141.313C141.617 27.4508 141.812 27.4508 141.913 27.4373C142.035 27.4238 142.123 27.3968 142.17 27.3563C142.217 27.3091 142.244 27.2349 142.244 27.1202V22.9028C142.244 22.8556 142.217 22.8353 142.163 22.8353H139.835C139.781 22.8353 139.754 22.8556 139.754 22.9028C139.612 25.0216 139.262 26.7558 138.715 28.1053C138.661 28.247 138.553 28.3415 138.405 28.382C138.256 28.4225 138.114 28.4022 137.979 28.3213H137.966C137.824 28.2335 137.723 28.1121 137.662 27.9704C137.629 27.8894 137.615 27.8152 137.615 27.7342C137.615 27.6667 137.629 27.5925 137.662 27.5183C138.087 26.4724 138.364 25.2983 138.499 23.9959C138.634 22.6936 138.702 21.2766 138.702 19.7381V14.2184C138.702 14.0633 138.755 13.9283 138.87 13.8068C138.985 13.6854 139.12 13.6314 139.289 13.6314H142.818L142.824 13.6449ZM139.828 21.5735C139.828 21.6207 139.855 21.641 139.909 21.641H142.17C142.224 21.641 142.251 21.6207 142.251 21.5735V18.8474C142.251 18.8002 142.224 18.7799 142.17 18.7799H139.943C139.889 18.7799 139.862 18.8002 139.862 18.8474V19.7516C139.862 20.5343 139.849 21.1416 139.828 21.5735ZM142.251 14.9C142.251 14.846 142.224 14.819 142.17 14.819H139.943C139.889 14.819 139.862 14.846 139.862 14.9V17.5248C139.862 17.5721 139.889 17.5923 139.943 17.5923H142.17C142.224 17.5923 142.251 17.5721 142.251 17.5248V14.9ZM146.65 14.7853C146.603 14.7853 146.583 14.8123 146.583 14.8662V15.6557C146.583 17.4371 146.016 18.8002 144.876 19.7381C144.741 19.8393 144.592 19.8798 144.43 19.8663C144.268 19.8528 144.12 19.7786 143.985 19.6571C143.971 19.6436 143.958 19.6369 143.938 19.6234C143.837 19.5222 143.789 19.4075 143.789 19.2725C143.789 19.1173 143.843 18.9959 143.958 18.9014C144.896 18.1187 145.362 17.0323 145.362 15.6422V14.1847C145.362 14.0295 145.422 13.8946 145.537 13.7731C145.652 13.6584 145.793 13.5977 145.949 13.5977H150.146C150.314 13.5977 150.456 13.6584 150.571 13.7731C150.686 13.8878 150.746 14.0295 150.746 14.1847V17.8487C150.746 18.0377 150.76 18.1591 150.793 18.2064C150.827 18.2536 150.908 18.2806 151.03 18.2806H151.833C151.968 18.2806 152.055 18.1996 152.103 18.0377C152.15 17.8757 152.184 17.5114 152.204 16.9445C152.217 16.8231 152.278 16.7286 152.386 16.6679C152.494 16.6072 152.615 16.6004 152.737 16.6409C152.906 16.7084 153.034 16.8163 153.121 16.958C153.209 17.0795 153.256 17.2077 153.256 17.3427C153.256 18.0444 153.128 18.5842 152.872 18.9621C152.696 19.2388 152.399 19.3805 151.988 19.3805H150.847C150.335 19.3805 149.984 19.2725 149.802 19.0633C149.619 18.8542 149.525 18.4493 149.525 17.8622V14.8662C149.525 14.8123 149.498 14.7853 149.444 14.7853H146.65ZM151.219 20.3724C151.266 20.3589 151.306 20.3589 151.354 20.3589C151.441 20.3589 151.529 20.3724 151.603 20.4061L151.819 20.4871C151.941 20.5411 152.028 20.6288 152.076 20.7368C152.123 20.8515 152.136 20.9662 152.103 21.0877C151.509 22.8286 150.598 24.3131 149.356 25.5547C149.309 25.6019 149.309 25.6357 149.356 25.6559C150.368 26.4386 151.509 27.0257 152.771 27.4306C152.892 27.4778 152.973 27.5588 153.007 27.6802C153.02 27.7275 153.02 27.7612 153.02 27.7949C153.02 27.8827 152.993 27.9636 152.939 28.0311L152.804 28.1998C152.703 28.3415 152.568 28.4427 152.399 28.5034C152.318 28.5372 152.237 28.5507 152.15 28.5507C152.069 28.5507 151.995 28.5372 151.914 28.5169C150.632 28.0513 149.457 27.3833 148.398 26.5264C148.351 26.4926 148.317 26.4926 148.283 26.5264C147.258 27.3293 146.097 27.9704 144.801 28.4495C144.646 28.5034 144.491 28.5034 144.336 28.4427C144.181 28.382 144.052 28.2808 143.951 28.1323C143.931 28.0851 143.904 28.0513 143.884 28.0176C143.83 27.9366 143.803 27.8557 143.803 27.7679C143.803 27.7207 143.803 27.687 143.823 27.6532C143.87 27.5183 143.951 27.4306 144.073 27.3833C145.287 26.9717 146.38 26.3981 147.352 25.6626C147.399 25.6424 147.399 25.6087 147.366 25.5614C146.495 24.6437 145.78 23.6046 145.206 22.4305C145.139 22.2888 145.139 22.1403 145.206 21.9986C145.274 21.8569 145.382 21.7557 145.523 21.695L145.908 21.5803C145.908 21.5803 145.908 21.56 145.888 21.56H144.882C144.714 21.56 144.572 21.4993 144.457 21.3846C144.343 21.2699 144.282 21.1282 144.282 20.9662C144.282 20.8043 144.343 20.6626 144.457 20.5478C144.572 20.4331 144.714 20.3724 144.882 20.3724H151.205H151.219ZM150.564 21.6275C150.578 21.5802 150.564 21.56 150.517 21.56H146.232C146.178 21.56 146.158 21.5802 146.185 21.6275C146.684 22.8016 147.393 23.834 148.31 24.7382C148.344 24.7719 148.378 24.7719 148.412 24.7382C149.356 23.8273 150.078 22.7881 150.571 21.6275H150.564Z" fill="#9FA0A0"/>
<path id="Vector_9" d="M158.311 13.6256C158.365 13.4704 158.473 13.3557 158.628 13.2882C158.715 13.2409 158.803 13.2207 158.898 13.2207C158.965 13.2207 159.026 13.2207 159.08 13.2409L159.127 13.2544C159.282 13.3017 159.397 13.3961 159.471 13.5378C159.545 13.6795 159.545 13.8347 159.478 13.9899C159.053 15.0358 158.554 16.0615 157.973 17.0669C157.953 17.1142 157.939 17.1546 157.939 17.2019V28.0118C157.939 28.1805 157.879 28.3222 157.764 28.4369C157.649 28.5516 157.501 28.6123 157.339 28.6123H157.319C157.163 28.6123 157.029 28.5516 156.907 28.4369C156.786 28.3222 156.732 28.1805 156.732 28.0118V19.0778C156.732 19.0778 156.732 19.0575 156.711 19.0508C156.698 19.0508 156.691 19.0508 156.678 19.0575C156.28 19.6243 155.854 20.1641 155.409 20.6635C155.308 20.7782 155.186 20.8187 155.051 20.7984C154.91 20.7782 154.802 20.704 154.728 20.5825C154.694 20.5015 154.653 20.4341 154.613 20.3666C154.545 20.2451 154.512 20.1102 154.512 19.9685C154.512 19.766 154.572 19.5973 154.694 19.4489C155.396 18.6931 156.064 17.8024 156.691 16.7903C157.319 15.7781 157.858 14.7187 158.304 13.6256H158.311ZM161.34 15.4475C161.408 15.2923 161.516 15.1776 161.657 15.0966C161.799 15.0156 161.954 14.9954 162.11 15.0291L162.191 15.0426C162.346 15.0898 162.46 15.1776 162.535 15.3193C162.609 15.461 162.616 15.6027 162.562 15.7444C161.806 17.6405 160.854 19.206 159.714 20.4475C159.599 20.5623 159.471 20.6095 159.309 20.6095C159.154 20.6095 159.019 20.542 158.911 20.4273C158.796 20.3126 158.742 20.1709 158.742 20.0022C158.742 19.8605 158.79 19.7255 158.891 19.6176C159.93 18.4705 160.74 17.0804 161.334 15.4542L161.34 15.4475ZM160.686 20.7849C160.571 20.6702 160.517 20.542 160.517 20.3801C160.517 20.2181 160.571 20.0899 160.686 19.9685C160.794 19.8537 160.935 19.793 161.104 19.793H167.845C168.014 19.793 168.156 19.8537 168.27 19.9685C168.385 20.0832 168.432 20.2316 168.412 20.3936C168.344 23.0387 168.264 24.8741 168.169 25.9132C168.075 26.9524 167.913 27.6069 167.69 27.8903C167.447 28.2345 167.089 28.4234 166.617 28.4571C166.394 28.4706 166.118 28.4706 165.78 28.4706H165.247C165.092 28.4571 164.95 28.3964 164.829 28.2884C164.707 28.1805 164.62 28.0388 164.579 27.8701C164.566 27.8228 164.559 27.7824 164.546 27.7351C164.498 27.6137 164.512 27.499 164.586 27.391C164.66 27.283 164.761 27.229 164.896 27.229C165.234 27.2493 165.605 27.2628 166.017 27.2628C166.273 27.2628 166.455 27.1953 166.57 27.0603C166.725 26.8714 166.846 26.3248 166.927 25.4274C167.008 24.5299 167.076 23.0589 167.116 21.0211C167.116 20.9671 167.096 20.9401 167.049 20.9401H164.201C164.147 20.9401 164.12 20.9604 164.12 21.0076C164.033 21.7971 163.911 22.5191 163.763 23.1669C163.614 23.8147 163.405 24.4625 163.135 25.1102C162.865 25.758 162.514 26.3518 162.076 26.8917C161.637 27.4315 161.111 27.9106 160.51 28.3222C160.369 28.4099 160.213 28.4369 160.052 28.4032C159.89 28.3694 159.761 28.2884 159.66 28.1535C159.647 28.14 159.64 28.1265 159.626 28.1062C159.545 28.0185 159.512 27.9106 159.512 27.7891C159.512 27.6137 159.586 27.472 159.728 27.3707C160.274 27.0266 160.74 26.615 161.131 26.1427C161.523 25.6703 161.833 25.1507 162.062 24.5772C162.292 24.0104 162.467 23.4435 162.589 22.8902C162.71 22.3302 162.798 21.7094 162.859 21.0144C162.872 20.9671 162.845 20.9469 162.791 20.9469H161.104C160.935 20.9469 160.794 20.8929 160.686 20.7782V20.7849ZM162.744 14.4623C162.629 14.3543 162.575 14.2194 162.575 14.0642C162.575 13.909 162.629 13.774 162.744 13.6593C162.859 13.5446 162.987 13.4906 163.149 13.4906H166.631C166.799 13.4906 166.948 13.5446 167.083 13.6526C167.218 13.7605 167.305 13.8955 167.353 14.0642C167.609 15.1236 167.973 16.102 168.459 16.9994C168.945 17.8969 169.498 18.6257 170.133 19.1857C170.254 19.3004 170.315 19.4286 170.315 19.5838C170.315 19.7255 170.268 19.8537 170.166 19.955C170.119 20.0089 170.072 20.0697 170.018 20.1237C169.903 20.2451 169.775 20.3126 169.613 20.3261C169.593 20.3396 169.573 20.3396 169.566 20.3396C169.431 20.3396 169.309 20.2923 169.195 20.1911C168.533 19.5568 167.953 18.7606 167.44 17.7957C166.927 16.8375 166.536 15.8118 166.266 14.7187C166.253 14.6647 166.226 14.6377 166.185 14.6377H163.155C163 14.6377 162.865 14.5837 162.751 14.469L162.744 14.4623Z" fill="#9FA0A0"/>
<path id="Vector_10" d="M187.123 15.8155C187.123 15.9842 187.069 16.1259 186.954 16.2406C186.839 16.3553 186.704 16.416 186.536 16.416H177.986C177.939 16.416 177.905 16.4363 177.885 16.4835C177.494 17.2663 177.163 17.8803 176.9 18.3392C176.88 18.3729 176.9 18.3864 176.947 18.3864H184.525C184.693 18.3864 184.835 18.4471 184.95 18.5618C185.065 18.6765 185.125 18.8182 185.125 18.9869V27.0505C185.125 27.4419 185.071 27.7388 184.963 27.9345C184.855 28.1369 184.673 28.2853 184.403 28.3866C184.012 28.5283 183.216 28.6092 182.008 28.6227C181.839 28.6227 181.691 28.5687 181.556 28.454C181.421 28.3393 181.326 28.2044 181.272 28.0357C181.259 28.0019 181.245 27.9614 181.225 27.921C181.178 27.786 181.198 27.6645 181.272 27.5498C181.347 27.4351 181.455 27.3811 181.589 27.3811C181.9 27.3946 182.527 27.4014 183.465 27.4014C183.621 27.3879 183.729 27.3609 183.783 27.3069C183.836 27.2597 183.863 27.172 183.863 27.0505V25.3433C183.863 25.2893 183.836 25.2623 183.783 25.2623H176.792C176.745 25.2623 176.724 25.2893 176.724 25.3433V28.0357C176.724 28.2044 176.664 28.3461 176.549 28.4608C176.434 28.5755 176.293 28.6362 176.124 28.6362H176.077C175.908 28.6362 175.766 28.5755 175.651 28.4608C175.537 28.3461 175.476 28.2044 175.476 28.0357V20.4579C175.476 20.4579 175.476 20.4377 175.463 20.431C175.449 20.431 175.442 20.431 175.429 20.4377C174.727 21.3217 173.951 22.0842 173.101 22.7319C172.966 22.8332 172.824 22.8669 172.669 22.8399C172.514 22.8129 172.379 22.7387 172.264 22.6172C172.251 22.597 172.237 22.57 172.217 22.5497C172.129 22.4485 172.082 22.3338 172.082 22.1989C172.082 22.0234 172.156 21.875 172.298 21.767C173.992 20.4849 175.395 18.7238 176.495 16.4835C176.515 16.4363 176.495 16.416 176.448 16.416H172.817C172.649 16.416 172.507 16.3553 172.399 16.2406C172.284 16.1259 172.23 15.9842 172.23 15.8155C172.23 15.6468 172.284 15.5051 172.399 15.3904C172.507 15.2757 172.649 15.2149 172.817 15.2149H176.981C177.028 15.2149 177.062 15.1947 177.082 15.1475C177.291 14.6009 177.48 14.0746 177.635 13.5752C177.689 13.42 177.791 13.2986 177.939 13.2109C178.027 13.1569 178.128 13.1299 178.243 13.1299C178.29 13.1299 178.337 13.1299 178.391 13.1501L178.506 13.1839C178.661 13.2176 178.776 13.3053 178.857 13.4403C178.938 13.582 178.944 13.7304 178.89 13.8856C178.722 14.3985 178.573 14.8236 178.438 15.1542C178.418 15.2014 178.438 15.2217 178.486 15.2217H186.536C186.704 15.2217 186.839 15.2824 186.954 15.3971C187.069 15.5118 187.123 15.6535 187.123 15.8222V15.8155ZM183.796 21.2879C183.85 21.2879 183.877 21.2609 183.877 21.2069V19.6347C183.877 19.5807 183.85 19.5537 183.796 19.5537H176.805C176.758 19.5537 176.738 19.5807 176.738 19.6347V21.2069C176.738 21.2609 176.758 21.2879 176.805 21.2879H183.796ZM176.738 24.1017C176.738 24.1557 176.758 24.1827 176.805 24.1827H183.796C183.85 24.1827 183.877 24.1557 183.877 24.1017V22.4755C183.877 22.4215 183.85 22.3946 183.796 22.3946H176.805C176.758 22.3946 176.738 22.4215 176.738 22.4755V24.1017Z" fill="#9FA0A0"/>
<path id="Vector_11" d="M193.878 13.7381C193.925 13.7246 193.959 13.7246 193.993 13.7246C194.067 13.7246 194.148 13.7449 194.229 13.7921L194.479 13.9405C194.6 14.0215 194.688 14.1227 194.735 14.2577C194.782 14.3926 194.782 14.5276 194.728 14.6625C194.135 16.2483 193.581 17.5776 193.055 18.664C193.035 18.7112 193.041 18.7449 193.075 18.7787C194.168 19.9056 194.715 21.1134 194.715 22.409V22.5102C194.715 23.4481 194.479 24.0689 194.013 24.3861C193.77 24.5413 193.453 24.6492 193.062 24.7032C192.893 24.7234 192.691 24.7369 192.441 24.7369H192.373C192.218 24.7369 192.077 24.683 191.948 24.5683C191.82 24.4535 191.732 24.3118 191.692 24.1364V24.1027C191.658 23.9812 191.678 23.8665 191.753 23.7585C191.827 23.6506 191.928 23.5966 192.063 23.5966C192.232 23.6101 192.4 23.6101 192.583 23.5966C192.805 23.5763 193.008 23.5223 193.183 23.4481C193.453 23.2727 193.581 22.8813 193.581 22.274C193.581 21.2821 193.149 20.2969 192.279 19.3118C192.104 19.1228 192.009 18.9204 192.009 18.7112C192.009 18.5897 192.036 18.4615 192.09 18.3266C192.434 17.5236 192.859 16.4102 193.359 14.9797C193.372 14.9325 193.359 14.9122 193.311 14.9122H190.936C190.889 14.9122 190.869 14.9325 190.869 14.9797V28.0433C190.869 28.212 190.808 28.3537 190.693 28.4685C190.579 28.5832 190.437 28.6439 190.268 28.6439C190.099 28.6439 189.958 28.5832 189.843 28.4685C189.728 28.3537 189.668 28.212 189.668 28.0433V14.3252C189.668 14.17 189.728 14.035 189.843 13.9135C189.958 13.7921 190.099 13.7381 190.268 13.7381H193.885H193.878ZM202.826 22.1526C202.934 22.0311 203.082 21.9636 203.251 21.9434C203.426 21.9299 203.575 21.9704 203.71 22.0716L203.723 22.0918C203.858 22.1795 203.932 22.301 203.939 22.4495C203.953 22.5979 203.892 22.7261 203.77 22.8273C203.048 23.4819 202.293 24.0892 201.51 24.6357C201.476 24.656 201.469 24.6897 201.496 24.7369C202.212 25.8503 203.082 26.7005 204.108 27.2808C204.263 27.3686 204.344 27.5035 204.344 27.6857C204.344 27.7937 204.303 27.8949 204.229 27.9894C204.196 28.0231 204.162 28.0636 204.128 28.1041C204.027 28.239 203.899 28.3267 203.743 28.374C203.689 28.3875 203.635 28.3875 203.595 28.3875C203.494 28.3875 203.393 28.3605 203.291 28.3065C201.22 27.0244 199.762 24.7234 198.926 21.3968C198.912 21.3496 198.885 21.3293 198.845 21.3293H197.137C197.083 21.3293 197.056 21.3496 197.056 21.3968V26.5184C197.056 26.5723 197.083 26.5993 197.137 26.5858C197.994 26.4171 198.878 26.2484 199.783 26.0663C199.924 26.0325 200.059 26.0663 200.174 26.1472C200.289 26.2349 200.356 26.3564 200.37 26.4981C200.383 26.6533 200.336 26.795 200.241 26.9232C200.147 27.0514 200.019 27.1324 199.863 27.1661C199.83 27.1796 198.177 27.5508 194.897 28.2863C194.728 28.32 194.573 28.293 194.432 28.212C194.29 28.1311 194.189 28.0096 194.128 27.8544L194.094 27.7397C194.081 27.6857 194.074 27.625 194.074 27.571C194.074 27.4833 194.094 27.3956 194.141 27.3213C194.222 27.1864 194.337 27.1054 194.492 27.0717C195.019 26.9705 195.437 26.8962 195.747 26.8355C195.801 26.822 195.828 26.795 195.828 26.7545V14.3589C195.828 14.2037 195.882 14.0687 195.997 13.9473C196.105 13.8326 196.247 13.7718 196.415 13.7718H202.907C203.075 13.7718 203.21 13.8326 203.325 13.9473C203.44 14.062 203.494 14.2037 203.494 14.3589V20.7355C203.494 20.9042 203.44 21.0459 203.325 21.1606C203.21 21.2753 203.075 21.3361 202.907 21.3361H200.079C200.032 21.3361 200.019 21.3563 200.032 21.4036C200.275 22.274 200.572 23.05 200.916 23.7315C200.936 23.7788 200.963 23.7788 200.997 23.745C201.712 23.185 202.32 22.6654 202.819 22.1728L202.826 22.1526ZM202.239 14.9594C202.239 14.9122 202.212 14.892 202.158 14.892H197.137C197.083 14.892 197.056 14.9122 197.056 14.9594V16.9028C197.056 16.95 197.083 16.9703 197.137 16.9703H202.158C202.212 16.9703 202.239 16.95 202.239 16.9028V14.9594ZM197.137 18.0567C197.083 18.0567 197.056 18.0769 197.056 18.1241V20.1012C197.056 20.1552 197.083 20.1822 197.137 20.1822H202.158C202.212 20.1822 202.239 20.1552 202.239 20.1012V18.1241C202.239 18.0769 202.212 18.0567 202.158 18.0567H197.137Z" fill="#9FA0A0"/>
<path id="Vector_12" d="M210.578 14.0426C210.646 13.8874 210.754 13.7727 210.916 13.7052C211.003 13.6579 211.098 13.6377 211.199 13.6377C211.253 13.6377 211.314 13.6377 211.381 13.6579L211.617 13.7254C211.773 13.7727 211.887 13.8671 211.955 14.0088C212.022 14.1505 212.022 14.299 211.955 14.4407C210.875 16.8496 209.519 18.8672 207.893 20.4934C207.778 20.6149 207.636 20.6824 207.467 20.6891C207.292 20.6891 207.144 20.6419 207.022 20.5272C206.921 20.4597 206.833 20.3922 206.752 20.3247C206.617 20.237 206.55 20.1088 206.55 19.9401C206.55 19.8186 206.597 19.7039 206.698 19.6027C207.468 18.9009 208.189 18.0642 208.858 17.0925C209.526 16.1209 210.099 15.102 210.578 14.0291V14.0426ZM216.165 23.341C216.078 23.2263 216.051 23.098 216.084 22.9496C216.118 22.8011 216.199 22.6932 216.334 22.6392L216.435 22.592C216.59 22.511 216.752 22.4975 216.928 22.5312C217.103 22.5717 217.245 22.6594 217.353 22.7944C218.783 24.4678 219.937 26.0401 220.815 27.5111C220.902 27.6528 220.923 27.808 220.882 27.9632C220.835 28.1184 220.74 28.2331 220.599 28.3141L220.383 28.449C220.295 28.4963 220.201 28.5165 220.099 28.5165C220.045 28.5165 219.985 28.5165 219.931 28.503C219.775 28.4558 219.654 28.3613 219.58 28.2196C219.425 27.9429 219.256 27.6595 219.08 27.3829C219.047 27.3356 219.006 27.3154 218.966 27.3154C217.373 27.4166 213.621 27.6123 207.704 27.9024C207.535 27.9159 207.387 27.862 207.258 27.754C207.13 27.6393 207.056 27.5111 207.036 27.3491L207.015 27.1804C206.995 27.0252 207.036 26.8835 207.144 26.7621C207.252 26.6406 207.38 26.5799 207.535 26.5799C208.405 26.5462 208.966 26.5327 209.208 26.5327C209.262 26.5327 209.303 26.5124 209.323 26.4652C210.504 24.2992 211.503 22.0656 212.319 19.7579C212.387 19.6027 212.495 19.4813 212.636 19.4003C212.778 19.3193 212.94 19.2991 213.102 19.3395L213.419 19.4205C213.561 19.4543 213.675 19.542 213.743 19.6769C213.817 19.8186 213.817 19.9603 213.75 20.102C212.704 22.565 211.698 24.6635 210.74 26.391C210.72 26.4382 210.727 26.4584 210.774 26.4584C212.468 26.391 214.937 26.283 218.169 26.1413C218.217 26.1278 218.223 26.1075 218.203 26.0738C217.508 25.0954 216.833 24.1844 216.165 23.3477V23.341ZM215.916 14.5217C215.868 14.4474 215.848 14.3597 215.848 14.272C215.848 14.218 215.848 14.1573 215.868 14.1033C215.922 13.9481 216.024 13.8401 216.172 13.7861L216.307 13.7187C216.395 13.6849 216.482 13.6714 216.557 13.6714C216.631 13.6714 216.705 13.6917 216.773 13.7187C216.941 13.7727 217.063 13.8739 217.144 14.0223C217.67 14.9333 218.311 15.8847 219.067 16.8766C219.823 17.8685 220.558 18.712 221.273 19.4273C221.388 19.5285 221.442 19.6499 221.442 19.7984C221.442 19.9671 221.381 20.1088 221.26 20.2303C221.179 20.2977 221.105 20.372 221.024 20.4664C220.923 20.5811 220.794 20.6419 220.639 20.6486H220.605C220.464 20.6486 220.335 20.5946 220.241 20.4799C219.519 19.6769 218.763 18.739 217.974 17.6594C217.184 16.5797 216.503 15.5406 215.922 14.5217H215.916Z" fill="#9FA0A0"/>
<path id="Vector_13" d="M237.042 14.1103C237.198 14.1103 237.333 14.171 237.454 14.2857C237.576 14.4004 237.63 14.5421 237.63 14.7108V26.7556C237.63 27.2009 237.576 27.545 237.461 27.7812C237.346 28.0241 237.15 28.1928 236.86 28.294C236.435 28.4627 235.571 28.5437 234.269 28.5437C234.1 28.5437 233.952 28.4897 233.817 28.375C233.682 28.2603 233.594 28.1254 233.547 27.9567C233.527 27.8689 233.5 27.7812 233.466 27.707C233.419 27.5855 233.439 27.4641 233.513 27.3494C233.588 27.2346 233.696 27.1807 233.831 27.1874C234.364 27.2009 234.809 27.2009 235.167 27.2009C235.504 27.2009 235.76 27.2009 235.936 27.1874C236.105 27.1739 236.212 27.1402 236.26 27.0862C236.307 27.0322 236.334 26.9175 236.334 26.7488V15.4058C236.334 15.3519 236.314 15.3249 236.266 15.3249H224.62C224.451 15.3249 224.309 15.2641 224.195 15.1494C224.08 15.0347 224.019 14.893 224.019 14.7378V14.7041C224.019 14.5354 224.08 14.3937 224.195 14.279C224.309 14.1642 224.451 14.1035 224.62 14.1035H237.036L237.042 14.1103ZM233.817 17.1198C233.986 17.1198 234.121 17.1737 234.235 17.2885C234.343 17.4032 234.404 17.5314 234.404 17.6933C234.404 17.8553 234.35 17.9835 234.235 18.0982C234.121 18.2129 233.986 18.2669 233.817 18.2669H224.735C224.566 18.2669 224.431 18.2129 224.316 18.0982C224.201 17.9835 224.147 17.8553 224.147 17.6933C224.147 17.5314 224.201 17.4032 224.316 17.2885C224.431 17.1805 224.566 17.1198 224.735 17.1198H233.817ZM233.23 24.9472C233.23 25.1159 233.169 25.2508 233.055 25.3655C232.94 25.4802 232.798 25.5342 232.643 25.5342H226.556C226.509 25.5342 226.489 25.5612 226.489 25.6152V26.2022C226.489 26.3574 226.428 26.4924 226.314 26.6139C226.199 26.7286 226.057 26.7893 225.888 26.7893H225.821C225.666 26.7893 225.531 26.7286 225.409 26.6139C225.295 26.4991 225.234 26.3574 225.234 26.2022V20.6826C225.234 20.5274 225.295 20.3924 225.409 20.271C225.524 20.1495 225.666 20.0955 225.821 20.0955H232.65C232.805 20.0955 232.94 20.1563 233.061 20.271C233.176 20.3857 233.237 20.5274 233.237 20.6826V24.9472H233.23ZM231.975 21.3034C231.975 21.2494 231.955 21.2224 231.907 21.2224H226.556C226.509 21.2224 226.489 21.2494 226.489 21.3034V24.3331C226.489 24.3871 226.509 24.4141 226.556 24.4141H231.907C231.955 24.4141 231.975 24.3871 231.975 24.3331V21.3034Z" fill="#9FA0A0"/>
</g>
<g id="Group_4">
<path id="Vector_14" d="M239.268 34.5938H67.4023V49.1622H239.268V34.5938Z" fill="#9FA0A0"/>
<g id="Group_5">
<path id="Vector_15" d="M88.1323 43.1723C88.1323 43.5907 88.0243 43.9146 87.8151 44.1508C87.606 44.3869 87.3226 44.5017 86.9649 44.5017C86.5871 44.5017 86.2969 44.4004 86.0945 44.198C85.892 43.9956 85.7908 43.6919 85.7908 43.2871H84.4683C84.4683 44.0023 84.6842 44.5624 85.116 44.9605C85.5479 45.3654 86.1619 45.561 86.9582 45.561C87.7072 45.561 88.3077 45.3451 88.7598 44.9133C89.2187 44.4814 89.4414 43.9079 89.4414 43.1723V37.8281H88.1188V43.1723H88.1323Z" fill="white"/>
<path id="Vector_16" d="M92.7347 39.791H91.4594V45.4591H92.7347V39.791Z" fill="white"/>
<path id="Vector_17" d="M92.1003 37.6387C91.8709 37.6387 91.6954 37.7062 91.5672 37.8344C91.439 37.9626 91.3783 38.1245 91.3783 38.3202C91.3783 38.5159 91.439 38.6711 91.5672 38.7993C91.6954 38.9275 91.8709 38.9882 92.1003 38.9882C92.3297 38.9882 92.5052 38.9275 92.6334 38.7993C92.7616 38.6711 92.8223 38.5091 92.8223 38.3202C92.8223 38.1313 92.7616 37.9626 92.6334 37.8344C92.5052 37.7062 92.3297 37.6387 92.1003 37.6387Z" fill="white"/>
<path id="Vector_18" d="M95.3728 37.6387C95.1433 37.6387 94.9679 37.7062 94.8397 37.8344C94.7115 37.9626 94.6508 38.1245 94.6508 38.3202C94.6508 38.5159 94.7115 38.6711 94.8397 38.7993C94.9679 38.9275 95.1433 38.9882 95.3728 38.9882C95.6022 38.9882 95.7776 38.9275 95.9058 38.7993C96.034 38.6711 96.0948 38.5091 96.0948 38.3202C96.0948 38.1313 96.034 37.9626 95.9058 37.8344C95.7776 37.7062 95.6022 37.6387 95.3728 37.6387Z" fill="white"/>
<path id="Vector_19" d="M96.0071 39.791H94.7318V45.4591H96.0071V39.791Z" fill="white"/>
<path id="Vector_20" d="M100.797 39.6826C100.116 39.6826 99.5693 39.939 99.151 40.4451L99.1172 39.7906H97.9161V45.4587H99.1915V41.4235C99.4411 40.9579 99.8257 40.7285 100.339 40.7285C100.689 40.7285 100.946 40.8162 101.101 40.9849C101.256 41.1604 101.337 41.4235 101.337 41.7812V45.4519H102.613V41.7069C102.592 40.3574 101.992 39.6826 100.811 39.6826H100.797Z" fill="white"/>
<path id="Vector_21" d="M111.675 43.6766L109.476 37.833H107.762V45.458H109.077V42.9411L108.949 39.5874L111.196 45.458H112.141L114.395 39.5807L114.266 42.9411V45.458H115.582V37.833H113.875L111.675 43.6766Z" fill="white"/>
<path id="Vector_22" d="M118.281 37.6387C118.051 37.6387 117.876 37.7062 117.748 37.8344C117.62 37.9626 117.559 38.1245 117.559 38.3202C117.559 38.5159 117.62 38.6711 117.748 38.7993C117.876 38.9275 118.051 38.9882 118.281 38.9882C118.51 38.9882 118.686 38.9275 118.814 38.7993C118.942 38.6711 119.003 38.5091 119.003 38.3202C119.003 38.1313 118.942 37.9626 118.814 37.8344C118.686 37.7062 118.51 37.6387 118.281 37.6387Z" fill="white"/>
<path id="Vector_23" d="M118.922 39.791H117.647V45.4591H118.922V39.791Z" fill="white"/>
<path id="Vector_24" d="M123.707 39.6826C123.025 39.6826 122.479 39.939 122.06 40.4451L122.027 39.7906H120.825V45.4587H122.101V41.4235C122.35 40.9579 122.735 40.7285 123.248 40.7285C123.599 40.7285 123.855 40.8162 124.01 40.9849C124.166 41.1604 124.247 41.4235 124.247 41.7812V45.4519H125.522V41.7069C125.502 40.3574 124.901 39.6826 123.72 39.6826H123.707Z" fill="white"/>
<path id="Vector_25" d="M130.906 40.3574C130.535 39.9053 130.029 39.6826 129.382 39.6826C128.7 39.6826 128.147 39.9458 127.735 40.4721C127.323 40.9984 127.114 41.7002 127.114 42.5774C127.114 43.5086 127.323 44.2373 127.749 44.7637C128.167 45.29 128.713 45.5532 129.375 45.5532C129.982 45.5532 130.475 45.3507 130.839 44.9391V45.3237C130.839 45.7691 130.718 46.1065 130.475 46.3292C130.232 46.5586 129.894 46.6733 129.476 46.6733C128.902 46.6733 128.423 46.4439 128.032 45.9783L127.431 46.7408C127.641 47.0174 127.937 47.2468 128.336 47.4155C128.734 47.591 129.139 47.672 129.55 47.672C130.333 47.672 130.96 47.456 131.419 47.0309C131.878 46.5991 132.114 46.012 132.114 45.2698V39.7771H130.967L130.913 40.3506L130.906 40.3574ZM130.839 43.8595C130.589 44.2981 130.211 44.5208 129.699 44.5208C129.287 44.5208 128.963 44.3588 128.734 44.0282C128.504 43.7043 128.383 43.2522 128.383 42.6854C128.383 42.0376 128.498 41.5517 128.734 41.2211C128.963 40.8905 129.294 40.7218 129.712 40.7218C130.225 40.7218 130.603 40.9377 130.846 41.3696V43.8595H130.839Z" fill="white"/>
<path id="Vector_26" d="M138.686 37.833H137.364V45.458H138.686V37.833Z" fill="white"/>
<path id="Vector_27" d="M143.591 39.6826C142.91 39.6826 142.363 39.939 141.945 40.4451L141.911 39.7906H140.71V45.4587H141.985V41.4235C142.235 40.9579 142.62 40.7285 143.133 40.7285C143.483 40.7285 143.74 40.8162 143.895 40.9849C144.05 41.1604 144.131 41.4235 144.131 41.7812V45.4519H145.407V41.7069C145.386 40.3574 144.786 39.6826 143.605 39.6826H143.591Z" fill="white"/>
<path id="Vector_28" d="M150.684 40.3098C150.313 39.8915 149.827 39.6823 149.227 39.6823C148.545 39.6823 148.005 39.9454 147.6 40.4785C147.195 41.0116 146.993 41.7066 146.993 42.5838C146.993 43.5015 147.195 44.2303 147.607 44.7633C148.019 45.2964 148.552 45.5663 149.22 45.5663C149.888 45.5663 150.36 45.3369 150.745 44.8713L150.806 45.4584H151.959V37.415H150.684V40.3166V40.3098ZM150.684 43.8254C150.441 44.291 150.063 44.5204 149.544 44.5204C149.139 44.5204 148.822 44.3585 148.599 44.0346C148.376 43.7107 148.268 43.2653 148.268 42.685C148.268 42.0305 148.383 41.5379 148.606 41.2073C148.828 40.8834 149.146 40.7147 149.557 40.7147C150.077 40.7147 150.455 40.9441 150.691 41.3962V43.8187L150.684 43.8254Z" fill="white"/>
<path id="Vector_29" d="M157.209 43.8579C156.993 44.3032 156.575 44.5259 155.961 44.5259C155.347 44.5259 155.063 44.1683 155.063 43.4463V39.789H153.788V43.4598C153.788 44.1413 153.943 44.6609 154.26 45.0185C154.577 45.3761 155.043 45.5583 155.657 45.5583C156.345 45.5583 156.878 45.3356 157.25 44.897L157.283 45.4503H158.484V39.7822H157.209V43.8511V43.8579Z" fill="white"/>
<path id="Vector_30" d="M163.903 42.5233C163.619 42.3749 163.228 42.2399 162.729 42.132C162.229 42.024 161.899 41.916 161.737 41.8013C161.575 41.6866 161.494 41.5382 161.494 41.3492C161.494 41.1333 161.581 40.9579 161.757 40.8296C161.932 40.7014 162.162 40.634 162.438 40.634C162.742 40.634 162.978 40.7149 163.16 40.8769C163.343 41.0388 163.43 41.2413 163.43 41.4842H164.706C164.706 40.9511 164.496 40.5125 164.078 40.1819C163.66 39.8445 163.113 39.6758 162.438 39.6758C161.804 39.6758 161.278 39.8377 160.866 40.1684C160.455 40.499 160.245 40.9039 160.245 41.3965C160.245 41.9768 160.563 42.4221 161.197 42.7325C161.487 42.8742 161.845 42.9889 162.283 43.0767C162.715 43.1711 163.025 43.2723 163.214 43.3938C163.403 43.5153 163.498 43.6839 163.498 43.9134C163.498 44.1226 163.41 44.2845 163.235 44.4127C163.059 44.5409 162.803 44.6016 162.472 44.6016C162.142 44.6016 161.851 44.5207 161.642 44.3587C161.433 44.1968 161.318 43.9674 161.305 43.6637H160.07C160.07 44.0011 160.171 44.3182 160.374 44.6084C160.576 44.8985 160.859 45.1347 161.224 45.3034C161.588 45.4721 162 45.5531 162.465 45.5531C163.147 45.5531 163.7 45.3979 164.125 45.0807C164.55 44.7636 164.76 44.352 164.76 43.8391C164.76 43.5355 164.692 43.2791 164.55 43.0632C164.416 42.8472 164.2 42.665 163.916 42.5166L163.903 42.5233Z" fill="white"/>
<path id="Vector_31" d="M168.106 44.3656C168.019 44.2711 167.978 44.1159 167.978 43.9V40.7353H168.977V39.7906H167.978V38.4141H166.703V39.7906H165.772V40.7353H166.703V43.9472C166.703 45.0269 167.189 45.5667 168.167 45.5667C168.437 45.5667 168.714 45.5262 169.004 45.4452V44.4601C168.855 44.4938 168.707 44.514 168.559 44.514C168.336 44.514 168.187 44.4668 168.1 44.3723L168.106 44.3656Z" fill="white"/>
<path id="Vector_32" d="M171.73 40.425L171.696 39.7907H170.481V45.4588H171.757V41.5856C171.959 41.1402 172.35 40.9175 172.938 40.9175C173.113 40.9175 173.288 40.931 173.457 40.958V39.7637C173.342 39.7164 173.194 39.6895 173.012 39.6895C172.465 39.6895 172.04 39.9324 171.736 40.4317L171.73 40.425Z" fill="white"/>
<path id="Vector_33" d="M176.778 43.6372L175.577 39.791H174.207L176.197 45.4254L176.015 45.9112C175.921 46.1879 175.793 46.3836 175.631 46.4983C175.469 46.613 175.226 46.6737 174.909 46.6737L174.666 46.6602V47.6522C174.888 47.7129 175.091 47.7466 175.28 47.7466C176.11 47.7466 176.697 47.2675 177.041 46.3161L179.295 39.791H177.938L176.785 43.6372H176.778Z" fill="white"/>
<path id="Vector_34" d="M185.449 39.427C185.759 39.0086 186.198 38.7927 186.778 38.7927C187.271 38.7927 187.648 38.9142 187.905 39.1571C188.161 39.4 188.323 39.7981 188.384 40.3447H189.707C189.626 39.508 189.322 38.8669 188.809 38.4081C188.296 37.956 187.621 37.7266 186.778 37.7266C186.15 37.7266 185.604 37.875 185.125 38.1719C184.646 38.4688 184.281 38.8939 184.025 39.4405C183.768 39.9871 183.64 40.6213 183.64 41.3434V42.0586C183.654 42.7604 183.782 43.3744 184.032 43.9075C184.281 44.4406 184.639 44.8454 185.105 45.1356C185.57 45.4258 186.103 45.5675 186.71 45.5675C187.581 45.5675 188.276 45.338 188.802 44.8859C189.329 44.4338 189.626 43.7928 189.7 42.9831H188.377C188.31 43.5296 188.141 43.9143 187.878 44.1504C187.615 44.3866 187.223 44.5013 186.704 44.5013C186.137 44.5013 185.705 44.2854 185.408 43.8535C185.111 43.4217 184.963 42.7941 184.963 41.9642V41.2894C184.963 40.4729 185.125 39.8589 185.435 39.4337L185.449 39.427Z" fill="white"/>
<path id="Vector_35" d="M195.55 40.4249C195.07 39.9323 194.45 39.6826 193.687 39.6826C193.168 39.6826 192.715 39.8041 192.317 40.0402C191.919 40.2764 191.609 40.6206 191.393 41.0659C191.177 41.5113 191.062 42.0106 191.062 42.5639V42.6246C191.062 43.5086 191.305 44.2239 191.784 44.7569C192.263 45.29 192.904 45.5532 193.701 45.5532C194.227 45.5532 194.686 45.4317 195.084 45.1888C195.482 44.9459 195.792 44.6085 196.008 44.1699C196.224 43.7313 196.332 43.2319 196.332 42.6719V42.375C196.285 41.5585 196.029 40.9107 195.556 40.4181L195.55 40.4249ZM194.699 44.0417C194.463 44.3791 194.126 44.5477 193.694 44.5477C193.262 44.5477 192.931 44.3791 192.688 44.0552C192.446 43.7245 192.324 43.2657 192.324 42.6854C192.324 42.0308 192.446 41.5382 192.688 41.2076C192.931 40.877 193.262 40.715 193.68 40.715C194.099 40.715 194.436 40.8837 194.686 41.2211C194.929 41.5585 195.057 42.0106 195.057 42.5842C195.057 43.2319 194.935 43.7178 194.699 44.0552V44.0417Z" fill="white"/>
<path id="Vector_36" d="M198.735 44.1152C198.498 44.1152 198.316 44.1827 198.188 44.3177C198.06 44.4526 197.992 44.6213 197.992 44.8238C197.992 45.0262 198.06 45.1949 198.188 45.3231C198.323 45.4513 198.498 45.5188 198.728 45.5188C198.964 45.5188 199.146 45.4513 199.281 45.3231C199.409 45.1949 199.477 45.0262 199.477 44.8305C199.477 44.6348 199.409 44.4594 199.281 44.3244C199.153 44.1895 198.971 44.122 198.728 44.122L198.735 44.1152Z" fill="white"/>
<path id="Vector_37" d="M206.131 37.833H204.801V45.458H209.592V44.3986H206.131V37.833Z" fill="white"/>
<path id="Vector_38" d="M212.743 44.3656C212.655 44.2711 212.614 44.1159 212.614 43.9V40.7353H213.613V39.7906H212.614V38.4141H211.339V39.7906H210.408V40.7353H211.339V43.9472C211.339 45.0269 211.825 45.5667 212.803 45.5667C213.073 45.5667 213.35 45.5262 213.64 45.4452V44.4601C213.492 44.4938 213.343 44.514 213.195 44.514C212.972 44.514 212.824 44.4668 212.736 44.3723L212.743 44.3656Z" fill="white"/>
<path id="Vector_39" d="M218.572 40.3098C218.201 39.8915 217.716 39.6823 217.115 39.6823C216.433 39.6823 215.894 39.9454 215.489 40.4785C215.084 41.0116 214.881 41.7066 214.881 42.5838C214.881 43.5015 215.084 44.2303 215.495 44.7633C215.907 45.2964 216.44 45.5663 217.108 45.5663C217.776 45.5663 218.249 45.3369 218.633 44.8713L218.694 45.4584H219.848V37.415H218.572V40.3166V40.3098ZM218.572 43.8254C218.33 44.291 217.952 44.5204 217.432 44.5204C217.027 44.5204 216.71 44.3585 216.487 44.0346C216.265 43.7107 216.157 43.2653 216.157 42.685C216.157 42.0305 216.271 41.5379 216.494 41.2073C216.717 40.8834 217.034 40.7147 217.446 40.7147C217.965 40.7147 218.343 40.9441 218.579 41.3962V43.8187L218.572 43.8254Z" fill="white"/>
<path id="Vector_40" d="M223.053 44.3177C222.925 44.1827 222.743 44.1152 222.5 44.1152C222.257 44.1152 222.081 44.1827 221.953 44.3177C221.825 44.4526 221.758 44.6213 221.758 44.8238C221.758 45.0262 221.825 45.1949 221.953 45.3231C222.088 45.4513 222.264 45.5188 222.493 45.5188C222.729 45.5188 222.911 45.4513 223.046 45.3231C223.175 45.1949 223.242 45.0262 223.242 44.8305C223.242 44.6348 223.175 44.4594 223.046 44.3244L223.053 44.3177Z" fill="white"/>
<path id="Vector_41" d="M200.88 45.2369C200.88 45.4865 200.84 45.7294 200.759 45.9656C200.685 46.2018 200.543 46.4852 200.341 46.8023L201.036 47.214C201.326 46.971 201.569 46.6606 201.751 46.2828C201.933 45.9049 202.028 45.5338 202.034 45.1559V44.2314H200.88V45.2301V45.2369Z" fill="white"/>
</g>
</g>
</g>
</svg>
